g gate-07-c-neon-lod2
v -0.01360695 -1.156245 2.695795
v -0.01360705 1.154029 2.652489
v -0.01360705 1.153951 2.699625
v -0.01360695 -1.156167 2.648659
v 0.02721395 1.15399 2.676057
v 0.02721405 -1.156206 2.672226
v -0.01360705 1.153951 2.699625
v -0.01360695 -1.156245 2.695795
vt 0.6846812 0.7805632
vt 0.9978197 0.7870077
vt 0.9978197 0.7805632
vt 0.6846812 0.7870077
vt 0.9978197 0.7934519
vt 0.6846812 0.7934519
vt 0.9978197 0.7996801
vt 0.6846814 0.7996801
vn -0.5000018 -0.001435814 0.8660232
vn -0.5000017 0.001435771 -0.8660232
vn -0.5000001 -0.001435816 0.8660242
vn -0.5 0.001435773 -0.8660242
vn 1 0 1.973165E-06
vn 1 0 -2.200838E-06
vn -0.5000001 -0.001435816 0.8660242
vn -0.5000018 -0.001435814 0.8660232
g gate-07-c-neon-lod2_0
f 3/3/3 2/2/2 1/1/1
f 2/2/2 4/4/4 1/1/1
f 2/2/2 5/5/5 4/4/4
f 5/5/5 6/6/6 4/4/4
f 5/5/5 7/7/7 6/6/6
f 7/7/7 8/8/8 6/6/6
