g gate-11-neon-lod2
v -1.439473 0.1357395 2.507869
v -1.431993 0.1486907 2.507869
v -1.431992 0.1486914 0.2535647
v -1.439473 0.1357401 0.2535647
v -1.454429 0.1357375 2.507869
v -1.454429 0.1357386 0.2535647
v -1.461908 0.1486911 2.507869
v -1.461908 0.1486917 0.2535647
v -1.454428 0.1616445 2.507869
v -1.454428 0.1616446 0.2535647
v -1.439473 0.161646 2.507869
v -1.439472 0.1616468 0.2535647
v -1.431992 0.1486914 0.2535647
v -1.431993 0.1486907 2.507869
v -1.431992 -0.1486876 0.2535647
v -1.431993 -0.148687 2.507869
v -1.439473 -0.1357358 2.507869
v -1.439473 -0.1357362 0.2535647
v -1.454429 -0.1357338 2.507869
v -1.454429 -0.1357347 0.2535647
v -1.461908 -0.1486874 2.507869
v -1.461908 -0.1486879 0.2535647
v -1.454428 -0.1616408 2.507869
v -1.454428 -0.1616408 0.2535647
v -1.439473 -0.1616423 2.507869
v -1.439472 -0.1616429 0.2535647
v -1.431992 -0.1486876 0.2535647
v -1.431993 -0.148687 2.507869
v 1.436264 0.1486914 0.2535647
v 1.436265 0.1486908 2.507869
v 1.443745 0.1357395 2.507869
v 1.443744 0.13574 0.2535647
v 1.458701 0.1357376 2.507869
v 1.4587 0.1357385 0.2535647
v 1.466179 0.1486912 2.507869
v 1.466179 0.1486917 0.2535647
v 1.458699 0.1616446 2.507869
v 1.458699 0.1616445 0.2535647
v 1.443744 0.1616461 2.507869
v 1.443743 0.1616467 0.2535647
v 1.436264 0.1486914 0.2535647
v 1.436265 0.1486908 2.507869
v 1.436262 -0.1486875 0.2535649
v 1.443743 -0.1357357 2.507869
v 1.436263 -0.1486869 2.507869
v 1.443743 -0.1357361 0.2535649
v 1.458699 -0.1357337 2.507869
v 1.458699 -0.1357346 0.2535649
v 1.466177 -0.1486873 2.507869
v 1.466177 -0.1486878 0.2535649
v 1.458698 -0.1616407 2.507869
v 1.458698 -0.1616407 0.2535649
v 1.443743 -0.1616422 2.507869
v 1.443742 -0.1616428 0.2535649
v 1.436262 -0.1486875 0.2535649
v 1.436263 -0.1486869 2.507869
v 1.270007 0.1357394 2.667609
v 1.270007 0.1486906 2.660129
v -1.264297 0.1486914 2.660128
v -1.264297 0.13574 2.667609
v 1.270007 0.1357374 2.682565
v -1.264297 0.1357385 2.682565
v 1.270007 0.1486911 2.690044
v -1.264297 0.1486917 2.690044
v 1.270007 0.1616444 2.682564
v -1.264297 0.1616446 2.682564
v 1.270007 0.161646 2.667608
v -1.264297 0.1616467 2.667608
v -1.264297 0.1486914 2.660128
v 1.270007 0.1486906 2.660129
v -1.264297 -0.1486876 2.660128
v 1.270007 -0.148687 2.660129
v 1.270007 -0.1357358 2.667609
v -1.264297 -0.1357363 2.667609
v 1.270007 -0.1357338 2.682565
v -1.264297 -0.1357348 2.682565
v 1.270007 -0.1486875 2.690044
v -1.264297 -0.1486879 2.690044
v 1.270007 -0.1616408 2.682564
v -1.264297 -0.1616408 2.682564
v 1.270007 -0.1616423 2.667608
v -1.264297 -0.161643 2.667608
v -1.264297 -0.1486876 2.660128
v 1.270007 -0.148687 2.660129
vt 0.02574321 0.7640988
vt 0.02523672 0.7640985
vt 0.02523672 0.8470427
vt 0.02574321 0.8470427
vt 0.02625173 0.7640982
vt 0.02625173 0.8470424
vt 0.02675849 0.7640982
vt 0.02675825 0.8470424
vt 0.02726697 0.7640982
vt 0.02726697 0.8470424
vt 0.02777373 0.7640982
vt 0.02777346 0.8470427
vt 0.02815395 0.8470427
vt 0.02815395 0.7640982
vt 0.02523672 0.8470427
vt 0.02523672 0.7640985
vt 0.02574321 0.7640988
vt 0.02574321 0.8470427
vt 0.02625173 0.7640982
vt 0.02625173 0.8470424
vt 0.02675849 0.7640982
vt 0.02675825 0.8470424
vt 0.02726697 0.7640982
vt 0.02726697 0.8470424
vt 0.02777373 0.7640982
vt 0.02777346 0.8470427
vt 0.02815395 0.8470427
vt 0.02815395 0.7640982
vt 0.02523672 0.8470427
vt 0.02523672 0.7640985
vt 0.02574321 0.7640988
vt 0.02574321 0.8470427
vt 0.02625173 0.7640982
vt 0.02625173 0.8470424
vt 0.02675849 0.7640982
vt 0.02675825 0.8470424
vt 0.02726697 0.7640982
vt 0.02726697 0.8470424
vt 0.02777373 0.7640982
vt 0.02777346 0.8470427
vt 0.02815395 0.8470427
vt 0.02815395 0.7640982
vt 0.02523672 0.8470427
vt 0.02574321 0.7640988
vt 0.02523672 0.7640985
vt 0.02574321 0.8470427
vt 0.02625173 0.7640982
vt 0.02625173 0.8470424
vt 0.02675849 0.7640982
vt 0.02675825 0.8470424
vt 0.02726697 0.7640982
vt 0.02726697 0.8470424
vt 0.02777373 0.7640982
vt 0.02777346 0.8470427
vt 0.02815395 0.8470427
vt 0.02815395 0.7640982
vt 0.02574321 0.7640988
vt 0.02523672 0.7640985
vt 0.02523672 0.8470427
vt 0.02574321 0.8470427
vt 0.02625173 0.7640982
vt 0.02625173 0.8470424
vt 0.02675849 0.7640982
vt 0.02675825 0.8470424
vt 0.02726697 0.7640982
vt 0.02726697 0.8470424
vt 0.02777373 0.7640982
vt 0.02777346 0.8470427
vt 0.02815395 0.8470427
vt 0.02815395 0.7640982
vt 0.02523672 0.8470427
vt 0.02523672 0.7640985
vt 0.02574321 0.7640988
vt 0.02574321 0.8470427
vt 0.02625173 0.7640982
vt 0.02625173 0.8470424
vt 0.02675849 0.7640982
vt 0.02675825 0.8470424
vt 0.02726697 0.7640982
vt 0.02726697 0.8470424
vt 0.02777373 0.7640982
vt 0.02777346 0.8470427
vt 0.02815395 0.8470427
vt 0.02815395 0.7640982
vn 0.4999745 -0.8660402 -1.678068E-07
vn 1 -9.004569E-05 3.146163E-07
vn 1 -8.982664E-05 3.146164E-07
vn 0.4999746 -0.8660401 -1.678068E-07
vn -0.4999574 -0.8660501 -3.915047E-07
vn -0.4999574 -0.86605 -3.915046E-07
vn -1 4.013566E-05 -1.281526E-07
vn -1 4.031092E-05 -1.281525E-07
vn -0.5000262 0.8660102 1.583086E-07
vn -0.5000263 0.8660102 1.583086E-07
vn 0.4999487 0.866055 3.77414E-07
vn 0.4999487 0.866055 3.77414E-07
vn 1 -8.982664E-05 3.146164E-07
vn 1 -9.004569E-05 3.146163E-07
vn 1 8.958564E-05 3.164449E-07
vn 1 8.976089E-05 3.164449E-07
vn 0.4999745 0.8660401 -1.078372E-07
vn 0.4999747 0.86604 -1.078371E-07
vn -0.4999574 0.86605 -3.314776E-07
vn -0.4999574 0.86605 -3.314776E-07
vn -1 -4.035475E-05 -1.263022E-07
vn -1 -4.04862E-05 -1.263022E-07
vn -0.5000261 -0.8660103 1.074643E-07
vn -0.5000262 -0.8660102 1.074643E-07
vn 0.4999484 -0.8660552 3.265934E-07
vn 0.4999485 -0.8660552 3.265934E-07
vn 1 8.958564E-05 3.164449E-07
vn 1 8.976089E-05 3.164449E-07
vn -1 -8.984856E-05 3.125283E-07
vn -1 -9.002381E-05 3.125282E-07
vn -0.4999745 -0.8660402 -1.08794E-07
vn -0.4999745 -0.8660401 -1.087939E-07
vn 0.4999574 -0.86605 -3.315542E-07
vn 0.4999574 -0.86605 -3.315541E-07
vn 1 4.015757E-05 -1.281265E-07
vn 1 4.028902E-05 -1.281265E-07
vn 0.5000263 0.8660102 0
vn 0.5000264 0.8660102 0
vn -0.4999486 0.8660551 3.163061E-07
vn -0.4999486 0.8660551 3.163061E-07
vn -1 -8.984856E-05 3.125283E-07
vn -1 -9.002381E-05 3.125282E-07
vn -1 8.962948E-05 3.143399E-07
vn -0.4999745 0.8660402 -1.088961E-07
vn -1 8.980473E-05 3.143399E-07
vn -0.4999745 0.8660401 -1.08896E-07
vn 0.4999574 0.86605 -3.314776E-07
vn 0.4999574 0.86605 -3.314776E-07
vn 1 -4.035475E-05 -1.263022E-07
vn 1 -4.048619E-05 -1.263022E-07
vn 0.5000261 -0.8660103 1.074644E-07
vn 0.5000262 -0.8660102 1.074643E-07
vn -0.4999484 -0.8660553 3.255473E-07
vn -0.4999484 -0.8660553 3.255474E-07
vn -1 8.962948E-05 3.143399E-07
vn -1 8.980473E-05 3.143399E-07
vn -1.791064E-07 -0.8660402 -0.4999745
vn 2.18849E-07 -9.022097E-05 -1
vn 2.188491E-07 -9.002382E-05 -1
vn -1.791063E-07 -0.8660401 -0.4999746
vn -3.174335E-07 -0.86605 0.4999574
vn -3.174335E-07 -0.8660499 0.4999575
vn 0 4.013566E-05 1
vn 0 4.028901E-05 1
vn 1.756595E-07 0.8660102 0.5000265
vn 1.756595E-07 0.8660101 0.5000264
vn 3.088982E-07 0.866055 -0.4999487
vn 3.088982E-07 0.866055 -0.4999487
vn 2.188491E-07 -9.002382E-05 -1
vn 2.18849E-07 -9.022097E-05 -1
vn 2.193977E-07 8.962947E-05 -1
vn 2.193976E-07 8.978281E-05 -1
vn -1.269629E-07 0.8660402 -0.4999745
vn -1.269629E-07 0.8660401 -0.4999745
vn -2.647512E-07 0.8660501 0.4999573
vn -2.647511E-07 0.86605 0.4999574
vn 0 -4.033284E-05 1
vn 0 -4.044238E-05 1
vn 1.256996E-07 -0.8660103 0.5000261
vn 1.256996E-07 -0.8660102 0.5000262
vn 2.594697E-07 -0.8660553 -0.4999484
vn 2.594697E-07 -0.8660552 -0.4999484
vn 2.193977E-07 8.962947E-05 -1
vn 2.193976E-07 8.978281E-05 -1
g gate-11-neon-lod2_0
f 3/3/3 2/2/2 1/1/1
f 4/4/4 3/3/3 1/1/1
f 4/4/4 1/1/1 5/5/5
f 6/6/6 4/4/4 5/5/5
f 6/6/6 5/5/5 7/7/7
f 8/8/8 6/6/6 7/7/7
f 8/8/8 7/7/7 9/9/9
f 10/10/10 8/8/8 9/9/9
f 10/10/10 9/9/9 11/11/11
f 12/12/12 10/10/10 11/11/11
f 12/12/12 11/11/11 13/13/13
f 11/11/11 14/14/14 13/13/13
f 17/17/17 16/16/16 15/15/15
f 18/18/18 17/17/17 15/15/15
f 19/19/19 17/17/17 18/18/18
f 20/20/20 19/19/19 18/18/18
f 21/21/21 19/19/19 20/20/20
f 22/22/22 21/21/21 20/20/20
f 23/23/23 21/21/21 22/22/22
f 24/24/24 23/23/23 22/22/22
f 25/25/25 23/23/23 24/24/24
f 26/26/26 25/25/25 24/24/24
f 26/26/26 27/27/27 25/25/25
f 27/27/27 28/28/28 25/25/25
f 31/31/31 30/30/30 29/29/29
f 32/32/32 31/31/31 29/29/29
f 33/33/33 31/31/31 32/32/32
f 34/34/34 33/33/33 32/32/32
f 35/35/35 33/33/33 34/34/34
f 36/36/36 35/35/35 34/34/34
f 37/37/37 35/35/35 36/36/36
f 38/38/38 37/37/37 36/36/36
f 39/39/39 37/37/37 38/38/38
f 40/40/40 39/39/39 38/38/38
f 40/40/40 41/41/41 39/39/39
f 41/41/41 42/42/42 39/39/39
f 45/45/45 44/44/44 43/43/43
f 44/44/44 46/46/46 43/43/43
f 44/44/44 47/47/47 46/46/46
f 47/47/47 48/48/48 46/46/46
f 47/47/47 49/49/49 48/48/48
f 49/49/49 50/50/50 48/48/48
f 49/49/49 51/51/51 50/50/50
f 51/51/51 52/52/52 50/50/50
f 51/51/51 53/53/53 52/52/52
f 53/53/53 54/54/54 52/52/52
f 55/55/55 54/54/54 53/53/53
f 56/56/56 55/55/55 53/53/53
f 59/59/59 58/58/58 57/57/57
f 60/60/60 59/59/59 57/57/57
f 60/60/60 57/57/57 61/61/61
f 62/62/62 60/60/60 61/61/61
f 62/62/62 61/61/61 63/63/63
f 64/64/64 62/62/62 63/63/63
f 64/64/64 63/63/63 65/65/65
f 66/66/66 64/64/64 65/65/65
f 66/66/66 65/65/65 67/67/67
f 68/68/68 66/66/66 67/67/67
f 68/68/68 67/67/67 69/69/69
f 67/67/67 70/70/70 69/69/69
f 73/73/73 72/72/72 71/71/71
f 74/74/74 73/73/73 71/71/71
f 75/75/75 73/73/73 74/74/74
f 76/76/76 75/75/75 74/74/74
f 77/77/77 75/75/75 76/76/76
f 78/78/78 77/77/77 76/76/76
f 79/79/79 77/77/77 78/78/78
f 80/80/80 79/79/79 78/78/78
f 81/81/81 79/79/79 80/80/80
f 82/82/82 81/81/81 80/80/80
f 82/82/82 83/83/83 81/81/81
f 83/83/83 84/84/84 81/81/81
