g gate-drl-30-trigger
v 1.461198 0.9759837 -2.950742
v -1.461198 0.9759842 -2.950743
v -1.461198 1.910228 -0.3843979
v 1.461198 1.910228 -0.3843976
v 1.461198 1.168631 -2.950742
v 1.461198 2.102875 -0.3843976
v -1.461198 2.102875 -0.3843979
v -1.461198 1.168632 -2.950743
v 1.461198 1.168631 -2.950742
v 1.461198 0.9759837 -2.950742
v 1.461198 1.910228 -0.3843976
v 1.461198 2.102875 -0.3843976
v -1.461198 0.9759842 -2.950743
v 1.461198 0.9759837 -2.950742
v 1.461198 1.168631 -2.950742
v -1.461198 1.168632 -2.950743
v -1.461198 1.168632 -2.950743
v -1.461198 2.102875 -0.3843979
v -1.461198 1.910228 -0.3843979
v -1.461198 0.9759842 -2.950743
v 1.461198 2.102875 -0.3843976
v -1.461198 1.910228 -0.3843979
v -1.461198 2.102875 -0.3843979
v 1.461198 1.910228 -0.3843976
vt 0 0
vt 1 1
vt 1 0.5195338
vt 0.4804662 0
vt 1 0
vt 0.5195338 0
vt 0 0.5195338
vt 0 1
vt 1 1
vt 1 0
vt 0.5195338 0
vt 0.5195338 1
vt 1 -1.26854E-06
vt 0 0
vt 0 1
vt 1 0.9999987
vt 0 1
vt 0.4804662 1
vt 0.4804662 0
vt 0 0
vt 9.297249 0.9999868
vt 0.4804662 0
vt 0.4804662 1
vt 9.297249 -1.319178E-05
vn 0 -0.9396725 0.3420754
vn 0 -0.9396725 0.3420754
vn 0 -0.9396725 0.3420754
vn 0 -0.9396725 0.3420754
vn 0 0.9396725 -0.3420755
vn 0 0.9396725 -0.3420755
vn 0 0.9396725 -0.3420755
vn 0 0.9396725 -0.3420755
vn 0.7739668 0 -0.6332262
vn 0.6139223 0 -0.7893664
vn 1 0 0
vn 1 0 0
vn -0.6139221 0 -0.7893667
vn 0.6139223 0 -0.7893664
vn 0.7739668 0 -0.6332262
vn -0.7739668 0 -0.6332262
vn -0.7739668 0 -0.6332262
vn -1 0 0
vn -1 0 0
vn -0.6139221 0 -0.7893667
vn 0 0 1
vn 0 0 1
vn 0 0 1
vn 0 0 1
g gate-drl-30-trigger_0
f 3/3/3 2/2/2 1/1/1
f 1/1/1 4/4/4 3/3/3
f 7/7/7 6/6/6 5/5/5
f 5/5/5 8/8/8 7/7/7
f 11/11/11 10/10/10 9/9/9
f 9/9/9 12/12/12 11/11/11
f 15/15/15 14/14/14 13/13/13
f 13/13/13 16/16/16 15/15/15
f 19/19/19 18/18/18 17/17/17
f 17/17/17 20/20/20 19/19/19
f 23/23/23 22/22/22 21/21/21
f 22/22/22 24/24/24 21/21/21
