g gate-drl-45-eagle-02-lod2
v -0.03039649 0.1826003 1.086331
v -0.1100048 0.1826003 1.051698
v 0.1447035 0.1826003 1.086331
v -0.1448965 0.1826003 0.9718308
v 0.1447035 0.1826015 0.01763082
v -0.1448965 0.1826015 0.01763082
v 0.1622035 -0.1903987 3.0756E-05
v 0.1622035 -0.1903987 1.103831
v 0.1622035 0.1905003 1.103831
v 0.1622035 0.1905015 3.0756E-05
v -0.1623965 -0.1903987 3.0756E-05
v 0.1622035 -0.1903987 3.0756E-05
v 0.1622035 0.1905015 3.0756E-05
v -0.1623965 0.1905015 3.0756E-05
v -0.1623965 -0.1903987 0.9719307
v -0.1623965 -0.1903987 3.0756E-05
v -0.1623965 0.1905015 3.0756E-05
v -0.1623965 0.1905003 0.9719307
v -0.1208798 0.1905003 1.062589
v -0.1208798 -0.1903987 1.062589
v -0.03049648 0.1905003 1.103831
v -0.03049648 -0.1903987 1.103831
v 0.1622035 0.1905003 1.103831
v 0.1622035 -0.1903987 1.103831
v 0.1447035 -0.1823978 1.086331
v -0.1100048 -0.1823978 1.051698
v -0.03039649 -0.1823978 1.086331
v -0.1448965 -0.1823978 0.9718308
v 0.1447035 -0.1823988 0.01763082
v -0.1448965 -0.1823988 0.01763082
v 0.1622035 0.1905015 3.0756E-05
v -0.1448965 0.1826015 0.01763082
v -0.1623965 0.1905015 3.0756E-05
v -0.1623965 0.1905003 0.9719307
v 0.1447035 0.1826015 0.01763082
v -0.1448965 0.1826003 0.9718308
v 0.1622035 0.1905003 1.103831
v -0.1100048 0.1826003 1.051698
v 0.1447035 0.1826003 1.086331
v -0.1208798 0.1905003 1.062589
v -0.03049648 0.1905003 1.103831
v -0.03039649 0.1826003 1.086331
v -0.1623965 -0.1903987 0.9719307
v -0.1100048 -0.1823978 1.051698
v -0.1448965 -0.1823978 0.9718308
v -0.1448965 -0.1823988 0.01763082
v -0.1208798 -0.1903987 1.062589
v -0.1623965 -0.1903987 3.0756E-05
v -0.03039649 -0.1823978 1.086331
v 0.1622035 -0.1903987 3.0756E-05
v -0.03049648 -0.1903987 1.103831
v 0.1447035 -0.1823988 0.01763082
v 0.1447035 -0.1823978 1.086331
v 0.1622035 -0.1903987 1.103831
vt 0.246979 0.935088
vt 0.2404064 0.9501896
vt 0.246979 0.901943
vt 0.225263 0.956804
vt 0.044422 0.901943
vt 0.044422 0.956804
vt 0.230978 0.332111
vt 0.230978 0.122951
vt 0.303112 0.122951
vt 0.303112 0.332111
vt 0.397912 0.440144
vt 0.397912 0.378678
vt 0.470171 0.378678
vt 0.470171 0.440144
vt 0.750367 0.746537
vt 0.93451 0.746537
vt 0.93451 0.818669
vt 0.750367 0.818669
vt 0.7296672 0.818669
vt 0.7296671 0.7465371
vt 0.709094 0.818669
vt 0.709094 0.746537
vt 0.672647 0.818669
vt 0.672647 0.746537
vt 0.246979 0.901943
vt 0.2404064 0.9501896
vt 0.246979 0.935088
vt 0.225263 0.956804
vt 0.044422 0.901943
vt 0.044422 0.956804
vt 0.481412 0.389156
vt 0.539576 0.385854
vt 0.543006 0.389156
vt 0.543006 0.205013
vt 0.484714 0.385854
vt 0.539704 0.205013
vt 0.481412 0.179995
vt 0.5330467 0.1898905
vt 0.484714 0.183298
vt 0.5351211 0.1878057
vt 0.517987 0.179995
vt 0.517987 0.183298
vt 0.543006 0.205013
vt 0.5330467 0.1898905
vt 0.539704 0.205013
vt 0.539576 0.385854
vt 0.5351211 0.1878057
vt 0.543006 0.389156
vt 0.517987 0.183298
vt 0.481412 0.389156
vt 0.517987 0.179995
vt 0.484714 0.385854
vt 0.484714 0.183298
vt 0.481412 0.179995
vn 0.05993374 0.9686791 -0.2409743
vn 0.1931481 0.9619187 -0.1934069
vn -0.1601181 0.9740248 -0.1601185
vn 0.2410304 0.9686494 -0.06018911
vn -0.1602689 0.9741582 0.1591531
vn 0.1602689 0.9741582 0.1591531
vn 1 0 0
vn 1 0 0
vn 1 0 0
vn 1 0 0
vn 0 0 -1
vn 0 0 -1
vn 0 0 -1
vn 0 0 -1
vn -0.9770359 0 0.2130744
vn -1 0 0
vn -1 0 0
vn -0.9770359 0 0.2130743
vn -0.7066239 0 0.7075893
vn -0.7066239 0 0.7075893
vn -0.2124074 0 0.9771812
vn -0.2124074 0 0.9771812
vn 0 0 1
vn 0 0 1
vn -0.161937 -0.9734218 -0.1619456
vn 0.195186 -0.9610946 -0.1954476
vn 0.06055256 -0.9679918 -0.2435678
vn 0.2436188 -0.9679629 -0.06081063
vn -0.162088 -0.9735609 0.1609552
vn 0.1620882 -0.9735609 0.1609552
vn -0.2143059 0.9528938 0.2146308
vn 0.1602689 0.9741582 0.1591531
vn 0.2143057 0.9528938 0.214631
vn 0.4174147 0.9050366 -0.08169246
vn -0.1602689 0.9741582 0.1591531
vn 0.2410304 0.9686494 -0.06018911
vn -0.2150257 0.9526429 -0.2150248
vn 0.1931481 0.9619187 -0.1934069
vn -0.1601181 0.9740248 -0.1601185
vn 0.3086734 0.8995429 -0.3091007
vn 0.08145288 0.9050313 -0.4174729
vn 0.05993374 0.9686791 -0.2409743
vn 0.4217533 -0.9029448 -0.08255234
vn 0.195186 -0.9610946 -0.1954476
vn 0.2436188 -0.9679629 -0.06081063
vn 0.1620882 -0.9735609 0.1609552
vn 0.3118503 -0.8973458 -0.3122821
vn 0.2167737 -0.9517776 0.2170911
vn 0.06055256 -0.9679918 -0.2435678
vn -0.2167736 -0.9517777 0.2170909
vn 0.08230973 -0.9029342 -0.4218235
vn -0.162088 -0.9735609 0.1609552
vn -0.161937 -0.9734218 -0.1619456
vn -0.2175011 -0.9515157 -0.2175113
g gate-drl-45-eagle-02-lod2_0
f 3/3/3 2/2/2 1/1/1
f 4/4/4 2/2/2 3/3/3
f 4/4/4 3/3/3 5/5/5
f 6/6/6 4/4/4 5/5/5
f 9/9/9 8/8/8 7/7/7
f 10/10/10 9/9/9 7/7/7
f 13/13/13 12/12/12 11/11/11
f 14/14/14 13/13/13 11/11/11
f 17/17/17 16/16/16 15/15/15
f 18/18/18 17/17/17 15/15/15
f 18/18/18 15/15/15 19/19/19
f 15/15/15 20/20/20 19/19/19
f 19/19/19 20/20/20 21/21/21
f 20/20/20 22/22/22 21/21/21
f 21/21/21 22/22/22 23/23/23
f 22/22/22 24/24/24 23/23/23
f 27/27/27 26/26/26 25/25/25
f 26/26/26 28/28/28 25/25/25
f 29/29/29 25/25/25 28/28/28
f 30/30/30 29/29/29 28/28/28
f 33/33/33 32/32/32 31/31/31
f 33/33/33 34/34/34 32/32/32
f 32/32/32 35/35/35 31/31/31
f 34/34/34 36/36/36 32/32/32
f 31/31/31 35/35/35 37/37/37
f 38/38/38 36/36/36 34/34/34
f 35/35/35 39/39/39 37/37/37
f 40/40/40 38/38/38 34/34/34
f 37/37/37 39/39/39 41/41/41
f 42/42/42 38/38/38 40/40/40
f 41/41/41 42/42/42 40/40/40
f 39/39/39 42/42/42 41/41/41
f 45/45/45 44/44/44 43/43/43
f 45/45/45 43/43/43 46/46/46
f 44/44/44 47/47/47 43/43/43
f 43/43/43 48/48/48 46/46/46
f 44/44/44 49/49/49 47/47/47
f 46/46/46 48/48/48 50/50/50
f 49/49/49 51/51/51 47/47/47
f 52/52/52 46/46/46 50/50/50
f 49/49/49 53/53/53 51/51/51
f 52/52/52 50/50/50 54/54/54
f 53/53/53 54/54/54 51/51/51
f 53/53/53 52/52/52 54/54/54
