g gate-drl-23-b-trigger
v 1.398769 0.04549485 4.397374
v -1.398769 0.04549503 4.397374
v 1.398769 0.04549491 1.684138
v -1.398769 0.04549511 1.684138
v 1.398769 -0.04549512 4.397374
v 1.398769 -0.04549503 1.684138
v -1.398769 -0.04549493 4.397374
v -1.398769 -0.04549485 1.684138
v -1.398769 -0.04549485 1.684138
v -1.398769 0.04549503 4.397374
v -1.398769 -0.04549493 4.397374
v -1.398769 0.04549511 1.684138
v -1.398769 -0.04549485 1.684138
v 1.398769 -0.04549503 1.684138
v 1.398769 0.04549491 1.684138
v -1.398769 0.04549511 1.684138
v 1.398769 0.04549485 4.397374
v 1.398769 0.04549491 1.684138
v 1.398769 -0.04549503 1.684138
v 1.398769 -0.04549512 4.397374
v 1.398769 0.04549485 4.397374
v -1.398769 -0.04549493 4.397374
v -1.398769 0.04549503 4.397374
v 1.398769 -0.04549512 4.397374
vt 1 1
vt 1 0
vt 0 1
vt 0 0
vt 0 1
vt 1 1
vt 0 0
vt 1 0
vt 1 1
vt 0 0
vt 0 1
vt 1 0
vt 0 1
vt 1 1
vt 1 0
vt 0 0
vt 1 0
vt 0 0
vt 0 1
vt 1 1
vt 0 0
vt 1 1
vt 1 0
vt 0 1
vn 0 1 0
vn 0 1 0
vn 0 1 0
vn 0 1 0
vn 0 -1 0
vn 0 -1 0
vn 0 -1 0
vn 0 -1 0
vn -1 0 0
vn -1 0 0
vn -1 0 0
vn -1 0 0
vn 0 0 -1
vn 0 0 -1
vn 0 0 -1
vn 0 0 -1
vn 1 0 0
vn 1 0 0
vn 1 0 0
vn 1 0 0
vn 0 0 1
vn 0 0 1
vn 0 0 1
vn 0 0 1
g gate-drl-23-b-trigger_0
f 3/3/3 2/2/2 1/1/1
f 3/3/3 4/4/4 2/2/2
f 7/7/7 6/6/6 5/5/5
f 8/8/8 6/6/6 7/7/7
f 11/11/11 10/10/10 9/9/9
f 12/12/12 9/9/9 10/10/10
f 15/15/15 14/14/14 13/13/13
f 13/13/13 16/16/16 15/15/15
f 19/19/19 18/18/18 17/17/17
f 17/17/17 20/20/20 19/19/19
f 23/23/23 22/22/22 21/21/21
f 22/22/22 24/24/24 21/21/21
