g gate-neon-07-trigger
v 1.187976 0.0625002 0.6660533
v 9.536743E-07 0.06249977 2.724014
v -1.18798 0.0625002 0.6660535
v 9.536743E-07 -0.06250025 2.724014
v 1.187976 -0.06249979 0.6660533
v -1.18798 -0.06249979 0.6660535
v -1.18798 -0.06249979 0.6660535
v 9.536743E-07 0.06249977 2.724014
v 9.536743E-07 -0.06250025 2.724014
v -1.18798 0.0625002 0.6660535
v 1.187976 -0.06249979 0.6660533
v -1.18798 0.0625002 0.6660535
v -1.18798 -0.06249979 0.6660535
v 1.187976 0.0625002 0.6660533
v 9.536743E-07 0.06249977 2.724014
v 1.187976 0.0625002 0.6660533
v 1.187976 -0.06249979 0.6660533
v 9.536743E-07 -0.06250025 2.724014
vt 0.9924039 0.5868239
vt 0.00759612 0.4999999
vt 0.9924039 0.4131757
vt 0.00759612 0.4999999
vt 0.9924039 0.5868239
vt 0.9924039 0.4131757
vt 0.4722221 1
vt 0.02777781 0
vt 0.02777781 1
vt 0.4722221 0
vt 0.5277777 1
vt 0.4722221 0
vt 0.4722221 1
vt 0.5277777 0
vt 1 0
vt 0.5277777 0
vt 0.5277777 1
vt 1 1
vn 0 1 0
vn 0 1 0
vn 0 1 0
vn 0 -1 0
vn 0 -1 0
vn 0 -1 0
vn -0.8660588 0 0.4999421
vn -0.8660588 0 0.4999421
vn -0.8660588 0 0.4999421
vn -0.8660588 0 0.4999421
vn 0 0 -1
vn 0 0 -1
vn 0 0 -1
vn 0 0 -1
vn 0.8660598 0 0.4999405
vn 0.8660598 0 0.4999405
vn 0.8660598 0 0.4999405
vn 0.8660598 0 0.4999405
g gate-neon-07-trigger_0
f 3/3/3 2/2/2 1/1/1
f 6/6/6 5/5/5 4/4/4
f 9/9/9 8/8/8 7/7/7
f 10/10/10 7/7/7 8/8/8
f 13/13/13 12/12/12 11/11/11
f 12/12/12 14/14/14 11/11/11
f 17/17/17 16/16/16 15/15/15
f 15/15/15 18/18/18 17/17/17
