g gate-drl-45-lod2
v 1.21305 0.1854487 3.215125
v 1.231746 0.1854487 3.4289
v 1.2131 0.1854487 3.64265
v -1.7479 -0.1377503 0.10875
v -1.60985 -0.1853503 0.10875
v -1.609933 -0.182667 0.006166667
v -1.745933 -0.1358337 0.006166667
v -1.79555 -0.0001003026 0.10875
v -1.792767 -0.0001003026 0.006166667
v -1.745933 0.135633 0.006166667
v -1.7479 0.1375497 0.10875
v -1.609933 0.1824664 0.006166667
v -1.60985 0.1851497 0.10875
v -1.7295 -0.1193013 5.18825
v -1.7694 -0.0001013026 5.18825
v -1.7295 0.1190987 5.18825
v -1.6092 -0.1593003 5.18825
v -1.6092 0.1590987 5.18825
v 1.6093 0.1590987 5.18825
v 1.609325 -0.1593003 5.18825
v 1.72955 -0.1193013 5.18825
v 1.72955 0.1190987 5.18825
v 1.76945 -0.0001013026 5.18825
v -1.609933 0.1824664 0.006166667
v 1.610033 0.1824664 0.006166667
v 1.60995 0.1851497 0.10875
v -1.60985 0.1851497 0.10875
v -1.61 0.1903987 5.1971
v 1.6093 0.1590987 5.18825
v -1.6092 0.1590987 5.18825
v 1.6101 0.1903987 5.1971
v 2.5E-05 0.1854487 4.66065
v 0.42155 0.1854487 4.5863
v -0.4215 0.1854487 4.5863
v 0.79195 0.1854487 4.37235
v -0.7919 0.1854487 4.37235
v 1.06685 0.1854487 4.04465
v 1.2131 0.1854487 3.64265
v 1.231746 0.1854487 3.4289
v 1.6101 0.1903993 1.440109
v -1.0668 0.1854487 4.04465
v -1.21305 0.1854487 3.64265
v 1.23195 0.1903987 3.32125
v -1.231696 0.1854487 3.4289
v -1.61 0.1903987 3.429
v -1.61 0.1903993 1.440109
v -1.213 0.1854487 3.215125
v 1.21305 0.1854487 3.215125
v -1.1942 0.1903987 3.1085
v 1.06675 0.1854489 2.81315
v -1.1574 0.1854489 3.00775
v 0.791775 0.1854489 2.485525
v 0.42135 0.1854489 2.27165
v 2.5E-05 0.1854489 2.1973
v -1.0667 0.1854489 2.81315
v -0.4213 0.1854489 2.27165
v -0.791725 0.1854489 2.485525
v -1.745933 0.135633 0.006166667
v -1.792767 -0.0001003026 0.006166667
v -1.745933 -0.1358337 0.006166667
v -1.609933 0.1824664 0.006166667
v -1.609933 -0.182667 0.006166667
v 1.61005 -0.1826669 0.006166667
v 1.610033 0.1824664 0.006166667
v 1.745967 0.135633 0.006166667
v 1.745967 -0.1358337 0.006166667
v 1.7928 -0.0001003026 0.006166667
v 2.5E-05 -0.1856508 4.66065
v 0.42155 0.1854487 4.5863
v 2.5E-05 0.1854487 4.66065
v 0.42155 -0.1856508 4.5863
v 0.79195 0.1854487 4.37235
v 0.79195 -0.1856508 4.37235
v 1.06685 0.1854487 4.04465
v 1.06685 -0.1856508 4.04465
v 1.2131 0.1854487 3.64265
v 1.2131 -0.1856508 3.64265
v 2.5E-05 -0.1856508 4.66065
v 2.5E-05 0.1854487 4.66065
v -0.4215 0.1854487 4.5863
v -0.4215 -0.1856508 4.5863
v -0.7919 0.1854487 4.37235
v -0.7919 -0.1856508 4.37235
v -1.0668 0.1854487 4.04465
v -1.0668 -0.1856508 4.04465
v -1.21305 0.1854487 3.64265
v -1.21305 -0.1856508 3.64265
v -1.23048 -0.1852343 3.428917
v -1.213 0.1854487 3.215125
v -1.231696 0.1854487 3.4289
v 2.5E-05 -0.185651 2.1973
v 2.5E-05 0.1854489 2.1973
v 0.42135 0.1854489 2.27165
v 0.42135 -0.185651 2.27165
v 0.791775 -0.185651 2.485525
v 0.791775 0.1854489 2.485525
v 1.06675 -0.185651 2.81315
v 1.06675 0.1854489 2.81315
v 1.21305 0.1854487 3.215125
v 1.21305 -0.1856508 3.215125
v 1.2131 0.1854487 3.64265
v 1.2131 -0.1856508 3.64265
v 1.232991 0.1891487 3.42895
v 1.231746 0.1854487 3.4289
v 1.21305 0.1854487 3.215125
v 1.23195 0.1903987 3.32125
v 2.5E-05 -0.185651 2.1973
v -0.4213 0.1854489 2.27165
v 2.5E-05 0.1854489 2.1973
v -0.4213 -0.185651 2.27165
v -0.791725 0.1854489 2.485525
v -0.791725 -0.185651 2.485525
v -1.0667 0.1854489 2.81315
v -1.0667 -0.185651 2.81315
v -1.213 -0.1856508 3.215125
v -1.213 0.1854487 3.215125
v -1.23048 -0.1852343 3.428917
v -1.1574 0.1854489 3.00775
v 1.60995 -0.1853503 0.10875
v 1.745967 -0.1358337 0.006166667
v 1.61005 -0.1826669 0.006166667
v 1.7479 -0.1377503 0.10875
v 1.7928 -0.0001003026 0.006166667
v 1.79555 -0.0001003026 0.10875
v 1.745967 0.135633 0.006166667
v 1.7479 0.1375497 0.10875
v 1.610033 0.1824664 0.006166667
v 1.60995 0.1851497 0.10875
v -1.609933 -0.182667 0.006166667
v -1.60985 -0.1853503 0.10875
v 1.60995 -0.1853503 0.10875
v 1.61005 -0.1826669 0.006166667
v -1.6092 -0.1593003 5.18825
v 1.609325 -0.1593003 5.18825
v 1.6101 -0.1906003 5.1971
v -1.61 -0.1906003 5.1971
v 2.5E-05 -0.1856508 4.66065
v 0.42155 -0.1856508 4.5863
v -0.4215 -0.1856508 4.5863
v 0.79195 -0.1856508 4.37235
v -0.7919 -0.1856508 4.37235
v 1.06685 -0.1856508 4.04465
v 1.2131 -0.1856508 3.64265
v 1.21305 -0.1856508 3.215125
v -1.0668 -0.1856508 4.04465
v -1.21305 -0.1856508 3.64265
v 1.6101 -0.1906003 1.440109
v -1.23048 -0.1852343 3.428917
v -1.61 -0.1906003 3.429
v 1.06675 -0.185651 2.81315
v -1.61 -0.1906003 1.440109
v 0.791775 -0.185651 2.485525
v 0.42135 -0.185651 2.27165
v 2.5E-05 -0.185651 2.1973
v -1.213 -0.1856508 3.215125
v -0.4213 -0.185651 2.27165
v -1.0667 -0.185651 2.81315
v -0.791725 -0.185651 2.485525
v -1.7479 -0.1377503 0.10875
v -1.61 -0.1906003 1.440109
v -1.60985 -0.1853503 0.10875
v -1.7516 -0.1415007 1.440109
v -1.79555 -0.0001003026 0.10875
v -1.7516 -0.1415013 3.429
v -1.61 -0.1906003 3.429
v -1.61 -0.1906003 5.1971
v -1.8007 -0.0001007006 1.440109
v -1.7479 0.1375497 0.10875
v -1.8007 -0.0001013026 3.429
v -1.7516 0.1412993 1.440109
v -1.60985 0.1851497 0.10875
v -1.61 0.1903993 1.440109
v -1.61 0.1903987 3.429
v -1.7516 0.1412987 3.429
v -1.61 0.1903987 5.1971
v -1.7516 0.1412987 5.1971
v -1.6092 0.1590987 5.18825
v -1.7295 0.1190987 5.18825
v -1.7694 -0.0001013026 5.18825
v -1.8007 -0.0001013026 5.1971
v -1.7295 -0.1193013 5.18825
v -1.7516 -0.1415013 5.1971
v -1.6092 -0.1593003 5.18825
v 1.6101 0.1903993 1.440109
v -1.61 0.1903993 1.440109
v -1.60985 0.1851497 0.10875
v 1.60995 0.1851497 0.10875
v 1.7479 0.1375497 0.10875
v 1.6101 0.1903993 1.440109
v 1.60995 0.1851497 0.10875
v 1.7516 0.1412993 1.440109
v 1.79555 -0.0001003026 0.10875
v 1.7516 0.1412987 5.1971
v 1.6101 0.1903987 5.1971
v 1.6093 0.1590987 5.18825
v 1.72955 0.1190987 5.18825
v 1.8007 -0.0001013026 5.1971
v 1.76945 -0.0001013026 5.18825
v 1.7516 -0.1415013 5.1971
v 1.72955 -0.1193013 5.18825
v 1.609325 -0.1593003 5.18825
v 1.6101 -0.1906003 5.1971
v 1.6101 -0.1906003 1.440109
v 1.8007 -0.0001007006 1.440109
v 1.7479 -0.1377503 0.10875
v 1.7516 -0.1415007 1.440109
v 1.60995 -0.1853503 0.10875
v -1.60985 -0.1853503 0.10875
v -1.61 -0.1906003 1.440109
v 1.6101 -0.1906003 1.440109
v 1.60995 -0.1853503 0.10875
vt 0.3866185 0.415119
vt 0.385158 0.455758
vt 0.385158 0.4957391
vt 0.182959 0.197006
vt 0.182959 0.179989
vt 0.172164 0.179989
vt 0.172164 0.197006
vt 0.182959 0.213896
vt 0.172164 0.213896
vt 0.172164 0.230914
vt 0.182959 0.230914
vt 0.172164 0.247931
vt 0.182959 0.247931
vt 0.932445 0.911922
vt 0.937017 0.898461
vt 0.932445 0.884873
vt 0.918729 0.916494
vt 0.918729 0.880301
vt 0.55273 0.880301
vt 0.55273 0.916494
vt 0.539142 0.911922
vt 0.539142 0.884873
vt 0.534571 0.898461
vt 0.622942 0.928466
vt 0.256816 0.928466
vt 0.256816 0.939324
vt 0.622942 0.939324
vt 0.016351 0.615004
vt 0.006572 0.004922
vt 0.0065725 0.615004
vt 0.016351 0.004922
vt 0.117185 0.309963
vt 0.131409 0.229702
vt 0.131409 0.390096
vt 0.172174 0.15922
vt 0.172174 0.460705
vt 0.234401 0.106898
vt 0.310852 0.079086
vt 0.351617 0.075658
vt 0.7284275 0.004921
vt 0.234401 0.513027
vt 0.310852 0.540712
vt 0.371936 0.076674
vt 0.35149 0.544141
vt 0.35149 0.615004
vt 0.7284275 0.615004
vt 0.392255 0.540585
vt 0.392255 0.07934
vt 0.412193 0.53614
vt 0.468834 0.107279
vt 0.431751 0.530044
vt 0.53106 0.159601
vt 0.571699 0.229956
vt 0.585795 0.309963
vt 0.468707 0.512647
vt 0.571699 0.389843
vt 0.53106 0.460325
vt 0.539783 0.83423
vt 0.534575 0.849343
vt 0.539783 0.864456
vt 0.554894 0.829151
vt 0.554894 0.869663
vt 0.921021 0.869663
vt 0.921021 0.829151
vt 0.936132 0.834357
vt 0.936132 0.864582
vt 0.941339 0.84947
vt 0.315184 0.089505
vt 0.3866185 0.170909
vt 0.3866185 0.089505
vt 0.315184 0.170909
vt 0.3866185 0.252312
vt 0.315184 0.252312
vt 0.3866185 0.333716
vt 0.315184 0.333716
vt 0.3866185 0.415119
vt 0.315184 0.415119
vt 0.315184 0.089505
vt 0.3866185 0.089505
vt 0.3866185 0.170909
vt 0.315184 0.170909
vt 0.3866185 0.252312
vt 0.315184 0.252312
vt 0.3866185 0.333716
vt 0.315184 0.333716
vt 0.3866185 0.415119
vt 0.315184 0.415119
vt 0.315184 0.4557203
vt 0.3866185 0.415119
vt 0.3866185 0.4557203
vt 0.315184 0.089505
vt 0.3866185 0.089505
vt 0.3866185 0.170909
vt 0.315184 0.170909
vt 0.315184 0.252312
vt 0.3866185 0.252312
vt 0.315184 0.333716
vt 0.3866185 0.333716
vt 0.3866185 0.415119
vt 0.315184 0.415119
vt 0.385158 0.4957391
vt 0.315184 0.4957014
vt 0.388079 0.4556826
vt 0.385158 0.455758
vt 0.3866185 0.415119
vt 0.388079 0.435438
vt 0.315184 0.089505
vt 0.3866185 0.170909
vt 0.3866185 0.089505
vt 0.315184 0.170909
vt 0.3866185 0.252312
vt 0.315184 0.252312
vt 0.3866185 0.333716
vt 0.315184 0.333716
vt 0.315184 0.415119
vt 0.3866185 0.415119
vt 0.315184 0.4557203
vt 0.3866185 0.374354
vt 0.182959 0.179989
vt 0.172164 0.197006
vt 0.172164 0.179989
vt 0.182959 0.197006
vt 0.172164 0.213896
vt 0.182959 0.213896
vt 0.172164 0.230914
vt 0.182959 0.230914
vt 0.172164 0.247931
vt 0.182959 0.247931
vt 0.622942 0.928466
vt 0.622942 0.939324
vt 0.256816 0.939324
vt 0.256816 0.928466
vt 0.0065725 0.615004
vt 0.006572 0.004922
vt 0.016351 0.004922
vt 0.016351 0.615004
vt 0.117185 0.309963
vt 0.131409 0.229702
vt 0.131409 0.390096
vt 0.172174 0.15922
vt 0.172174 0.460705
vt 0.234401 0.106898
vt 0.310852 0.079086
vt 0.392255 0.07934
vt 0.234401 0.513027
vt 0.310852 0.540712
vt 0.7284275 0.004921
vt 0.35149 0.544141
vt 0.35149 0.615004
vt 0.468834 0.107279
vt 0.7284275 0.615004
vt 0.53106 0.159601
vt 0.571699 0.229956
vt 0.585795 0.309963
vt 0.392255 0.540585
vt 0.571699 0.389843
vt 0.468707 0.512647
vt 0.53106 0.460325
vt 0.0065085 0.653838
vt 0.2572425 0.626535
vt 0.0065085 0.626535
vt 0.2572425 0.653838
vt 0.0065085 0.681015
vt 0.63418 0.653838
vt 0.63418 0.626535
vt 0.969319 0.626534
vt 0.2572425 0.681015
vt 0.0065085 0.708192
vt 0.63418 0.681015
vt 0.2572425 0.708192
vt 0.0065085 0.735496
vt 0.2572425 0.735496
vt 0.63418 0.735496
vt 0.63418 0.708192
vt 0.969319 0.735496
vt 0.969319 0.708192
vt 0.979097 0.735496
vt 0.979097 0.708192
vt 0.979097 0.681015
vt 0.969319 0.681015
vt 0.979097 0.653838
vt 0.969319 0.653838
vt 0.979097 0.626534
vt 0.7284275 0.004921
vt 0.7284275 0.615004
vt 0.979225 0.615004
vt 0.979225 0.004921
vt 0.0065085 0.708192
vt 0.2572425 0.735496
vt 0.0065085 0.735496
vt 0.2572425 0.708192
vt 0.0065085 0.681015
vt 0.969319 0.708192
vt 0.969319 0.735496
vt 0.979097 0.735496
vt 0.979097 0.708192
vt 0.969319 0.681015
vt 0.979097 0.681015
vt 0.969319 0.653838
vt 0.979097 0.653838
vt 0.979097 0.626534
vt 0.969319 0.626534
vt 0.2572425 0.626535
vt 0.2572425 0.681015
vt 0.0065085 0.653838
vt 0.2572425 0.653838
vt 0.0065085 0.626535
vt 0.979225 0.615004
vt 0.7284275 0.615004
vt 0.7284275 0.004921
vt 0.979225 0.004921
vn -0.9843725 0.03897421 0.1717318
vn -0.9387166 0.3443775 0.01467294
vn -0.9847454 0.01276893 -0.1735326
vn -0.7067498 -0.707291 -0.01562214
vn -0.3262637 -0.9451767 -0.01389042
vn -0.1580093 -0.4585506 -0.8745081
vn -0.5483953 -0.5490083 -0.6307555
vn -0.9998866 0 -0.01505801
vn -0.7596058 0 -0.6503838
vn -0.5483953 0.5490083 -0.6307555
vn -0.7067499 0.7072909 -0.01562194
vn -0.1580094 0.4585509 -0.8745079
vn -0.3262643 0.9451765 -0.01389015
vn 0 0 1
vn 0 0 1
vn 0 0 1
vn 0 0 1
vn 0 0 1
vn 0 0 1
vn 0 0 1
vn 0 0 1
vn 0 0 1
vn 0 0 1
vn 0 0.999658 -0.02614858
vn 0 0.999658 -0.02614858
vn 0 0.9998868 -0.0150492
vn 0 0.9998868 -0.0150492
vn 0.003245616 0.6132187 0.7899066
vn 0 -0.2720835 0.9622737
vn 0 -0.2720835 0.9622737
vn -0.003281612 0.6132149 0.7899093
vn 0 0.9999654 -0.008318977
vn -0.001390179 0.9999845 -0.005398865
vn 0.001390206 0.9999845 -0.005398925
vn -0.002715427 0.9999908 -0.003308067
vn 0.002715514 0.9999908 -0.003308146
vn -0.004534536 0.9999874 -0.002157622
vn -0.01145384 0.9999343 -0.0003786745
vn 0.001245279 0.9999958 0.002619114
vn -0.001579422 0.9999988 -0.0002012044
vn 0.004534771 0.9999874 -0.002157709
vn 0.01123219 0.9999368 -0.0004264267
vn 0.186505 0.9817384 0.03749184
vn 0.01246625 0.9999223 0
vn 0.01280803 0.999918 -5.881086E-05
vn 0.00149209 0.9999989 -0.0001989686
vn 0.007863453 0.9999689 0.000687802
vn -0.1020165 0.9945807 -0.02004594
vn 0 1 0
vn -0.004182807 0.9999894 0.001950119
vn 0.0009290037 0.9999995 0.0004341217
vn -0.002411218 0.9999931 0.002847842
vn -0.001178119 0.9999902 0.004268984
vn 0 0.9999826 0.005909929
vn 0.003784338 0.9999907 0.002107946
vn 0.001178142 0.9999902 0.004269024
vn 0.002411288 0.9999931 0.002847902
vn -0.5483953 0.5490083 -0.6307555
vn -0.7596058 0 -0.6503838
vn -0.5483953 -0.5490083 -0.6307555
vn -0.1580094 0.4585509 -0.8745079
vn -0.1580093 -0.4585506 -0.8745081
vn 0.1581291 -0.458592 -0.8744647
vn 0.1581058 0.4585514 -0.8744903
vn 0.5485193 0.5489578 -0.6306917
vn 0.548526 -0.548954 -0.630689
vn 0.7597094 0 -0.6502628
vn 0 0 -1
vn -0.3421409 0 -0.9396486
vn 0 0 -1
vn -0.3421409 0 -0.9396486
vn -0.6429148 0 -0.7659378
vn -0.6429148 0 -0.7659378
vn -0.8660942 0 -0.4998808
vn -0.8660942 0 -0.4998808
vn -0.9847454 0.01276893 -0.1735326
vn -0.9847454 0.01276893 -0.1735326
vn 0 0 -1
vn 0 0 -1
vn 0.3421409 0 -0.9396486
vn 0.3421409 0 -0.9396486
vn 0.6429148 0 -0.7659378
vn 0.6429148 0 -0.7659378
vn 0.8660942 0 -0.4998808
vn 0.8660942 0 -0.4998808
vn 0.9848301 0.0008317562 -0.1735193
vn 0.9848112 0.0008312417 -0.1736267
vn 0.9999987 0.001638243 0.0001168319
vn 0.9847126 0.01360414 0.173655
vn 0.9999987 0.001638243 0.0001168319
vn 0 0 1
vn 0 0 1
vn -0.3420937 0 0.9396658
vn -0.3420937 0 0.9396658
vn -0.6427509 0 0.7660753
vn -0.6427509 0 0.7660753
vn -0.8660001 0 0.5000439
vn -0.8660001 0 0.5000439
vn -0.9843725 0.03897421 0.1717318
vn -0.9847137 0.01276881 0.1737115
vn -0.9847454 0.01276893 -0.1735326
vn -0.9847454 0.01276893 -0.1735326
vn -0.5533921 0.8320892 0.03721106
vn -0.9387166 0.3443775 0.01467294
vn -0.9843725 0.03897421 0.1717318
vn -0.5533921 0.8320892 0.03721106
vn 0 0 1
vn 0.3420937 0 0.9396658
vn 0 0 1
vn 0.3420937 0 0.9396658
vn 0.6427509 0 0.7660753
vn 0.6427509 0 0.7660753
vn 0.8659155 0.01277276 0.5000272
vn 0.8659155 0.01277275 0.5000272
vn 0.9846935 0.01361152 0.1737622
vn 0.9847126 0.01360414 0.173655
vn 0.9999987 0.001638243 0.0001168319
vn 0.9394004 0.0251552 0.3418978
vn 0.3264655 -0.9451076 -0.01385045
vn 0.548526 -0.548954 -0.630689
vn 0.1581291 -0.458592 -0.8744647
vn 0.706804 -0.7072393 -0.01551473
vn 0.7597094 0 -0.6502628
vn 0.999889 0 -0.01489647
vn 0.5485193 0.5489578 -0.6306917
vn 0.706801 0.7072422 -0.01552209
vn 0.1581058 0.4585514 -0.8744903
vn 0.3264576 0.9451102 -0.01386397
vn 0 -0.999658 -0.02614858
vn 0 -0.9998868 -0.01504935
vn 0 -0.9998868 -0.01504993
vn 0 -0.999658 -0.02614858
vn 0 0.2720834 0.9622737
vn 0 0.2720835 0.9622737
vn -0.00323581 -0.6129519 0.7901136
vn 0.003259947 -0.6132315 0.7898965
vn 0 -0.9999654 -0.008318125
vn -0.001390036 -0.9999845 -0.005398312
vn 0.001390064 -0.9999845 -0.005398372
vn -0.002715149 -0.9999908 -0.003307729
vn 0.002715236 -0.9999908 -0.003307807
vn -0.004534072 -0.9999874 -0.002157402
vn -0.01120882 -0.9999372 -0.000320895
vn -0.01120652 -0.9999372 0.0002817388
vn 0.004534306 -0.9999874 -0.002157488
vn 0.01132344 -0.9999357 -0.0005935564
vn -0.001600091 -0.9999987 -0.0001808177
vn 0.0124585 -0.9999224 1.702347E-05
vn 0.01338903 -0.9999104 -0.0001606825
vn -0.004181851 -0.9999894 0.001949673
vn 0.001603062 -0.9999987 -0.0001589837
vn -0.002410667 -0.9999931 0.002847191
vn -0.00117785 -0.9999902 0.004268008
vn 0 -0.9999826 0.005908586
vn 0.00308383 -0.9999931 0.002098674
vn 0.001177876 -0.9999902 0.00426806
vn 0.004182062 -0.9999894 0.001949752
vn 0.002410744 -0.9999931 0.002847259
vn -0.7067498 -0.707291 -0.01562214
vn -0.3272057 -0.9449514 -0.001832911
vn -0.3262637 -0.9451767 -0.01389042
vn -0.706879 -0.7073316 -0.002018762
vn -0.9998866 0 -0.01505801
vn -0.7069502 -0.7072633 0
vn -0.3276096 -0.9448132 0
vn -0.2309161 -0.6620678 0.7129825
vn -0.9999982 0 -0.001905373
vn -0.7067499 0.7072909 -0.01562194
vn -1 0 0
vn -0.70688 0.7073306 -0.002018421
vn -0.3262643 0.9451765 -0.01389015
vn -0.3272085 0.9449504 -0.001832492
vn -0.3276148 0.9448114 0
vn -0.7069522 0.7072613 0
vn -0.2309209 0.6620685 0.7129802
vn -0.5059829 0.5062085 0.6983798
vn 0.0939734 -0.2762249 0.9564878
vn 0.1873552 -0.1870071 0.9643269
vn 0.2787499 0 0.9603637
vn -0.6894265 0 0.7243557
vn 0.1873541 0.1870076 0.964327
vn -0.5059816 -0.5062107 0.6983791
vn 0.09397153 0.2762257 0.9564878
vn -0.001579422 0.9999988 -0.0002012044
vn 0.00149209 0.9999989 -0.0001989686
vn 0 0.9998868 -0.0150492
vn 0 0.9998868 -0.0150492
vn 0.706801 0.7072422 -0.01552209
vn 0.3274163 0.9448784 -0.001832589
vn 0.3264576 0.9451102 -0.01386397
vn 0.7069578 0.7072529 -0.002018377
vn 0.999889 0 -0.01489647
vn 0.5060058 0.5060598 0.698471
vn 0.2310941 0.6620696 0.712923
vn -0.09404438 -0.2762752 0.9564663
vn -0.1876555 -0.1870547 0.9642593
vn 0.6892972 0 0.7244787
vn -0.2791716 0 0.9602413
vn 0.5060043 -0.5060562 0.6984746
vn -0.1876659 0.18707 0.9642544
vn -0.09406228 0.2763076 0.9564552
vn 0.2311729 -0.6623254 0.7126598
vn 0.3274134 -0.9448794 -0.001832913
vn 0.9999982 0 -0.001905374
vn 0.706804 -0.7072393 -0.01551473
vn 0.7069567 -0.7072539 -0.002018645
vn 0.3264655 -0.9451076 -0.01385045
vn 0 -0.9998868 -0.01504935
vn 0.001603062 -0.9999987 -0.0001589837
vn -0.001600091 -0.9999987 -0.0001808177
vn 0 -0.9998868 -0.01504993
g gate-drl-45-lod2_0
f 3/3/3 2/2/2 1/1/1
f 6/6/6 5/5/5 4/4/4
f 7/7/7 6/6/6 4/4/4
f 4/4/4 8/8/8 7/7/7
f 8/8/8 9/9/9 7/7/7
f 10/10/10 9/9/9 8/8/8
f 11/11/11 10/10/10 8/8/8
f 10/10/10 11/11/11 12/12/12
f 11/11/11 13/13/13 12/12/12
f 16/16/16 15/15/15 14/14/14
f 16/16/16 14/14/14 17/17/17
f 17/17/17 18/18/18 16/16/16
f 19/19/19 18/18/18 17/17/17
f 20/20/20 19/19/19 17/17/17
f 19/19/19 20/20/20 21/21/21
f 22/22/22 19/19/19 21/21/21
f 21/21/21 23/23/23 22/22/22
f 26/26/26 25/25/25 24/24/24
f 27/27/27 26/26/26 24/24/24
f 30/30/30 29/29/29 28/28/28
f 29/29/29 31/31/31 28/28/28
f 32/32/32 28/28/28 31/31/31
f 32/32/32 31/31/31 33/33/33
f 28/28/28 32/32/32 34/34/34
f 33/33/33 31/31/31 35/35/35
f 28/28/28 34/34/34 36/36/36
f 35/35/35 31/31/31 37/37/37
f 37/37/37 31/31/31 38/38/38
f 38/38/38 31/31/31 39/39/39
f 31/31/31 40/40/40 39/39/39
f 28/28/28 36/36/36 41/41/41
f 28/28/28 41/41/41 42/42/42
f 39/39/39 40/40/40 43/43/43
f 28/28/28 42/42/42 44/44/44
f 45/45/45 28/28/28 44/44/44
f 45/45/45 44/44/44 46/46/46
f 44/44/44 47/47/47 46/46/46
f 43/43/43 40/40/40 48/48/48
f 47/47/47 49/49/49 46/46/46
f 48/48/48 40/40/40 50/50/50
f 49/49/49 51/51/51 46/46/46
f 50/50/50 40/40/40 52/52/52
f 52/52/52 40/40/40 53/53/53
f 40/40/40 54/54/54 53/53/53
f 40/40/40 46/46/46 54/54/54
f 51/51/51 55/55/55 46/46/46
f 46/46/46 56/56/56 54/54/54
f 55/55/55 57/57/57 46/46/46
f 57/57/57 56/56/56 46/46/46
f 60/60/60 59/59/59 58/58/58
f 60/60/60 58/58/58 61/61/61
f 61/61/61 62/62/62 60/60/60
f 63/63/63 62/62/62 61/61/61
f 64/64/64 63/63/63 61/61/61
f 63/63/63 64/64/64 65/65/65
f 66/66/66 63/63/63 65/65/65
f 65/65/65 67/67/67 66/66/66
f 70/70/70 69/69/69 68/68/68
f 69/69/69 71/71/71 68/68/68
f 69/69/69 72/72/72 71/71/71
f 72/72/72 73/73/73 71/71/71
f 72/72/72 74/74/74 73/73/73
f 74/74/74 75/75/75 73/73/73
f 74/74/74 76/76/76 75/75/75
f 76/76/76 77/77/77 75/75/75
f 80/80/80 79/79/79 78/78/78
f 81/81/81 80/80/80 78/78/78
f 80/80/80 81/81/81 82/82/82
f 81/81/81 83/83/83 82/82/82
f 82/82/82 83/83/83 84/84/84
f 83/83/83 85/85/85 84/84/84
f 84/84/84 85/85/85 86/86/86
f 85/85/85 87/87/87 86/86/86
f 86/86/86 87/87/87 88/88/88
f 88/88/88 89/89/89 86/86/86
f 89/89/89 90/90/90 86/86/86
f 93/93/93 92/92/92 91/91/91
f 94/94/94 93/93/93 91/91/91
f 93/93/93 94/94/94 95/95/95
f 96/96/96 93/93/93 95/95/95
f 96/96/96 95/95/95 97/97/97
f 98/98/98 96/96/96 97/97/97
f 98/98/98 97/97/97 99/99/99
f 97/97/97 100/100/100 99/99/99
f 101/101/101 99/99/99 100/100/100
f 100/100/100 102/102/102 101/101/101
f 105/105/105 104/104/104 103/103/103
f 106/106/106 105/105/105 103/103/103
f 109/109/109 108/108/108 107/107/107
f 108/108/108 110/110/110 107/107/107
f 108/108/108 111/111/111 110/110/110
f 111/111/111 112/112/112 110/110/110
f 111/111/111 113/113/113 112/112/112
f 113/113/113 114/114/114 112/112/112
f 115/115/115 114/114/114 113/113/113
f 113/113/113 116/116/116 115/115/115
f 117/117/117 115/115/115 116/116/116
f 113/113/113 118/118/118 116/116/116
f 121/121/121 120/120/120 119/119/119
f 120/120/120 122/122/122 119/119/119
f 122/122/122 120/120/120 123/123/123
f 124/124/124 122/122/122 123/123/123
f 124/124/124 123/123/123 125/125/125
f 126/126/126 124/124/124 125/125/125
f 125/125/125 127/127/127 126/126/126
f 127/127/127 128/128/128 126/126/126
f 131/131/131 130/130/130 129/129/129
f 132/132/132 131/131/131 129/129/129
f 135/135/135 134/134/134 133/133/133
f 136/136/136 135/135/135 133/133/133
f 136/136/136 137/137/137 135/135/135
f 135/135/135 137/137/137 138/138/138
f 137/137/137 136/136/136 139/139/139
f 135/135/135 138/138/138 140/140/140
f 139/139/139 136/136/136 141/141/141
f 135/135/135 140/140/140 142/142/142
f 135/135/135 142/142/142 143/143/143
f 135/135/135 143/143/143 144/144/144
f 141/141/141 136/136/136 145/145/145
f 145/145/145 136/136/136 146/146/146
f 147/147/147 135/135/135 144/144/144
f 146/146/146 136/136/136 148/148/148
f 136/136/136 149/149/149 148/148/148
f 144/144/144 150/150/150 147/147/147
f 149/149/149 151/151/151 148/148/148
f 150/150/150 152/152/152 147/147/147
f 152/152/152 153/153/153 147/147/147
f 147/147/147 153/153/153 154/154/154
f 147/147/147 154/154/154 151/151/151
f 148/148/148 151/151/151 155/155/155
f 151/151/151 154/154/154 156/156/156
f 155/155/155 151/151/151 157/157/157
f 158/158/158 151/151/151 156/156/156
f 157/157/157 151/151/151 158/158/158
f 161/161/161 160/160/160 159/159/159
f 160/160/160 162/162/162 159/159/159
f 159/159/159 162/162/162 163/163/163
f 162/162/162 160/160/160 164/164/164
f 160/160/160 165/165/165 164/164/164
f 164/164/164 165/165/165 166/166/166
f 162/162/162 167/167/167 163/163/163
f 163/163/163 167/167/167 168/168/168
f 167/167/167 162/162/162 169/169/169
f 162/162/162 164/164/164 169/169/169
f 167/167/167 170/170/170 168/168/168
f 167/167/167 169/169/169 170/170/170
f 168/168/168 170/170/170 171/171/171
f 170/170/170 172/172/172 171/171/171
f 172/172/172 170/170/170 173/173/173
f 170/170/170 174/174/174 173/173/173
f 169/169/169 174/174/174 170/170/170
f 175/175/175 173/173/173 174/174/174
f 176/176/176 175/175/175 174/174/174
f 174/174/174 169/169/169 176/176/176
f 175/175/175 176/176/176 177/177/177
f 176/176/176 178/178/178 177/177/177
f 178/178/178 176/176/176 179/179/179
f 169/169/169 180/180/180 176/176/176
f 176/176/176 180/180/180 179/179/179
f 169/169/169 164/164/164 180/180/180
f 179/179/179 180/180/180 181/181/181
f 164/164/164 182/182/182 180/180/180
f 180/180/180 182/182/182 181/181/181
f 182/182/182 164/164/164 166/166/166
f 181/181/181 182/182/182 183/183/183
f 182/182/182 166/166/166 183/183/183
f 186/186/186 185/185/185 184/184/184
f 187/187/187 186/186/186 184/184/184
f 190/190/190 189/189/189 188/188/188
f 189/189/189 191/191/191 188/188/188
f 188/188/188 191/191/191 192/192/192
f 191/191/191 189/189/189 193/193/193
f 189/189/189 194/194/194 193/193/193
f 193/193/193 194/194/194 195/195/195
f 196/196/196 193/193/193 195/195/195
f 197/197/197 193/193/193 196/196/196
f 191/191/191 193/193/193 197/197/197
f 198/198/198 197/197/197 196/196/196
f 199/199/199 197/197/197 198/198/198
f 200/200/200 199/199/199 198/198/198
f 199/199/199 200/200/200 201/201/201
f 202/202/202 199/199/199 201/201/201
f 199/199/199 202/202/202 203/203/203
f 191/191/191 204/204/204 192/192/192
f 204/204/204 191/191/191 197/197/197
f 204/204/204 197/197/197 199/199/199
f 192/192/192 204/204/204 205/205/205
f 206/206/206 199/199/199 203/203/203
f 206/206/206 204/204/204 199/199/199
f 204/204/204 206/206/206 205/205/205
f 206/206/206 203/203/203 207/207/207
f 205/205/205 206/206/206 207/207/207
f 210/210/210 209/209/209 208/208/208
f 211/211/211 210/210/210 208/208/208
