g gate-missions-03-a-lod2
v -0.3674599 0.01392808 1.859665E-06
v -0.2833007 -0.2377721 -0.0003262162
v -0.3727673 0.01399308 -1.346395
v -0.281371 -0.2356463 -1.346672
v 0.002094293 -0.3729886 -0.0003314853
v -0.2592317 -0.2123078 -1.570814
v -0.3517289 0.01373724 -1.586106
v 0.002129626 -0.3562835 -1.346873
v -0.1827455 -0.1445133 -1.734025
v -0.2161116 0.01255697 -1.765902
v 0.002121878 0.01354406 -1.810161
v 0.002091813 -0.3080612 -1.587874
v 0.2805425 -0.2304866 -1.34656
v 0.2801687 -0.2300768 -0.0003792167
v 0.00210979 -0.1715554 -1.754924
v 0.1859386 -0.1431547 -1.731194
v 0.218744 0.01267943 -1.761611
v 0.3477942 0.01353691 -1.583952
v 0.2594242 -0.2090031 -1.569363
v 0.3682738 0.01396019 -1.346434
v 0.3581842 0.0139026 1.859665E-06
v 0.002106071 0.3729886 0
v -0.2713294 0.2527295 1.859665E-06
v -0.2649762 0.246303 -1.346448
v -0.3674599 0.01392808 1.859665E-06
v -0.3727673 0.01399308 -1.346395
v -0.2440674 0.2224514 -1.566915
v -0.3517289 0.01373724 -1.586106
v 0.002101731 0.3488082 -1.346548
v -0.1760173 0.1618803 -1.721732
v -0.2161116 0.01255697 -1.765902
v 0.002121878 0.01354406 -1.810161
v 0.002116608 0.3087307 -1.582246
v 0.2648163 0.2416396 -1.346116
v 0.2675094 0.2459122 -1.301765E-05
v 0.3581842 0.0139026 1.859665E-06
v 0.3682738 0.01396019 -1.346434
v 0.2419833 0.2199101 -1.566397
v 0.3477942 0.01353691 -1.583952
v 0.1789156 0.1601402 -1.718767
v 0.218744 0.01267943 -1.761611
v 0.00243864 0.1876817 -1.742395
v 0.1838167 0.1661437 1.732466
v 0.2217433 0.01278707 1.771049
v 0.002121258 0.013549 1.813964
v 0.3668378 0.0139893 1.592134
v 0.2579073 0.2345838 1.572688
v 0.3746056 0.01401271 1.348097
v 0.2684036 0.2453468 1.347532
v 0.3581842 0.0139026 1.859665E-06
v 0.2675094 0.2459122 -1.301765E-05
v 0.002106071 0.3729886 0
v 0.002105141 0.3512219 1.348225
v 0.002101731 0.3180496 1.58817
v 0.002354336 0.1912399 1.751756
v -0.1790925 0.1656192 1.731781
v -0.216726 0.01259909 1.770458
v -0.36077 0.01395941 1.591878
v -0.2530632 0.2336424 1.572428
v -0.3769107 0.01401947 1.3481
v -0.2674347 0.24882 1.348141
v -0.2713294 0.2527295 1.859665E-06
v -0.3674599 0.01392808 1.859665E-06
v 0.002094293 -0.3729886 -0.0003314853
v -0.2833007 -0.2377721 -0.0003262162
v -0.2803711 -0.2347318 1.348131
v -0.3674599 0.01392808 1.859665E-06
v -0.3769107 0.01401947 1.3481
v 0.00210545 -0.3519414 1.348196
v 0.2801687 -0.2300768 -0.0003792167
v -0.2603115 -0.2137108 1.573965
v -0.36077 0.01395941 1.591878
v -0.182474 -0.1442004 1.736768
v -0.216726 0.01259909 1.770458
v 0.002121258 0.013549 1.813964
v 0.002091813 -0.3041939 1.589939
v 0.2816589 -0.2316588 1.348102
v 0.3581842 0.0139026 1.859665E-06
v 0.3746056 0.01401271 1.348097
v 0.265248 -0.2147059 1.574258
v 0.3668378 0.0139893 1.592134
v 0.1870931 -0.1444977 1.73699
v 0.2217433 0.01278707 1.771049
v 0.00210979 -0.1705281 1.756373
vt 0.889062 0.667857
vt 0.889202 0.6487502
vt 0.7918075 0.6648108
vt 0.7945238 0.6462798
vt 0.8894023 0.625521
vt 0.779312 0.643412
vt 0.7715808 0.6584917
vt 0.7959632 0.6247823
vt 0.7669852 0.637868
vt 0.7574505 0.6436855
vt 0.7531853 0.624348
vt 0.7804188 0.624675
vt 0.7948265 0.603471
vt 0.889581 0.6025603
vt 0.766408 0.6245393
vt 0.7673643 0.6112683
vt 0.75811 0.6052157
vt 0.7723565 0.5912018
vt 0.779609 0.6060865
vt 0.792486 0.585357
vt 0.8897412 0.5841355
vt 0.7544135 0.7070612
vt 0.7545495 0.7288565
vt 0.8492045 0.7266582
vt 0.7546875 0.7473543
vt 0.8515213 0.7446045
vt 0.864197 0.7241508
vt 0.8712648 0.7389805
vt 0.8480603 0.7065927
vt 0.875878 0.719247
vt 0.885247 0.7250713
vt 0.8893123 0.7062932
vt 0.863409 0.70654
vt 0.8490065 0.68668
vt 0.7543125 0.6856238
vt 0.754252 0.6677365
vt 0.851093 0.6691435
vt 0.8640162 0.689019
vt 0.870733 0.674431
vt 0.8756073 0.693675
vt 0.8846975 0.68769
vt 0.8765063 0.7064165
vt 0.8766022 0.5557563
vt 0.8860278 0.561654
vt 0.8901408 0.542639
vt 0.8716512 0.57615
vt 0.864448 0.5607985
vt 0.851381 0.5812243
vt 0.849212 0.5632502
vt 0.7544775 0.5829085
vt 0.754417 0.5650207
vt 0.754316 0.5435838
vt 0.8480887 0.5429913
vt 0.8636355 0.5428442
vt 0.8772553 0.542756
vt 0.8764033 0.5297527
vt 0.8857378 0.5237465
vt 0.8712482 0.5095118
vt 0.8642073 0.524866
vt 0.851003 0.5043507
vt 0.8489802 0.522624
vt 0.75418 0.5217882
vt 0.754042 0.5032908
vt 0.9371885 0.5049958
vt 0.9139593 0.5047957
vt 0.9149467 0.5996608
vt 0.8948528 0.5046552
vt 0.8962898 0.6019835
vt 0.936317 0.5986305
vt 0.9601492 0.5051745
vt 0.917482 0.6150505
vt 0.9019755 0.6225013
vt 0.9227288 0.6275288
vt 0.9167402 0.6369942
vt 0.9358672 0.6415875
vt 0.936137 0.61433
vt 0.9575893 0.6000618
vt 0.978574 0.5053347
vt 0.9759992 0.6025987
vt 0.954769 0.615389
vt 0.9702205 0.6230918
vt 0.9493055 0.6277803
vt 0.9551398 0.637391
vt 0.9359983 0.6283723
vn -0.9438067 -0.3304965 0.0009150134
vn -0.7368606 -0.6760373 -0.003134229
vn -0.9367025 -0.3463623 -0.05120201
vn -0.7222942 -0.6878294 -0.07198642
vn 0.01352087 -0.9998865 -0.006653271
vn -0.6611516 -0.665577 -0.3462453
vn -0.879322 -0.3522875 -0.320447
vn 0.01155096 -0.9961636 -0.0867452
vn -0.4459412 -0.5049711 -0.7390134
vn -0.522871 -0.3133696 -0.7927203
vn 0.009003207 -0.2617641 -0.9650899
vn 0.008725338 -0.9288077 -0.3704591
vn 0.7336131 -0.676102 -0.06854123
vn 0.7492545 -0.6622816 -0.0008985786
vn 0.008790153 -0.5835115 -0.8120573
vn 0.4615256 -0.5005915 -0.7323949
vn 0.5378399 -0.3083622 -0.7846279
vn 0.8852031 -0.3444111 -0.3127243
vn 0.6717877 -0.6583067 -0.3396079
vn 0.9399548 -0.33793 -0.04783644
vn 0.9469529 -0.3213508 0.003721847
vn 0.01320208 0.9998447 -0.0116762
vn -0.7008337 0.7132917 -0.006854155
vn -0.6842855 0.7258664 -0.06979578
vn -0.9177159 0.3972351 -0.001294817
vn -0.9063987 0.4191689 -0.05233527
vn -0.6268472 0.7061204 -0.3293278
vn -0.8453051 0.4332888 -0.312602
vn 0.01137173 0.9965417 -0.08231221
vn -0.4304045 0.5615651 -0.70668
vn -0.5045459 0.3979989 -0.7661791
vn 0.009142662 0.3467446 -0.937915
vn 0.008860441 0.9370272 -0.3491442
vn 0.6962442 0.7145901 -0.06786075
vn 0.7132466 0.7008994 -0.004382728
vn 0.9212186 0.3890406 0.001921609
vn 0.9093904 0.4127472 -0.05146749
vn 0.6344591 0.7013723 -0.3248669
vn 0.8500888 0.4288168 -0.3057208
vn 0.4471393 0.5575462 -0.6994345
vn 0.5198857 0.396172 -0.7568135
vn 0.009473424 0.6299262 -0.7765973
vn 0.4202603 0.5393968 0.7296796
vn 0.4979134 0.3652026 0.7865809
vn -0.002031747 0.3091684 0.9510052
vn 0.8565435 0.420985 0.2985046
vn 0.6321721 0.7092711 0.3119181
vn 0.9113178 0.4112392 0.01955288
vn 0.6922099 0.7206894 0.03810864
vn 0.9203495 0.3910533 -0.005845892
vn 0.7109159 0.7032765 0.0008687332
vn 0.01183571 0.9998883 0.009130909
vn 0.007364867 0.9982598 0.05850768
vn 0.000569674 0.9415929 0.3367529
vn -0.001812343 0.608457 0.7935847
vn -0.4232132 0.5385995 0.728561
vn -0.4998728 0.3647118 0.785565
vn -0.8527194 0.4196641 0.311049
vn -0.6290876 0.7074199 0.3221893
vn -0.9088522 0.4156133 0.03540133
vn -0.6845189 0.7272505 0.05040436
vn -0.6998379 0.7142885 0.004335141
vn -0.9172868 0.3982249 -0.001326314
vn 0.01131387 -0.9999025 0.008190993
vn -0.7318664 -0.6814384 0.003657765
vn -0.7139909 -0.6970488 0.06587808
vn -0.9405645 -0.3396098 -0.001880204
vn -0.9312531 -0.3618513 0.0427941
vn 0.006844974 -0.9966665 0.08129589
vn 0.7431747 -0.6690974 -8.551768E-05
vn -0.648234 -0.6797669 0.3430884
vn -0.8698058 -0.3748054 0.3208718
vn -0.4308706 -0.5149807 0.7410434
vn -0.5075949 -0.3282771 0.7966064
vn -0.001104355 -0.2746352 0.9615479
vn 0.0005012184 -0.9313673 0.3640806
vn 0.7217599 -0.69003 0.05404796
vn 0.9440899 -0.3296249 -0.006450915
vn 0.9343001 -0.3554405 0.02730192
vn 0.6512524 -0.6814358 0.3339393
vn 0.8736151 -0.3755058 0.3095027
vn 0.4279975 -0.5156952 0.7422106
vn 0.505275 -0.3294855 0.7975817
vn -0.001550426 -0.5899788 0.8074172
g gate-missions-03-a-lod2_0
f 3/3/3 2/2/2 1/1/1
f 3/3/3 4/4/4 2/2/2
f 4/4/4 5/5/5 2/2/2
f 6/6/6 4/4/4 3/3/3
f 3/3/3 7/7/7 6/6/6
f 4/4/4 8/8/8 5/5/5
f 4/4/4 6/6/6 8/8/8
f 9/9/9 6/6/6 7/7/7
f 7/7/7 10/10/10 9/9/9
f 9/9/9 10/10/10 11/11/11
f 12/12/12 6/6/6 9/9/9
f 6/6/6 12/12/12 8/8/8
f 5/5/5 8/8/8 13/13/13
f 13/13/13 14/14/14 5/5/5
f 11/11/11 15/15/15 9/9/9
f 9/9/9 15/15/15 12/12/12
f 16/16/16 15/15/15 11/11/11
f 12/12/12 15/15/15 16/16/16
f 11/11/11 17/17/17 16/16/16
f 16/16/16 17/17/17 18/18/18
f 12/12/12 19/19/19 8/8/8
f 16/16/16 19/19/19 12/12/12
f 18/18/18 19/19/19 16/16/16
f 8/8/8 19/19/19 13/13/13
f 19/19/19 18/18/18 20/20/20
f 13/13/13 19/19/19 20/20/20
f 14/14/14 13/13/13 20/20/20
f 20/20/20 21/21/21 14/14/14
f 24/24/24 23/23/23 22/22/22
f 24/24/24 25/25/25 23/23/23
f 24/24/24 26/26/26 25/25/25
f 24/24/24 27/27/27 26/26/26
f 27/27/27 28/28/28 26/26/26
f 22/22/22 29/29/29 24/24/24
f 29/29/29 27/27/27 24/24/24
f 28/28/28 27/27/27 30/30/30
f 30/30/30 31/31/31 28/28/28
f 30/30/30 32/32/32 31/31/31
f 30/30/30 27/27/27 33/33/33
f 33/33/33 27/27/27 29/29/29
f 34/34/34 29/29/29 22/22/22
f 22/22/22 35/35/35 34/34/34
f 34/34/34 35/35/35 36/36/36
f 36/36/36 37/37/37 34/34/34
f 34/34/34 38/38/38 29/29/29
f 37/37/37 38/38/38 34/34/34
f 38/38/38 33/33/33 29/29/29
f 39/39/39 38/38/38 37/37/37
f 40/40/40 38/38/38 39/39/39
f 33/33/33 38/38/38 40/40/40
f 39/39/39 41/41/41 40/40/40
f 40/40/40 41/41/41 32/32/32
f 33/33/33 42/42/42 30/30/30
f 30/30/30 42/42/42 32/32/32
f 32/32/32 42/42/42 40/40/40
f 40/40/40 42/42/42 33/33/33
f 45/45/45 44/44/44 43/43/43
f 43/43/43 44/44/44 46/46/46
f 46/46/46 47/47/47 43/43/43
f 48/48/48 47/47/47 46/46/46
f 48/48/48 49/49/49 47/47/47
f 50/50/50 49/49/49 48/48/48
f 50/50/50 51/51/51 49/49/49
f 49/49/49 51/51/51 52/52/52
f 47/47/47 49/49/49 53/53/53
f 52/52/52 53/53/53 49/49/49
f 43/43/43 47/47/47 54/54/54
f 53/53/53 54/54/54 47/47/47
f 43/43/43 55/55/55 45/45/45
f 54/54/54 55/55/55 43/43/43
f 56/56/56 45/45/45 55/55/55
f 56/56/56 55/55/55 54/54/54
f 57/57/57 45/45/45 56/56/56
f 58/58/58 57/57/57 56/56/56
f 54/54/54 59/59/59 56/56/56
f 56/56/56 59/59/59 58/58/58
f 53/53/53 59/59/59 54/54/54
f 60/60/60 58/58/58 59/59/59
f 52/52/52 61/61/61 53/53/53
f 53/53/53 61/61/61 59/59/59
f 59/59/59 61/61/61 60/60/60
f 52/52/52 62/62/62 61/61/61
f 63/63/63 60/60/60 61/61/61
f 61/61/61 62/62/62 63/63/63
f 66/66/66 65/65/65 64/64/64
f 67/67/67 65/65/65 66/66/66
f 66/66/66 68/68/68 67/67/67
f 64/64/64 69/69/69 66/66/66
f 69/69/69 64/64/64 70/70/70
f 68/68/68 66/66/66 71/71/71
f 71/71/71 66/66/66 69/69/69
f 68/68/68 71/71/71 72/72/72
f 72/72/72 71/71/71 73/73/73
f 73/73/73 74/74/74 72/72/72
f 75/75/75 74/74/74 73/73/73
f 73/73/73 71/71/71 76/76/76
f 69/69/69 76/76/76 71/71/71
f 70/70/70 77/77/77 69/69/69
f 77/77/77 70/70/70 78/78/78
f 78/78/78 79/79/79 77/77/77
f 69/69/69 77/77/77 80/80/80
f 80/80/80 77/77/77 79/79/79
f 69/69/69 80/80/80 76/76/76
f 79/79/79 81/81/81 80/80/80
f 82/82/82 80/80/80 81/81/81
f 76/76/76 80/80/80 82/82/82
f 81/81/81 83/83/83 82/82/82
f 82/82/82 83/83/83 75/75/75
f 76/76/76 84/84/84 73/73/73
f 73/73/73 84/84/84 75/75/75
f 82/82/82 84/84/84 76/76/76
f 75/75/75 84/84/84 82/82/82
