g gate-07-b-neon-lod2
v -0.01360695 -1.156245 3.195795
v -0.01360705 1.154029 3.152489
v -0.01360705 1.153951 3.199625
v -0.01360695 -1.156167 3.148659
v 0.02721395 1.15399 3.176057
v 0.02721405 -1.156206 3.172227
v -0.01360705 1.153951 3.199625
v -0.01360695 -1.156245 3.195795
vt 0.6846812 0.7805632
vt 0.9978197 0.7870077
vt 0.9978197 0.7805632
vt 0.6846812 0.7870077
vt 0.9978197 0.7934519
vt 0.6846812 0.7934519
vt 0.9978197 0.7996801
vt 0.6846814 0.7996801
vn -0.5000018 -0.001435814 0.8660232
vn -0.5000017 0.001435771 -0.8660232
vn -0.5000001 -0.001435816 0.8660242
vn -0.5 0.001435773 -0.8660242
vn 1 0 1.973165E-06
vn 1 0 -2.200838E-06
vn -0.5000001 -0.001435816 0.8660242
vn -0.5000018 -0.001435814 0.8660232
g gate-07-b-neon-lod2_0
f 3/3/3 2/2/2 1/1/1
f 2/2/2 4/4/4 1/1/1
f 2/2/2 5/5/5 4/4/4
f 5/5/5 6/6/6 4/4/4
f 5/5/5 7/7/7 6/6/6
f 7/7/7 8/8/8 6/6/6
