g gate-other-05-trigger
v -1.093516 1.418192 1.800293
v 1.093516 1.418192 1.800294
v 1.093516 1.418191 0.3647047
v -1.093516 1.41819 0.3647043
v -1.093515 1.568172 1.800294
v -1.093515 1.568171 0.3647047
v 1.093516 1.568172 0.3647051
v 1.093516 1.568173 1.800295
v -1.093516 1.418192 1.800293
v -1.093516 1.41819 0.3647043
v -1.093515 1.568171 0.3647047
v -1.093515 1.568172 1.800294
v 1.093516 1.418192 1.800294
v -1.093516 1.418192 1.800293
v -1.093515 1.568172 1.800294
v 1.093516 1.568173 1.800295
v 1.093516 1.568172 0.3647051
v 1.093516 1.418192 1.800294
v 1.093516 1.568173 1.800295
v 1.093516 1.418191 0.3647047
v -1.093515 1.568171 0.3647047
v 1.093516 1.418191 0.3647047
v 1.093516 1.568172 0.3647051
v -1.093516 1.41819 0.3647043
vt 0 0
vt 1 1
vt 1 0.5195338
vt 0.4804662 0
vt 1 0
vt 0.5195338 0
vt 0 0.5195338
vt 0 1
vt 1 0
vt 0.5195338 0
vt 0.5195338 1
vt 1 1
vt 1 0
vt -0.3090166 2.897509E-06
vt -0.3090165 0.9999977
vt 1 1
vt 0.4804662 1
vt 0 0
vt 0 1
vt 0.4804662 0
vt 9.297249 0.9999868
vt 0.4804662 0
vt 0.4804662 1
vt 9.297249 -1.319178E-05
vn 0 -1 0
vn 0 -1 0
vn 0 -1 0
vn 0 -1 0
vn 0 1 0
vn 0 1 0
vn 0 1 0
vn 0 1 0
vn -0.7071081 0 0.7071055
vn -1 0 0
vn -1 0 0
vn -0.7071059 0 0.7071076
vn 0.7071069 0 0.7071066
vn -0.7071081 0 0.7071055
vn -0.7071059 0 0.7071076
vn 0.7071065 0 0.7071071
vn 1 0 0
vn 0.7071069 0 0.7071066
vn 0.7071065 0 0.7071071
vn 1 0 0
vn 0 0 -1
vn 0 0 -1
vn 0 0 -1
vn 0 0 -1
g gate-other-05-trigger_0
f 3/3/3 2/2/2 1/1/1
f 1/1/1 4/4/4 3/3/3
f 7/7/7 6/6/6 5/5/5
f 5/5/5 8/8/8 7/7/7
f 11/11/11 10/10/10 9/9/9
f 9/9/9 12/12/12 11/11/11
f 15/15/15 14/14/14 13/13/13
f 13/13/13 16/16/16 15/15/15
f 19/19/19 18/18/18 17/17/17
f 20/20/20 17/17/17 18/18/18
f 23/23/23 22/22/22 21/21/21
f 22/22/22 24/24/24 21/21/21
