g gate-neon-04-lod2
v 0.8 0.25 0.05
v 0.8 -0.2500001 0
v 0.8 -0.2500001 0.05
v 0.8 0.25 0
v 0.8 0.25 0
v 0.8 0.25 0.05
v -0.8000001 0.25 0.05
v -0.8000001 0.25 0
v -0.8000001 -0.2500001 0.05
v -0.8000001 0.25 0.05
v 0.8 -0.2500001 0.05
v 0.8 0.25 0.05
v -0.8000001 0.25 0
v -0.8000001 0.25 0.05
v -0.8000001 -0.2500001 0
v -0.8000001 -0.2500001 0.05
v -0.8000001 0.25 0
v -0.8000001 -0.2500001 0
v 0.8 0.25 0
v 0.8 -0.2500001 0
v 0.8 -0.2500001 0.05
v -0.8000001 -0.2500001 0
v -0.8000001 -0.2500001 0.05
v 0.8 -0.2500001 0
v 0.3677 -0.019 0.5945
v 0.37275 0 0.5755
v -0.37235 0 0.5755
v -0.3673 -0.019 0.5945
v -0.3622 0 0.6135
v 0.3626 0 0.6135
v -0.3673 0.019 0.5945
v 0.3677 0.019 0.5945
v -0.37235 0 0.5755
v 0.37275 0 0.5755
v -0.37235 0 0.5755
v -0.3673 0.019 0.5945
v -1.01305 0 0.9454
v -1.00795 0.019 0.9644
v -0.3622 0 0.6135
v -1.0029 0 0.9834
v -1.00795 -0.019 0.9644
v -0.3673 -0.019 0.5945
v -1.01305 0 0.9454
v -0.37235 0 0.5755
v -1.7529 0.019 0.9644
v -1.7529 0 0.9454
v -1.01305 0 0.9454
v -1.00795 0.019 0.9644
v -1.7529 0 0.9834
v -1.0029 0 0.9834
v -1.00795 -0.019 0.9644
v -1.7529 -0.019 0.9644
v -1.01305 0 0.9454
v -1.7529 0 0.9454
v 0.3677 0.019 0.5945
v 0.37275 0 0.5755
v 1.01345 0 0.9454
v 1.00835 0.019 0.9644
v 0.3626 0 0.6135
v 1.0033 0 0.9834
v 1.00835 -0.019 0.9644
v 0.3677 -0.019 0.5945
v 1.01345 0 0.9454
v 0.37275 0 0.5755
v 1.01345 0 0.9454
v 1.7533 0 0.9454
v 1.7533 0.019 0.9644
v 1.00835 0.019 0.9644
v 1.7533 0 0.9834
v 1.0033 0 0.9834
v 1.00835 -0.019 0.9644
v 1.7533 -0.019 0.9644
v 1.01345 0 0.9454
v 1.7533 0 0.9454
v -1.7529 0 0.9454
v -1.7529 0.019 0.9644
v -1.7529 0 0.9834
v -1.7529 -0.019 0.9644
v 1.7533 0 0.9454
v 1.7533 -0.019 0.9644
v 1.7533 0 0.9834
v 1.7533 0.019 0.9644
v 0.3752 -0.125 0.5
v 0.7502 -0.125 0.5
v 0.3752 -0.125 0.05000001
v 0.7502 -0.125 0.05000001
v 0.7502 0.125 0.5
v 0.3752 0.125 0.5
v 0.7502 0.125 0.05000001
v 0.3752 0.125 0.05000001
v 0.3752 0.125 0.5
v 0.3752 -0.125 0.05000001
v 0.3752 0.125 0.05000001
v 0.3752 -0.125 0.5
v 0.3752 -0.075 0.5500001
v 0.3752 0.075 0.5500001
v 0.3752 0.125 0.5
v 0.7502 0.125 0.5
v 0.7502 0.075 0.5500001
v 0.3752 0.075 0.5500001
v 0.3752 -0.075 0.5500001
v 0.7502 -0.075 0.5500001
v 0.7502 -0.125 0.5
v 0.3752 -0.125 0.5
v 0.7502 0.125 0.5
v 0.7502 0.125 0.05000001
v 0.7502 -0.125 0.05000001
v 0.7502 -0.125 0.5
v 0.7502 -0.075 0.5500001
v 0.7502 0.075 0.5500001
v 0.525 0.019 0.6855
v 0.525 -0.019 0.6855
v 0.525 0.019 0.5500001
v 0.525 -0.019 0.5500001
v 0.8 -0.019 0.8444499
v 0.8 0.019 0.8444499
v 0.8 -0.019 0.05000001
v 0.8 0.019 0.05000001
v 0.525 -0.019 0.5500001
v 0.525 -0.019 0.6855
v 0.7500001 -0.019 0.5500001
v 0.8 -0.019 0.8444499
v 0.8 -0.019 0.05000001
v 0.7500001 -0.019 0.05000001
v 0.7500001 0.019 0.05000001
v 0.8 0.019 0.05000001
v 0.7500001 0.019 0.5500001
v 0.8 0.019 0.8444499
v 0.525 0.019 0.6855
v 0.525 0.019 0.5500001
v -0.3752002 -0.125 0.5
v -0.3752002 -0.125 0.05000001
v -0.7502002 -0.125 0.5
v -0.7502002 -0.125 0.05000001
v -0.7502002 0.125 0.5
v -0.7502002 0.125 0.05000001
v -0.3752002 0.125 0.5
v -0.3752002 0.125 0.05000001
v -0.3752002 0.125 0.5
v -0.3752002 0.125 0.05000001
v -0.3752002 -0.125 0.05000001
v -0.3752002 -0.125 0.5
v -0.3752002 -0.075 0.5500001
v -0.3752002 0.075 0.5500001
v -0.7502002 0.075 0.5500001
v -0.7502002 0.125 0.5
v -0.3752002 0.125 0.5
v -0.3752002 0.075 0.5500001
v -0.3752002 -0.075 0.5500001
v -0.7502002 -0.075 0.5500001
v -0.7502002 -0.125 0.5
v -0.3752002 -0.125 0.5
v -0.7502002 -0.125 0.05000001
v -0.7502002 0.125 0.05000001
v -0.7502002 0.125 0.5
v -0.7502002 -0.125 0.5
v -0.7502002 -0.075 0.5500001
v -0.7502002 0.075 0.5500001
v -0.5250002 0.019 0.5500001
v -0.5250002 -0.019 0.6855
v -0.5250002 0.019 0.6855
v -0.5250002 -0.019 0.5500001
v -0.8000001 0.019 0.8444499
v -0.8000001 -0.019 0.8444499
v -0.8000001 -0.019 0.05000001
v -0.8000001 0.019 0.05000001
v -0.5250002 -0.019 0.5500001
v -0.7500002 -0.019 0.5500001
v -0.5250002 -0.019 0.6855
v -0.8000001 -0.019 0.8444499
v -0.8000001 -0.019 0.05000001
v -0.7500002 -0.019 0.05000001
v -0.8000001 0.019 0.05000001
v -0.7500002 0.019 0.05000001
v -0.7500002 0.019 0.5500001
v -0.8000001 0.019 0.8444499
v -0.5250002 0.019 0.6855
v -0.5250002 0.019 0.5500001
vt 0.7837185 0.8166158
vt 0.7902797 0.751001
vt 0.7837185 0.751001
vt 0.7902797 0.8166158
vt 0.8510318 0.96097
vt 0.857593 0.9609697
vt 0.857593 0.7510027
vt 0.8510318 0.751003
vt 0.8662817 0.9610537
vt 0.9318963 0.9610537
vt 0.8662817 0.7510868
vt 0.9318963 0.7510868
vt 0.783658 0.883131
vt 0.7902192 0.883131
vt 0.783658 0.8175163
vt 0.7902192 0.8175163
vt 0.9986245 0.7510868
vt 0.9330095 0.7510868
vt 0.9986245 0.9610537
vt 0.9330095 0.9610537
vt 0.8652295 0.751003
vt 0.858668 0.9609697
vt 0.8652295 0.9609697
vt 0.858668 0.7510027
vt 0.7876368 0.8862505
vt 0.7838185 0.8855878
vt 0.7838185 0.9833667
vt 0.7876368 0.9827037
vt 0.7914503 0.9820345
vt 0.7914503 0.8869197
vt 0.7952635 0.9827037
vt 0.7952635 0.8862505
vt 0.799082 0.9833667
vt 0.799082 0.8855878
vt 0.7665465 0.849168
vt 0.762739 0.8498397
vt 0.766558 0.946253
vt 0.7627332 0.946919
vt 0.758925 0.8505052
vt 0.7589148 0.9475902
vt 0.7551055 0.946917
vt 0.7551015 0.8498378
vt 0.7512897 0.9462495
vt 0.7512853 0.8491645
vt 0.7712848 0.7510307
vt 0.767464 0.7510307
vt 0.767468 0.8481207
vt 0.7712805 0.84879
vt 0.7751005 0.7510307
vt 0.7750993 0.8494525
vt 0.778919 0.8487895
vt 0.778916 0.7510303
vt 0.7827325 0.8481193
vt 0.7827355 0.7510297
vt 0.7712122 0.8499478
vt 0.7673988 0.8492752
vt 0.7673993 0.94636
vt 0.771218 0.947027
vt 0.7750313 0.8506145
vt 0.7750307 0.9476992
vt 0.778845 0.9470263
vt 0.7788492 0.849947
vt 0.7826632 0.9463583
vt 0.7826638 0.8492733
vt 0.7665355 0.8482035
vt 0.7665398 0.7511138
vt 0.7627195 0.751113
vt 0.7627233 0.8488722
vt 0.758904 0.7511128
vt 0.7589043 0.8495347
vt 0.7550855 0.8488718
vt 0.755088 0.7511125
vt 0.7512712 0.8482022
vt 0.7512687 0.7511125
vt 0.7966365 0.8793663
vt 0.7931103 0.8793663
vt 0.7931105 0.8828923
vt 0.7966368 0.8828927
vt 0.7968155 0.8725743
vt 0.7932892 0.8725743
vt 0.7932895 0.8761002
vt 0.7968153 0.8761
vt 0.791226 0.751044
vt 0.791226 0.8002548
vt 0.850279 0.751044
vt 0.850279 0.8002548
vt 0.8502905 0.8502715
vt 0.8502905 0.8010607
vt 0.7912372 0.8502715
vt 0.7912372 0.8010607
vt 0.9394608 0.9619713
vt 0.998513 0.9947762
vt 0.9985113 0.9619688
vt 0.9394578 0.9947785
vt 0.9328965 0.988215
vt 0.9328997 0.968531
vt 0.8007072 0.8896102
vt 0.8499182 0.8896087
vt 0.8499175 0.8803293
vt 0.8007065 0.8803307
vt 0.8007055 0.8606452
vt 0.849916 0.8606465
vt 0.8499168 0.8513687
vt 0.8007057 0.8513643
vt 0.872844 0.9950483
vt 0.931899 0.995046
vt 0.9318975 0.962239
vt 0.872846 0.962241
vt 0.8662855 0.9688005
vt 0.8662822 0.988485
vt 0.7995368 0.851346
vt 0.79455 0.8513458
vt 0.7995368 0.8691275
vt 0.79455 0.8691275
vt 0.800142 0.9947475
vt 0.8051288 0.9947475
vt 0.800142 0.8904923
vt 0.805129 0.8904923
vt 0.8419893 0.9561135
vt 0.841993 0.9738955
vt 0.812463 0.9561213
vt 0.8059043 0.9947618
vt 0.8059085 0.8905067
vt 0.81247 0.8905072
vt 0.8432635 0.9948043
vt 0.8498247 0.9948035
vt 0.8432568 0.9291887
vt 0.8498215 0.8905485
vt 0.8137332 0.9114
vt 0.8137298 0.9291812
vt 0.791226 0.751044
vt 0.850279 0.751044
vt 0.791226 0.8002548
vt 0.850279 0.8002548
vt 0.8502905 0.8502715
vt 0.7912372 0.8502715
vt 0.8502905 0.8010607
vt 0.7912372 0.8010607
vt 0.9394608 0.9619713
vt 0.9985113 0.9619688
vt 0.998513 0.9947762
vt 0.9394578 0.9947785
vt 0.9328965 0.988215
vt 0.9328997 0.968531
vt 0.8499175 0.8803293
vt 0.8499182 0.8896087
vt 0.8007072 0.8896102
vt 0.8007065 0.8803307
vt 0.8007055 0.8606452
vt 0.849916 0.8606465
vt 0.8499168 0.8513687
vt 0.8007057 0.8513643
vt 0.9318975 0.962239
vt 0.931899 0.995046
vt 0.872844 0.9950483
vt 0.872846 0.962241
vt 0.8662855 0.9688005
vt 0.8662822 0.988485
vt 0.7995368 0.8691275
vt 0.79455 0.8513458
vt 0.7995368 0.851346
vt 0.79455 0.8691275
vt 0.8051288 0.9947475
vt 0.800142 0.9947475
vt 0.800142 0.8904923
vt 0.805129 0.8904923
vt 0.8419893 0.9561135
vt 0.812463 0.9561213
vt 0.841993 0.9738955
vt 0.8059043 0.9947618
vt 0.8059085 0.8905067
vt 0.81247 0.8905072
vt 0.8498247 0.9948035
vt 0.8432635 0.9948043
vt 0.8432568 0.9291887
vt 0.8498215 0.8905485
vt 0.8137332 0.9114
vt 0.8137298 0.9291812
vn 1 0 0
vn 1 0 0
vn 1 0 0
vn 1 0 0
vn 0 1 0
vn 0 1 0
vn 0 1 0
vn 0 1 0
vn 0 0 1
vn 0 0 1
vn 0 0 1
vn 0 0 1
vn -1 0 0
vn -1 0 0
vn -1 0 0
vn -1 0 0
vn 0 0 -1
vn 0 0 -1
vn 0 0 -1
vn 0 0 -1
vn 0 -1 0
vn 0 -1 0
vn 0 -1 0
vn 0 -1 0
vn 0 -0.9930045 -0.1180762
vn 0 0 -1
vn 0 0 -1
vn 0 -0.9930046 -0.1180759
vn 0 0 1
vn 0 0 1
vn 0 0.9930046 -0.118076
vn 0 0.9930045 -0.1180763
vn 0 0 -1
vn 0 0 -1
vn -0.5000061 0 -0.8660219
vn -0.05935044 0.9929302 -0.1027963
vn -0.5000061 0 -0.8660219
vn 0.05935213 0.9929299 0.1027993
vn 0.5000061 0 0.8660219
vn 0.5000061 0 0.8660219
vn 0.05935215 -0.9929299 0.1027993
vn -0.05935042 -0.9929302 -0.1027963
vn -0.5000061 0 -0.8660219
vn -0.5000061 0 -0.8660219
vn 0 1 0
vn 0 0 -1
vn 0 0 -1
vn 0 0.9930046 0.1180761
vn 0 0 1
vn 0 0 1
vn 0 -0.9930046 0.1180761
vn 0 -1 0
vn 0 0 -1
vn 0 0 -1
vn 0.05935099 0.9929301 -0.1027972
vn 0.5000062 0 -0.8660219
vn 0.5000063 0 -0.8660218
vn -0.05935171 0.99293 0.1027985
vn -0.5000061 0 0.8660219
vn -0.5000061 0 0.8660219
vn -0.05935168 -0.99293 0.1027986
vn 0.05935101 -0.9929301 -0.1027972
vn 0.5000063 0 -0.8660218
vn 0.5000062 0 -0.8660219
vn 0 0 -1
vn 0 0 -1
vn 0 1 0
vn 0 0.9930046 0.1180754
vn 0 0 1
vn 0 0 1
vn 0 -0.9930046 0.1180754
vn 0 -1 0
vn 0 0 -1
vn 0 0 -1
vn -1 0 0
vn -1 0 0
vn -1 0 0
vn -1 0 0
vn 1 0 0
vn 1 0 0
vn 1 0 0
vn 1 0 0
vn 0 -1 0
vn 0 -1 0
vn 0 -1 0
vn 0 -1 0
vn 0 1 0
vn 0 1 0
vn 0 1 0
vn 0 1 0
vn -1 0 0
vn -1 0 0
vn -1 0 0
vn -1 0 0
vn -1 0 0
vn -1 0 0
vn 0 0.7071072 0.7071062
vn 0 0.7071072 0.7071062
vn 0 0.3826838 0.9238794
vn 0 0.3826838 0.9238794
vn 0 -0.3826838 0.9238794
vn 0 -0.3826838 0.9238794
vn 0 -0.7071072 0.7071062
vn 0 -0.7071072 0.7071062
vn 1 0 0
vn 1 0 0
vn 1 0 0
vn 1 0 0
vn 1 0 0
vn 1 0 0
vn -1 0 0
vn -1 0 0
vn -1 0 0
vn -1 0 0
vn 1 0 0
vn 1 0 0
vn 1 0 0
vn 1 0 0
vn 0 -1 0
vn 0 -1 0
vn 0 -1 0
vn 0 -1 0
vn 0 -1 0
vn 0 -1 0
vn 0 1 0
vn 0 1 0
vn 0 1 0
vn 0 1 0
vn 0 1 0
vn 0 1 0
vn 0 -1 0
vn 0 -1 0
vn 0 -1 0
vn 0 -1 0
vn 0 1 0
vn 0 1 0
vn 0 1 0
vn 0 1 0
vn 1 0 0
vn 1 0 0
vn 1 0 0
vn 1 0 0
vn 1 0 0
vn 1 0 0
vn 0 0.3826838 0.9238794
vn 0 0.7071072 0.7071062
vn 0 0.7071072 0.7071062
vn 0 0.3826838 0.9238794
vn 0 -0.3826838 0.9238794
vn 0 -0.3826838 0.9238794
vn 0 -0.7071072 0.7071062
vn 0 -0.7071072 0.7071062
vn -1 0 0
vn -1 0 0
vn -1 0 0
vn -1 0 0
vn -1 0 0
vn -1 0 0
vn 1 0 0
vn 1 0 0
vn 1 0 0
vn 1 0 0
vn -1 0 0
vn -1 0 0
vn -1 0 0
vn -1 0 0
vn 0 -1 0
vn 0 -1 0
vn 0 -1 0
vn 0 -1 0
vn 0 -1 0
vn 0 -1 0
vn 0 1 0
vn 0 1 0
vn 0 1 0
vn 0 1 0
vn 0 1 0
vn 0 1 0
g gate-neon-04-lod2_0
f 3/3/3 2/2/2 1/1/1
f 2/2/2 4/4/4 1/1/1
f 7/7/7 6/6/6 5/5/5
f 5/5/5 8/8/8 7/7/7
f 11/11/11 10/10/10 9/9/9
f 10/10/10 11/11/11 12/12/12
f 15/15/15 14/14/14 13/13/13
f 14/14/14 15/15/15 16/16/16
f 19/19/19 18/18/18 17/17/17
f 18/18/18 19/19/19 20/20/20
f 23/23/23 22/22/22 21/21/21
f 22/22/22 24/24/24 21/21/21
f 27/27/27 26/26/26 25/25/25
f 25/25/25 28/28/28 27/27/27
f 29/29/29 28/28/28 25/25/25
f 25/25/25 30/30/30 29/29/29
f 30/30/30 31/31/31 29/29/29
f 31/31/31 30/30/30 32/32/32
f 32/32/32 33/33/33 31/31/31
f 33/33/33 32/32/32 34/34/34
f 37/37/37 36/36/36 35/35/35
f 37/37/37 38/38/38 36/36/36
f 38/38/38 39/39/39 36/36/36
f 38/38/38 40/40/40 39/39/39
f 39/39/39 40/40/40 41/41/41
f 41/41/41 42/42/42 39/39/39
f 42/42/42 41/41/41 43/43/43
f 43/43/43 44/44/44 42/42/42
f 47/47/47 46/46/46 45/45/45
f 45/45/45 48/48/48 47/47/47
f 48/48/48 45/45/45 49/49/49
f 49/49/49 50/50/50 48/48/48
f 51/51/51 50/50/50 49/49/49
f 49/49/49 52/52/52 51/51/51
f 53/53/53 51/51/51 52/52/52
f 52/52/52 54/54/54 53/53/53
f 57/57/57 56/56/56 55/55/55
f 55/55/55 58/58/58 57/57/57
f 58/58/58 55/55/55 59/59/59
f 59/59/59 60/60/60 58/58/58
f 61/61/61 60/60/60 59/59/59
f 61/61/61 59/59/59 62/62/62
f 63/63/63 61/61/61 62/62/62
f 62/62/62 64/64/64 63/63/63
f 67/67/67 66/66/66 65/65/65
f 65/65/65 68/68/68 67/67/67
f 69/69/69 67/67/67 68/68/68
f 68/68/68 70/70/70 69/69/69
f 70/70/70 71/71/71 69/69/69
f 71/71/71 72/72/72 69/69/69
f 71/71/71 73/73/73 72/72/72
f 73/73/73 74/74/74 72/72/72
f 77/77/77 76/76/76 75/75/75
f 75/75/75 78/78/78 77/77/77
f 81/81/81 80/80/80 79/79/79
f 79/79/79 82/82/82 81/81/81
f 85/85/85 84/84/84 83/83/83
f 85/85/85 86/86/86 84/84/84
f 89/89/89 88/88/88 87/87/87
f 89/89/89 90/90/90 88/88/88
f 93/93/93 92/92/92 91/91/91
f 94/94/94 91/91/91 92/92/92
f 94/94/94 95/95/95 91/91/91
f 95/95/95 96/96/96 91/91/91
f 99/99/99 98/98/98 97/97/97
f 97/97/97 100/100/100 99/99/99
f 100/100/100 101/101/101 99/99/99
f 101/101/101 102/102/102 99/99/99
f 103/103/103 102/102/102 101/101/101
f 101/101/101 104/104/104 103/103/103
f 107/107/107 106/106/106 105/105/105
f 107/107/107 105/105/105 108/108/108
f 105/105/105 109/109/109 108/108/108
f 105/105/105 110/110/110 109/109/109
f 113/113/113 112/112/112 111/111/111
f 113/113/113 114/114/114 112/112/112
f 117/117/117 116/116/116 115/115/115
f 117/117/117 118/118/118 116/116/116
f 121/121/121 120/120/120 119/119/119
f 122/122/122 120/120/120 121/121/121
f 122/122/122 121/121/121 123/123/123
f 121/121/121 124/124/124 123/123/123
f 127/127/127 126/126/126 125/125/125
f 126/126/126 127/127/127 128/128/128
f 127/127/127 129/129/129 128/128/128
f 130/130/130 129/129/129 127/127/127
f 133/133/133 132/132/132 131/131/131
f 134/134/134 132/132/132 133/133/133
f 137/137/137 136/136/136 135/135/135
f 138/138/138 136/136/136 137/137/137
f 141/141/141 140/140/140 139/139/139
f 141/141/141 139/139/139 142/142/142
f 143/143/143 142/142/142 139/139/139
f 139/139/139 144/144/144 143/143/143
f 147/147/147 146/146/146 145/145/145
f 148/148/148 147/147/147 145/145/145
f 149/149/149 148/148/148 145/145/145
f 145/145/145 150/150/150 149/149/149
f 150/150/150 151/151/151 149/149/149
f 151/151/151 152/152/152 149/149/149
f 155/155/155 154/154/154 153/153/153
f 153/153/153 156/156/156 155/155/155
f 155/155/155 156/156/156 157/157/157
f 158/158/158 155/155/155 157/157/157
f 161/161/161 160/160/160 159/159/159
f 162/162/162 159/159/159 160/160/160
f 165/165/165 164/164/164 163/163/163
f 163/163/163 166/166/166 165/165/165
f 169/169/169 168/168/168 167/167/167
f 169/169/169 170/170/170 168/168/168
f 171/171/171 168/168/168 170/170/170
f 171/171/171 172/172/172 168/168/168
f 175/175/175 174/174/174 173/173/173
f 176/176/176 175/175/175 173/173/173
f 177/177/177 175/175/175 176/176/176
f 177/177/177 178/178/178 175/175/175
