g gate-08-neon-lod2
v -5.316199 0.7806 0.0207
v -5.316199 0.8205999 0.0207
v -5.316199 0.8005999 0.0407
v -1.9826 0.8205999 0.0207
v -1.9826 0.7806 0.0207
v -1.9826 0.8005999 0.0407
v -1.9565 0.05809999 2.801
v -1.9282 0.0481 2.791
v -1.9565 0.0381 2.781
v -1.9423 1.7895 0.9581999
v -1.9423 1.7612 0.9863999
v -1.9623 1.7754 0.9722999
v -1.9565 1.7866 1.0739
v -1.9565 1.7666 1.0539
v -1.9282 1.7766 1.0639
v -1.9423 0.8286 0.0515
v -1.9423 0.8568999 0.0232
v -1.9623 0.8426999 0.0373
v -5.3162 -0.7795319 0.0207
v -5.3162 -0.7995318 0.0407
v -5.3162 -0.8195319 0.0207
v -1.9826 -0.7795319 0.0207
v -1.9826 -0.8195319 0.0207
v -1.9826 -0.7995318 0.0407
v -1.9423 -0.0329318 2.7769
v -1.9423 -0.06123184 2.8052
v -1.962299 -0.04703187 2.791
v -1.9423 -1.788432 0.9581999
v -1.962299 -1.774332 0.9722999
v -1.9423 -1.760132 0.9863999
v -1.9423 -1.761332 1.0497
v -1.962299 -1.775532 1.0639
v -1.9423 -1.789632 1.078
v -1.9423 -0.8558318 0.0232
v -1.9423 -0.8275317 0.05149999
v -1.962299 -0.8416318 0.03729999
v -1.9826 0.8005999 0.0407
v -5.316199 0.8205999 0.0207
v -1.9826 0.8205999 0.0207
v -5.316199 0.8005999 0.0407
v -1.9826 0.7806 0.0207
v -5.316199 0.7806 0.0207
v -1.9826 0.8205999 0.0207
v -5.316199 0.8205999 0.0207
v -1.9623 1.7754 0.9722999
v -1.9423 0.8286 0.0515
v -1.9623 0.8426999 0.0373
v -1.9423 1.7612 0.9863999
v -1.9423 0.8568999 0.0232
v -1.9423 1.7895 0.9581999
v -1.9623 0.8426999 0.0373
v -1.9623 1.7754 0.9722999
v -1.9565 0.05809999 2.801
v -1.9565 0.0381 2.781
v -1.9565 1.7666 1.0539
v -1.9565 1.7866 1.0739
v -1.9282 0.0481 2.791
v -1.9282 1.7766 1.0639
v -1.9565 0.0381 2.781
v -1.9565 1.7666 1.0539
v -5.3162 -0.8195319 0.0207
v -1.9826 -0.7995318 0.0407
v -1.9826 -0.8195319 0.0207
v -5.3162 -0.7995318 0.0407
v -1.9826 -0.7795319 0.0207
v -5.3162 -0.7795319 0.0207
v -1.9826 -0.8195319 0.0207
v -5.3162 -0.8195319 0.0207
v -1.9423 -0.8275317 0.05149999
v -1.962299 -1.774332 0.9722999
v -1.962299 -0.8416318 0.03729999
v -1.9423 -1.760132 0.9863999
v -1.9423 -0.8558318 0.0232
v -1.9423 -1.788432 0.9581999
v -1.962299 -0.8416318 0.03729999
v -1.962299 -1.774332 0.9722999
v -1.962299 -1.775532 1.0639
v -1.962299 -0.04703187 2.791
v -1.9423 -0.06123184 2.8052
v -1.9423 -1.789632 1.078
v -1.9423 -0.0329318 2.7769
v -1.9423 -1.761332 1.0497
v -1.962299 -0.04703187 2.791
v -1.962299 -1.775532 1.0639
vt 0.1890288 0.3613409
vt 0.1801077 0.3613488
vt 0.1845709 0.365804
vt 0.1803808 0.3433807
vt 0.1893026 0.3433888
vt 0.1848438 0.3389283
vt 0.1657341 0.3584871
vt 0.1688879 0.3648366
vt 0.1720702 0.3585028
vt 0.148171 0.3436117
vt 0.1571229 0.343561
vt 0.1526159 0.3391081
vt 0.1658056 0.3463191
vt 0.1721432 0.3463455
vt 0.1689973 0.3399914
vt 0.156873 0.3619545
vt 0.1479031 0.36195
vt 0.1523858 0.3664303
vt 0.1890288 0.3613409
vt 0.1845709 0.365804
vt 0.1801077 0.3613488
vt 0.1893026 0.3433888
vt 0.1803808 0.3433807
vt 0.1848438 0.3389283
vt 0.1733653 0.361683
vt 0.164399 0.3616662
vt 0.1689062 0.3571905
vt 0.148171 0.3436117
vt 0.1526159 0.3391081
vt 0.1571229 0.343561
vt 0.1734799 0.3431692
vt 0.1689681 0.3476388
vt 0.1645146 0.3431358
vt 0.1479031 0.36195
vt 0.156873 0.3619545
vt 0.1523858 0.3664303
vt 0.1844798 0.4050021
vt 0.004434379 0.4064157
vt 0.1844798 0.4064157
vt 0.004434379 0.4050021
vt 0.1844798 0.4033481
vt 0.004434379 0.4033481
vt 0.1844798 0.4000373
vt 0.004434379 0.4000373
vt 0.266067 0.3980201
vt 0.2051006 0.3966055
vt 0.2051006 0.3980201
vt 0.266067 0.3966048
vt 0.2051006 0.3937804
vt 0.266067 0.3937797
vt 0.2051006 0.3923655
vt 0.266067 0.3923655
vt 0.3137963 0.3731984
vt 0.3137964 0.3719912
vt 0.2009828 0.3719907
vt 0.2009828 0.3731984
vt 0.3137963 0.375323
vt 0.2009828 0.3753179
vt 0.3137963 0.3774424
vt 0.2009828 0.3774424
vt 0.004434379 0.4064157
vt 0.1844798 0.4050021
vt 0.1844798 0.4064157
vt 0.004434379 0.4050021
vt 0.1844798 0.4033481
vt 0.004434379 0.4033481
vt 0.1844798 0.4000373
vt 0.004434379 0.4000373
vt 0.2051006 0.3966055
vt 0.266067 0.3980201
vt 0.2051006 0.3980201
vt 0.266067 0.3966048
vt 0.2051006 0.3937804
vt 0.266067 0.3937797
vt 0.2051006 0.3923655
vt 0.266067 0.3923655
vt 0.2009828 0.372493
vt 0.3137963 0.372493
vt 0.3137963 0.3739091
vt 0.2009828 0.3739068
vt 0.3137963 0.3767344
vt 0.2009828 0.3767318
vt 0.3137963 0.3781482
vt 0.2009828 0.3781482
vn -0.5469182 -0.7734588 -0.3203779
vn -0.5469182 0.7734592 -0.3203771
vn -0.5773501 -7.448671E-07 0.8164966
vn 0.5469182 0.7734592 -0.3203771
vn 0.5469182 -0.7734588 -0.3203779
vn 0.5773501 -7.448671E-07 0.8164966
vn -0.4368048 0.1056864 0.8933264
vn 0.8346132 -0.3896386 0.3893618
vn -0.4367341 -0.8933187 -0.106043
vn 0.3206205 0.9338482 -0.1585251
vn 0.3204812 -0.1619932 0.9333007
vn -0.8161004 0.408316 0.4089721
vn -0.436731 0.8933203 0.1060421
vn -0.436806 -0.1056832 -0.8933262
vn 0.8346159 0.389632 -0.3893624
vn 0.3207053 -0.9335023 0.1603796
vn 0.3209196 0.1618095 -0.9331818
vn -0.8152447 -0.4089202 -0.4100737
vn -0.5469182 0.7734588 -0.3203779
vn -0.5773501 8.324987E-07 0.8164966
vn -0.5469182 -0.7734591 -0.3203772
vn 0.5469182 0.7734588 -0.3203779
vn 0.5469182 -0.7734591 -0.3203772
vn 0.5773501 8.324987E-07 0.8164966
vn 0.3200246 0.9339018 -0.1594105
vn 0.3205124 -0.1610395 0.9334549
vn -0.8164796 0.4083698 0.4081605
vn 0.3206204 -0.9338483 -0.1585242
vn -0.8160995 -0.4083172 0.4089728
vn 0.3204809 0.1619956 0.9333003
vn 0.320513 0.1610403 -0.9334546
vn -0.8164758 -0.4083747 -0.4081633
vn 0.3200264 -0.9339004 0.1594155
vn 0.3209196 -0.1618103 -0.9331816
vn 0.320704 0.933503 0.1603784
vn -0.8152453 0.4089185 -0.410074
vn 0.5773501 -7.448671E-07 0.8164966
vn -0.5469182 0.7734592 -0.3203771
vn 0.5469182 0.7734592 -0.3203771
vn -0.5773501 -7.448671E-07 0.8164966
vn 0.5469182 -0.7734588 -0.3203779
vn -0.5469182 -0.7734588 -0.3203779
vn 0.5469182 0.7734592 -0.3203771
vn -0.5469182 0.7734592 -0.3203771
vn -0.8161004 0.408316 0.4089721
vn 0.3207053 -0.9335023 0.1603796
vn -0.8152447 -0.4089202 -0.4100737
vn 0.3204812 -0.1619932 0.9333007
vn 0.3209196 0.1618095 -0.9331818
vn 0.3206205 0.9338482 -0.1585251
vn -0.8152447 -0.4089202 -0.4100737
vn -0.8161004 0.408316 0.4089721
vn -0.4368048 0.1056864 0.8933264
vn -0.4367341 -0.8933187 -0.106043
vn -0.436806 -0.1056832 -0.8933262
vn -0.436731 0.8933203 0.1060421
vn 0.8346132 -0.3896386 0.3893618
vn 0.8346159 0.389632 -0.3893624
vn -0.4367341 -0.8933187 -0.106043
vn -0.436806 -0.1056832 -0.8933262
vn -0.5469182 -0.7734591 -0.3203772
vn 0.5773501 8.324987E-07 0.8164966
vn 0.5469182 -0.7734591 -0.3203772
vn -0.5773501 8.324987E-07 0.8164966
vn 0.5469182 0.7734588 -0.3203779
vn -0.5469182 0.7734588 -0.3203779
vn 0.5469182 -0.7734591 -0.3203772
vn -0.5469182 -0.7734591 -0.3203772
vn 0.320704 0.933503 0.1603784
vn -0.8160995 -0.4083172 0.4089728
vn -0.8152453 0.4089185 -0.410074
vn 0.3204809 0.1619956 0.9333003
vn 0.3209196 -0.1618103 -0.9331816
vn 0.3206204 -0.9338483 -0.1585242
vn -0.8152453 0.4089185 -0.410074
vn -0.8160995 -0.4083172 0.4089728
vn -0.8164758 -0.4083747 -0.4081633
vn -0.8164796 0.4083698 0.4081605
vn 0.3205124 -0.1610395 0.9334549
vn 0.3200264 -0.9339004 0.1594155
vn 0.3200246 0.9339018 -0.1594105
vn 0.320513 0.1610403 -0.9334546
vn -0.8164796 0.4083698 0.4081605
vn -0.8164758 -0.4083747 -0.4081633
g gate-08-neon-lod2_0
f 3/3/3 2/2/2 1/1/1
f 6/6/6 5/5/5 4/4/4
f 9/9/9 8/8/8 7/7/7
f 12/12/12 11/11/11 10/10/10
f 15/15/15 14/14/14 13/13/13
f 18/18/18 17/17/17 16/16/16
f 21/21/21 20/20/20 19/19/19
f 24/24/24 23/23/23 22/22/22
f 27/27/27 26/26/26 25/25/25
f 30/30/30 29/29/29 28/28/28
f 33/33/33 32/32/32 31/31/31
f 36/36/36 35/35/35 34/34/34
f 39/39/39 38/38/38 37/37/37
f 38/38/38 40/40/40 37/37/37
f 37/37/37 40/40/40 41/41/41
f 40/40/40 42/42/42 41/41/41
f 41/41/41 42/42/42 43/43/43
f 42/42/42 44/44/44 43/43/43
f 47/47/47 46/46/46 45/45/45
f 46/46/46 48/48/48 45/45/45
f 46/46/46 49/49/49 48/48/48
f 49/49/49 50/50/50 48/48/48
f 49/49/49 51/51/51 50/50/50
f 51/51/51 52/52/52 50/50/50
f 55/55/55 54/54/54 53/53/53
f 56/56/56 55/55/55 53/53/53
f 56/56/56 53/53/53 57/57/57
f 58/58/58 56/56/56 57/57/57
f 58/58/58 57/57/57 59/59/59
f 60/60/60 58/58/58 59/59/59
f 63/63/63 62/62/62 61/61/61
f 62/62/62 64/64/64 61/61/61
f 62/62/62 65/65/65 64/64/64
f 65/65/65 66/66/66 64/64/64
f 65/65/65 67/67/67 66/66/66
f 67/67/67 68/68/68 66/66/66
f 71/71/71 70/70/70 69/69/69
f 70/70/70 72/72/72 69/69/69
f 69/69/69 72/72/72 73/73/73
f 72/72/72 74/74/74 73/73/73
f 73/73/73 74/74/74 75/75/75
f 74/74/74 76/76/76 75/75/75
f 79/79/79 78/78/78 77/77/77
f 80/80/80 79/79/79 77/77/77
f 81/81/81 79/79/79 80/80/80
f 82/82/82 81/81/81 80/80/80
f 83/83/83 81/81/81 82/82/82
f 84/84/84 83/83/83 82/82/82
