g gate-multigp-c-02-trigger
v 1.069617 -0.01899671 0.9160837
v 1.069617 -0.0157372 -0.9161479
v -1.069617 -0.01899677 0.9160835
v -1.069617 -0.01573721 -0.9161479
v 1.069617 0.01899951 -0.9160861
v -1.069617 0.01574043 0.9161453
v -1.069617 0.01899997 -0.9160861
v 1.069617 0.01574 0.9161455
v 1.069617 0.01574 0.9161455
v -1.069617 -0.01899677 0.9160835
v -1.069617 0.01574043 0.9161453
v 1.069617 -0.01899671 0.9160837
v 1.069617 0.01899951 -0.9160861
v 1.069617 -0.01899671 0.9160837
v 1.069617 0.01574 0.9161455
v 1.069617 -0.0157372 -0.9161479
v 1.069617 0.01899951 -0.9160861
v -1.069617 0.01899997 -0.9160861
v -1.069617 -0.01573721 -0.9161479
v 1.069617 -0.0157372 -0.9161479
v -1.069617 0.01574043 0.9161453
v -1.069617 -0.01573721 -0.9161479
v -1.069617 0.01899997 -0.9160861
v -1.069617 -0.01899677 0.9160835
vt 0 0
vt 0 1
vt 1 0
vt 1 1
vt 1 1
vt 0 0
vt 0 1
vt 1 0
vt 1 1
vt 0 0
vt 0 1
vt 1 0
vt 1 1
vt 0 0
vt 0 1
vt 1 0
vt 0 1
vt 1 1
vt 1 0
vt 0 0
vt 1 1
vt 0 0
vt 0 1
vt 1 0
vn 0 -0.9999985 -0.001778986
vn 0 -0.9999985 -0.001778995
vn 0 -0.9999985 -0.001778981
vn 0 -0.9999985 -0.001778995
vn 0 0.9999985 0.001778995
vn 0 0.9999985 0.001778995
vn 0 0.9999985 0.001778986
vn 0 0.9999985 0.001778986
vn 0 -0.001779818 0.9999985
vn 0 -0.001779823 0.9999985
vn 0 -0.001779823 0.9999985
vn 0 -0.001779833 0.9999985
vn 1 0 0
vn 1 0 0
vn 1 0 0
vn 1 0 0
vn 0 0.001778147 -0.9999985
vn 0 0.001778138 -0.9999985
vn 0 0.001778143 -0.9999985
vn 0 0.001778143 -0.9999985
vn -1 0 0
vn -1 0 0
vn -1 0 0
vn -1 0 0
g gate-multigp-c-02-trigger_0
f 3/3/3 2/2/2 1/1/1
f 4/4/4 2/2/2 3/3/3
f 7/7/7 6/6/6 5/5/5
f 6/6/6 8/8/8 5/5/5
f 11/11/11 10/10/10 9/9/9
f 10/10/10 12/12/12 9/9/9
f 15/15/15 14/14/14 13/13/13
f 14/14/14 16/16/16 13/13/13
f 19/19/19 18/18/18 17/17/17
f 17/17/17 20/20/20 19/19/19
f 23/23/23 22/22/22 21/21/21
f 22/22/22 24/24/24 21/21/21
