g gate-regional-02-trigger
v 1.419171 -0.1276184 0.3879487
v 1.486475 0.1276183 8.03963E-08
v 1.486475 -0.1276184 3.881297E-08
v 1.419171 0.1276182 0.3879488
v 1.332271 -0.1276185 0.6303819
v 1.332271 0.1276182 0.630382
v 1.203264 -0.1276185 0.8574874
v 1.203264 0.1276182 0.8574875
v 1.039255 -0.1276186 1.055954
v 1.039255 0.1276181 1.055954
v 0.8426884 -0.1276186 1.223595
v 0.8426884 0.1276181 1.223595
v 0.6206502 -0.1276186 1.35376
v 0.6206502 0.1276181 1.35376
v 0.3807111 -0.1276186 1.44252
v 0.3807111 0.1276181 1.44252
v 0.127417 -0.1276186 1.48787
v 0.1274171 0.1276181 1.48787
v -0.1274173 -0.1276186 1.48787
v -0.1274173 0.1276181 1.48787
v -1.419172 0.1276183 0.3879489
v -1.486475 -0.1276184 2.176269E-07
v -1.486475 0.1276183 3.188149E-07
v -1.419172 -0.1276184 0.3879488
v -1.332271 0.1276182 0.6303821
v -1.332271 -0.1276184 0.6303821
v -1.203265 0.1276181 0.8574876
v -1.203265 -0.1276185 0.8574874
v -1.039255 0.1276181 1.055954
v -1.039255 -0.1276185 1.055954
v -0.8426885 0.1276181 1.223594
v -0.8426884 -0.1276186 1.223594
v -0.6206502 0.1276181 1.353759
v -0.6206502 -0.1276186 1.353759
v -0.3807113 0.1276181 1.442521
v -0.3807113 -0.1276186 1.44252
v -0.1274173 0.1276181 1.48787
v -0.1274173 -0.1276186 1.48787
v -1.486475 0.1276183 3.188149E-07
v -1.332271 0.1276182 0.6303821
v -1.419172 0.1276183 0.3879489
v 1.486475 0.1276183 8.03963E-08
v -0.6206502 0.1276181 1.353759
v -1.039255 0.1276181 1.055954
v -1.203265 0.1276181 0.8574876
v -0.8426885 0.1276181 1.223594
v 0.3807111 0.1276181 1.44252
v -0.1274173 0.1276181 1.48787
v -0.3807113 0.1276181 1.442521
v 0.1274171 0.1276181 1.48787
v 1.203264 0.1276182 0.8574875
v 1.419171 0.1276182 0.3879488
v 1.332271 0.1276182 0.630382
v 0.8426884 0.1276181 1.223595
v 0.6206502 0.1276181 1.35376
v 1.039255 0.1276181 1.055954
v 1.486475 -0.1276184 3.881297E-08
v 1.332271 -0.1276185 0.6303819
v 1.419171 -0.1276184 0.3879487
v -1.486475 -0.1276184 2.176269E-07
v 0.6206502 -0.1276186 1.35376
v 1.039255 -0.1276186 1.055954
v 1.203264 -0.1276185 0.8574874
v 0.8426884 -0.1276186 1.223595
v -0.3807113 -0.1276186 1.44252
v 0.127417 -0.1276186 1.48787
v 0.3807111 -0.1276186 1.44252
v -0.1274173 -0.1276186 1.48787
v -1.203265 -0.1276185 0.8574874
v -1.419172 -0.1276184 0.3879488
v -1.332271 -0.1276184 0.6303821
v -0.8426884 -0.1276186 1.223594
v -0.6206502 -0.1276186 1.353759
v -1.039255 -0.1276185 1.055954
v -1.486475 -0.1276184 2.176269E-07
v 1.486475 0.1276183 8.03963E-08
v -1.486475 0.1276183 3.188149E-07
v 1.486475 -0.1276184 3.881297E-08
vt 0.7917097 1
vt 0.75 0
vt 0.75 1
vt 0.7917097 0
vt 0.8194504 1
vt 0.8194504 0
vt 0.8472162 1
vt 0.8472162 0
vt 0.875082 1
vt 0.875082 0
vt 0.9026958 1
vt 0.9026958 0
vt 0.9307055 1
vt 0.9307055 0
vt 0.9581834 1
vt 0.9581834 0
vt 0.9862881 1
vt 0.9862881 0
vt 1.013712 1
vt 1.013712 0
vt 0.2082903 0
vt 0.25 1
vt 0.25 0
vt 0.2082903 1
vt 0.1805496 0
vt 0.1805496 1
vt 0.1527838 0
vt 0.1527838 1
vt 0.124918 0
vt 0.124918 1
vt 0.09730424 0
vt 0.09730424 1
vt 0.06929456 0
vt 0.06929456 1
vt 0.0418166 0
vt 0.0418166 1
vt -0.7440145 -2.188203E-07
vt -0.7440145 0.9999998
vt 0.4999999 0
vt 0.2913778 0.05186905
vt 0.3716101 0.02263861
vt 0.5 1
vt 0.05197928 0.2912342
vt 0.1505367 0.1504297
vt 0.2162183 0.09526245
vt 0.09505682 0.2165481
vt 0.02260417 0.6280583
vt 0.007596135 0.4571411
vt 0.02260419 0.3719416
vt 0.007596135 0.5428588
vt 0.2162182 0.9047375
vt 0.37161 0.9773614
vt 0.2913778 0.948131
vt 0.09505675 0.7834519
vt 0.05197924 0.7087657
vt 0.1505367 0.8495703
vt 0.5 1
vt 0.2913778 0.948131
vt 0.37161 0.9773614
vt 0.4999999 0
vt 0.05197924 0.7087657
vt 0.1505367 0.8495703
vt 0.2162182 0.9047375
vt 0.09505675 0.7834519
vt 0.02260419 0.3719416
vt 0.007596135 0.5428588
vt 0.02260417 0.6280583
vt 0.007596135 0.4571411
vt 0.2162183 0.09526245
vt 0.3716101 0.02263861
vt 0.2913778 0.05186905
vt 0.09505682 0.2165481
vt 0.05197928 0.2912342
vt 0.1505367 0.1504297
vt 0.25 1
vt 0.75 0
vt 0.25 0
vt 0.75 1
vn 0.9669073 0 0.2551282
vn 0.9852827 0 0.1709328
vn 0.9852827 0 0.1709327
vn 0.9669071 0 0.2551284
vn 0.9088038 0 0.4172239
vn 0.9088038 0 0.4172239
vn 0.8232933 0 0.5676161
vn 0.8232936 0 0.5676159
vn 0.7125726 0 0.7015983
vn 0.7125726 0 0.7015984
vn 0.5795585 0 0.8149306
vn 0.5795586 0 0.8149306
vn 0.4279968 0 0.9037802
vn 0.4279968 0 0.9037802
vn 0.2626231 0 0.9648985
vn 0.2626232 0 0.9648985
vn 0.08846419 0 0.9960794
vn 0.08846421 0 0.9960794
vn -0.08846421 0 0.9960794
vn -0.0884641 0 0.9960794
vn -0.9669074 0 0.2551279
vn -0.9852828 0 0.1709322
vn -0.9852828 0 0.1709322
vn -0.9669074 0 0.2551278
vn -0.9088037 0 0.417224
vn -0.9088037 0 0.417224
vn -0.8232929 0 0.5676167
vn -0.823293 0 0.5676167
vn -0.7125725 0 0.7015986
vn -0.7125723 0 0.7015987
vn -0.5795584 0 0.8149307
vn -0.5795584 0 0.8149307
vn -0.4279976 0 0.9037799
vn -0.4279976 0 0.9037799
vn -0.2626233 0 0.9648985
vn -0.2626234 0 0.9648985
vn -0.0884641 0 0.9960794
vn -0.08846421 0 0.9960794
vn 0 1 0
vn 0 1 0
vn 0 1 0
vn 0 1 0
vn 0 1 0
vn 0 1 0
vn 0 1 0
vn 0 1 0
vn 0 1 0
vn 0 1 0
vn 0 1 0
vn 0 1 0
vn 0 1 0
vn 0 1 0
vn 0 1 0
vn 0 1 0
vn 0 1 0
vn 0 1 0
vn 0 -1 0
vn 0 -1 0
vn 0 -1 0
vn 0 -1 0
vn 0 -1 0
vn 0 -1 0
vn 0 -1 0
vn 0 -1 0
vn 0 -1 0
vn 0 -1 0
vn 0 -1 0
vn 0 -1 0
vn 0 -1 0
vn 0 -1 0
vn 0 -1 0
vn 0 -1 0
vn 0 -1 0
vn 0 -1 0
vn 0 0 -1
vn 0 0 -1
vn 0 0 -1
vn 0 0 -1
g gate-regional-02-trigger_0
f 3/3/3 2/2/2 1/1/1
f 4/4/4 1/1/1 2/2/2
f 1/1/1 4/4/4 5/5/5
f 6/6/6 5/5/5 4/4/4
f 5/5/5 6/6/6 7/7/7
f 8/8/8 7/7/7 6/6/6
f 7/7/7 8/8/8 9/9/9
f 10/10/10 9/9/9 8/8/8
f 9/9/9 10/10/10 11/11/11
f 12/12/12 11/11/11 10/10/10
f 11/11/11 12/12/12 13/13/13
f 14/14/14 13/13/13 12/12/12
f 13/13/13 14/14/14 15/15/15
f 16/16/16 15/15/15 14/14/14
f 15/15/15 16/16/16 17/17/17
f 18/18/18 17/17/17 16/16/16
f 17/17/17 18/18/18 19/19/19
f 20/20/20 19/19/19 18/18/18
f 23/23/23 22/22/22 21/21/21
f 24/24/24 21/21/21 22/22/22
f 21/21/21 24/24/24 25/25/25
f 26/26/26 25/25/25 24/24/24
f 25/25/25 26/26/26 27/27/27
f 28/28/28 27/27/27 26/26/26
f 27/27/27 28/28/28 29/29/29
f 30/30/30 29/29/29 28/28/28
f 29/29/29 30/30/30 31/31/31
f 32/32/32 31/31/31 30/30/30
f 31/31/31 32/32/32 33/33/33
f 34/34/34 33/33/33 32/32/32
f 33/33/33 34/34/34 35/35/35
f 36/36/36 35/35/35 34/34/34
f 35/35/35 36/36/36 37/37/37
f 38/38/38 37/37/37 36/36/36
f 41/41/41 40/40/40 39/39/39
f 40/40/40 42/42/42 39/39/39
f 43/43/43 42/42/42 40/40/40
f 44/44/44 43/43/43 40/40/40
f 45/45/45 44/44/44 40/40/40
f 46/46/46 43/43/43 44/44/44
f 47/47/47 42/42/42 43/43/43
f 48/48/48 47/47/47 43/43/43
f 49/49/49 48/48/48 43/43/43
f 50/50/50 47/47/47 48/48/48
f 51/51/51 42/42/42 47/47/47
f 52/52/52 42/42/42 51/51/51
f 53/53/53 52/52/52 51/51/51
f 54/54/54 51/51/51 47/47/47
f 55/55/55 54/54/54 47/47/47
f 56/56/56 51/51/51 54/54/54
f 59/59/59 58/58/58 57/57/57
f 58/58/58 60/60/60 57/57/57
f 61/61/61 60/60/60 58/58/58
f 62/62/62 61/61/61 58/58/58
f 63/63/63 62/62/62 58/58/58
f 64/64/64 61/61/61 62/62/62
f 65/65/65 60/60/60 61/61/61
f 66/66/66 65/65/65 61/61/61
f 67/67/67 66/66/66 61/61/61
f 68/68/68 65/65/65 66/66/66
f 69/69/69 60/60/60 65/65/65
f 70/70/70 60/60/60 69/69/69
f 71/71/71 70/70/70 69/69/69
f 72/72/72 69/69/69 65/65/65
f 73/73/73 72/72/72 65/65/65
f 74/74/74 69/69/69 72/72/72
f 77/77/77 76/76/76 75/75/75
f 78/78/78 75/75/75 76/76/76
