g gate-06-f-neon-lod2
v 0.01704695 1.2192 4.098221
v 0.03227894 1.230199 6.116385
v 0.01322995 1.2192 6.116353
v 0.03609695 1.230199 4.098253
v 0.03227995 1.208202 6.116385
v 0.03609695 1.208202 4.098253
v 0.01322995 1.2192 6.116353
v 0.01704695 1.2192 4.098221
v 0.01704705 -1.219263 4.098221
v 0.03227905 -1.208264 6.116385
v 0.01323005 -1.219263 6.116353
v 0.03609705 -1.208264 4.098253
v 0.03228005 -1.230261 6.116385
v 0.03609705 -1.230261 4.098253
v 0.01323005 -1.219263 6.116353
v 0.01704705 -1.219263 4.098221
v 0.02339705 -1.146585 4.01776
v 0.01957895 1.151165 3.995763
v 0.01957895 1.151165 4.01776
v 0.02339705 -1.146585 3.995763
v 0.03862895 1.151196 4.006763
v 0.04244705 -1.146554 4.006763
v 0.01957895 1.151165 4.01776
v 0.02339705 -1.146585 4.01776
v -0.00709795 -1.146593 6.214249
v 0.01195195 1.151175 6.221431
v -0.00709805 1.151157 6.210433
v 0.01195205 -1.146575 6.225248
v -0.00709805 1.151193 6.232429
v -0.00709795 -1.146557 6.236246
v -0.00709805 1.151157 6.210433
v -0.00709795 -1.146593 6.214249
vt 0.8739301 0.5538764
vt 0.50258 0.5490514
vt 0.50258 0.5538764
vt 0.8739301 0.5490514
vt 0.50258 0.5442014
vt 0.8739301 0.5442014
vt 0.50258 0.5393764
vt 0.8739301 0.5393764
vt 0.8739301 0.5538764
vt 0.50258 0.5490514
vt 0.50258 0.5538764
vt 0.8739301 0.5490514
vt 0.50258 0.5442014
vt 0.8739301 0.5442014
vt 0.50258 0.5393764
vt 0.8739301 0.5393764
vt 0.87393 0.5550765
vt 0.50258 0.5514764
vt 0.5025799 0.5550824
vt 0.8739301 0.5514764
vt 0.50258 0.5466264
vt 0.8739301 0.5466264
vt 0.50258 0.5418014
vt 0.8739301 0.5418014
vt 0.87393 0.5549157
vt 0.50258 0.5502514
vt 0.5025799 0.5549305
vt 0.8739301 0.5502514
vt 0.50258 0.5454264
vt 0.8739301 0.5454264
vt 0.50258 0.5405764
vt 0.8739301 0.5405764
vn -0.9999982 -2.526838E-05 -0.001891474
vn 0.4998831 0.8660924 0.0009455796
vn -0.9999982 -2.512286E-05 -0.001891474
vn 0.5000699 0.8659846 0.0009459328
vn 0.499925 -0.8660682 0.0009457825
vn 0.5001113 -0.8659606 0.0009461348
vn -0.9999982 -2.512286E-05 -0.001891474
vn -0.9999982 -2.526838E-05 -0.001891474
vn -0.9999982 -2.526838E-05 -0.001891474
vn 0.4998831 0.8660924 0.0009455796
vn -0.9999982 -2.512286E-05 -0.001891474
vn 0.5000699 0.8659846 0.0009459328
vn 0.499925 -0.8660682 0.0009457825
vn 0.5001113 -0.8659606 0.0009461349
vn -0.9999982 -2.512286E-05 -0.001891474
vn -0.9999982 -2.526838E-05 -0.001891474
vn -0.499995 -0.0008308258 0.866028
vn -0.5000036 -0.0008308403 -0.8660229
vn -0.5000244 -0.0008308747 0.8660108
vn -0.4999742 -0.0008307912 -0.8660399
vn 0.9999987 0.001661667 2.405698E-05
vn 0.9999987 0.001661667 2.398203E-05
vn -0.5000244 -0.0008308747 0.8660108
vn -0.499995 -0.0008308258 0.866028
vn -0.4999999 -0.00143859 -0.8660243
vn 1 1.664576E-07 4.705282E-06
vn -0.4999886 -0.001438601 -0.8660308
vn 1 2.104807E-07 3.126735E-05
vn -0.5000156 0.001438646 0.8660151
vn -0.5000041 0.001438658 0.8660219
vn -0.4999886 -0.001438601 -0.8660308
vn -0.4999999 -0.00143859 -0.8660243
g gate-06-f-neon-lod2_0
f 3/3/3 2/2/2 1/1/1
f 2/2/2 4/4/4 1/1/1
f 2/2/2 5/5/5 4/4/4
f 5/5/5 6/6/6 4/4/4
f 5/5/5 7/7/7 6/6/6
f 7/7/7 8/8/8 6/6/6
f 11/11/11 10/10/10 9/9/9
f 10/10/10 12/12/12 9/9/9
f 10/10/10 13/13/13 12/12/12
f 13/13/13 14/14/14 12/12/12
f 13/13/13 15/15/15 14/14/14
f 15/15/15 16/16/16 14/14/14
f 19/19/19 18/18/18 17/17/17
f 18/18/18 20/20/20 17/17/17
f 18/18/18 21/21/21 20/20/20
f 21/21/21 22/22/22 20/20/20
f 21/21/21 23/23/23 22/22/22
f 23/23/23 24/24/24 22/22/22
f 27/27/27 26/26/26 25/25/25
f 26/26/26 28/28/28 25/25/25
f 26/26/26 29/29/29 28/28/28
f 29/29/29 30/30/30 28/28/28
f 29/29/29 31/31/31 30/30/30
f 31/31/31 32/32/32 30/30/30
