g gate-drl-36-lod2
v 9.536743E-07 -0.06530149 1.131372
v 4.768372E-07 -3.576279E-07 -4.768372E-07
v 4.768372E-07 -0.4303628 0
v 9.536743E-07 -3.576279E-07 1.131372
v -0.002171516 -0.4303628 0.002196074
v 9.536743E-07 -0.06530149 1.131372
v 4.768372E-07 -0.4303628 0
v -0.04344988 -0.06530149 1.129369
v -0.1042957 -0.2934648 0.1053953
v -0.2064204 -0.1565668 0.2085946
v -0.2745032 -0.06530149 0.2773948
v -0.2745032 -3.427267E-07 0.2773948
v -0.04344988 -3.576279E-07 1.129369
v -1.131383 -0.0653014 4.768372E-07
v -0.8554823 -0.1538931 0.03341365
v -0.855629 -0.1542784 7.152557E-07
v -1.128916 -0.0653014 0.04341722
v -0.7817593 -0.06530143 0.1384847
v -0.7819462 -2.980232E-07 0.1384337
v -1.128916 -2.682209E-07 0.04341722
v -0.555747 -3.129244E-07 0.2003775
v -0.5559888 -0.06530146 0.2003112
v -0.2745032 -0.06530149 0.2773948
v -0.2745032 -3.427267E-07 0.2773948
v -0.2064204 -0.1565668 0.2085946
v 9.536743E-07 -3.576279E-07 1.131372
v -0.04344988 -0.06530149 1.129369
v -0.04344988 -3.576279E-07 1.129369
v 9.536743E-07 -0.06530149 1.131372
v -1.128916 -2.682209E-07 0.04341722
v -1.131383 -0.0653014 4.768372E-07
v -1.131383 -2.682209E-07 4.768372E-07
v -1.128916 -0.0653014 0.04341722
v -0.2745032 -3.427267E-07 0.2773948
v -0.08529139 -3.576279E-07 0.08618927
v -0.04344988 -3.576279E-07 1.129369
v 9.536743E-07 -3.576279E-07 1.131372
v 4.768372E-07 -3.576279E-07 -4.768372E-07
v -0.112597 -3.576279E-07 -2.384186E-07
v -0.7780652 -2.980232E-07 0
v -1.128916 -2.682209E-07 0.04341722
v -1.131383 -2.682209E-07 4.768372E-07
v -0.7819462 -2.980232E-07 0.1384337
v -0.855629 -0.1542784 7.152557E-07
v -0.1367369 -0.386764 0.00711894
v -0.135612 -0.386605 2.384186E-07
v -0.8554823 -0.1538931 0.03341365
v -0.1042957 -0.2934648 0.1053953
v -0.5559888 -0.06530146 0.2003112
v -0.7817593 -0.06530143 0.1384847
v -0.2064204 -0.1565668 0.2085946
v -0.135612 -0.386605 2.384186E-07
v -0.002171516 -0.4303628 0.002196074
v 4.768372E-07 -0.4303628 0
v -0.1367369 -0.386764 0.00711894
v -0.1042957 -0.2934648 0.1053953
v 4.768372E-07 -3.576279E-07 -4.768372E-07
v -0.135612 -0.386605 2.384186E-07
v 4.768372E-07 -0.4303628 0
v -0.1125975 -0.006499276 -4.768372E-07
v -0.112597 -3.576279E-07 -2.384186E-07
v -0.6766448 -0.03905489 0
v -0.855629 -0.1542784 7.152557E-07
v -0.7780652 -2.980232E-07 0
v -1.131383 -0.0653014 4.768372E-07
v -1.131383 -2.682209E-07 4.768372E-07
v -0.7780652 -2.980232E-07 0
v -0.555747 -3.129244E-07 0.2003775
v -0.7819462 -2.980232E-07 0.1384337
v -0.112597 -3.576279E-07 -2.384186E-07
v -0.08529139 -3.576279E-07 0.08618927
v -0.2745032 -3.427267E-07 0.2773948
vt 1.402324 0.9632897
vt 1.004144 0.9863742
vt 1.003 0.8344961
vt 1.402326 0.9863489
vt 1.429889 0.5600644
vt 1.043072 0.7210816
vt 1.429889 0.5590004
vt 1.049688 0.7349301
vt 1.404348 0.625693
vt 1.378806 0.6913216
vt 1.361779 0.735074
vt 1.361762 0.758041
vt 1.049671 0.758041
vt 1.043072 0.8063344
vt 1.142098 0.8347645
vt 1.137616 0.8452403
vt 1.04969 0.792491
vt 1.176516 0.7923938
vt 1.17641 0.7693628
vt 1.049672 0.7693789
vt 1.259032 0.7693676
vt 1.258972 0.7923724
vt 1.361784 0.7923459
vt 1.361764 0.769379
vt 1.378811 0.8360981
vt 1.988971 0.2344277
vt 1.973621 0.2574759
vt 1.973621 0.2344277
vt 1.988971 0.2574759
vt 1.86044 0.3133519
vt 1.845092 0.3363995
vt 1.845092 0.3133519
vt 1.86044 0.3363995
vt 1.100535 0.4762159
vt 1.034178 0.4098459
vt 1.401641 0.3940077
vt 1.402421 0.3786759
vt 1.004266 0.3799461
vt 1.004123 0.4195656
vt 1.00329 0.6537091
vt 1.018328 0.7773272
vt 1.003 0.7781126
vt 1.051702 0.6550605
vt 1.137616 0.8452403
vt 1.384139 0.9471846
vt 1.383016 0.950316
vt 1.142098 0.8347645
vt 1.404351 0.9017265
vt 1.258972 0.7923724
vt 1.176516 0.7923938
vt 1.378811 0.8360981
vt 1.383016 0.950316
vt 1.429892 0.9673548
vt 1.429892 0.9684195
vt 1.384139 0.9471846
vt 1.404351 0.9017265
vt 1.696718 0.4654375
vt 1.650109 0.3290306
vt 1.697862 0.3135588
vt 1.657137 0.4632763
vt 1.65709 0.4654385
vt 1.458577 0.4515586
vt 1.395882 0.4105445
vt 1.422881 0.4654195
vt 1.298534 0.4423531
vt 1.298532 0.465412
vt 1.00329 0.6537091
vt 1.073465 0.5753098
vt 1.051702 0.6550605
vt 1.004123 0.4195656
vt 1.034178 0.4098459
vt 1.100535 0.4762159
vn 1 0 0
vn 1 0 0
vn 1 0 0
vn 1 0 0
vn 0.05036391 -0.9524795 0.3004101
vn -0.01379622 -0.9514104 0.3076165
vn 0.2965217 -0.9088826 0.2932703
vn -0.6699245 -0.6515486 0.3559292
vn -0.7112329 -0.6759758 0.1928844
vn -0.711232 -0.6759768 0.1928845
vn -0.884181 -0.4009064 0.2397878
vn -0.9651375 0 0.261743
vn -0.9651375 0 0.261743
vn -0.3075563 -0.9513764 0.01708712
vn -0.2707962 -0.8803904 0.3893356
vn -0.3074215 -0.9514968 0.01207374
vn -0.3569655 -0.6527098 0.6682405
vn -0.2459615 -0.3644 0.8981735
vn -0.2641217 0 0.9644894
vn -0.264122 0 0.9644893
vn -0.2641216 0 0.9644894
vn -0.2459613 -0.3643997 0.8981737
vn -0.2418395 -0.4020023 0.8831239
vn -0.264121 0 0.9644896
vn -0.1939768 -0.6786875 0.7083476
vn -0.04604814 0 0.9989392
vn -0.04604814 0 0.9989392
vn -0.04604813 0 0.9989392
vn -0.04604813 0 0.9989392
vn -0.9983897 0 0.056728
vn -0.9983897 0 0.056728
vn -0.9983897 0 0.05672799
vn -0.9983897 0 0.05672799
vn 0 1 0
vn 0 1 0
vn 0 1 0
vn 0 1 0
vn 0 1 0
vn 0 1 0
vn 0 1 0
vn 0 1 0
vn 0 1 0
vn 0 1 0
vn -0.3074215 -0.9514968 0.01207374
vn -0.2758491 -0.894596 0.3515752
vn -0.3081731 -0.9486732 -0.07105237
vn -0.2707962 -0.8803904 0.3893356
vn -0.1939778 -0.6786871 0.7083478
vn -0.2459613 -0.3643997 0.8981737
vn -0.2459615 -0.3644 0.8981735
vn -0.1939768 -0.6786875 0.7083476
vn -0.3081731 -0.9486732 -0.07105237
vn -0.3005637 -0.952776 -0.04335229
vn -0.2938257 -0.9106129 -0.2906038
vn -0.2758491 -0.894596 0.3515752
vn -0.1939778 -0.6786871 0.7083478
vn 0 0 -1
vn 0 0 -1
vn 0 0 -1
vn 0 1.741075E-05 -1
vn 0 3.585833E-05 -1
vn 0 0 -1
vn 0 0 -1
vn 0 0 -1
vn 0 0 -1
vn 0 0 -1
vn 0 1 0
vn 0 1 0
vn 0 1 0
vn 0 1 0
vn 0 1 0
vn 0 1 0
g gate-drl-36-lod2_0
f 3/3/3 2/2/2 1/1/1
f 2/2/2 4/4/4 1/1/1
f 7/7/7 6/6/6 5/5/5
f 8/8/8 5/5/5 6/6/6
f 8/8/8 9/9/9 5/5/5
f 8/8/8 10/10/10 9/9/9
f 8/8/8 11/11/11 10/10/10
f 11/11/11 8/8/8 12/12/12
f 13/13/13 12/12/12 8/8/8
f 16/16/16 15/15/15 14/14/14
f 17/17/17 14/14/14 15/15/15
f 18/18/18 17/17/17 15/15/15
f 18/18/18 19/19/19 17/17/17
f 20/20/20 17/17/17 19/19/19
f 19/19/19 18/18/18 21/21/21
f 22/22/22 21/21/21 18/18/18
f 22/22/22 23/23/23 21/21/21
f 24/24/24 21/21/21 23/23/23
f 22/22/22 25/25/25 23/23/23
f 28/28/28 27/27/27 26/26/26
f 29/29/29 26/26/26 27/27/27
f 32/32/32 31/31/31 30/30/30
f 33/33/33 30/30/30 31/31/31
f 36/36/36 35/35/35 34/34/34
f 36/36/36 37/37/37 35/35/35
f 38/38/38 35/35/35 37/37/37
f 35/35/35 38/38/38 39/39/39
f 42/42/42 41/41/41 40/40/40
f 43/43/43 40/40/40 41/41/41
f 46/46/46 45/45/45 44/44/44
f 47/47/47 44/44/44 45/45/45
f 45/45/45 48/48/48 47/47/47
f 47/47/47 48/48/48 49/49/49
f 50/50/50 47/47/47 49/49/49
f 49/49/49 48/48/48 51/51/51
f 54/54/54 53/53/53 52/52/52
f 55/55/55 52/52/52 53/53/53
f 55/55/55 53/53/53 56/56/56
f 59/59/59 58/58/58 57/57/57
f 60/60/60 57/57/57 58/58/58
f 60/60/60 61/61/61 57/57/57
f 60/60/60 58/58/58 62/62/62
f 60/60/60 62/62/62 61/61/61
f 63/63/63 62/62/62 58/58/58
f 64/64/64 61/61/61 62/62/62
f 62/62/62 63/63/63 65/65/65
f 62/62/62 65/65/65 64/64/64
f 66/66/66 64/64/64 65/65/65
f 69/69/69 68/68/68 67/67/67
f 70/70/70 67/67/67 68/68/68
f 70/70/70 68/68/68 71/71/71
f 72/72/72 71/71/71 68/68/68
