g gate-drl-48-lod2
v 0.2492766 -0.2287326 0.02126736
v 0.2287326 -0.2287326 0.0007233795
v 0.2287326 -0.2492766 0.02126736
v 0.2492766 -0.2287326 0.4787326
v 0.2287326 -0.2492766 0.4787326
v 0.2287326 -0.2287326 0.4992766
v 0.2287326 0.2492766 0.02126736
v 0.2287326 0.2287326 0.0007233795
v 0.2492766 0.2287326 0.02126736
v 0.2287326 0.2492766 0.4787326
v 0.2492766 0.2287326 0.4787326
v 0.2287326 0.2287326 0.4992766
v -0.2492766 0.2287326 0.02126736
v -0.2287326 0.2287326 0.0007233795
v -0.2287326 0.2492766 0.02126736
v -0.2492766 -0.2287326 0.02126736
v -0.2287326 -0.2492766 0.02126736
v -0.2287326 -0.2287326 0.0007233795
v -0.2492766 -0.2287326 0.4787326
v -0.2287326 -0.2287326 0.4992766
v -0.2287326 -0.2492766 0.4787326
v -0.2492766 0.2287326 0.4787326
v -0.2287326 0.2492766 0.4787326
v -0.2287326 0.2287326 0.4992766
v -0.2287326 0.2287326 0.4992766
v 0.2287326 0.2287326 0.4992766
v 0.2287326 -0.2287326 0.4992766
v -0.2287326 -0.2287326 0.4992766
v 0.2287326 -0.2492766 0.02126736
v -0.2287326 -0.2492766 0.02126736
v -0.2287326 -0.2492766 0.4787326
v 0.2287326 -0.2492766 0.4787326
v -0.2287326 -0.2287326 0.4992766
v 0.2287326 -0.2287326 0.4992766
v 0.2492766 -0.2287326 0.4787326
v 0.2492766 -0.2287326 0.02126736
v 0.2492766 0.2287326 0.02126736
v 0.2492766 -0.2287326 0.02126736
v 0.2492766 -0.2287326 0.4787326
v 0.2492766 0.2287326 0.4787326
v 0.2287326 -0.2287326 0.4992766
v 0.2287326 0.2287326 0.4992766
v 0.2287326 0.2492766 0.4787326
v 0.2287326 0.2492766 0.02126736
v -0.2287326 0.2492766 0.02126736
v 0.2287326 0.2492766 0.02126736
v 0.2287326 0.2492766 0.4787326
v -0.2287326 0.2492766 0.4787326
v 0.2287326 0.2287326 0.4992766
v -0.2287326 0.2287326 0.4992766
v -0.2492766 0.2287326 0.4787326
v -0.2492766 0.2287326 0.02126736
v -0.2492766 -0.2287326 0.02126736
v -0.2492766 0.2287326 0.02126736
v -0.2492766 0.2287326 0.4787326
v -0.2492766 -0.2287326 0.4787326
v -0.2287326 0.2287326 0.4992766
v -0.2287326 -0.2287326 0.4992766
v -0.2287326 -0.2492766 0.4787326
v -0.2287326 -0.2492766 0.02126736
v 0.2287326 -0.2492766 0.02126736
v -0.2287326 -0.2287326 0.0007233795
v -0.2287326 -0.2492766 0.02126736
v 0.2287326 -0.2287326 0.0007233795
v -0.2287326 0.2287326 0.0007233795
v -0.2492766 -0.2287326 0.02126736
v -0.2492766 0.2287326 0.02126736
v 0.2287326 0.2287326 0.0007233795
v -0.2287326 0.2492766 0.02126736
v 0.2287326 0.2492766 0.02126736
v 0.2492766 0.2287326 0.02126736
v 0.2492766 -0.2287326 0.02126736
vt -0.0256692 0.008943443
vt 0.04166667 0.04166667
vt 0.03182673 -0.01642272
vt 1.031791 0.9971779
vt 0.9583333 0.9583333
vt 0.9690678 1.017317
vt 0.008943443 1.025669
vt 0.04166667 0.9583333
vt -0.01642272 0.9681733
vt 1.031791 0.9971779
vt 0.9583333 0.9583333
vt 0.9690678 1.017317
vt 1.025669 0.9910566
vt 0.9583333 0.9583333
vt 0.9681733 1.016423
vt 1.016423 0.03182673
vt 0.9681733 -0.01642273
vt 0.9583333 0.04166667
vt -0.01731727 0.9690678
vt 0.03093215 1.017317
vt 0.04166667 0.9583333
vt 1.031791 0.9971779
vt 0.9583333 0.9583333
vt 0.9690678 1.017317
vt 0.04166667 0.9583333
vt 0.9583333 0.9583333
vt 0.9583333 0.04166667
vt 0.04166667 0.04166667
vt 0.9583333 0.04166666
vt 0.04166667 0.04166667
vt 0.04166667 0.9583333
vt 0.9583333 0.9583333
vt 0.03988772 1.016101
vt 0.9586075 1.016101
vt 1.016101 0.9601125
vt 1.016101 0.0413926
vt 0.9583333 0.04166666
vt 0.04166667 0.04166667
vt 0.04166667 0.9583333
vt 0.9583333 0.9583333
vt 0.03988772 1.016101
vt 0.9586075 1.016101
vt 1.016101 0.9601125
vt 1.016101 0.0413926
vt 0.9583333 0.04166666
vt 0.04166667 0.04166667
vt 0.04166667 0.9583333
vt 0.9583333 0.9583333
vt 0.03988772 1.016101
vt 0.9586075 1.016101
vt 1.016101 0.9601125
vt 1.016101 0.0413926
vt 0.9583333 0.04166666
vt 0.04166667 0.04166667
vt 0.04166667 0.9583333
vt 0.9583333 0.9583333
vt 0.03988772 1.016101
vt 0.9586075 1.016101
vt 1.016101 0.9601125
vt 1.016101 0.0413926
vt 0.0413926 -0.016101
vt 0.9583333 0.04166667
vt 0.9601124 -0.016101
vt 0.04166667 0.04166667
vt 0.9583333 0.9583333
vt 1.016101 0.0413926
vt 1.016101 0.9601124
vt 0.04166667 0.9583333
vt 0.9586074 1.016101
vt 0.03988761 1.016101
vt -0.016101 0.9586074
vt -0.016101 0.03988761
vn 0.9982575 -0.04172542 -0.04172542
vn 0.04172543 -0.04172543 -0.9982575
vn 0.04172542 -0.9982575 -0.04172542
vn 0.9982575 -0.04172544 0.04172539
vn 0.04172539 -0.9982575 0.04172543
vn 0.04172549 -0.04172546 0.9982575
vn 0.04172542 0.9982575 -0.04172542
vn 0.04172542 0.04172542 -0.9982575
vn 0.9982575 0.04172542 -0.04172542
vn 0.04172544 0.9982575 0.04172539
vn 0.9982575 0.04172539 0.04172543
vn 0.04172546 0.04172549 0.9982575
vn -0.9982575 0.04172542 -0.04172542
vn -0.04172542 0.04172542 -0.9982575
vn -0.04172542 0.9982575 -0.04172542
vn -0.9982575 -0.04172542 -0.04172542
vn -0.04172542 -0.9982575 -0.04172542
vn -0.04172543 -0.04172543 -0.9982575
vn -0.9982575 -0.04172539 0.04172543
vn -0.04172546 -0.04172549 0.9982575
vn -0.04172544 -0.9982575 0.04172539
vn -0.9982575 0.04172544 0.04172539
vn -0.04172539 0.9982575 0.04172543
vn -0.04172549 0.04172546 0.9982575
vn -0.04172549 0.04172546 0.9982575
vn 0.04172546 0.04172549 0.9982575
vn 0.04172549 -0.04172546 0.9982575
vn -0.04172546 -0.04172549 0.9982575
vn 0.04172542 -0.9982575 -0.04172542
vn -0.04172542 -0.9982575 -0.04172542
vn -0.04172544 -0.9982575 0.04172539
vn 0.04172539 -0.9982575 0.04172543
vn -0.04172546 -0.04172549 0.9982575
vn 0.04172549 -0.04172546 0.9982575
vn 0.9982575 -0.04172544 0.04172539
vn 0.9982575 -0.04172542 -0.04172542
vn 0.9982575 0.04172542 -0.04172542
vn 0.9982575 -0.04172542 -0.04172542
vn 0.9982575 -0.04172544 0.04172539
vn 0.9982575 0.04172539 0.04172543
vn 0.04172549 -0.04172546 0.9982575
vn 0.04172546 0.04172549 0.9982575
vn 0.04172544 0.9982575 0.04172539
vn 0.04172542 0.9982575 -0.04172542
vn -0.04172542 0.9982575 -0.04172542
vn 0.04172542 0.9982575 -0.04172542
vn 0.04172544 0.9982575 0.04172539
vn -0.04172539 0.9982575 0.04172543
vn 0.04172546 0.04172549 0.9982575
vn -0.04172549 0.04172546 0.9982575
vn -0.9982575 0.04172544 0.04172539
vn -0.9982575 0.04172542 -0.04172542
vn -0.9982575 -0.04172542 -0.04172542
vn -0.9982575 0.04172542 -0.04172542
vn -0.9982575 0.04172544 0.04172539
vn -0.9982575 -0.04172539 0.04172543
vn -0.04172549 0.04172546 0.9982575
vn -0.04172546 -0.04172549 0.9982575
vn -0.04172544 -0.9982575 0.04172539
vn -0.04172542 -0.9982575 -0.04172542
vn 0.04172542 -0.9982575 -0.04172542
vn -0.04172543 -0.04172543 -0.9982575
vn -0.04172542 -0.9982575 -0.04172542
vn 0.04172543 -0.04172543 -0.9982575
vn -0.04172542 0.04172542 -0.9982575
vn -0.9982575 -0.04172542 -0.04172542
vn -0.9982575 0.04172542 -0.04172542
vn 0.04172542 0.04172542 -0.9982575
vn -0.04172542 0.9982575 -0.04172542
vn 0.04172542 0.9982575 -0.04172542
vn 0.9982575 0.04172542 -0.04172542
vn 0.9982575 -0.04172542 -0.04172542
g gate-drl-48-lod2_0
f 3/3/3 2/2/2 1/1/1
f 6/6/6 5/5/5 4/4/4
f 9/9/9 8/8/8 7/7/7
f 12/12/12 11/11/11 10/10/10
f 15/15/15 14/14/14 13/13/13
f 18/18/18 17/17/17 16/16/16
f 21/21/21 20/20/20 19/19/19
f 24/24/24 23/23/23 22/22/22
f 27/27/27 26/26/26 25/25/25
f 25/25/25 28/28/28 27/27/27
f 31/31/31 30/30/30 29/29/29
f 29/29/29 32/32/32 31/31/31
f 33/33/33 31/31/31 32/32/32
f 32/32/32 34/34/34 33/33/33
f 35/35/35 32/32/32 29/29/29
f 29/29/29 36/36/36 35/35/35
f 39/39/39 38/38/38 37/37/37
f 37/37/37 40/40/40 39/39/39
f 41/41/41 39/39/39 40/40/40
f 40/40/40 42/42/42 41/41/41
f 43/43/43 40/40/40 37/37/37
f 37/37/37 44/44/44 43/43/43
f 47/47/47 46/46/46 45/45/45
f 45/45/45 48/48/48 47/47/47
f 49/49/49 47/47/47 48/48/48
f 48/48/48 50/50/50 49/49/49
f 51/51/51 48/48/48 45/45/45
f 45/45/45 52/52/52 51/51/51
f 55/55/55 54/54/54 53/53/53
f 53/53/53 56/56/56 55/55/55
f 57/57/57 55/55/55 56/56/56
f 56/56/56 58/58/58 57/57/57
f 59/59/59 56/56/56 53/53/53
f 53/53/53 60/60/60 59/59/59
f 63/63/63 62/62/62 61/61/61
f 62/62/62 64/64/64 61/61/61
f 62/62/62 65/65/65 64/64/64
f 65/65/65 62/62/62 66/66/66
f 67/67/67 65/65/65 66/66/66
f 65/65/65 68/68/68 64/64/64
f 68/68/68 65/65/65 69/69/69
f 70/70/70 68/68/68 69/69/69
f 64/64/64 68/68/68 71/71/71
f 72/72/72 64/64/64 71/71/71
