g gate-consoles-a-04-trigger
v 3.40306 0.1323311 7.403063
v -3.40306 0.1323318 7.403063
v 3.40306 0.1323312 0.5969329
v -3.40306 0.1323321 0.5969325
v 3.40306 -0.1323322 7.403063
v 3.40306 -0.1323319 0.5969329
v -3.40306 -0.1323314 7.403063
v -3.40306 -0.1323312 0.5969325
v -3.40306 -0.1323312 0.5969325
v -3.40306 0.1323318 7.403063
v -3.40306 -0.1323314 7.403063
v -3.40306 0.1323321 0.5969325
v -3.40306 -0.1323312 0.5969325
v 3.40306 -0.1323319 0.5969329
v 3.40306 0.1323312 0.5969329
v -3.40306 0.1323321 0.5969325
v 3.40306 0.1323311 7.403063
v 3.40306 0.1323312 0.5969329
v 3.40306 -0.1323319 0.5969329
v 3.40306 -0.1323322 7.403063
v 3.40306 0.1323311 7.403063
v -3.40306 -0.1323314 7.403063
v -3.40306 0.1323318 7.403063
v 3.40306 -0.1323322 7.403063
vt 1 1
vt 1 0
vt 0 1
vt 0 0
vt 0 1
vt 1 1
vt 0 0
vt 1 0
vt 1 1
vt 0 0
vt 0 1
vt 1 0
vt 0 1
vt 1 1
vt 1 0
vt 0 0
vt 1 0
vt 0 0
vt 0 1
vt 1 1
vt 0 0
vt 1 1
vt 1 0
vt 0 1
vn 0 1 0
vn 0 1 0
vn 0 1 0
vn 0 1 0
vn 0 -1 0
vn 0 -1 0
vn 0 -1 0
vn 0 -1 0
vn -1 0 0
vn -1 0 0
vn -1 0 0
vn -1 0 0
vn 0 0 -1
vn 0 0 -1
vn 0 0 -1
vn 0 0 -1
vn 1 0 0
vn 1 0 0
vn 1 0 0
vn 1 0 0
vn 0 0 1
vn 0 0 1
vn 0 0 1
vn 0 0 1
g gate-consoles-a-04-trigger_0
f 3/3/3 2/2/2 1/1/1
f 3/3/3 4/4/4 2/2/2
f 7/7/7 6/6/6 5/5/5
f 8/8/8 6/6/6 7/7/7
f 11/11/11 10/10/10 9/9/9
f 12/12/12 9/9/9 10/10/10
f 15/15/15 14/14/14 13/13/13
f 13/13/13 16/16/16 15/15/15
f 19/19/19 18/18/18 17/17/17
f 17/17/17 20/20/20 19/19/19
f 23/23/23 22/22/22 21/21/21
f 22/22/22 24/24/24 21/21/21
