g gate-drl-50-trigger
v 1.338437 -0.1323312 -4.359956
v -1.338438 -0.1323322 -4.359955
v -1.338437 -0.1323323 -1.683081
v 1.338437 -0.1323313 -1.683081
v 1.338437 0.1323321 -4.359956
v 1.338437 0.132332 -1.683081
v -1.338437 0.1323311 -1.683081
v -1.338438 0.1323311 -4.359955
v -1.338437 0.1323311 -1.683081
v -1.338438 -0.1323322 -4.359955
v -1.338438 0.1323311 -4.359955
v -1.338437 -0.1323323 -1.683081
v -1.338437 0.1323311 -1.683081
v 1.338437 0.132332 -1.683081
v 1.338437 -0.1323313 -1.683081
v -1.338437 -0.1323323 -1.683081
v 1.338437 -0.1323312 -4.359956
v 1.338437 -0.1323313 -1.683081
v 1.338437 0.132332 -1.683081
v 1.338437 0.1323321 -4.359956
v 1.338437 -0.1323312 -4.359956
v -1.338438 0.1323311 -4.359955
v -1.338438 -0.1323322 -4.359955
v 1.338437 0.1323321 -4.359956
vt 1 1
vt 1 0
vt 0 0
vt 0 1
vt 0 1
vt 1 1
vt 1 0
vt 0 0
vt 1 1
vt 0 0
vt 0 1
vt 1 0
vt 0 1
vt 1 1
vt 1 0
vt 0 0
vt 1 0
vt 0 0
vt 0 1
vt 1 1
vt 0 0
vt 1 1
vt 1 0
vt 0 1
vn 0 -1 0
vn 0 -1 0
vn 0 -1 0
vn 0 -1 0
vn 0 1 0
vn 0 1 0
vn 0 1 0
vn 0 1 0
vn -1 0 0
vn -1 0 0
vn -1 0 0
vn -1 0 0
vn 0 0 1
vn 0 0 1
vn 0 0 1
vn 0 0 1
vn 1 0 0
vn 1 0 0
vn 1 0 0
vn 1 0 0
vn 0 0 -1
vn 0 0 -1
vn 0 0 -1
vn 0 0 -1
g gate-drl-50-trigger_0
f 3/3/3 2/2/2 1/1/1
f 1/1/1 4/4/4 3/3/3
f 7/7/7 6/6/6 5/5/5
f 5/5/5 8/8/8 7/7/7
f 11/11/11 10/10/10 9/9/9
f 12/12/12 9/9/9 10/10/10
f 15/15/15 14/14/14 13/13/13
f 13/13/13 16/16/16 15/15/15
f 19/19/19 18/18/18 17/17/17
f 17/17/17 20/20/20 19/19/19
f 23/23/23 22/22/22 21/21/21
f 22/22/22 24/24/24 21/21/21
