g gate-drl-17-lod2
v 0.1083183 -0.1397608 2.5636
v -0.04096093 -0.05444085 2.6502
v -0.04096093 0.05443913 2.6502
v 0.1083183 0.1397592 2.5636
v 0.1448398 -0.04600082 2.5424
v 0.1448398 0.04599917 2.5424
v 0 0.17452 5.686583E-08
v 0.4712793 0.4482 1.460421E-07
v -0.03252148 0.4481998 0.4440001
v -0.2959199 0.1745199 0.30156
v -0.503082 0.1745198 0.51264
v -0.2959199 -0.1745201 0.3015599
v 0 -0.17452 -5.686583E-08
v -0.03252148 -0.4482001 0.4439998
v -0.5362812 0.4481996 0.8880401
v 0.4712793 -0.4482 -1.460421E-07
v -0.503082 -0.1745201 0.5126399
v -0.8544804 0.1745197 0.8707199
v -0.04096093 0.05443913 2.6502
v 0.1083183 0.1397592 2.5636
v -0.8544804 -0.1745203 0.8707199
v -0.04096093 -0.05444085 2.6502
v -0.5362812 -0.4482003 0.8880397
v 0.1083183 -0.1397608 2.5636
v 0.09927929 -0.07540071 2.21324
v 0.1448398 -0.04600082 2.5424
v -0.2180801 -0.1745203 0.9053198
v 0.09927929 0.07539928 2.21324
v 0.2180391 -0.1352802 0.5651199
v -0.2180801 0.1745197 0.9053198
v 0.425039 -0.1180801 0.4020799
v 0.9425194 -0.07008 -2.283496E-08
v 0.425039 0.1180799 0.40208
v 0.9425194 0.07008 2.283496E-08
v 0.4712793 0.4482 1.460421E-07
v -0.03252148 0.4481998 0.4440001
v 0.2180391 0.1352798 0.5651199
v -0.5362812 0.4481996 0.8880401
v 0.1083183 0.1397592 2.5636
v 0.1448398 0.04599917 2.5424
v 0.2180391 -0.1352802 0.5651199
v 0.2180391 0.1352798 0.5651199
v 0.09927929 0.07539928 2.21324
v 0.09927929 -0.07540071 2.21324
v 0.425039 -0.1180801 0.4020799
v 0.1448398 -0.04600082 2.5424
v 0.1448398 0.04599917 2.5424
v 0.425039 0.1180799 0.40208
v 0.09927929 0.07539928 2.21324
v 0.2180391 0.1352798 0.5651199
v -0.2959199 -0.1745201 0.3015599
v -0.2959199 0.1745199 0.30156
v -0.296041 0.17452 5.686583E-08
v -0.296041 -0.17452 -5.686583E-08
v -0.7882812 -0.17452 -5.686583E-08
v -0.503082 -0.1745201 0.5126399
v -0.7882812 0.17452 5.686583E-08
v -0.503082 0.1745198 0.51264
v -0.2959199 0.1745199 0.30156
v -0.296041 0.17452 5.686583E-08
v 0.4712793 -0.4482 -1.460421E-07
v 0 0.17452 5.686583E-08
v 0 -0.17452 -5.686583E-08
v 0.4712793 0.4482 1.460421E-07
v 0.9425194 0.07008 2.283496E-08
v 0.9425194 -0.07008 -2.283496E-08
v -0.296041 -0.17452 -5.686583E-08
v -0.296041 0.17452 5.686583E-08
v -0.7882812 -0.17452 -5.686583E-08
v -0.7882812 0.17452 5.686583E-08
v -0.5064465 0.01499984 0.48084
v -0.4978617 -1.613051E-07 0.49314
v -0.8684223 -2.840534E-07 0.8694299
v -0.8872028 0.01499972 0.8666349
v -0.5150517 -1.534819E-07 0.46854
v -0.9059823 -2.820045E-07 0.86382
v -0.8872028 -0.01500028 0.8666349
v -0.5064465 -0.01500015 0.4808399
v -0.8684223 -2.840534E-07 0.8694299
v -0.4978617 -1.613051E-07 0.49314
v -0.06286182 -8.57003E-07 2.62847
v -0.0763579 0.01499914 2.635045
v -0.8684223 -2.840534E-07 0.8694299
v -0.8872028 0.01499972 0.8666349
v -0.08983251 -8.61287E-07 2.64164
v -0.9059823 -2.820045E-07 0.86382
v -0.8872028 -0.01500028 0.8666349
v -0.0763579 -0.01500086 2.635045
v -0.8684223 -2.840534E-07 0.8694299
v -0.06286182 -8.57003E-07 2.62847
v -0.0763579 -0.01500086 2.635045
v -0.08983251 -8.61287E-07 2.64164
v -0.06286182 -8.57003E-07 2.62847
v -0.0763579 0.01499914 2.635045
vt 0.4832625 0.7126207
vt 0.4775444 0.7240065
vt 0.4703392 0.7239621
vt 0.4647627 0.7125044
vt 0.4770747 0.7097864
vt 0.4709855 0.7097478
vt 0.4645885 0.5405769
vt 0.4957389 0.5205364
vt 0.4930764 0.5662413
vt 0.4645144 0.5680045
vt 0.4640329 0.5863687
vt 0.4398492 0.56779
vt 0.4381022 0.5406747
vt 0.4112509 0.56675
vt 0.4854524 0.6244087
vt 0.4044841 0.5232212
vt 0.4409171 0.5851846
vt 0.4626969 0.6181933
vt 0.4228151 0.7370173
vt 0.4369117 0.7372813
vt 0.4409676 0.6133613
vt 0.4127431 0.7356119
vt 0.4179236 0.6089048
vt 0.3999583 0.7264423
vt 0.3940976 0.7009881
vt 0.3929244 0.7242464
vt 0.3920507 0.6079292
vt 0.3866382 0.700646
vt 0.383257 0.5683718
vt 0.3661013 0.6111022
vt 0.3791898 0.5498592
vt 0.3682037 0.5071583
vt 0.3642789 0.5525956
vt 0.3602204 0.5087873
vt 0.332666 0.5369596
vt 0.3401555 0.5798236
vt 0.3662482 0.5713068
vt 0.3387744 0.6184536
vt 0.3863145 0.7245194
vt 0.3927372 0.7220216
vt 0.2784863 0.5182938
vt 0.2607525 0.5207914
vt 0.2799329 0.6285313
vt 0.2898139 0.6271398
vt 0.2901804 0.5053157
vt 0.2967197 0.6481091
vt 0.3028131 0.648035
vt 0.3058031 0.5051228
vt 0.3091979 0.6269029
vt 0.317814 0.5178091
vt 0.3289038 0.6635008
vt 0.3177051 0.6432939
vt 0.3351625 0.6336194
vt 0.3463588 0.6538227
vt 0.3621728 0.6822999
vt 0.3233464 0.6822743
vt 0.3621612 0.7053937
vt 0.3233355 0.7053807
vt 0.3288742 0.7241587
vt 0.3463172 0.733857
vt 0.254034 0.6884563
vt 0.2986749 0.6546718
vt 0.2736533 0.6546718
vt 0.3182942 0.6884564
vt 0.2911878 0.7222381
vt 0.2811401 0.7222381
vt 0.4305604 0.5046723
vt 0.4305466 0.5313056
vt 0.4681204 0.5046918
vt 0.4681066 0.531325
vt 0.3964106 0.7432715
vt 0.3956223 0.7450296
vt 0.366138 0.745452
vt 0.3660988 0.7437431
vt 0.3969976 0.7414418
vt 0.3660659 0.7420782
vt 0.3660746 0.7403879
vt 0.3963785 0.7396361
vt 0.3660893 0.738646
vt 0.3955519 0.7379119
vt 0.2579338 0.7449475
vt 0.257307 0.743224
vt 0.366138 0.745452
vt 0.3660988 0.7437431
vt 0.2566695 0.7414703
vt 0.3660659 0.7420782
vt 0.3660746 0.7403879
vt 0.2572837 0.73972
vt 0.3660893 0.738646
vt 0.2579011 0.737997
vt 0.401745 0.7424201
vt 0.402864 0.7413017
vt 0.400626 0.7413009
vt 0.4017456 0.7401826
vn 0.5018591 0 0.8649494
vn 0.5017965 0 0.8649857
vn 0.5017965 0 0.8649857
vn 0.5018591 0 0.8649494
vn 0.5020236 0 0.8648539
vn 0.5020236 0 0.8648539
vn -0.6149622 0.4740361 -0.6301677
vn 0.3122777 0.8767486 0.3657792
vn 0.02650551 0.9979075 0.05897592
vn -0.6000755 0.5268463 -0.6019487
vn -0.6106974 0.4901932 -0.6218996
vn -0.6000755 -0.5268459 -0.6019492
vn -0.6149622 -0.4740357 -0.630168
vn 0.02650547 -0.9979075 0.05897513
vn -0.1757643 0.9839894 -0.02952434
vn 0.3122778 -0.8767489 0.3657786
vn -0.6106974 -0.4901928 -0.6219
vn -0.9005132 0.4073096 -0.1522336
vn -0.8164236 0.4033158 0.4132662
vn 0.2032103 0.9622999 0.1807888
vn -0.9005132 -0.4073094 -0.1522336
vn -0.8164236 -0.4033161 0.4132659
vn -0.1757644 -0.9839894 -0.02952504
vn 0.2032101 -0.9623 0.1807881
vn 0.8540516 -0.4919211 -0.1691436
vn 0.9203943 -0.3796506 -0.09348623
vn 0.8170702 -0.4737654 0.3285461
vn 0.8540515 0.4919212 -0.1691433
vn 0.577074 -0.4388302 0.6887769
vn 0.8170701 0.4737653 0.3285466
vn 0.5729626 -0.4534491 0.6827134
vn 0.610628 -0.2284793 0.7582419
vn 0.5729626 0.4534487 0.6827139
vn 0.6106279 0.2284788 0.7582421
vn 0.3122777 0.8767486 0.3657792
vn 0.02650551 0.9979075 0.05897592
vn 0.577074 0.4388299 0.6887772
vn -0.1757643 0.9839894 -0.02952434
vn 0.2032103 0.9622999 0.1807888
vn 0.9203944 0.3796507 -0.09348597
vn -0.462421 -0.8866581 0.002018831
vn -0.4624209 0.8866583 0.002019421
vn -0.3742113 0.9272895 0.009995081
vn -0.3742111 -0.9272897 0.009994496
vn 0.8976049 -0.4210266 0.1305455
vn 0.9778732 -0.1614629 0.1330172
vn 0.9778732 0.1614629 0.1330173
vn 0.8976048 0.4210265 0.1305458
vn -0.3742113 0.9272895 0.009995081
vn -0.4624209 0.8866583 0.002019421
vn 0.5532419 -0.8330207 -0.000222389
vn 0.553242 0.8330207 -0.0002218558
vn 0.7070164 0.7071972 -0.0002836454
vn 0.7070164 -0.7071972 -0.0002840981
vn -0.7237024 -0.5604923 0.4026204
vn -0.6766474 -0.632803 0.3764421
vn -0.7237024 0.5604919 0.4026207
vn -0.6766475 0.6328027 0.3764425
vn 0.553242 0.8330207 -0.0002218558
vn 0.7070164 0.7071972 -0.0002836454
vn 0 0 -1
vn 0 0 -1
vn 0 0 -1
vn 0 0 -1
vn 0 0 -1
vn 0 0 -1
vn 0 0 -1
vn 0 0 -1
vn 0 0 -1
vn 0 0 -1
vn -0.05733827 0.9967071 -0.05733439
vn 0.7121199 0 0.7020578
vn 0.7121199 0 0.7020578
vn -0.2073737 0.9564602 -0.2053779
vn -0.711369 0 -0.7028187
vn -0.711369 0 -0.7028188
vn -0.207374 -0.9564599 -0.2053788
vn -0.05733867 -0.996707 -0.05733546
vn 0.7121199 0 0.7020578
vn 0.7121199 0 0.7020578
vn 0.9090983 0 -0.4165818
vn -0.009757262 0.9999412 0.004720953
vn 0.9090983 0 -0.4165818
vn -0.2401557 0.9644415 0.1103536
vn -0.9089056 0 0.4170019
vn -0.9089056 0 0.4170019
vn -0.2401556 -0.9644416 0.1103528
vn -0.009757391 -0.9999412 0.004720344
vn 0.9090983 0 -0.4165818
vn 0.9090983 0 -0.4165818
vn 0.4387952 0 0.8985871
vn 0.4387952 0 0.8985871
vn 0.4387952 0 0.8985871
vn 0.4387952 0 0.8985871
g gate-drl-17-lod2_0
f 3/3/3 2/2/2 1/1/1
f 1/1/1 4/4/4 3/3/3
f 4/4/4 1/1/1 5/5/5
f 5/5/5 6/6/6 4/4/4
f 9/9/9 8/8/8 7/7/7
f 7/7/7 10/10/10 9/9/9
f 9/9/9 10/10/10 11/11/11
f 7/7/7 12/12/12 10/10/10
f 7/7/7 13/13/13 12/12/12
f 14/14/14 12/12/12 13/13/13
f 15/15/15 9/9/9 11/11/11
f 13/13/13 16/16/16 14/14/14
f 17/17/17 12/12/12 14/14/14
f 18/18/18 15/15/15 11/11/11
f 18/18/18 11/11/11 17/17/17
f 15/15/15 18/18/18 19/19/19
f 19/19/19 20/20/20 15/15/15
f 18/18/18 21/21/21 19/19/19
f 17/17/17 21/21/21 18/18/18
f 22/22/22 19/19/19 21/21/21
f 17/17/17 23/23/23 21/21/21
f 22/22/22 21/21/21 23/23/23
f 17/17/17 14/14/14 23/23/23
f 23/23/23 24/24/24 22/22/22
f 23/23/23 25/25/25 24/24/24
f 26/26/26 24/24/24 25/25/25
f 25/25/25 23/23/23 27/27/27
f 27/27/27 23/23/23 14/14/14
f 28/28/28 25/25/25 27/27/27
f 14/14/14 29/29/29 27/27/27
f 30/30/30 27/27/27 29/29/29
f 27/27/27 30/30/30 28/28/28
f 29/29/29 14/14/14 31/31/31
f 16/16/16 31/31/31 14/14/14
f 16/16/16 32/32/32 31/31/31
f 33/33/33 31/31/31 32/32/32
f 32/32/32 34/34/34 33/33/33
f 33/33/33 34/34/34 35/35/35
f 35/35/35 36/36/36 33/33/33
f 37/37/37 33/33/33 36/36/36
f 29/29/29 37/37/37 30/30/30
f 30/30/30 37/37/37 36/36/36
f 36/36/36 38/38/38 30/30/30
f 28/28/28 30/30/30 38/38/38
f 39/39/39 28/28/28 38/38/38
f 40/40/40 28/28/28 39/39/39
f 43/43/43 42/42/42 41/41/41
f 41/41/41 44/44/44 43/43/43
f 44/44/44 41/41/41 45/45/45
f 46/46/46 44/44/44 45/45/45
f 45/45/45 47/47/47 46/46/46
f 45/45/45 48/48/48 47/47/47
f 48/48/48 49/49/49 47/47/47
f 48/48/48 50/50/50 49/49/49
f 53/53/53 52/52/52 51/51/51
f 51/51/51 54/54/54 53/53/53
f 55/55/55 54/54/54 51/51/51
f 55/55/55 51/51/51 56/56/56
f 57/57/57 55/55/55 56/56/56
f 58/58/58 57/57/57 56/56/56
f 57/57/57 58/58/58 59/59/59
f 59/59/59 60/60/60 57/57/57
f 63/63/63 62/62/62 61/61/61
f 62/62/62 64/64/64 61/61/61
f 64/64/64 65/65/65 61/61/61
f 65/65/65 66/66/66 61/61/61
f 69/69/69 68/68/68 67/67/67
f 70/70/70 68/68/68 69/69/69
f 73/73/73 72/72/72 71/71/71
f 71/71/71 74/74/74 73/73/73
f 74/74/74 71/71/71 75/75/75
f 76/76/76 74/74/74 75/75/75
f 75/75/75 77/77/77 76/76/76
f 77/77/77 75/75/75 78/78/78
f 79/79/79 77/77/77 78/78/78
f 78/78/78 80/80/80 79/79/79
f 83/83/83 82/82/82 81/81/81
f 82/82/82 83/83/83 84/84/84
f 85/85/85 82/82/82 84/84/84
f 84/84/84 86/86/86 85/85/85
f 85/85/85 86/86/86 87/87/87
f 87/87/87 88/88/88 85/85/85
f 87/87/87 89/89/89 88/88/88
f 90/90/90 88/88/88 89/89/89
f 93/93/93 92/92/92 91/91/91
f 94/94/94 92/92/92 93/93/93
