g gate-12-a-neon-lod2
v -0.01360695 0.02184844 2.986726
v -0.01360705 -0.02145753 0.6764525
v -0.01360705 0.0256784 0.6765304
v -0.01360695 -0.02528749 2.986649
v 0.02721395 0.002110585 0.6764914
v 0.02721405 -0.001719676 2.986688
v -0.01360705 0.0256784 0.6765304
v -0.01360695 0.02184844 2.986726
vt 0.6846812 0.7805632
vt 0.9978197 0.7870077
vt 0.9978197 0.7805632
vt 0.6846812 0.7870077
vt 0.9978197 0.7934519
vt 0.6846812 0.7934519
vt 0.9978197 0.7996801
vt 0.6846814 0.7996801
vn -0.5000002 0.8660241 0.001435816
vn -0.5000004 -0.8660241 -0.001435773
vn -0.4999985 0.8660251 0.001435818
vn -0.499997 -0.866026 -0.001435776
vn 1 2.04906E-06 0
vn 1 -3.870451E-06 0
vn -0.4999985 0.8660251 0.001435818
vn -0.5000002 0.8660241 0.001435816
g gate-12-a-neon-lod2_0
f 3/3/3 2/2/2 1/1/1
f 2/2/2 4/4/4 1/1/1
f 2/2/2 5/5/5 4/4/4
f 5/5/5 6/6/6 4/4/4
f 5/5/5 7/7/7 6/6/6
f 7/7/7 8/8/8 6/6/6
