g gate-neon-06-lod2
v 1.22145 5E-05 0.66905
v -1.22155 5E-05 0.66905
v -1.24055 0.01904995 0.65005
v 1.24045 0.01904995 0.65005
v 1.25945 5E-05 0.63105
v -1.25955 5E-05 0.63105
v -1.24055 -0.0189499 0.65005
v 1.24045 -0.0189499 0.65005
v 1.22145 5E-05 0.66905
v -1.22155 5E-05 0.66905
v 1.22145 5E-05 0.66905
v 1.22145 5E-05 3.11205
v 1.24045 -0.0189499 3.13105
v 1.24045 -0.0189499 0.65005
v 1.25945 5E-05 0.63105
v 1.25945 5E-05 3.15005
v 1.24045 0.01904995 3.13105
v 1.24045 0.01904995 0.65005
v 1.22145 5E-05 0.66905
v 1.22145 5E-05 3.11205
v -1.24055 0.01904995 3.13105
v -1.22155 5E-05 3.11205
v 1.22145 5E-05 3.11205
v 1.24045 0.01904995 3.13105
v 1.25945 5E-05 3.15005
v -1.25955 5E-05 3.15005
v -1.24055 -0.0189499 3.13105
v 1.24045 -0.0189499 3.13105
v 1.22145 5E-05 3.11205
v -1.22155 5E-05 3.11205
v -1.24055 -0.0189499 3.13105
v -1.22155 5E-05 3.11205
v -1.22155 5E-05 0.66905
v -1.24055 -0.0189499 0.65005
v -1.25955 5E-05 0.63105
v -1.25955 5E-05 3.15005
v -1.24055 0.01904995 3.13105
v -1.24055 0.01904995 0.65005
v -1.22155 5E-05 0.66905
v -1.22155 5E-05 3.11205
v -0.525 -0.019 0.65
v -0.525 0.019 0.65
v -0.525 0.019 0.55
v -0.525 -0.019 0.55
v -0.8002002 -0.019 0.04999995
v -0.8002002 0.019 0.65
v -0.8002002 -0.019 0.65
v -0.8002002 0.019 0.04999995
v -0.525 -0.019 0.65
v -0.525 -0.019 0.55
v -0.7502 -0.019 0.55
v -0.8002002 -0.019 0.65
v -0.8002002 -0.019 0.04999995
v -0.7502 -0.019 0.04999995
v -0.7502 0.019 0.55
v -0.525 0.019 0.55
v -0.525 0.019 0.65
v -0.8002002 0.019 0.65
v -0.8002002 0.019 0.04999995
v -0.7502 0.019 0.04999995
v 0.525 0.019 0.65
v 0.525 -0.019 0.65
v 0.525 0.019 0.55
v 0.525 -0.019 0.55
v 0.8002002 -0.019 0.65
v 0.8002002 0.019 0.65
v 0.8002002 -0.019 0.04999995
v 0.8002002 0.019 0.04999995
v 0.7502 -0.019 0.55
v 0.525 -0.019 0.55
v 0.525 -0.019 0.65
v 0.8002002 -0.019 0.65
v 0.8002002 -0.019 0.04999995
v 0.7502 -0.019 0.04999995
v 0.525 0.019 0.65
v 0.525 0.019 0.55
v 0.7502 0.019 0.55
v 0.8002002 0.019 0.65
v 0.8002002 0.019 0.04999995
v 0.7502 0.019 0.04999995
v 0.7998 0.25 0.04999995
v 0.7998 -0.25 0
v 0.7998 -0.25 0.04999995
v 0.7998 0.25 0
v -0.8002002 0.25 0.04999995
v 0.7998 0.25 0
v 0.7998 0.25 0.04999995
v -0.8002002 0.25 0
v -0.8002002 0.25 0.04999995
v 0.7998 0.25 0.04999995
v 0.7998 -0.25 0.04999995
v -0.8002002 -0.25 0.04999995
v -0.8002002 0.25 0.04999995
v -0.8002002 -0.25 0.04999995
v -0.8002002 -0.25 0
v -0.8002002 0.25 0
v -0.8002002 -0.25 0
v 0.7998 -0.25 0
v 0.7998 0.25 0
v -0.8002002 0.25 0
v 0.7998 -0.25 0.04999995
v -0.8002002 -0.25 0
v -0.8002002 -0.25 0.04999995
v 0.7998 -0.25 0
v -0.7502 -0.125 0.5
v -0.3752001 -0.125 0.5
v -0.3752001 -0.125 0.04999995
v -0.7502 -0.125 0.04999995
v -0.3752001 0.125 0.5
v -0.7502 0.125 0.5
v -0.7502 0.125 0.04999995
v -0.3752001 0.125 0.04999995
v -0.3752001 0.125 0.5
v -0.3752001 0.125 0.04999995
v -0.3752001 -0.125 0.04999995
v -0.3752001 -0.125 0.5
v -0.3752001 -0.075 0.55
v -0.3752001 0.075 0.55
v -0.7502 0.075 0.55
v -0.7502 0.125 0.5
v -0.3752001 0.125 0.5
v -0.3752001 0.075 0.55
v -0.3752001 -0.075 0.55
v -0.7502 -0.075 0.55
v -0.7502 -0.125 0.5
v -0.3752001 -0.125 0.5
v -0.7502 0.125 0.5
v -0.7502 -0.125 0.04999995
v -0.7502 0.125 0.04999995
v -0.7502 -0.125 0.5
v -0.7502 -0.075 0.55
v -0.7502 0.075 0.55
v 0.7502 -0.125 0.5
v 0.3752001 -0.125 0.04999995
v 0.3752001 -0.125 0.5
v 0.7502 -0.125 0.04999995
v 0.3752001 0.125 0.5
v 0.7502 0.125 0.04999995
v 0.7502 0.125 0.5
v 0.3752001 0.125 0.04999995
v 0.3752001 -0.125 0.04999995
v 0.3752001 0.125 0.04999995
v 0.3752001 0.125 0.5
v 0.3752001 -0.125 0.5
v 0.3752001 -0.075 0.55
v 0.3752001 0.075 0.55
v 0.7502 0.125 0.5
v 0.7502 0.075 0.55
v 0.3752001 0.125 0.5
v 0.3752001 0.075 0.55
v 0.3752001 -0.075 0.55
v 0.7502 -0.075 0.55
v 0.7502 -0.125 0.5
v 0.3752001 -0.125 0.5
v 0.7502 0.125 0.5
v 0.7502 0.125 0.04999995
v 0.7502 -0.125 0.04999995
v 0.7502 -0.125 0.5
v 0.7502 -0.075 0.55
v 0.7502 0.075 0.55
vt 0.4962941 0.7698624
vt 0.3163741 0.7698624
vt 0.3149751 0.7720052
vt 0.4976935 0.7720052
vt 0.4990929 0.7741473
vt 0.3135758 0.7741473
vt 0.3149751 0.7762893
vt 0.4976935 0.7762893
vt 0.4962941 0.7784321
vt 0.3163741 0.7784321
vt 0.3163968 0.7878496
vt 0.4963166 0.7878496
vt 0.4977157 0.7857068
vt 0.3149974 0.7857068
vt 0.313598 0.7835647
vt 0.4991149 0.7835647
vt 0.4977157 0.7814227
vt 0.3149974 0.7814227
vt 0.3163968 0.7792798
vt 0.4963166 0.7792798
vt 0.4976967 0.7532396
vt 0.4962971 0.7510967
vt 0.3163773 0.7510967
vt 0.3149785 0.7532396
vt 0.3135792 0.7553816
vt 0.4990961 0.7553816
vt 0.4976967 0.7575237
vt 0.3149785 0.7575237
vt 0.3163773 0.7596665
vt 0.4962971 0.7596665
vt 0.3149956 0.7668886
vt 0.316395 0.7690314
vt 0.4963149 0.7690314
vt 0.4977142 0.7668886
vt 0.4991134 0.7647465
vt 0.3135963 0.7647465
vt 0.3149956 0.7626044
vt 0.4977142 0.7626044
vt 0.4963149 0.7604616
vt 0.316395 0.7604616
vt 0.2841772 0.8479977
vt 0.2791792 0.8479977
vt 0.2791792 0.8611512
vt 0.2841772 0.8611512
vt 0.497205 0.7950415
vt 0.4182827 0.7900432
vt 0.4182827 0.7950417
vt 0.497205 0.7900432
vt 0.2547655 0.8049595
vt 0.26792 0.8049523
vt 0.2679397 0.8388585
vt 0.254787 0.8454375
vt 0.333708 0.8454592
vt 0.3337103 0.8388827
vt 0.3206267 0.8032932
vt 0.3206457 0.8371997
vt 0.3337995 0.8371933
vt 0.3337805 0.7967147
vt 0.254859 0.7966945
vt 0.2548567 0.8032715
vt 0.2791792 0.8479977
vt 0.2841772 0.8479977
vt 0.2791792 0.8611512
vt 0.2841772 0.8611512
vt 0.4182827 0.7950417
vt 0.4182827 0.7900432
vt 0.497205 0.7950415
vt 0.497205 0.7900432
vt 0.2679397 0.8388585
vt 0.26792 0.8049523
vt 0.2547655 0.8049595
vt 0.254787 0.8454375
vt 0.333708 0.8454592
vt 0.3337103 0.8388827
vt 0.3337995 0.8371933
vt 0.3206457 0.8371997
vt 0.3206267 0.8032932
vt 0.3337805 0.7967147
vt 0.254859 0.7966945
vt 0.2548567 0.8032715
vt 0.2834345 0.7888982
vt 0.3492035 0.7954748
vt 0.3492035 0.7888982
vt 0.2834345 0.7954748
vt 0.286786 0.8480322
vt 0.4972475 0.8546093
vt 0.4972475 0.8480325
vt 0.286786 0.854609
vt 0.497086 0.8652055
vt 0.2866245 0.865206
vt 0.2866245 0.9309747
vt 0.497086 0.9309747
vt 0.3507988 0.7955045
vt 0.4165675 0.7955045
vt 0.4165675 0.7889277
vt 0.3507988 0.788928
vt 0.4972028 0.9329593
vt 0.2867415 0.9329593
vt 0.2867415 0.9987283
vt 0.4972028 0.998728
vt 0.28679 0.8566447
vt 0.497251 0.8632218
vt 0.497251 0.8566447
vt 0.28679 0.8632218
vt 0.43803 0.7966343
vt 0.4380302 0.8459607
vt 0.4972225 0.8459607
vt 0.4972228 0.796634
vt 0.3766173 0.796557
vt 0.376617 0.845884
vt 0.4358095 0.8458837
vt 0.4358093 0.796557
vt 0.251985 0.9394143
vt 0.251984 0.9986053
vt 0.2848687 0.9986067
vt 0.2848695 0.9394135
vt 0.2782913 0.932836
vt 0.2585605 0.932838
vt 0.3649883 0.8457512
vt 0.3742903 0.845751
vt 0.3742895 0.7964245
vt 0.364989 0.796425
vt 0.3452585 0.7964235
vt 0.3452575 0.8457505
vt 0.3359575 0.8457507
vt 0.3359565 0.7964243
vt 0.2518425 0.8712605
vt 0.2847285 0.930453
vt 0.2518445 0.930454
vt 0.2847272 0.8712623
vt 0.278152 0.8646855
vt 0.2584215 0.864683
vt 0.43803 0.7966343
vt 0.4972225 0.8459607
vt 0.4380302 0.8459607
vt 0.4972228 0.796634
vt 0.3766173 0.796557
vt 0.4358095 0.8458837
vt 0.376617 0.845884
vt 0.4358093 0.796557
vt 0.2848687 0.9986067
vt 0.251984 0.9986053
vt 0.251985 0.9394143
vt 0.2848695 0.9394135
vt 0.2782913 0.932836
vt 0.2585605 0.932838
vt 0.3742903 0.845751
vt 0.3649883 0.8457512
vt 0.3742895 0.7964245
vt 0.364989 0.796425
vt 0.3452585 0.7964235
vt 0.3452575 0.8457505
vt 0.3359575 0.8457507
vt 0.3359565 0.7964243
vt 0.2518425 0.8712605
vt 0.2518445 0.930454
vt 0.2847285 0.930453
vt 0.2847272 0.8712623
vt 0.278152 0.8646855
vt 0.2584215 0.864683
vn 0 0 1
vn 0 0 1
vn 0 0.9310791 -0.3648176
vn 0 0.931078 -0.3648202
vn 0 0 -1
vn 0 0 -1
vn 0 -0.9310793 -0.3648169
vn 0 -0.9310783 -0.3648196
vn 0 0 1
vn 0 0 1
vn -1 0 0
vn -1 0 0
vn 0.3648173 -0.9310791 0
vn 0.3648187 -0.9310786 0
vn 1 0 0
vn 1 0 0
vn 0.3648178 0.931079 0
vn 0.3648192 0.9310784 0
vn -1 0 0
vn -1 0 0
vn 0 0.9310796 0.3648162
vn 0 0 -1
vn 0 0 -1
vn 0 0.9310784 0.3648189
vn 0 0 1
vn 0 0 1
vn 0 -0.9310798 0.3648157
vn 0 -0.9310787 0.3648184
vn 0 0 -1
vn 0 0 -1
vn -0.3648148 -0.9310801 0
vn 1 0 0
vn 1 0 0
vn -0.3648162 -0.9310796 0
vn -1 0 0
vn -1 0 0
vn -0.3648152 0.9310799 0
vn -0.3648166 0.9310794 0
vn 1 0 0
vn 1 0 0
vn 1 0 0
vn 1 0 0
vn 1 0 0
vn 1 0 0
vn -1 0 0
vn -1 0 0
vn -1 0 0
vn -1 0 0
vn 0 -1 0
vn 0 -1 0
vn 0 -1 0
vn 0 -1 0
vn 0 -1 0
vn 0 -1 0
vn 0 1 0
vn 0 1 0
vn 0 1 0
vn 0 1 0
vn 0 1 0
vn 0 1 0
vn -1 0 0
vn -1 0 0
vn -1 0 0
vn -1 0 0
vn 1 0 0
vn 1 0 0
vn 1 0 0
vn 1 0 0
vn 0 -1 0
vn 0 -1 0
vn 0 -1 0
vn 0 -1 0
vn 0 -1 0
vn 0 -1 0
vn 0 1 0
vn 0 1 0
vn 0 1 0
vn 0 1 0
vn 0 1 0
vn 0 1 0
vn 1 0 0
vn 1 0 0
vn 1 0 0
vn 1 0 0
vn 0 1 0
vn 0 1 0
vn 0 1 0
vn 0 1 0
vn 0 0 1
vn 0 0 1
vn 0 0 1
vn 0 0 1
vn -1 0 0
vn -1 0 0
vn -1 0 0
vn -1 0 0
vn 0 0 -1
vn 0 0 -1
vn 0 0 -1
vn 0 0 -1
vn 0 -1 0
vn 0 -1 0
vn 0 -1 0
vn 0 -1 0
vn 0 -1 0
vn 0 -1 0
vn 0 -1 0
vn 0 -1 0
vn 0 1 0
vn 0 1 0
vn 0 1 0
vn 0 1 0
vn 1 0 0
vn 1 0 0
vn 1 0 0
vn 1 0 0
vn 1 0 0
vn 1 0 0
vn 0 0.3826835 0.9238795
vn 0 0.7071069 0.7071066
vn 0 0.7071069 0.7071066
vn 0 0.3826835 0.9238795
vn 0 -0.3826835 0.9238795
vn 0 -0.3826835 0.9238795
vn 0 -0.7071069 0.7071066
vn 0 -0.7071069 0.7071066
vn -1 0 0
vn -1 0 0
vn -1 0 0
vn -1 0 0
vn -1 0 0
vn -1 0 0
vn 0 -1 0
vn 0 -1 0
vn 0 -1 0
vn 0 -1 0
vn 0 1 0
vn 0 1 0
vn 0 1 0
vn 0 1 0
vn -1 0 0
vn -1 0 0
vn -1 0 0
vn -1 0 0
vn -1 0 0
vn -1 0 0
vn 0 0.7071069 0.7071066
vn 0 0.3826835 0.9238795
vn 0 0.7071069 0.7071066
vn 0 0.3826835 0.9238795
vn 0 -0.3826835 0.9238795
vn 0 -0.3826835 0.9238795
vn 0 -0.7071069 0.7071066
vn 0 -0.7071069 0.7071066
vn 1 0 0
vn 1 0 0
vn 1 0 0
vn 1 0 0
vn 1 0 0
vn 1 0 0
g gate-neon-06-lod2_0
f 3/3/3 2/2/2 1/1/1
f 1/1/1 4/4/4 3/3/3
f 3/3/3 4/4/4 5/5/5
f 6/6/6 3/3/3 5/5/5
f 7/7/7 6/6/6 5/5/5
f 5/5/5 8/8/8 7/7/7
f 7/7/7 8/8/8 9/9/9
f 9/9/9 10/10/10 7/7/7
f 13/13/13 12/12/12 11/11/11
f 11/11/11 14/14/14 13/13/13
f 13/13/13 14/14/14 15/15/15
f 15/15/15 16/16/16 13/13/13
f 15/15/15 17/17/17 16/16/16
f 15/15/15 18/18/18 17/17/17
f 17/17/17 18/18/18 19/19/19
f 19/19/19 20/20/20 17/17/17
f 23/23/23 22/22/22 21/21/21
f 21/21/21 24/24/24 23/23/23
f 25/25/25 24/24/24 21/21/21
f 21/21/21 26/26/26 25/25/25
f 26/26/26 27/27/27 25/25/25
f 27/27/27 28/28/28 25/25/25
f 27/27/27 29/29/29 28/28/28
f 27/27/27 30/30/30 29/29/29
f 33/33/33 32/32/32 31/31/31
f 34/34/34 33/33/33 31/31/31
f 35/35/35 34/34/34 31/31/31
f 31/31/31 36/36/36 35/35/35
f 36/36/36 37/37/37 35/35/35
f 37/37/37 38/38/38 35/35/35
f 39/39/39 38/38/38 37/37/37
f 37/37/37 40/40/40 39/39/39
f 43/43/43 42/42/42 41/41/41
f 41/41/41 44/44/44 43/43/43
f 47/47/47 46/46/46 45/45/45
f 48/48/48 45/45/45 46/46/46
f 51/51/51 50/50/50 49/49/49
f 49/49/49 52/52/52 51/51/51
f 51/51/51 52/52/52 53/53/53
f 53/53/53 54/54/54 51/51/51
f 57/57/57 56/56/56 55/55/55
f 57/57/57 55/55/55 58/58/58
f 58/58/58 55/55/55 59/59/59
f 60/60/60 59/59/59 55/55/55
f 63/63/63 62/62/62 61/61/61
f 63/63/63 64/64/64 62/62/62
f 67/67/67 66/66/66 65/65/65
f 67/67/67 68/68/68 66/66/66
f 71/71/71 70/70/70 69/69/69
f 69/69/69 72/72/72 71/71/71
f 73/73/73 72/72/72 69/69/69
f 69/69/69 74/74/74 73/73/73
f 77/77/77 76/76/76 75/75/75
f 78/78/78 77/77/77 75/75/75
f 79/79/79 77/77/77 78/78/78
f 79/79/79 80/80/80 77/77/77
f 83/83/83 82/82/82 81/81/81
f 82/82/82 84/84/84 81/81/81
f 87/87/87 86/86/86 85/85/85
f 86/86/86 88/88/88 85/85/85
f 91/91/91 90/90/90 89/89/89
f 89/89/89 92/92/92 91/91/91
f 95/95/95 94/94/94 93/93/93
f 93/93/93 96/96/96 95/95/95
f 99/99/99 98/98/98 97/97/97
f 97/97/97 100/100/100 99/99/99
f 103/103/103 102/102/102 101/101/101
f 102/102/102 104/104/104 101/101/101
f 107/107/107 106/106/106 105/105/105
f 105/105/105 108/108/108 107/107/107
f 111/111/111 110/110/110 109/109/109
f 109/109/109 112/112/112 111/111/111
f 115/115/115 114/114/114 113/113/113
f 115/115/115 113/113/113 116/116/116
f 113/113/113 117/117/117 116/116/116
f 113/113/113 118/118/118 117/117/117
f 121/121/121 120/120/120 119/119/119
f 119/119/119 122/122/122 121/121/121
f 119/119/119 123/123/123 122/122/122
f 123/123/123 119/119/119 124/124/124
f 123/123/123 124/124/124 125/125/125
f 125/125/125 126/126/126 123/123/123
f 129/129/129 128/128/128 127/127/127
f 130/130/130 127/127/127 128/128/128
f 130/130/130 131/131/131 127/127/127
f 131/131/131 132/132/132 127/127/127
f 135/135/135 134/134/134 133/133/133
f 134/134/134 136/136/136 133/133/133
f 139/139/139 138/138/138 137/137/137
f 138/138/138 140/140/140 137/137/137
f 143/143/143 142/142/142 141/141/141
f 141/141/141 144/144/144 143/143/143
f 143/143/143 144/144/144 145/145/145
f 146/146/146 143/143/143 145/145/145
f 149/149/149 148/148/148 147/147/147
f 148/148/148 149/149/149 150/150/150
f 150/150/150 151/151/151 148/148/148
f 151/151/151 152/152/152 148/148/148
f 151/151/151 153/153/153 152/152/152
f 153/153/153 151/151/151 154/154/154
f 157/157/157 156/156/156 155/155/155
f 157/157/157 155/155/155 158/158/158
f 159/159/159 158/158/158 155/155/155
f 155/155/155 160/160/160 159/159/159
