g gate-missions-02-lod2
v 0.2963369 -0.09754073 -0.946593
v 0.7295277 -0.09052466 -0.6633443
v 0.7063395 0.2658672 -0.6428533
v 0.9465929 -0.09754071 -0.2963368
v 0.2872819 0.2872819 -0.9106317
v -0.1007123 -0.1007123 -0.9859354
v 0.9106315 0.2872819 -0.2872818
v 0.9859353 -0.1007123 0.1007124
v 0.5930057 0.5664995 -0.5664995
v -0.09754073 0.2963369 -0.946593
v 0.2658672 0.6428533 -0.7063395
v -0.4618746 0.2743395 -0.8409727
v -0.4760589 -0.09323317 -0.871464
v -0.7414398 0.2641313 -0.6144674
v -0.76582 -0.08998244 -0.6334532
v -0.9465929 -0.09754072 -0.2963368
v -0.9106315 0.2872819 -0.2872818
v -0.9859353 -0.1007123 0.1007124
v -0.6354761 0.5478223 -0.5478223
v -0.424104 0.6065013 -0.6636699
v -0.09052466 0.6633443 -0.7295277
v -0.09754072 0.9465929 -0.2963368
v 0.2872819 0.9106315 -0.2872818
v -0.1007123 0.9859353 0.1007124
v -0.4618745 0.8409726 -0.2743394
v -0.7414398 0.6144674 -0.2641312
v -0.9465929 0.2963369 0.09754077
v 0.7063395 0.6428533 -0.2658671
v -0.4760588 0.8714638 0.09323329
v -0.8409725 0.2743394 0.4618745
v -0.8714637 -0.09323315 0.4760589
v -0.76582 0.6334532 0.08998256
v -0.695967 0.5816298 0.4208211
v -0.6846679 0.2606595 0.6846681
v -0.706038 -0.08889797 0.706038
v -0.4760588 -0.09323315 0.871464
v -0.4396241 0.7819003 0.4396242
v -0.6023002 0.5330172 0.6023002
v -0.4618745 0.2743394 0.8409727
v -0.1007123 -0.1007123 0.9859353
v -0.420821 0.5816297 0.6959671
v -0.09754071 0.2963369 0.946593
v -0.09323315 0.8714638 0.4760589
v 0.2872819 0.2872818 0.9106316
v 0.2963369 -0.09754071 0.946593
v -0.08998242 0.6334531 0.7658201
v 0.2641312 0.6144673 0.7414399
v 0.2743394 0.8409725 0.4618745
v 0.6144673 0.2641312 0.7414399
v 0.6334531 -0.08998242 0.7658201
v 0.8714637 -0.09323315 0.4760589
v 0.5478222 0.5478222 0.635476
v 0.8409725 0.2743394 0.4618745
v 0.2963369 0.9465929 0.09754077
v 0.6636699 0.6065013 0.424104
v 0.9465929 0.2963369 0.09754077
v 0.7295277 0.6633442 0.09052484
v 0.2963369 -0.09754071 0.946593
v 0.6334531 -0.08998242 0.7658201
v 0.5816297 -0.420821 0.6959671
v 0.8714637 -0.09323315 0.4760589
v 0.2743394 -0.4618745 0.8409727
v -0.1007123 -0.1007123 0.9859353
v 0.7819003 -0.4396241 0.4396241
v 0.9859353 -0.1007123 0.1007124
v 0.5330171 -0.6023002 0.6023002
v -0.09323315 -0.4760587 0.871464
v 0.2606595 -0.6846679 0.6846681
v -0.4396241 -0.4396241 0.7819004
v -0.4760588 -0.09323315 0.871464
v -0.6462238 -0.414255 0.646224
v -0.706038 -0.08889797 0.706038
v -0.8714637 -0.09323315 0.4760589
v -0.7819003 -0.4396241 0.4396242
v -0.9859353 -0.1007123 0.1007124
v -0.5810472 -0.5810472 0.5810472
v -0.414255 -0.6462238 0.646224
v -0.08889797 -0.706038 0.706038
v -0.09323315 -0.8714638 0.4760589
v 0.2743394 -0.8409725 0.4618745
v -0.1007123 -0.9859353 0.1007124
v -0.4396241 -0.7819003 0.4396241
v -0.6462238 -0.6462239 0.4142552
v -0.8714638 -0.4760588 0.09323329
v 0.5816298 -0.695967 0.4208211
v -0.4760588 -0.8714638 0.09323321
v -0.8409726 -0.4618745 -0.2743394
v -0.9465929 -0.09754072 -0.2963368
v -0.706038 -0.706038 0.08889816
v -0.6846681 -0.6846681 -0.2606595
v -0.6959671 -0.420821 -0.5816298
v -0.76582 -0.08998244 -0.6334532
v -0.4760589 -0.09323317 -0.871464
v -0.4618745 -0.8409726 -0.2743394
v -0.6023003 -0.6023003 -0.5330172
v -0.4396242 -0.4396242 -0.7819004
v -0.1007123 -0.1007123 -0.9859354
v -0.420821 -0.6959671 -0.5816298
v -0.09323317 -0.4760589 -0.871464
v -0.09754071 -0.9465929 -0.2963368
v 0.2743395 -0.4618746 -0.8409727
v 0.2963369 -0.09754073 -0.946593
v -0.08998244 -0.76582 -0.6334532
v 0.2641313 -0.7414398 -0.6144674
v 0.2872819 -0.9106315 -0.2872818
v 0.6636699 -0.424104 -0.6065013
v 0.7295277 -0.09052466 -0.6633443
v 0.9465929 -0.09754071 -0.2963368
v 0.5478223 -0.6354761 -0.5478223
v 0.8409726 -0.4618745 -0.2743394
v 0.2963369 -0.9465929 0.09754077
v 0.6144674 -0.7414398 -0.2641312
v 0.8714638 -0.4760588 0.09323321
v 0.6334532 -0.76582 0.08998264
vt 0.1722495 0.3771883
vt 0.1446133 0.3960022
vt 0.1555731 0.4053715
vt 0.1325026 0.4190823
vt 0.1764578 0.3927315
vt 0.1973327 0.3764316
vt 0.1469139 0.422963
vt 0.1308469 0.4422527
vt 0.1666857 0.4143063
vt 0.195042 0.3920142
vt 0.1800095 0.4099108
vt 0.2122478 0.3969635
vt 0.219484 0.3845475
vt 0.2253019 0.4077514
vt 0.2361555 0.3993785
vt 0.2462603 0.4193734
vt 0.2322097 0.4234537
vt 0.2487281 0.4423354
vt 0.2145935 0.415416
vt 0.2059496 0.4115126
vt 0.1932881 0.4096127
vt 0.1927754 0.4272466
vt 0.1806102 0.4272329
vt 0.192716 0.4395817
vt 0.2049049 0.4275909
vt 0.2174057 0.4268439
vt 0.2336207 0.4411281
vt 0.1634863 0.4264757
vt 0.2050406 0.4396341
vt 0.2297961 0.4584751
vt 0.2429256 0.4648527
vt 0.2179543 0.4399987
vt 0.2162723 0.4527716
vt 0.222963 0.4698028
vt 0.2335203 0.4796855
vt 0.2190251 0.4910518
vt 0.2045306 0.4515953
vt 0.2134396 0.4605146
vt 0.2117263 0.4773118
vt 0.1945206 0.4973708
vt 0.2056915 0.4634531
vt 0.1936372 0.4813001
vt 0.1925621 0.4519666
vt 0.1754082 0.4791573
vt 0.1704451 0.4934245
vt 0.1927337 0.4650719
vt 0.179416 0.4641824
vt 0.1805011 0.4515834
vt 0.1598647 0.4713082
vt 0.1507786 0.4816854
vt 0.1372755 0.4640911
vt 0.1680412 0.4609385
vt 0.1498479 0.4577375
vt 0.180421 0.4394131
vt 0.1644609 0.4521507
vt 0.1458103 0.4407327
vt 0.162973 0.4395463
vt 0.2021156 0.3637623
vt 0.2200765 0.3538288
vt 0.2098006 0.3415336
vt 0.2323126 0.3381112
vt 0.19681 0.3468165
vt 0.1805429 0.3667258
vt 0.2175301 0.3306787
vt 0.2380235 0.3184734
vt 0.2051522 0.3347635
vt 0.1817933 0.3480137
vt 0.1947073 0.3366597
vt 0.1670613 0.3452017
vt 0.158811 0.3610635
vt 0.1579743 0.3397756
vt 0.1458181 0.3510805
vt 0.1375816 0.3376346
vt 0.1530589 0.3305387
vt 0.1328185 0.3172611
vt 0.163549 0.3344104
vt 0.1704171 0.3359489
vt 0.1823878 0.337211
vt 0.1825322 0.3278013
vt 0.1943579 0.3275533
vt 0.1825288 0.3156554
vt 0.170789 0.3273152
vt 0.1622128 0.3275127
vt 0.1506222 0.3161277
vt 0.205782 0.3273306
vt 0.1704452 0.3155696
vt 0.1517043 0.3014612
vt 0.1351286 0.296654
vt 0.16115 0.3156365
vt 0.1616962 0.3034468
vt 0.1566703 0.2885313
vt 0.144154 0.2786855
vt 0.1594548 0.2656769
vt 0.1707238 0.3037706
vt 0.1634676 0.2930385
vt 0.1673892 0.2805041
vt 0.1796061 0.2590709
vt 0.1708907 0.2923121
vt 0.1817477 0.2773992
vt 0.182615 0.3035652
vt 0.1969078 0.2780956
vt 0.2018631 0.2601152
vt 0.1825767 0.2912694
vt 0.1946911 0.2915851
vt 0.1945393 0.3036856
vt 0.2136224 0.2873487
vt 0.2263722 0.276664
vt 0.2368612 0.2975877
vt 0.2056167 0.2927311
vt 0.2197834 0.3017667
vt 0.1945816 0.3156294
vt 0.2065579 0.3036764
vt 0.2203757 0.3165527
vt 0.2067771 0.3157114
vn 0.3253877 -0.09119029 -0.9411733
vn 0.7212248 -0.08452713 -0.6875246
vn 0.6998564 0.2609423 -0.6649137
vn 0.9480275 -0.09197485 -0.3046055
vn 0.3080527 0.2846083 -0.9078004
vn -0.09599976 -0.09599979 -0.9907411
vn 0.9126111 0.2890857 -0.2890857
vn 0.9907411 -0.09599973 0.09599992
vn 0.5814213 0.5771669 -0.573435
vn -0.09197494 0.3046056 -0.9480275
vn 0.2764483 0.661229 -0.69739
vn -0.4436825 0.2729521 -0.8536058
vn -0.4656976 -0.08785629 -0.880572
vn -0.7473989 0.2521093 -0.6146835
vn -0.7713695 -0.08442159 -0.6307632
vn -0.9540328 -0.0925942 -0.2850398
vn -0.9216756 0.2743302 -0.2743301
vn -0.9907411 -0.09599974 0.09599992
vn -0.6396731 0.5481486 -0.5388428
vn -0.3996491 0.6305272 -0.6653692
vn -0.0845272 0.6875249 -0.7212245
vn -0.0911903 0.9411734 -0.3253874
vn 0.3015765 0.9044906 -0.3015764
vn -0.09599976 0.9907411 0.0959999
vn -0.4359249 0.8522754 -0.2891298
vn -0.7429612 0.617548 -0.2581529
vn -0.9540328 0.28504 0.09259438
vn 0.6959566 0.666392 -0.2675181
vn -0.4656976 0.880572 0.08785639
vn -0.8682252 0.2616215 0.4215911
vn -0.8950105 -0.08857843 0.4371614
vn -0.7713692 0.6307634 0.08442175
vn -0.711669 0.5866369 0.3865027
vn -0.6857951 0.2436609 0.6857948
vn -0.7046498 -0.08329388 0.7046494
vn -0.4371614 -0.08857849 0.8950105
vn -0.4193517 0.8051634 0.4193519
vn -0.6037281 0.5206006 0.6037279
vn -0.4215911 0.2616216 0.8682252
vn -0.0959997 -0.09599974 0.9907413
vn -0.3865027 0.586637 0.711669
vn -0.09259415 0.2850399 0.9540328
vn -0.08785622 0.880572 0.4656976
vn 0.2743302 0.2743303 0.9216756
vn 0.2850399 -0.0925942 0.9540328
vn -0.08442155 0.6307634 0.7713693
vn 0.258153 0.6175482 0.7429612
vn 0.2891299 0.8522754 0.4359249
vn 0.6146837 0.2521093 0.7473987
vn 0.6307634 -0.08442158 0.7713692
vn 0.880572 -0.08785621 0.4656976
vn 0.5388429 0.5481486 0.6396729
vn 0.8536059 0.272952 0.4436826
vn 0.3253876 0.9411733 0.09119036
vn 0.6653692 0.630527 0.3996492
vn 0.9480275 0.3046055 0.09197503
vn 0.7212246 0.6875247 0.08452731
vn 0.2850399 -0.0925942 0.9540328
vn 0.6307634 -0.08442158 0.7713692
vn 0.586637 -0.3865027 0.711669
vn 0.880572 -0.08785621 0.4656976
vn 0.2616216 -0.4215911 0.8682252
vn -0.0959997 -0.09599974 0.9907413
vn 0.8051634 -0.4193517 0.4193518
vn 0.9907411 -0.09599973 0.09599992
vn 0.5206005 -0.6037281 0.603728
vn -0.08857844 -0.4371614 0.8950105
vn 0.2436609 -0.6857951 0.6857948
vn -0.4021901 -0.4021901 0.8224879
vn -0.4371614 -0.08857849 0.8950105
vn -0.6561882 -0.3726046 0.6561882
vn -0.7046498 -0.08329388 0.7046494
vn -0.8950105 -0.08857843 0.4371614
vn -0.822488 -0.4021899 0.4021901
vn -0.9907411 -0.09599974 0.09599992
vn -0.5773503 -0.5773503 0.5773503
vn -0.3726046 -0.6561882 0.6561882
vn -0.08329386 -0.7046497 0.7046495
vn -0.08857843 -0.8950105 0.4371614
vn 0.2616215 -0.8682252 0.4215911
vn -0.09599975 -0.9907411 0.0959999
vn -0.4021899 -0.822488 0.40219
vn -0.6561881 -0.6561882 0.3726047
vn -0.8950105 -0.4371612 0.08857861
vn 0.5866368 -0.711669 0.3865027
vn -0.4371613 -0.8950105 0.08857854
vn -0.8682254 -0.421591 -0.2616214
vn -0.9540328 -0.0925942 -0.2850398
vn -0.7046496 -0.7046496 0.08329406
vn -0.685795 -0.6857949 -0.2436607
vn -0.7116691 -0.3865025 -0.5866368
vn -0.7713695 -0.08442159 -0.6307632
vn -0.4656976 -0.08785629 -0.880572
vn -0.421591 -0.8682253 -0.2616215
vn -0.6037281 -0.603728 -0.5206006
vn -0.4193518 -0.4193519 -0.8051634
vn -0.09599976 -0.09599979 -0.9907411
vn -0.3865025 -0.7116691 -0.5866368
vn -0.08785628 -0.4656976 -0.8805719
vn -0.09259418 -0.9540328 -0.2850398
vn 0.28913 -0.435925 -0.8522754
vn 0.3253877 -0.09119029 -0.9411733
vn -0.08442158 -0.7713694 -0.6307632
vn 0.258153 -0.7429614 -0.6175479
vn 0.2743302 -0.9216756 -0.2743301
vn 0.6653694 -0.3996491 -0.630527
vn 0.7212248 -0.08452713 -0.6875246
vn 0.9480275 -0.09197485 -0.3046055
vn 0.5388429 -0.639673 -0.5481484
vn 0.8536059 -0.4436824 -0.272952
vn 0.28504 -0.9540328 0.09259433
vn 0.6146837 -0.7473988 -0.2521092
vn 0.880572 -0.4656976 0.08785635
vn 0.6307634 -0.7713692 0.08442178
g gate-missions-02-lod2_0
f 3/3/3 2/2/2 1/1/1
f 4/4/4 2/2/2 3/3/3
f 1/1/1 5/5/5 3/3/3
f 5/5/5 1/1/1 6/6/6
f 3/3/3 7/7/7 4/4/4
f 8/8/8 4/4/4 7/7/7
f 9/9/9 3/3/3 5/5/5
f 7/7/7 3/3/3 9/9/9
f 6/6/6 10/10/10 5/5/5
f 5/5/5 11/11/11 9/9/9
f 11/11/11 5/5/5 10/10/10
f 12/12/12 10/10/10 6/6/6
f 6/6/6 13/13/13 12/12/12
f 14/14/14 12/12/12 13/13/13
f 13/13/13 15/15/15 14/14/14
f 14/14/14 15/15/15 16/16/16
f 17/17/17 14/14/14 16/16/16
f 17/17/17 16/16/16 18/18/18
f 12/12/12 14/14/14 19/19/19
f 19/19/19 14/14/14 17/17/17
f 10/10/10 12/12/12 20/20/20
f 19/19/19 20/20/20 12/12/12
f 10/10/10 21/21/21 11/11/11
f 20/20/20 21/21/21 10/10/10
f 11/11/11 21/21/21 22/22/22
f 22/22/22 21/21/21 20/20/20
f 9/9/9 11/11/11 23/23/23
f 23/23/23 11/11/11 22/22/22
f 23/23/23 22/22/22 24/24/24
f 20/20/20 25/25/25 22/22/22
f 25/25/25 20/20/20 19/19/19
f 24/24/24 22/22/22 25/25/25
f 26/26/26 19/19/19 17/17/17
f 19/19/19 26/26/26 25/25/25
f 27/27/27 17/17/17 18/18/18
f 26/26/26 17/17/17 27/27/27
f 28/28/28 9/9/9 23/23/23
f 9/9/9 28/28/28 7/7/7
f 29/29/29 25/25/25 26/26/26
f 25/25/25 29/29/29 24/24/24
f 30/30/30 27/27/27 18/18/18
f 18/18/18 31/31/31 30/30/30
f 32/32/32 26/26/26 27/27/27
f 26/26/26 32/32/32 29/29/29
f 33/33/33 32/32/32 27/27/27
f 29/29/29 32/32/32 33/33/33
f 27/27/27 30/30/30 33/33/33
f 34/34/34 30/30/30 31/31/31
f 31/31/31 35/35/35 34/34/34
f 34/34/34 35/35/35 36/36/36
f 29/29/29 33/33/33 37/37/37
f 24/24/24 29/29/29 37/37/37
f 38/38/38 33/33/33 30/30/30
f 30/30/30 34/34/34 38/38/38
f 37/37/37 33/33/33 38/38/38
f 36/36/36 39/39/39 34/34/34
f 38/38/38 34/34/34 39/39/39
f 39/39/39 36/36/36 40/40/40
f 37/37/37 38/38/38 41/41/41
f 39/39/39 41/41/41 38/38/38
f 40/40/40 42/42/42 39/39/39
f 41/41/41 39/39/39 42/42/42
f 43/43/43 37/37/37 41/41/41
f 24/24/24 37/37/37 43/43/43
f 40/40/40 44/44/44 42/42/42
f 40/40/40 45/45/45 44/44/44
f 42/42/42 46/46/46 41/41/41
f 43/43/43 41/41/41 46/46/46
f 42/42/42 47/47/47 46/46/46
f 43/43/43 46/46/46 47/47/47
f 42/42/42 44/44/44 47/47/47
f 24/24/24 43/43/43 48/48/48
f 47/47/47 48/48/48 43/43/43
f 45/45/45 49/49/49 44/44/44
f 45/45/45 50/50/50 49/49/49
f 51/51/51 49/49/49 50/50/50
f 44/44/44 52/52/52 47/47/47
f 44/44/44 49/49/49 52/52/52
f 48/48/48 47/47/47 52/52/52
f 51/51/51 53/53/53 49/49/49
f 53/53/53 52/52/52 49/49/49
f 8/8/8 53/53/53 51/51/51
f 48/48/48 54/54/54 24/24/24
f 54/54/54 23/23/23 24/24/24
f 28/28/28 23/23/23 54/54/54
f 52/52/52 55/55/55 48/48/48
f 53/53/53 55/55/55 52/52/52
f 54/54/54 48/48/48 55/55/55
f 8/8/8 56/56/56 53/53/53
f 56/56/56 55/55/55 53/53/53
f 7/7/7 56/56/56 8/8/8
f 56/56/56 7/7/7 28/28/28
f 57/57/57 28/28/28 54/54/54
f 55/55/55 57/57/57 54/54/54
f 28/28/28 57/57/57 56/56/56
f 56/56/56 57/57/57 55/55/55
f 60/60/60 59/59/59 58/58/58
f 61/61/61 59/59/59 60/60/60
f 58/58/58 62/62/62 60/60/60
f 62/62/62 58/58/58 63/63/63
f 60/60/60 64/64/64 61/61/61
f 65/65/65 61/61/61 64/64/64
f 66/66/66 60/60/60 62/62/62
f 64/64/64 60/60/60 66/66/66
f 63/63/63 67/67/67 62/62/62
f 62/62/62 68/68/68 66/66/66
f 68/68/68 62/62/62 67/67/67
f 69/69/69 67/67/67 63/63/63
f 70/70/70 69/69/69 63/63/63
f 71/71/71 69/69/69 70/70/70
f 71/71/71 70/70/70 72/72/72
f 72/72/72 73/73/73 71/71/71
f 73/73/73 74/74/74 71/71/71
f 75/75/75 74/74/74 73/73/73
f 71/71/71 76/76/76 69/69/69
f 74/74/74 76/76/76 71/71/71
f 69/69/69 77/77/77 67/67/67
f 76/76/76 77/77/77 69/69/69
f 67/67/67 78/78/78 68/68/68
f 77/77/77 78/78/78 67/67/67
f 79/79/79 68/68/68 78/78/78
f 79/79/79 78/78/78 77/77/77
f 68/68/68 80/80/80 66/66/66
f 79/79/79 80/80/80 68/68/68
f 81/81/81 80/80/80 79/79/79
f 77/77/77 82/82/82 79/79/79
f 82/82/82 77/77/77 76/76/76
f 81/81/81 79/79/79 82/82/82
f 74/74/74 83/83/83 76/76/76
f 76/76/76 83/83/83 82/82/82
f 75/75/75 84/84/84 74/74/74
f 84/84/84 83/83/83 74/74/74
f 80/80/80 85/85/85 66/66/66
f 66/66/66 85/85/85 64/64/64
f 86/86/86 82/82/82 83/83/83
f 82/82/82 86/86/86 81/81/81
f 87/87/87 84/84/84 75/75/75
f 75/75/75 88/88/88 87/87/87
f 84/84/84 89/89/89 83/83/83
f 83/83/83 89/89/89 86/86/86
f 90/90/90 89/89/89 84/84/84
f 89/89/89 90/90/90 86/86/86
f 84/84/84 87/87/87 90/90/90
f 91/91/91 87/87/87 88/88/88
f 88/88/88 92/92/92 91/91/91
f 92/92/92 93/93/93 91/91/91
f 90/90/90 94/94/94 86/86/86
f 86/86/86 94/94/94 81/81/81
f 95/95/95 90/90/90 87/87/87
f 87/87/87 91/91/91 95/95/95
f 90/90/90 95/95/95 94/94/94
f 91/91/91 93/93/93 96/96/96
f 91/91/91 96/96/96 95/95/95
f 93/93/93 97/97/97 96/96/96
f 98/98/98 94/94/94 95/95/95
f 95/95/95 96/96/96 98/98/98
f 96/96/96 97/97/97 99/99/99
f 96/96/96 99/99/99 98/98/98
f 94/94/94 98/98/98 100/100/100
f 94/94/94 100/100/100 81/81/81
f 101/101/101 99/99/99 97/97/97
f 97/97/97 102/102/102 101/101/101
f 98/98/98 99/99/99 103/103/103
f 98/98/98 103/103/103 100/100/100
f 104/104/104 103/103/103 99/99/99
f 100/100/100 103/103/103 104/104/104
f 99/99/99 101/101/101 104/104/104
f 81/81/81 100/100/100 105/105/105
f 104/104/104 105/105/105 100/100/100
f 106/106/106 101/101/101 102/102/102
f 102/102/102 107/107/107 106/106/106
f 106/106/106 107/107/107 108/108/108
f 109/109/109 104/104/104 101/101/101
f 101/101/101 106/106/106 109/109/109
f 105/105/105 104/104/104 109/109/109
f 110/110/110 106/106/106 108/108/108
f 109/109/109 106/106/106 110/110/110
f 110/110/110 108/108/108 65/65/65
f 105/105/105 111/111/111 81/81/81
f 81/81/81 111/111/111 80/80/80
f 111/111/111 85/85/85 80/80/80
f 109/109/109 112/112/112 105/105/105
f 112/112/112 109/109/109 110/110/110
f 111/111/111 105/105/105 112/112/112
f 113/113/113 110/110/110 65/65/65
f 112/112/112 110/110/110 113/113/113
f 64/64/64 113/113/113 65/65/65
f 113/113/113 64/64/64 85/85/85
f 112/112/112 114/114/114 111/111/111
f 111/111/111 114/114/114 85/85/85
f 114/114/114 112/112/112 113/113/113
f 85/85/85 114/114/114 113/113/113
