g gate-12-c-neon-lod2
v -0.01360695 0.02184837 4.486726
v -0.01360705 -0.0214576 2.176452
v -0.01360705 0.02567833 2.17653
v -0.01360695 -0.02528755 4.486649
v 0.02721395 0.002110519 2.176491
v 0.02721405 -0.001719742 4.486688
v -0.01360705 0.02567833 2.17653
v -0.01360695 0.02184837 4.486726
vt 0.6846812 0.7805632
vt 0.9978197 0.7870077
vt 0.9978197 0.7805632
vt 0.6846812 0.7870077
vt 0.9978197 0.7934519
vt 0.6846812 0.7934519
vt 0.9978197 0.7996801
vt 0.6846814 0.7996801
vn -0.5000002 0.8660241 0.001435816
vn -0.5000004 -0.8660241 -0.001435773
vn -0.4999985 0.8660251 0.001435818
vn -0.499997 -0.866026 -0.001435776
vn 1 2.04906E-06 0
vn 1 -3.870451E-06 0
vn -0.4999985 0.8660251 0.001435818
vn -0.5000002 0.8660241 0.001435816
g gate-12-c-neon-lod2_0
f 3/3/3 2/2/2 1/1/1
f 2/2/2 4/4/4 1/1/1
f 2/2/2 5/5/5 4/4/4
f 5/5/5 6/6/6 4/4/4
f 5/5/5 7/7/7 6/6/6
f 7/7/7 8/8/8 6/6/6
