g gate-drl-07-trigger-01
v -0.6692029 0.08664949 1.051871
v -0.2488482 -0.08665061 0.877754
v -0.2488485 0.08664959 0.8777541
v -0.6692029 -0.08665071 1.051871
v -1.021128 0.08664943 1.403795
v -1.021128 -0.08665078 1.403795
v -1.195244 0.08664943 1.82415
v -1.195244 -0.08665077 1.82415
v -1.195244 0.08664948 2.321846
v -1.195244 -0.08665072 2.321846
v -1.021128 0.08664956 2.742201
v -1.021128 -0.08665063 2.742201
v -0.6692029 0.0866497 3.094126
v -0.6692029 -0.08665048 3.094126
v -0.2488487 0.08664986 3.268242
v -0.2488485 -0.08665031 3.268242
v 0.248848 0.08665003 3.268242
v 0.2488482 -0.08665014 3.268242
v 0.6692026 0.08665013 3.094126
v 0.6692026 -0.08665006 3.094126
v 1.021127 0.08665022 2.742201
v 1.021127 -0.08664999 2.742201
v 1.195244 0.08665022 2.321846
v 1.195244 -0.08664999 2.321847
v 1.195244 0.08665017 1.82415
v 1.195244 -0.08665004 1.82415
v 1.021127 0.08665007 1.403795
v 1.021127 -0.08665012 1.403795
v 0.6692028 0.08664992 1.05187
v 0.6692029 -0.08665027 1.051871
v 0.2488482 0.08664976 0.877754
v 0.2488484 -0.08665044 0.877754
v -0.2488485 0.08664959 0.8777541
v -0.2488482 -0.08665061 0.877754
v -0.2488485 0.08664959 0.8777541
v -1.021128 0.08664943 1.403795
v -0.6692029 0.08664949 1.051871
v -1.195244 0.08664948 2.321846
v -1.195244 0.08664943 1.82415
v 1.195244 0.08665017 1.82415
v 0.6692028 0.08664992 1.05187
v 0.2488482 0.08664976 0.877754
v 1.021127 0.08665007 1.403795
v 0.248848 0.08665003 3.268242
v -0.6692029 0.0866497 3.094126
v -1.021128 0.08664956 2.742201
v -0.2488487 0.08664986 3.268242
v 1.021127 0.08665022 2.742201
v 0.6692026 0.08665013 3.094126
v 1.195244 0.08665022 2.321846
v 0.6692026 -0.08665006 3.094126
v -0.2488485 -0.08665031 3.268242
v 0.2488482 -0.08665014 3.268242
v -1.021128 -0.08665063 2.742201
v -0.6692029 -0.08665048 3.094126
v 1.021127 -0.08665012 1.403795
v 1.195244 -0.08664999 2.321847
v 1.021127 -0.08664999 2.742201
v 1.195244 -0.08665004 1.82415
v -0.6692029 -0.08665071 1.051871
v -1.195244 -0.08665077 1.82415
v -1.195244 -0.08665072 2.321846
v -1.021128 -0.08665078 1.403795
v 0.2488484 -0.08665044 0.877754
v -0.2488482 -0.08665061 0.877754
v 0.6692029 -0.08665027 1.051871
vt 0.9088827 0
vt 0.9661173 1
vt 0.9661173 0
vt 0.9088827 1
vt 0.8411173 0
vt 0.8411173 1
vt 0.7838827 0
vt 0.7838827 1
vt 0.7161173 0
vt 0.7161173 1
vt 0.6588827 0
vt 0.6588827 1
vt 0.5911173 0
vt 0.5911173 1
vt 0.5338827 0
vt 0.5338827 1
vt 0.4661173 0
vt 0.4661173 1
vt 0.4088827 0
vt 0.4088827 1
vt 0.3411174 0
vt 0.3411174 1
vt 0.2838827 0
vt 0.2838827 1
vt 0.2161174 0
vt 0.2161174 1
vt 0.1588827 0
vt 0.1588827 1
vt 0.09111734 0
vt 0.09111733 1
vt 0.03388272 0
vt 0.03388272 1
vt -1.539576 7.835914E-07
vt -1.539575 1.000001
vt 0.03969602 0.5958347
vt 0.2422813 0.8932495
vt 0.1067505 0.7577187
vt 0.5958347 0.960304
vt 0.4041652 0.960304
vt 0.4041654 0.03969601
vt 0.1067506 0.2422813
vt 0.03969604 0.4041652
vt 0.2422813 0.1067505
vt 0.960304 0.4041653
vt 0.8932495 0.7577187
vt 0.7577187 0.8932495
vt 0.960304 0.5958347
vt 0.7577188 0.1067506
vt 0.8932495 0.2422813
vt 0.5958348 0.03969605
vt 0.8932495 0.2422814
vt 0.960304 0.5958347
vt 0.960304 0.4041653
vt 0.7577187 0.8932495
vt 0.8932495 0.7577187
vt 0.2422813 0.1067505
vt 0.5958348 0.03969605
vt 0.7577188 0.1067506
vt 0.4041654 0.03969601
vt 0.1067505 0.7577187
vt 0.4041653 0.960304
vt 0.5958347 0.960304
vt 0.2422813 0.8932495
vt 0.03969604 0.4041652
vt 0.03969601 0.5958347
vt 0.1067506 0.2422813
vn -0.5555704 0 -0.8314695
vn -0.1950902 0 -0.9807854
vn -0.1950904 0 -0.9807853
vn -0.5555707 0 -0.8314694
vn -0.8314695 0 -0.5555705
vn -0.8314695 0 -0.5555705
vn -0.9807853 0 -0.1950905
vn -0.9807853 0 -0.1950904
vn -0.9807854 0 0.1950902
vn -0.9807854 0 0.1950902
vn -0.8314697 0 0.5555701
vn -0.8314697 0 0.5555702
vn -0.5555702 0 0.8314696
vn -0.5555699 0 0.8314698
vn -0.1950903 0 0.9807853
vn -0.1950899 0 0.9807854
vn 0.1950903 0 0.9807853
vn 0.1950906 0 0.9807853
vn 0.5555702 0 0.8314696
vn 0.5555699 0 0.8314698
vn 0.8314696 0 0.5555702
vn 0.8314695 0 0.5555705
vn 0.9807853 0 0.1950905
vn 0.9807853 0 0.1950907
vn 0.9807854 0 -0.1950901
vn 0.9807854 0 -0.19509
vn 0.8314696 0 -0.5555702
vn 0.8314698 0 -0.55557
vn 0.5555699 0 -0.8314699
vn 0.5555702 0 -0.8314696
vn 0.1950901 0 -0.9807854
vn 0.1950904 0 -0.9807853
vn -0.1950904 0 -0.9807853
vn -0.1950902 0 -0.9807854
vn 0 1 0
vn 0 1 0
vn 0 1 0
vn 0 1 0
vn 0 1 0
vn 0 1 0
vn 0 1 0
vn 0 1 0
vn 0 1 0
vn 0 1 0
vn 0 1 0
vn 0 1 0
vn 0 1 0
vn 0 1 0
vn 0 1 0
vn 0 1 0
vn 0 -1 0
vn 0 -1 0
vn 0 -1 0
vn 0 -1 0
vn 0 -1 0
vn 0 -1 0
vn 0 -1 0
vn 0 -1 0
vn 0 -1 0
vn 0 -1 0
vn 0 -1 0
vn 0 -1 0
vn 0 -1 0
vn 0 -1 0
vn 0 -1 0
vn 0 -1 0
g gate-drl-07-trigger-01_0
f 3/3/3 2/2/2 1/1/1
f 4/4/4 1/1/1 2/2/2
f 1/1/1 4/4/4 5/5/5
f 6/6/6 5/5/5 4/4/4
f 5/5/5 6/6/6 7/7/7
f 8/8/8 7/7/7 6/6/6
f 7/7/7 8/8/8 9/9/9
f 10/10/10 9/9/9 8/8/8
f 9/9/9 10/10/10 11/11/11
f 12/12/12 11/11/11 10/10/10
f 11/11/11 12/12/12 13/13/13
f 14/14/14 13/13/13 12/12/12
f 13/13/13 14/14/14 15/15/15
f 16/16/16 15/15/15 14/14/14
f 15/15/15 16/16/16 17/17/17
f 18/18/18 17/17/17 16/16/16
f 17/17/17 18/18/18 19/19/19
f 20/20/20 19/19/19 18/18/18
f 19/19/19 20/20/20 21/21/21
f 22/22/22 21/21/21 20/20/20
f 21/21/21 22/22/22 23/23/23
f 24/24/24 23/23/23 22/22/22
f 23/23/23 24/24/24 25/25/25
f 26/26/26 25/25/25 24/24/24
f 25/25/25 26/26/26 27/27/27
f 28/28/28 27/27/27 26/26/26
f 27/27/27 28/28/28 29/29/29
f 30/30/30 29/29/29 28/28/28
f 29/29/29 30/30/30 31/31/31
f 32/32/32 31/31/31 30/30/30
f 31/31/31 32/32/32 33/33/33
f 34/34/34 33/33/33 32/32/32
f 37/37/37 36/36/36 35/35/35
f 36/36/36 38/38/38 35/35/35
f 39/39/39 38/38/38 36/36/36
f 38/38/38 40/40/40 35/35/35
f 40/40/40 41/41/41 35/35/35
f 35/35/35 41/41/41 42/42/42
f 43/43/43 41/41/41 40/40/40
f 44/44/44 40/40/40 38/38/38
f 45/45/45 44/44/44 38/38/38
f 46/46/46 45/45/45 38/38/38
f 47/47/47 44/44/44 45/45/45
f 48/48/48 40/40/40 44/44/44
f 49/49/49 48/48/48 44/44/44
f 50/50/50 40/40/40 48/48/48
f 53/53/53 52/52/52 51/51/51
f 52/52/52 54/54/54 51/51/51
f 55/55/55 54/54/54 52/52/52
f 54/54/54 56/56/56 51/51/51
f 56/56/56 57/57/57 51/51/51
f 51/51/51 57/57/57 58/58/58
f 59/59/59 57/57/57 56/56/56
f 60/60/60 56/56/56 54/54/54
f 61/61/61 60/60/60 54/54/54
f 62/62/62 61/61/61 54/54/54
f 63/63/63 60/60/60 61/61/61
f 64/64/64 56/56/56 60/60/60
f 65/65/65 64/64/64 60/60/60
f 66/66/66 56/56/56 64/64/64
