g gate-tryouts-d-05-trigger
v -4.403065 -0.1065835 4.403066
v 4.403065 -0.1065835 4.403066
v 4.403065 -0.1065839 -4.403057
v -4.403065 -0.1065839 -4.403057
v -4.403065 0.1065839 4.403066
v 4.403065 0.1065833 -4.403057
v 4.403065 0.1065839 4.403066
v -4.403065 0.1065834 -4.403057
v 4.403065 0.1065833 -4.403057
v -4.403065 0.1065834 -4.403057
v -4.403065 -0.1065839 -4.403057
v 4.403065 -0.1065839 -4.403057
v -4.403065 -0.1065835 4.403066
v -4.403065 -0.1065839 -4.403057
v -4.403065 0.1065834 -4.403057
v -4.403065 0.1065839 4.403066
v 4.403065 0.1065839 4.403066
v 4.403065 -0.1065835 4.403066
v -4.403065 -0.1065835 4.403066
v -4.403065 0.1065839 4.403066
v 4.403065 0.1065833 -4.403057
v 4.403065 -0.1065835 4.403066
v 4.403065 0.1065839 4.403066
v 4.403065 -0.1065839 -4.403057
vt 0 1
vt 1 1
vt 1 0
vt 0 0
vt 1 1
vt 0 0
vt 0 1
vt 1 0
vt 0 1
vt 1 1
vt 1 0
vt 0 0
vt 1 0
vt 0 0
vt 0 1
vt 1 1
vt 1 1
vt 1 0
vt 0 0
vt 0 1
vt 1 1
vt 0 0
vt 0 1
vt 1 0
vn 0 -1 0
vn 0 -1 0
vn 0 -1 0
vn 0 -1 0
vn 0 1 0
vn 0 1 0
vn 0 1 0
vn 0 1 0
vn 0 0 -1
vn 0 0 -1
vn 0 0 -1
vn 0 0 -1
vn -1 0 0
vn -1 0 0
vn -1 0 0
vn -1 0 0
vn 0 0 1
vn 0 0 1
vn 0 0 1
vn 0 0 1
vn 1 0 0
vn 1 0 0
vn 1 0 0
vn 1 0 0
g gate-tryouts-d-05-trigger_0
f 3/3/3 2/2/2 1/1/1
f 1/1/1 4/4/4 3/3/3
f 7/7/7 6/6/6 5/5/5
f 6/6/6 8/8/8 5/5/5
f 11/11/11 10/10/10 9/9/9
f 9/9/9 12/12/12 11/11/11
f 15/15/15 14/14/14 13/13/13
f 13/13/13 16/16/16 15/15/15
f 19/19/19 18/18/18 17/17/17
f 17/17/17 20/20/20 19/19/19
f 23/23/23 22/22/22 21/21/21
f 24/24/24 21/21/21 22/22/22
