g gate-06-net-lod2
v 1.068193 -1.2374 0.05179134
v 1.9361 -1.2374 1.0786
v 1.9361 1.2241 1.0786
v 1.068193 1.2241 0.05179134
v 0.009122429 1.2241 2.8493
v 1.9361 1.2241 1.0786
v 1.9361 -1.2374 1.0786
v 0.009122537 -1.2374 2.8493
v -1.9361 -1.2374 1.0786
v -1.077444 -1.2374 0.04382923
v -1.077444 1.2241 0.04382923
v -1.9361 1.2241 1.0786
v 0.008887053 -1.2374 2.8493
v -1.9361 -1.2374 1.0786
v -1.9361 1.2241 1.0786
v 0.008886946 1.2241 2.8493
v 1.9361 -1.2374 1.0786
v 1.068193 -1.2374 0.05179134
v 1.068193 1.2241 0.05179134
v 1.9361 1.2241 1.0786
v 0.009122537 -1.2374 2.8493
v 1.9361 -1.2374 1.0786
v 1.9361 1.2241 1.0786
v 0.009122429 1.2241 2.8493
v -1.077444 -1.2374 0.04382924
v -1.9361 -1.2374 1.0786
v -1.9361 1.2241 1.0786
v -1.077444 1.2241 0.04382924
v 0.008886946 1.2241 2.8493
v -1.9361 1.2241 1.0786
v -1.9361 -1.2374 1.0786
v 0.008887053 -1.2374 2.8493
v 1.914191 1.226696 1.0542
v 0.002099946 1.2326 2.7975
v 0.002099932 1.5473 1.1382
v 1.0899 1.2239 0.1022837
v -1.898653 1.2539 1.0542
v -1.0857 1.2239 0.1022837
v 1.0899 1.2239 0.1022837
v 0.002099932 1.5473 1.1382
v 1.914191 1.226696 1.0542
v -1.0857 1.2239 0.1022837
v 0.002099946 1.2326 2.7975
v -1.898653 1.2539 1.0542
vt 9.295626 4.740543
vt 9.295626 -0.9729453
vt 0.9227569 -0.9738163
vt 0.9227569 4.739735
vt 0.9227569 -11.40618
vt 0.9227569 -1.227799
vt 9.295626 -1.227659
vt 9.295626 -11.40603
vt 9.295626 -0.9729453
vt 9.295626 4.740543
vt 0.9227569 4.739735
vt 0.9227569 -0.9738163
vt 9.295626 -11.40603
vt 9.295626 -1.227659
vt 0.9227569 -1.227799
vt 0.9227569 -11.40618
vt 9.295626 -0.9729453
vt 9.295626 4.740543
vt 0.9227569 4.739735
vt 0.9227569 -0.9738163
vt 9.295626 -11.40603
vt 9.295626 -1.227659
vt 0.9227569 -1.227799
vt 0.9227569 -11.40618
vt 9.295626 4.740543
vt 9.295626 -0.9729453
vt 0.9227569 -0.9738163
vt 0.9227569 4.739735
vt 0.9227569 -11.40618
vt 0.9227569 -1.227799
vt 9.295626 -1.227659
vt 9.295626 -11.40603
vt -10.63484 -4.277291
vt -17.85444 2.262994
vt -17.85206 -4.015256
vt -13.68379 -8.022357
vt -25.06779 -4.382419
vt -21.95581 -7.97185
vt -13.68379 -8.022357
vt -17.85206 -4.015256
vt -10.63484 -4.277291
vt -21.95581 -7.97185
vt -17.85444 2.262994
vt -25.06779 -4.382419
vn 0.7637277 0 -0.6455387
vn 0.7637277 0 -0.6455386
vn 0.7637277 0 -0.6455387
vn 0.7637277 0 -0.6455386
vn 0.6766179 0 0.7363343
vn 0.6766179 0 0.7363343
vn 0.6766179 0 0.7363343
vn 0.6766179 0 0.7363343
vn -0.7695557 0 -0.6385795
vn -0.7695557 0 -0.6385796
vn -0.7695557 0 -0.6385795
vn -0.7695557 0 -0.6385796
vn -0.6731994 0 0.7394611
vn -0.6731994 0 0.7394611
vn -0.6731994 0 0.7394611
vn -0.6731994 0 0.7394611
vn -0.7637277 0 0.6455386
vn -0.7637277 0 0.6455386
vn -0.7637277 0 0.6455386
vn -0.7637277 0 0.6455386
vn -0.6766179 0 -0.7363343
vn -0.6766179 0 -0.7363343
vn -0.6766179 0 -0.7363343
vn -0.6766179 0 -0.7363343
vn 0.7695557 0 0.6385796
vn 0.7695557 0 0.6385797
vn 0.7695557 0 0.6385796
vn 0.7695557 0 0.6385797
vn 0.6731994 0 -0.739461
vn 0.6731994 0 -0.739461
vn 0.6731994 0 -0.739461
vn 0.6731994 0 -0.739461
vn 0.1654512 0.9862158 0.002055761
vn 0.006877639 0.9824628 0.1863322
vn 0.004836773 0.9998645 -0.015734
vn 0.1047741 0.9752999 -0.1944547
vn -0.1522683 0.9883177 -0.006525611
vn -0.0953505 0.9743078 -0.2040405
vn -0.1047741 -0.9752999 0.1944547
vn -0.004836779 -0.9998645 0.015734
vn -0.1654512 -0.9862158 -0.002055751
vn 0.0953505 -0.9743078 0.2040405
vn -0.006877648 -0.9824628 -0.1863322
vn 0.1522683 -0.9883177 0.006525619
g gate-06-net-lod2_0
f 3/3/3 2/2/2 1/1/1
f 4/4/4 3/3/3 1/1/1
f 7/7/7 6/6/6 5/5/5
f 8/8/8 7/7/7 5/5/5
f 11/11/11 10/10/10 9/9/9
f 12/12/12 11/11/11 9/9/9
f 15/15/15 14/14/14 13/13/13
f 16/16/16 15/15/15 13/13/13
f 19/19/19 18/18/18 17/17/17
f 20/20/20 19/19/19 17/17/17
f 23/23/23 22/22/22 21/21/21
f 24/24/24 23/23/23 21/21/21
f 27/27/27 26/26/26 25/25/25
f 28/28/28 27/27/27 25/25/25
f 31/31/31 30/30/30 29/29/29
f 32/32/32 31/31/31 29/29/29
f 35/35/35 34/34/34 33/33/33
f 36/36/36 35/35/35 33/33/33
f 34/34/34 35/35/35 37/37/37
f 35/35/35 36/36/36 38/38/38
f 35/35/35 38/38/38 37/37/37
f 41/41/41 40/40/40 39/39/39
f 39/39/39 40/40/40 42/42/42
f 43/43/43 40/40/40 41/41/41
f 40/40/40 44/44/44 42/42/42
f 43/43/43 44/44/44 40/40/40
