g gate-drl-35-lod2
v 2.756468E-07 -0.06530111 1.131372
v 7.46134E-07 -0.4303623 2.346712E-07
v 1.145358E-06 2.980232E-08 -3.088062E-07
v 2.756468E-07 2.980232E-08 1.131372
v 2.756468E-07 -0.06530111 1.131372
v 0.002172759 -0.4303623 0.002196305
v 7.46134E-07 -0.4303623 2.346712E-07
v 0.04345118 -0.06530111 1.129369
v 0.1042971 -0.2934644 0.1053956
v 0.2064217 -0.1565664 0.2085949
v 0.2745045 -0.06530111 0.2773949
v 0.2745045 2.980232E-08 0.2773949
v 0.04345118 2.980232E-08 1.129369
v 0.8554835 -0.1538928 0.03341401
v 1.131384 -0.06530111 8.234553E-07
v 0.8556302 -0.154278 9.254456E-07
v 1.128917 -0.06530111 0.04341738
v 0.7817606 -0.06530111 0.1384851
v 0.7819474 2.980232E-08 0.1384338
v 1.128917 2.980232E-08 0.04341738
v 0.5557479 2.980232E-08 0.2003778
v 0.5559899 -0.06530111 0.2003116
v 0.2745045 -0.06530111 0.2773949
v 0.2064217 -0.1565664 0.2085949
v 0.2745045 2.980232E-08 0.2773949
v 2.756468E-07 2.980232E-08 1.131372
v 0.04345118 -0.06530111 1.129369
v 2.756468E-07 -0.06530111 1.131372
v 0.04345118 2.980232E-08 1.129369
v 1.128917 2.980232E-08 0.04341738
v 1.131384 -0.06530111 8.234553E-07
v 1.128917 -0.06530111 0.04341738
v 1.131384 2.980232E-08 8.234553E-07
v 0.2745045 2.980232E-08 0.2773949
v 0.04345118 2.980232E-08 1.129369
v 0.08529253 2.980232E-08 0.08618964
v 2.756468E-07 2.980232E-08 1.131372
v 1.145358E-06 2.980232E-08 -3.088062E-07
v 0.1125981 2.980232E-08 -1.459151E-07
v 0.7780663 2.980232E-08 2.411538E-07
v 1.128917 2.980232E-08 0.04341738
v 0.7819474 2.980232E-08 0.1384338
v 1.131384 2.980232E-08 8.234553E-07
v 0.1367382 -0.3867636 0.007119108
v 0.8556302 -0.154278 9.254456E-07
v 0.1356132 -0.3866046 4.527863E-07
v 0.8554835 -0.1538928 0.03341401
v 0.1042971 -0.2934644 0.1053956
v 0.5559899 -0.06530111 0.2003116
v 0.2064217 -0.1565664 0.2085949
v 0.7817606 -0.06530111 0.1384851
v 0.002172759 -0.4303623 0.002196305
v 0.1356132 -0.3866046 4.527863E-07
v 7.46134E-07 -0.4303623 2.346712E-07
v 0.1367382 -0.3867636 0.007119108
v 0.1042971 -0.2934644 0.1053956
v 0.1356132 -0.3866046 4.527863E-07
v 1.145358E-06 2.980232E-08 -3.088062E-07
v 7.46134E-07 -0.4303623 2.346712E-07
v 0.1125986 -0.006498888 -2.180418E-07
v 0.1125981 2.980232E-08 -1.459151E-07
v 0.6766458 -0.03905453 3.827837E-07
v 0.8556302 -0.154278 9.254456E-07
v 0.7780663 2.980232E-08 2.411538E-07
v 1.131384 -0.06530111 8.234553E-07
v 1.131384 2.980232E-08 8.234553E-07
v 0.5557479 2.980232E-08 0.2003778
v 0.7780663 2.980232E-08 2.411538E-07
v 0.7819474 2.980232E-08 0.1384338
v 0.1125981 2.980232E-08 -1.459151E-07
v 0.08529253 2.980232E-08 0.08618964
v 0.2745045 2.980232E-08 0.2773949
vt 1.402324 0.9632897
vt 1.003 0.8344961
vt 1.004144 0.9863742
vt 1.402326 0.9863489
vt 1.043072 0.7210816
vt 1.429889 0.5600644
vt 1.429889 0.5590004
vt 1.049688 0.7349301
vt 1.404348 0.625693
vt 1.378806 0.6913216
vt 1.361779 0.735074
vt 1.361762 0.758041
vt 1.049671 0.758041
vt 1.142098 0.8347645
vt 1.043072 0.8063344
vt 1.137616 0.8452403
vt 1.04969 0.792491
vt 1.176516 0.7923938
vt 1.17641 0.7693628
vt 1.049672 0.7693789
vt 1.259032 0.7693676
vt 1.258972 0.7923724
vt 1.361784 0.7923459
vt 1.378811 0.8360981
vt 1.361764 0.769379
vt 1.988971 0.2344277
vt 1.973621 0.2574759
vt 1.988971 0.2574759
vt 1.973621 0.2344277
vt 1.86044 0.3133519
vt 1.845092 0.3363995
vt 1.86044 0.3363995
vt 1.845092 0.3133519
vt 1.100535 0.4762159
vt 1.401641 0.3940077
vt 1.034178 0.4098459
vt 1.402421 0.3786759
vt 1.004266 0.3799461
vt 1.004123 0.4195656
vt 1.00329 0.6537091
vt 1.018328 0.7773272
vt 1.051702 0.6550605
vt 1.003 0.7781126
vt 1.384139 0.9471846
vt 1.137616 0.8452403
vt 1.383016 0.950316
vt 1.142098 0.8347645
vt 1.404351 0.9017265
vt 1.258972 0.7923724
vt 1.378811 0.8360981
vt 1.176516 0.7923938
vt 1.429892 0.9673548
vt 1.383016 0.950316
vt 1.429892 0.9684195
vt 1.384139 0.9471846
vt 1.404351 0.9017265
vt 1.650109 0.3290306
vt 1.696718 0.4654375
vt 1.697862 0.3135588
vt 1.657137 0.4632763
vt 1.65709 0.4654385
vt 1.458577 0.4515586
vt 1.395882 0.4105445
vt 1.422881 0.4654195
vt 1.298534 0.4423531
vt 1.298532 0.465412
vt 1.073465 0.5753098
vt 1.00329 0.6537091
vt 1.051702 0.6550605
vt 1.004123 0.4195656
vt 1.034178 0.4098459
vt 1.100535 0.4762159
vn -1 0 0
vn -1 0 0
vn -1 0 0
vn -1 0 0
vn 0.01379514 -0.9514104 0.3076166
vn -0.0503613 -0.9524796 0.3004103
vn -0.2965188 -0.9088833 0.2932706
vn 0.6699247 -0.6515482 0.3559293
vn 0.7112325 -0.6759762 0.1928845
vn 0.7112322 -0.6759765 0.1928847
vn 0.8841811 -0.4009058 0.2397879
vn 0.9651375 0 0.261743
vn 0.9651375 0 0.261743
vn 0.2707962 -0.88039 0.3893362
vn 0.3075563 -0.9513765 0.01708591
vn 0.3074215 -0.9514968 0.01207503
vn 0.3569658 -0.6527096 0.6682407
vn 0.245962 -0.3643983 0.898174
vn 0.2641222 0 0.9644892
vn 0.2641219 0 0.9644893
vn 0.2641213 0 0.9644895
vn 0.2459611 -0.3643988 0.898174
vn 0.2418391 -0.4020017 0.8831242
vn 0.1939766 -0.6786872 0.7083479
vn 0.2641206 0 0.9644896
vn 0.04604461 0 0.9989393
vn 0.04604461 0 0.9989393
vn 0.04604461 0 0.9989393
vn 0.04604461 0 0.9989393
vn 0.99839 0 0.05672339
vn 0.99839 0 0.05672339
vn 0.99839 0 0.0567234
vn 0.99839 0 0.0567234
vn 0 1 0
vn 0 1 0
vn 0 1 0
vn 0 1 0
vn 0 1 0
vn 0 1 0
vn 0 1 0
vn 0 1 0
vn 0 1 0
vn 0 1 0
vn 0.2758496 -0.8945972 0.3515718
vn 0.3074215 -0.9514968 0.01207503
vn 0.308173 -0.9486727 -0.0710598
vn 0.2707962 -0.88039 0.3893362
vn 0.1939778 -0.6786875 0.7083473
vn 0.2459611 -0.3643988 0.898174
vn 0.1939766 -0.6786872 0.7083479
vn 0.245962 -0.3643983 0.898174
vn 0.3005638 -0.9527758 -0.04335536
vn 0.308173 -0.9486727 -0.0710598
vn 0.2938254 -0.910612 -0.2906067
vn 0.2758496 -0.8945972 0.3515718
vn 0.1939778 -0.6786875 0.7083473
vn 0 0 -1
vn 0 0 -1
vn 0 0 -1
vn 0 0 -1
vn 0 1.074142E-05 -1
vn 0 0 -1
vn 0 0 -1
vn 0 0 -1
vn 0 0 -1
vn 0 0 -1
vn 0 1 0
vn 0 1 0
vn 0 1 0
vn 0 1 0
vn 0 1 0
vn 0 1 0
g gate-drl-35-lod2_0
f 3/3/3 2/2/2 1/1/1
f 4/4/4 3/3/3 1/1/1
f 7/7/7 6/6/6 5/5/5
f 8/8/8 5/5/5 6/6/6
f 9/9/9 8/8/8 6/6/6
f 10/10/10 8/8/8 9/9/9
f 11/11/11 8/8/8 10/10/10
f 11/11/11 12/12/12 8/8/8
f 13/13/13 8/8/8 12/12/12
f 16/16/16 15/15/15 14/14/14
f 17/17/17 14/14/14 15/15/15
f 17/17/17 18/18/18 14/14/14
f 18/18/18 17/17/17 19/19/19
f 20/20/20 19/19/19 17/17/17
f 19/19/19 21/21/21 18/18/18
f 22/22/22 18/18/18 21/21/21
f 22/22/22 21/21/21 23/23/23
f 24/24/24 22/22/22 23/23/23
f 25/25/25 23/23/23 21/21/21
f 28/28/28 27/27/27 26/26/26
f 29/29/29 26/26/26 27/27/27
f 32/32/32 31/31/31 30/30/30
f 33/33/33 30/30/30 31/31/31
f 36/36/36 35/35/35 34/34/34
f 35/35/35 36/36/36 37/37/37
f 38/38/38 37/37/37 36/36/36
f 38/38/38 36/36/36 39/39/39
f 42/42/42 41/41/41 40/40/40
f 43/43/43 40/40/40 41/41/41
f 46/46/46 45/45/45 44/44/44
f 47/47/47 44/44/44 45/45/45
f 44/44/44 47/47/47 48/48/48
f 47/47/47 49/49/49 48/48/48
f 48/48/48 49/49/49 50/50/50
f 51/51/51 49/49/49 47/47/47
f 54/54/54 53/53/53 52/52/52
f 55/55/55 52/52/52 53/53/53
f 52/52/52 55/55/55 56/56/56
f 59/59/59 58/58/58 57/57/57
f 60/60/60 57/57/57 58/58/58
f 61/61/61 60/60/60 58/58/58
f 60/60/60 62/62/62 57/57/57
f 60/60/60 61/61/61 62/62/62
f 63/63/63 57/57/57 62/62/62
f 64/64/64 62/62/62 61/61/61
f 63/63/63 62/62/62 65/65/65
f 62/62/62 64/64/64 65/65/65
f 66/66/66 65/65/65 64/64/64
f 69/69/69 68/68/68 67/67/67
f 70/70/70 67/67/67 68/68/68
f 70/70/70 71/71/71 67/67/67
f 72/72/72 67/67/67 71/71/71
