g gate-drl-38-trigger
v 1.521191 -0.007609227 1.141109
v 0.7133278 -0.007609603 0.3551313
v -1.124236E-08 -0.007608961 2.662299
v -0.7133271 -0.007609841 0.3551311
v -1.521191 -0.007609704 1.141108
v -1.521191 0.1850377 1.141108
v -0.7133271 0.1850377 0.355131
v -2.715715E-08 0.1850385 2.662299
v 0.7133278 0.1850379 0.3551313
v 1.521191 0.1850382 1.141108
v -1.521191 0.1850377 1.141108
v -0.7133271 -0.007609841 0.3551311
v -0.7133271 0.1850377 0.355131
v -1.521191 -0.007609704 1.141108
v -1.124236E-08 -0.007608961 2.662299
v -1.521191 -0.007609704 1.141108
v -1.521191 0.1850377 1.141108
v -2.715715E-08 0.1850385 2.662299
v -1.124236E-08 -0.007608961 2.662299
v 1.521191 0.1850382 1.141108
v 1.521191 -0.007609227 1.141109
v -2.715715E-08 0.1850385 2.662299
v 0.7133278 0.1850379 0.3551313
v 1.521191 -0.007609227 1.141109
v 1.521191 0.1850382 1.141108
v 0.7133278 -0.007609603 0.3551313
v -0.7133271 0.1850377 0.355131
v 0.7133278 -0.007609603 0.3551313
v 0.7133278 0.1850379 0.3551313
v -0.7133271 -0.007609841 0.3551311
vt 1 1
vt 1 0.5195338
vt 0 1
vt 0.4804662 0
vt 0 0
vt 1 0
vt 0.5195338 0
vt 1 1
vt 0 0.5195338
vt 0 1
vt 1 1
vt 0.5195338 0
vt 0.5195338 1
vt 1 0
vt 1 0
vt 0 0
vt 0 1
vt 1 1
vt 0 0
vt 1 1
vt 1 0
vt 0 1
vt 0.4804662 1
vt 0 0
vt 0 1
vt 0.4804662 0
vt 9.297249 0.9999868
vt 0.4804662 0
vt 0.4804662 1
vt 9.297249 -1.319178E-05
vn 0 -1 0
vn 0 -1 0
vn 0 -1 0
vn 0 -1 0
vn 0 -1 0
vn 0 1 0
vn 0 1 0
vn 0 1 0
vn 0 1 0
vn 0 1 0
vn -0.697331 0 -0.7167494
vn -0.697331 0 -0.7167494
vn -0.697331 0 -0.7167494
vn -0.697331 0 -0.7167494
vn -0.7071068 0 0.7071067
vn -0.7071068 0 0.7071067
vn -0.7071068 0 0.7071067
vn -0.7071068 0 0.7071067
vn 0.7071066 0 0.7071068
vn 0.7071066 0 0.7071069
vn 0.7071066 0 0.7071069
vn 0.7071066 0 0.7071069
vn 0.6973311 0 -0.7167491
vn 0.6973311 0 -0.7167491
vn 0.6973311 0 -0.7167491
vn 0.6973311 0 -0.7167491
vn 0 0 -1
vn 0 0 -1
vn 0 0 -1
vn 0 0 -1
g gate-drl-38-trigger_0
f 3/3/3 2/2/2 1/1/1
f 4/4/4 2/2/2 3/3/3
f 3/3/3 5/5/5 4/4/4
f 8/8/8 7/7/7 6/6/6
f 9/9/9 7/7/7 8/8/8
f 8/8/8 10/10/10 9/9/9
f 13/13/13 12/12/12 11/11/11
f 12/12/12 14/14/14 11/11/11
f 17/17/17 16/16/16 15/15/15
f 15/15/15 18/18/18 17/17/17
f 21/21/21 20/20/20 19/19/19
f 20/20/20 22/22/22 19/19/19
f 25/25/25 24/24/24 23/23/23
f 24/24/24 26/26/26 23/23/23
f 29/29/29 28/28/28 27/27/27
f 28/28/28 30/30/30 27/27/27
