g gate-multigp-c-05-trigger
v 1.069617 -0.01500073 0.9161581
v 1.069617 -0.01973586 -0.9160706
v -1.069617 -0.01500095 0.9161578
v -1.069617 -0.01973586 -0.9160706
v -1.069617 0.01500124 -0.9161603
v 1.069617 0.01500065 -0.9161603
v 1.069617 0.01973574 0.9160683
v -1.069617 0.01973619 0.9160681
v 1.069617 0.01973574 0.9160683
v -1.069617 -0.01500095 0.9161578
v -1.069617 0.01973619 0.9160681
v 1.069617 -0.01500073 0.9161581
v 1.069617 0.01500065 -0.9161603
v 1.069617 -0.01500073 0.9161581
v 1.069617 0.01973574 0.9160683
v 1.069617 -0.01973586 -0.9160706
v 1.069617 0.01500065 -0.9161603
v -1.069617 0.01500124 -0.9161603
v -1.069617 -0.01973586 -0.9160706
v 1.069617 -0.01973586 -0.9160706
v -1.069617 -0.01500095 0.9161578
v -1.069617 -0.01973586 -0.9160706
v -1.069617 0.01500124 -0.9161603
v -1.069617 0.01973619 0.9160681
vt 0 0
vt 0 1
vt 1 0
vt 1 1
vt 0 1
vt 1 1
vt 1 0
vt 0 0
vt 1 1
vt 0 0
vt 0 1
vt 1 0
vt 1 1
vt 0 0
vt 0 1
vt 1 0
vt 0 1
vt 1 1
vt 1 0
vt 0 0
vt 1 0
vt 0 0
vt 0 1
vt 1 1
vn 0 -0.9999967 0.002584286
vn 0 -0.9999967 0.002584286
vn 0 -0.9999967 0.002584298
vn 0 -0.9999967 0.002584286
vn 0 0.9999967 -0.002584334
vn 0 0.9999967 -0.002584334
vn 0 0.9999967 -0.002584334
vn 0 0.9999967 -0.002584334
vn 0 0.002582748 0.9999967
vn 0 0.002582748 0.9999967
vn 0 0.002582712 0.9999967
vn 0 0.00258276 0.9999967
vn 1 0 0
vn 1 0 0
vn 1 0 0
vn 1 0 0
vn 0 -0.002582796 -0.9999967
vn 0 -0.002582796 -0.9999967
vn 0 -0.00258276 -0.9999967
vn 0 -0.00258276 -0.9999967
vn -1 0 0
vn -1 0 0
vn -1 0 0
vn -1 0 0
g gate-multigp-c-05-trigger_0
f 3/3/3 2/2/2 1/1/1
f 4/4/4 2/2/2 3/3/3
f 7/7/7 6/6/6 5/5/5
f 5/5/5 8/8/8 7/7/7
f 11/11/11 10/10/10 9/9/9
f 10/10/10 12/12/12 9/9/9
f 15/15/15 14/14/14 13/13/13
f 16/16/16 13/13/13 14/14/14
f 19/19/19 18/18/18 17/17/17
f 17/17/17 20/20/20 19/19/19
f 23/23/23 22/22/22 21/21/21
f 21/21/21 24/24/24 23/23/23
