g gate-multigp-b-03-trigger
v 1.061914 0.01736965 10.58353
v 1.061914 0.01736983 12.41353
v -1.061914 0.01736961 10.58353
v -1.061914 0.01736978 12.41353
v 1.061914 -0.01736686 12.41353
v -1.061914 -0.0173671 10.58353
v -1.061914 -0.0173669 12.41353
v 1.061914 -0.01736706 10.58353
v 1.061914 -0.01736706 10.58353
v -1.061914 0.01736961 10.58353
v -1.061914 -0.0173671 10.58353
v 1.061914 0.01736965 10.58353
v 1.061914 -0.01736686 12.41353
v 1.061914 0.01736965 10.58353
v 1.061914 -0.01736706 10.58353
v 1.061914 0.01736983 12.41353
v 1.061914 -0.01736686 12.41353
v -1.061914 -0.0173669 12.41353
v -1.061914 0.01736978 12.41353
v 1.061914 0.01736983 12.41353
v -1.061914 -0.0173669 12.41353
v -1.061914 -0.0173671 10.58353
v -1.061914 0.01736961 10.58353
v -1.061914 0.01736978 12.41353
vt 0 0
vt 0 1
vt 1 0
vt 1 1
vt 1 1
vt 0 0
vt 0 1
vt 1 0
vt 1 1
vt 0 0
vt 0 1
vt 1 0
vt 1 1
vt 0 0
vt 0 1
vt 1 0
vt 0 1
vt 1 1
vt 1 0
vt 0 0
vt 0 1
vt 1 1
vt 1 0
vt 0 0
vn 0 1 0
vn 0 1 0
vn 0 1 0
vn 0 1 0
vn 0 -1 0
vn 0 -1 0
vn 0 -1 0
vn 0 -1 0
vn 0 0 -1
vn 0 0 -1
vn 0 0 -1
vn 0 0 -1
vn 1 0 0
vn 1 0 0
vn 1 0 0
vn 1 0 0
vn 0 0 1
vn 0 0 1
vn 0 0 1
vn 0 0 1
vn -1 0 0
vn -1 0 0
vn -1 0 0
vn -1 0 0
g gate-multigp-b-03-trigger_0
f 3/3/3 2/2/2 1/1/1
f 4/4/4 2/2/2 3/3/3
f 7/7/7 6/6/6 5/5/5
f 6/6/6 8/8/8 5/5/5
f 11/11/11 10/10/10 9/9/9
f 10/10/10 12/12/12 9/9/9
f 15/15/15 14/14/14 13/13/13
f 14/14/14 16/16/16 13/13/13
f 19/19/19 18/18/18 17/17/17
f 17/17/17 20/20/20 19/19/19
f 23/23/23 22/22/22 21/21/21
f 21/21/21 24/24/24 23/23/23
