g gate-inflatable-04-trigger
v -0.9114055 0.05000013 -1.192093E-07
v -0.3426754 0.05000007 1.497579
v -0.9114055 0.05000009 1.018534
v 0.9114055 0.05000009 1.018534
v 0.9114055 0.05000013 -1.192093E-07
v 0.3426754 0.05000007 1.497579
v 0.9114055 -0.04999986 -1.192093E-07
v 0.3426754 -0.04999992 1.497579
v 0.9114055 -0.0499999 1.018534
v -0.9114055 -0.04999986 -1.192093E-07
v -0.9114055 -0.0499999 1.018534
v -0.3426754 -0.04999992 1.497579
v -0.9114055 0.05000013 -1.192093E-07
v 0.9114055 -0.04999986 -1.192093E-07
v 0.9114055 0.05000013 -1.192093E-07
v -0.9114055 -0.04999986 -1.192093E-07
v 0.9114055 0.05000013 -1.192093E-07
v 0.9114055 -0.0499999 1.018534
v 0.9114055 0.05000009 1.018534
v 0.9114055 -0.04999986 -1.192093E-07
v 0.3426754 0.05000007 1.497579
v -0.3426754 -0.04999992 1.497579
v -0.3426754 0.05000007 1.497579
v 0.3426754 -0.04999992 1.497579
v -0.9114055 0.05000009 1.018534
v -0.9114055 -0.04999986 -1.192093E-07
v -0.9114055 0.05000013 -1.192093E-07
v -0.9114055 -0.0499999 1.018534
v 0.9114055 0.05000009 1.018534
v 0.3426754 -0.04999992 1.497579
v 0.3426754 0.05000007 1.497579
v 0.9114055 -0.0499999 1.018534
v -0.3426754 0.05000007 1.497579
v -0.9114055 -0.0499999 1.018534
v -0.9114055 0.05000009 1.018534
v -0.3426754 -0.04999992 1.497579
vt 1 0
vt 0.7460917 1
vt 1 0.6763016
vt 0 0.6763016
vt 0 0
vt 0.2539082 1
vt 1 0
vt 0.7460917 1
vt 1 0.6763016
vt 0 0
vt 0 0.6763016
vt 0.2539082 1
vt 0 0
vt 1 1
vt 1 0
vt 0 1
vt 0 0
vt 0.6763016 1
vt 0.6763016 0
vt 0 1
vt 0.2539082 0
vt 0.7460917 1
vt 0.7460917 0
vt 0.2539082 1
vt 0.3236984 0
vt 1 1
vt 1 0
vt 0.3236984 1
vt -7.575137 -1.085283E-05
vt 0.2539082 1
vt 0.2539082 0
vt -7.575138 0.9999892
vt -5.941922 9.239376E-06
vt 0.3236984 1
vt 0.3236984 0
vt -5.941921 1.000009
vn 0 1 0
vn 0 1 0
vn 0 1 0
vn 0 1 0
vn 0 1 0
vn 0 1 0
vn 0 -1 0
vn 0 -1 0
vn 0 -1 0
vn 0 -1 0
vn 0 -1 0
vn 0 -1 0
vn 0 0 -1
vn 0 0 -1
vn 0 0 -1
vn 0 0 -1
vn 1 0 0
vn 1 0 0
vn 1 0 0
vn 1 0 0
vn 0 0 1
vn 0 0 1
vn 0 0 1
vn 0 0 1
vn -1 0 0
vn -1 0 0
vn -1 0 0
vn -1 0 0
vn 0.6442256 0 0.7648355
vn 0.6442256 0 0.7648355
vn 0.6442256 0 0.7648355
vn 0.6442256 0 0.7648355
vn -0.6442256 0 0.7648355
vn -0.6442256 0 0.7648355
vn -0.6442257 0 0.7648355
vn -0.6442257 0 0.7648355
g gate-inflatable-04-trigger_0
f 3/3/3 2/2/2 1/1/1
f 2/2/2 4/4/4 1/1/1
f 4/4/4 5/5/5 1/1/1
f 6/6/6 4/4/4 2/2/2
f 9/9/9 8/8/8 7/7/7
f 7/7/7 8/8/8 10/10/10
f 8/8/8 11/11/11 10/10/10
f 12/12/12 11/11/11 8/8/8
f 15/15/15 14/14/14 13/13/13
f 16/16/16 13/13/13 14/14/14
f 19/19/19 18/18/18 17/17/17
f 20/20/20 17/17/17 18/18/18
f 23/23/23 22/22/22 21/21/21
f 24/24/24 21/21/21 22/22/22
f 27/27/27 26/26/26 25/25/25
f 28/28/28 25/25/25 26/26/26
f 31/31/31 30/30/30 29/29/29
f 32/32/32 29/29/29 30/30/30
f 35/35/35 34/34/34 33/33/33
f 36/36/36 33/33/33 34/34/34
