g gate-drl-32-b-trigger
v 1.192093E-07 0.3545033 4.228594
v -1.892836 0.3545033 2.335758
v 0 0.3545026 0.4429224
v 1.892836 0.3545026 2.335758
v 1.192093E-07 0.08983997 4.228594
v 1.892836 0.08983932 2.335758
v 0 0.08983938 0.4429224
v -1.892836 0.08984001 2.335758
v 1.192093E-07 0.3545033 4.228594
v -1.892836 0.08984001 2.335758
v -1.892836 0.3545033 2.335758
v 1.192093E-07 0.08983997 4.228594
v -1.892836 0.08984001 2.335758
v 0 0.08983938 0.4429224
v 0 0.3545026 0.4429224
v -1.892836 0.3545033 2.335758
v 1.892836 0.3545026 2.335758
v 0 0.3545026 0.4429224
v 0 0.08983938 0.4429224
v 1.892836 0.08983932 2.335758
v 1.892836 0.3545026 2.335758
v 1.192093E-07 0.08983997 4.228594
v 1.192093E-07 0.3545033 4.228594
v 1.892836 0.08983932 2.335758
vt 1 0
vt 0 0
vt 0 1
vt 1 1
vt 0 0
vt 0 1
vt 1 1
vt 1 0
vt 0 0
vt 1 1
vt 1 0
vt 0 1
vt 0 1
vt 1 1
vt 1 0
vt 0 0
vt 1 0
vt 0 0
vt 0 1
vt 1 1
vt 0 0
vt 1 1
vt 1 0
vt 0 1
vn 0 1 0
vn 0 1 0
vn 0 1 0
vn 0 1 0
vn 0 -1 0
vn 0 -1 0
vn 0 -1 0
vn 0 -1 0
vn -0.7071068 0 0.7071068
vn -0.7071068 0 0.7071068
vn -0.7071068 0 0.7071068
vn -0.7071068 0 0.7071068
vn -0.7071068 0 -0.7071067
vn -0.7071068 0 -0.7071067
vn -0.7071068 0 -0.7071067
vn -0.7071068 0 -0.7071067
vn 0.7071068 0 -0.7071068
vn 0.7071068 0 -0.7071068
vn 0.7071068 0 -0.7071068
vn 0.7071068 0 -0.7071068
vn 0.7071068 0 0.7071068
vn 0.7071068 0 0.7071068
vn 0.7071068 0 0.7071068
vn 0.7071068 0 0.7071068
g gate-drl-32-b-trigger_0
f 3/3/3 2/2/2 1/1/1
f 1/1/1 4/4/4 3/3/3
f 7/7/7 6/6/6 5/5/5
f 5/5/5 8/8/8 7/7/7
f 11/11/11 10/10/10 9/9/9
f 10/10/10 12/12/12 9/9/9
f 15/15/15 14/14/14 13/13/13
f 13/13/13 16/16/16 15/15/15
f 19/19/19 18/18/18 17/17/17
f 17/17/17 20/20/20 19/19/19
f 23/23/23 22/22/22 21/21/21
f 22/22/22 24/24/24 21/21/21
