g gate-drl-29-trigger-01
v 2.17192E-17 0.1773507 2.894352
v 0.2901114 0.0001393929 2.894352
v 1.705937E-20 0.0001393004 2.894352
v 0.2901114 0.1773507 2.894352
v 0.2730198 0.1773509 1.85414
v 2.17192E-17 0.1773507 2.894352
v 2.171923E-17 0.1773509 1.85414
v 0.2901114 0.1773507 2.894352
v 1.705937E-20 0.0001393004 2.894352
v 0.2730198 0.0001395643 1.85414
v 1.708502E-20 0.0001395097 1.85414
v 0.2901114 0.0001393929 2.894352
v 0.2730198 0.1773509 1.85414
v 1.708502E-20 0.0001395097 1.85414
v 0.2730198 0.0001395643 1.85414
v 2.171923E-17 0.1773509 1.85414
v 0.8085011 0.1773508 3.598699
v 1.648217 0.0001394004 3.598699
v 0.8085011 0.0001394153 3.598699
v 1.648217 0.1773507 3.598699
v 0.6380457 0.000139527 1.083728
v 1.33565 0.1773509 1.092157
v 0.6380457 0.1773509 1.083728
v 1.33565 0.000139527 1.092157
v 1.582015 0.0001395494 1.23007
v 1.582015 0.1773509 1.23007
v 0.2901114 0.1773507 2.894352
v 0.6101775 0.0001394004 3.481437
v 0.2901114 0.0001393929 2.894352
v 0.6101775 0.1773508 3.481437
v 2.007124 0.0001393706 3.007333
v 1.648217 0.0001394004 3.598699
v 1.831196 0.000139378 3.474223
v 0.2901114 0.0001393929 2.894352
v 1.920978 0.0001395419 1.85414
v 0.6101775 0.0001394004 3.481437
v 0.8085011 0.0001394153 3.598699
v 0.2730198 0.0001395643 1.85414
v 0.6380457 0.000139527 1.083728
v 0.5057787 0.0001395345 1.170499
v 1.806438 0.0001395345 1.490039
v 1.582015 0.0001395494 1.23007
v 1.33565 0.000139527 1.092157
v 1.831196 0.1773507 3.474223
v 2.007124 0.0001393706 3.007333
v 1.831196 0.000139378 3.474223
v 2.007124 0.1773507 3.007333
v 1.920978 0.0001395419 1.85414
v 1.920978 0.1773509 1.85414
v 1.806438 0.0001395345 1.490039
v 1.806438 0.1773509 1.490039
v 1.582015 0.1773509 1.23007
v 1.582015 0.0001395494 1.23007
v 0.2901114 0.1773507 2.894352
v 0.8085011 0.1773508 3.598699
v 0.6101775 0.1773508 3.481437
v 2.007124 0.1773507 3.007333
v 0.2730198 0.1773509 1.85414
v 1.831196 0.1773507 3.474223
v 1.648217 0.1773507 3.598699
v 1.920978 0.1773509 1.85414
v 1.33565 0.1773509 1.092157
v 0.5057787 0.1773509 1.170499
v 0.6380457 0.1773509 1.083728
v 1.582015 0.1773509 1.23007
v 1.806438 0.1773509 1.490039
v 0.2730198 0.0001395643 1.85414
v 0.5057787 0.1773509 1.170499
v 0.2730198 0.1773509 1.85414
v 0.5057787 0.0001395345 1.170499
v 0.8085011 0.1773508 3.598699
v 0.6101775 0.0001394004 3.481437
v 0.6101775 0.1773508 3.481437
v 0.8085011 0.0001394153 3.598699
v 1.648217 0.0001394004 3.598699
v 1.831196 0.1773507 3.474223
v 1.831196 0.000139378 3.474223
v 1.648217 0.1773507 3.598699
v 0.6380457 0.000139527 1.083728
v 0.5057787 0.1773509 1.170499
v 0.5057787 0.0001395345 1.170499
v 0.6380457 0.1773509 1.083728
v 2.17192E-17 0.1773507 2.894352
v -0.2901114 0.0001393568 2.894352
v -0.2901114 0.1773507 2.894352
v 1.705937E-20 0.0001393004 2.894352
v -0.2730198 0.177351 1.85414
v 2.17192E-17 0.1773507 2.894352
v -0.2901114 0.1773507 2.894352
v 2.171923E-17 0.1773509 1.85414
v 1.705937E-20 0.0001393004 2.894352
v -0.2730198 0.0001396191 1.85414
v -0.2901114 0.0001393568 2.894352
v 1.708502E-20 0.0001395097 1.85414
v -0.2730198 0.177351 1.85414
v 1.708502E-20 0.0001395097 1.85414
v 2.171923E-17 0.1773509 1.85414
v -0.2730198 0.0001396191 1.85414
v -0.8085011 0.1773507 3.598699
v -1.648217 0.0001393027 3.598699
v -1.648217 0.1773506 3.598699
v -0.8085011 0.0001393176 3.598699
v -1.33565 0.177351 1.092157
v -0.6380457 0.0001396492 1.083728
v -0.6380457 0.177351 1.083728
v -1.33565 0.0001396485 1.092157
v -1.582015 0.0001396588 1.23007
v -1.582015 0.177351 1.23007
v -0.2901114 0.1773507 2.894352
v -0.6101775 0.000139313 3.481437
v -0.6101775 0.1773507 3.481437
v -0.2901114 0.0001393568 2.894352
v -0.6101775 0.000139313 3.481437
v -1.648217 0.0001393027 3.598699
v -0.8085011 0.0001393176 3.598699
v -0.2901114 0.0001393568 2.894352
v -2.007124 0.0001393246 3.007333
v -1.831196 0.0001392912 3.474223
v -1.920978 0.0001395968 1.85414
v -0.2730198 0.0001396191 1.85414
v -0.6380457 0.0001396492 1.083728
v -0.5057787 0.0001396491 1.170499
v -1.806438 0.0001396212 1.490039
v -1.582015 0.0001396588 1.23007
v -1.33565 0.0001396485 1.092157
v -2.007124 0.0001393246 3.007333
v -1.831196 0.1773506 3.474223
v -1.831196 0.0001392912 3.474223
v -2.007124 0.1773507 3.007333
v -1.920978 0.0001395968 1.85414
v -1.920978 0.177351 1.85414
v -1.806438 0.0001396212 1.490039
v -1.806438 0.177351 1.490039
v -1.582015 0.177351 1.23007
v -1.582015 0.0001396588 1.23007
v -1.831196 0.1773506 3.474223
v -0.8085011 0.1773507 3.598699
v -1.648217 0.1773506 3.598699
v -2.007124 0.1773507 3.007333
v -0.2901114 0.1773507 2.894352
v -0.6101775 0.1773507 3.481437
v -0.2730198 0.177351 1.85414
v -1.920978 0.177351 1.85414
v -1.33565 0.177351 1.092157
v -0.5057787 0.177351 1.170499
v -0.6380457 0.177351 1.083728
v -1.582015 0.177351 1.23007
v -1.806438 0.177351 1.490039
v -0.2730198 0.0001396191 1.85414
v -0.5057787 0.177351 1.170499
v -0.5057787 0.0001396491 1.170499
v -0.2730198 0.177351 1.85414
v -0.8085011 0.1773507 3.598699
v -0.6101775 0.000139313 3.481437
v -0.8085011 0.0001393176 3.598699
v -0.6101775 0.1773507 3.481437
v -1.648217 0.0001393027 3.598699
v -1.831196 0.1773506 3.474223
v -1.648217 0.1773506 3.598699
v -1.831196 0.0001392912 3.474223
v -0.6380457 0.0001396492 1.083728
v -0.5057787 0.177351 1.170499
v -0.6380457 0.177351 1.083728
v -0.5057787 0.0001396491 1.170499
vt 0.9816942 -8.622983E-08
vt 0.875 1
vt 0.9816942 0.9999999
vt 0.875 0
vt 0.8939901 0.7145991
vt 0.1464466 0.5
vt 0.8939902 0.5000001
vt 0.1464466 0.8535534
vt 0.1464466 0.5
vt 0.8939901 0.7145991
vt 0.8939902 0.5000001
vt 0.1464466 0.8535534
vt 0.5758722 0
vt 0.5 1
vt 0.5758722 1
vt 0.5 0
vt 0.875 0
vt 0.875 1
vt 0.875 1
vt 0.875 0
vt 0.5758722 1
vt 0.5758722 0
vt 0.5758722 0
vt 0.5758722 1
vt 0.5758722 1
vt 0.5758722 0
vt 0.875 0
vt 0.875 1
vt 0.875 1
vt 0.875 0
vt 0.875 1
vt 0.875 1
vt 0.875 1
vt 0.875 1
vt 0.5758722 1
vt 0.875 1
vt 0.875 1
vt 0.5758722 1
vt 0.5758722 1
vt 0.5758722 1
vt 0.5758722 1
vt 0.5758722 1
vt 0.5758722 1
vt 0.875 0
vt 0.875 1
vt 0.875 1
vt 0.875 0
vt 0.5758722 1
vt 0.5758722 0
vt 0.5758722 1
vt 0.5758722 0
vt 0.5758722 0
vt 0.5758722 1
vt 0.875 0
vt 0.875 0
vt 0.875 0
vt 0.875 0
vt 0.5758722 0
vt 0.875 0
vt 0.875 0
vt 0.5758722 0
vt 0.5758722 0
vt 0.5758722 0
vt 0.5758722 0
vt 0.5758722 0
vt 0.5758722 0
vt 0.5758722 1
vt 0.5758722 0
vt 0.5758722 0
vt 0.5758722 1
vt 0.875 0
vt 0.875 1
vt 0.875 0
vt 0.875 1
vt 0.875 1
vt 0.875 0
vt 0.875 1
vt 0.875 0
vt 0.5758722 1
vt 0.5758722 0
vt 0.5758722 1
vt 0.5758722 0
vt 0.9816942 -8.622983E-08
vt 0.875 1
vt 0.875 0
vt 0.9816942 0.9999999
vt 0.8939901 0.7145991
vt 0.1464466 0.5
vt 0.1464466 0.8535534
vt 0.8939902 0.5000001
vt 0.1464466 0.5
vt 0.8939901 0.7145991
vt 0.1464466 0.8535534
vt 0.8939902 0.5000001
vt 0.5758722 0
vt 0.5 1
vt 0.5 0
vt 0.5758722 1
vt 0.875 0
vt 0.875 1
vt 0.875 0
vt 0.875 1
vt 0.5758722 0
vt 0.5758722 1
vt 0.5758722 0
vt 0.5758722 1
vt 0.5758722 1
vt 0.5758722 0
vt 0.875 0
vt 0.875 1
vt 0.875 0
vt 0.875 1
vt 0.875 1
vt 0.875 1
vt 0.875 1
vt 0.875 1
vt 0.875 1
vt 0.875 1
vt 0.5758722 1
vt 0.5758722 1
vt 0.5758722 1
vt 0.5758722 1
vt 0.5758722 1
vt 0.5758722 1
vt 0.5758722 1
vt 0.875 1
vt 0.875 0
vt 0.875 1
vt 0.875 0
vt 0.5758722 1
vt 0.5758722 0
vt 0.5758722 1
vt 0.5758722 0
vt 0.5758722 0
vt 0.5758722 1
vt 0.875 0
vt 0.875 0
vt 0.875 0
vt 0.875 0
vt 0.875 0
vt 0.875 0
vt 0.5758722 0
vt 0.5758722 0
vt 0.5758722 0
vt 0.5758722 0
vt 0.5758722 0
vt 0.5758722 0
vt 0.5758722 0
vt 0.5758722 1
vt 0.5758722 0
vt 0.5758722 1
vt 0.5758722 0
vt 0.875 0
vt 0.875 1
vt 0.875 1
vt 0.875 0
vt 0.875 1
vt 0.875 0
vt 0.875 0
vt 0.875 1
vt 0.5758722 1
vt 0.5758722 0
vt 0.5758722 0
vt 0.5758722 1
vn 0 0 1
vn 0 0 1
vn 0 0 1
vn 0 0 1
vn 0 1 0
vn 0 1 0
vn 0 1 0
vn 0 1 0
vn 0 -1 0
vn 0 -1 0
vn 0 -1 0
vn 0 -1 0
vn 0 0 -1
vn 0 0 -1
vn 0 0 -1
vn 0 0 -1
vn 0 0 1
vn 0 0 1
vn 0 0 1
vn 0 0 1
vn 0.01208145 0 -0.999927
vn 0.2582462 0 -0.9660791
vn 0.01208145 0 -0.999927
vn 0.2582462 0 -0.9660791
vn 0.4884661 0 -0.8725828
vn 0.4884661 0 -0.8725828
vn -0.8779973 0 0.4786657
vn -0.8779973 0 0.4786658
vn -0.8779973 0 0.4786658
vn -0.8779973 0 0.4786658
vn 0 -1 0
vn 0 -1 0
vn 0 -1 0
vn 0 -1 0
vn 0 -1 0
vn 0 -1 0
vn 0 -1 0
vn 0 -1 0
vn 0 -1 0
vn 0 -1 0
vn 0 -1 0
vn 0 -1 0
vn 0 -1 0
vn 0.9357715 0 0.352607
vn 0.9898078 0 0.14241
vn 0.9357715 0 0.352607
vn 0.9898078 0 0.14241
vn 0.982066 0 -0.1885377
vn 0.982066 0 -0.1885377
vn 0.8734931 0 -0.4868365
vn 0.8734931 0 -0.4868365
vn 0.7569607 0 -0.6534604
vn 0.7569607 0 -0.6534605
vn 0 1 0
vn 0 1 0
vn 0 1 0
vn 0 1 0
vn 0 1 0
vn 0 1 0
vn 0 1 0
vn 0 1 0
vn 0 1 0
vn 0 1 0
vn 0 1 0
vn 0 1 0
vn 0 1 0
vn -0.9466373 0 -0.322301
vn -0.9466373 0 -0.322301
vn -0.9466373 0 -0.322301
vn -0.9466373 0 -0.322301
vn -0.5089573 0 0.8607917
vn -0.5089573 0 0.8607917
vn -0.5089574 0 0.8607917
vn -0.5089574 0 0.8607917
vn 0.5624641 0 0.8268217
vn 0.5624641 0 0.8268217
vn 0.5624641 0 0.8268218
vn 0.5624641 0 0.8268218
vn -0.5485235 0 -0.8361351
vn -0.5485235 0 -0.8361351
vn -0.5485235 0 -0.8361351
vn -0.5485235 0 -0.8361351
vn 0 0 1
vn 0 0 1
vn 0 0 1
vn 0 0 1
vn 0 1 0
vn 0 1 0
vn 0 1 0
vn 0 1 0
vn 0 -1 0
vn 0 -1 0
vn 0 -1 0
vn 0 -1 0
vn 0 0 -1
vn 0 0 -1
vn 0 0 -1
vn 0 0 -1
vn 0 0 1
vn 0 0 1
vn 0 0 1
vn 0 0 1
vn -0.2582462 0 -0.9660791
vn -0.01208145 0 -0.999927
vn -0.01208145 0 -0.999927
vn -0.2582462 0 -0.9660791
vn -0.4884661 0 -0.8725828
vn -0.4884661 0 -0.8725828
vn 0.8779973 0 0.4786657
vn 0.8779973 0 0.4786658
vn 0.8779973 0 0.4786658
vn 0.8779973 0 0.4786658
vn 0 -1 0
vn 0 -1 0
vn 0 -1 0
vn 0 -1 0
vn 0 -1 0
vn 0 -1 0
vn 0 -1 0
vn 0 -1 0
vn 0 -1 0
vn 0 -1 0
vn 0 -1 0
vn 0 -1 0
vn 0 -1 0
vn -0.9898078 0 0.14241
vn -0.9357715 0 0.352607
vn -0.9357715 0 0.352607
vn -0.9898078 0 0.14241
vn -0.982066 0 -0.1885377
vn -0.982066 0 -0.1885377
vn -0.8734931 0 -0.4868365
vn -0.8734931 0 -0.4868365
vn -0.7569607 0 -0.6534605
vn -0.7569607 0 -0.6534604
vn 0 1 0
vn 0 1 0
vn 0 1 0
vn 0 1 0
vn 0 1 0
vn 0 1 0
vn 0 1 0
vn 0 1 0
vn 0 1 0
vn 0 1 0
vn 0 1 0
vn 0 1 0
vn 0 1 0
vn 0.9466373 0 -0.322301
vn 0.9466373 0 -0.322301
vn 0.9466373 0 -0.322301
vn 0.9466373 0 -0.322301
vn 0.5089573 0 0.8607917
vn 0.5089573 0 0.8607917
vn 0.5089574 0 0.8607917
vn 0.5089574 0 0.8607917
vn -0.5624641 0 0.8268218
vn -0.5624641 0 0.8268218
vn -0.5624641 0 0.8268218
vn -0.5624641 0 0.8268218
vn 0.5485235 0 -0.8361351
vn 0.5485235 0 -0.8361351
vn 0.5485235 0 -0.8361351
vn 0.5485235 0 -0.8361351
g gate-drl-29-trigger-01_0
f 3/3/3 2/2/2 1/1/1
f 4/4/4 1/1/1 2/2/2
f 7/7/7 6/6/6 5/5/5
f 8/8/8 5/5/5 6/6/6
f 11/11/11 10/10/10 9/9/9
f 12/12/12 9/9/9 10/10/10
f 15/15/15 14/14/14 13/13/13
f 16/16/16 13/13/13 14/14/14
f 19/19/19 18/18/18 17/17/17
f 20/20/20 17/17/17 18/18/18
f 23/23/23 22/22/22 21/21/21
f 24/24/24 21/21/21 22/22/22
f 24/24/24 22/22/22 25/25/25
f 26/26/26 25/25/25 22/22/22
f 29/29/29 28/28/28 27/27/27
f 30/30/30 27/27/27 28/28/28
f 33/33/33 32/32/32 31/31/31
f 31/31/31 32/32/32 34/34/34
f 31/31/31 34/34/34 35/35/35
f 32/32/32 36/36/36 34/34/34
f 37/37/37 36/36/36 32/32/32
f 38/38/38 35/35/35 34/34/34
f 38/38/38 39/39/39 35/35/35
f 40/40/40 39/39/39 38/38/38
f 39/39/39 41/41/41 35/35/35
f 42/42/42 41/41/41 39/39/39
f 43/43/43 42/42/42 39/39/39
f 46/46/46 45/45/45 44/44/44
f 47/47/47 44/44/44 45/45/45
f 45/45/45 48/48/48 47/47/47
f 49/49/49 47/47/47 48/48/48
f 48/48/48 50/50/50 49/49/49
f 51/51/51 49/49/49 50/50/50
f 51/51/51 50/50/50 52/52/52
f 53/53/53 52/52/52 50/50/50
f 56/56/56 55/55/55 54/54/54
f 54/54/54 55/55/55 57/57/57
f 54/54/54 57/57/57 58/58/58
f 55/55/55 59/59/59 57/57/57
f 60/60/60 59/59/59 55/55/55
f 61/61/61 58/58/58 57/57/57
f 61/61/61 62/62/62 58/58/58
f 62/62/62 63/63/63 58/58/58
f 64/64/64 63/63/63 62/62/62
f 65/65/65 62/62/62 61/61/61
f 66/66/66 65/65/65 61/61/61
f 69/69/69 68/68/68 67/67/67
f 70/70/70 67/67/67 68/68/68
f 73/73/73 72/72/72 71/71/71
f 74/74/74 71/71/71 72/72/72
f 77/77/77 76/76/76 75/75/75
f 78/78/78 75/75/75 76/76/76
f 81/81/81 80/80/80 79/79/79
f 82/82/82 79/79/79 80/80/80
f 85/85/85 84/84/84 83/83/83
f 86/86/86 83/83/83 84/84/84
f 89/89/89 88/88/88 87/87/87
f 90/90/90 87/87/87 88/88/88
f 93/93/93 92/92/92 91/91/91
f 94/94/94 91/91/91 92/92/92
f 97/97/97 96/96/96 95/95/95
f 98/98/98 95/95/95 96/96/96
f 101/101/101 100/100/100 99/99/99
f 102/102/102 99/99/99 100/100/100
f 105/105/105 104/104/104 103/103/103
f 106/106/106 103/103/103 104/104/104
f 106/106/106 107/107/107 103/103/103
f 108/108/108 103/103/103 107/107/107
f 111/111/111 110/110/110 109/109/109
f 112/112/112 109/109/109 110/110/110
f 115/115/115 114/114/114 113/113/113
f 113/113/113 114/114/114 116/116/116
f 114/114/114 117/117/117 116/116/116
f 118/118/118 117/117/117 114/114/114
f 117/117/117 119/119/119 116/116/116
f 120/120/120 116/116/116 119/119/119
f 121/121/121 120/120/120 119/119/119
f 122/122/122 120/120/120 121/121/121
f 123/123/123 121/121/121 119/119/119
f 124/124/124 121/121/121 123/123/123
f 125/125/125 121/121/121 124/124/124
f 128/128/128 127/127/127 126/126/126
f 129/129/129 126/126/126 127/127/127
f 126/126/126 129/129/129 130/130/130
f 131/131/131 130/130/130 129/129/129
f 130/130/130 131/131/131 132/132/132
f 133/133/133 132/132/132 131/131/131
f 133/133/133 134/134/134 132/132/132
f 135/135/135 132/132/132 134/134/134
f 138/138/138 137/137/137 136/136/136
f 136/136/136 137/137/137 139/139/139
f 137/137/137 140/140/140 139/139/139
f 141/141/141 140/140/140 137/137/137
f 140/140/140 142/142/142 139/139/139
f 143/143/143 139/139/139 142/142/142
f 144/144/144 143/143/143 142/142/142
f 145/145/145 144/144/144 142/142/142
f 146/146/146 144/144/144 145/145/145
f 147/147/147 143/143/143 144/144/144
f 148/148/148 143/143/143 147/147/147
f 151/151/151 150/150/150 149/149/149
f 152/152/152 149/149/149 150/150/150
f 155/155/155 154/154/154 153/153/153
f 156/156/156 153/153/153 154/154/154
f 159/159/159 158/158/158 157/157/157
f 160/160/160 157/157/157 158/158/158
f 163/163/163 162/162/162 161/161/161
f 164/164/164 161/161/161 162/162/162
