g gate-13-d-neon-lod2
v 0.01444309 0.003871403 4.027152
v 0.0105747 -0.01057684 -4.027152
v 0.01057447 -0.01057575 4.027152
v 0.014443 0.003870849 -4.027152
v 0.003868961 0.01444832 4.027152
v 0.003868523 0.01444748 -4.027152
v -0.01057861 0.01057669 4.027152
v -0.01057873 0.01057615 -4.027152
v -0.01444895 -0.003871765 4.027152
v -0.01444918 -0.003871536 -4.027152
v -0.00387516 -0.01444773 4.027152
v -0.003875141 -0.01444858 -4.027152
v 0.0105747 -0.01057684 -4.027152
v 0.01057447 -0.01057575 4.027152
vt 0.02574321 0.7640988
vt 0.02523672 0.8470427
vt 0.02523672 0.7640985
vt 0.02574321 0.8470427
vt 0.02625173 0.7640982
vt 0.02625173 0.8470424
vt 0.02675849 0.7640982
vt 0.02675825 0.8470424
vt 0.02726697 0.7640982
vt 0.02726697 0.8470424
vt 0.02777373 0.7640982
vt 0.02777346 0.8470427
vt 0.02815395 0.8470427
vt 0.02815395 0.7640982
vn 0.9659237 0.2588269 0
vn 0.7071725 -0.7070411 0
vn 0.7071683 -0.7070453 1.155345E-07
vn 0.9659127 0.258868 0
vn 0.2588757 0.9659106 0
vn 0.258856 0.9659159 0
vn -0.7071373 0.7070762 0
vn -0.7071339 0.7070795 0
vn -0.9659314 -0.2587982 0
vn -0.9659359 -0.2587812 0
vn -0.2588623 -0.9659142 0
vn -0.2588903 -0.9659067 1.023188E-07
vn 0.7071725 -0.7070411 0
vn 0.7071683 -0.7070453 1.155345E-07
g gate-13-d-neon-lod2_0
f 3/3/3 2/2/2 1/1/1
f 4/4/4 1/1/1 2/2/2
f 1/1/1 4/4/4 5/5/5
f 6/6/6 5/5/5 4/4/4
f 5/5/5 6/6/6 7/7/7
f 8/8/8 7/7/7 6/6/6
f 7/7/7 8/8/8 9/9/9
f 10/10/10 9/9/9 8/8/8
f 9/9/9 10/10/10 11/11/11
f 12/12/12 11/11/11 10/10/10
f 12/12/12 13/13/13 11/11/11
f 14/14/14 11/11/11 13/13/13
