g gate-drl-21-trigger-01
v -0.6709968 -0.1276428 1.219751
v -0.3880274 0.1276441 1.33696
v -0.3880276 -0.127643 1.33696
v -0.6709966 0.1276442 1.219751
v -0.8830251 -0.1276428 1.078078
v -0.8830249 0.1276443 1.078078
v -1.078078 -0.1276427 0.8830251
v -1.078078 0.1276444 0.8830248
v -1.219751 -0.1276427 0.6709968
v -1.219751 0.1276444 0.6709965
v -1.33696 -0.1276427 0.3880278
v -1.33696 0.1276444 0.3880277
v -1.386709 -0.1276428 0.1379235
v -1.386709 0.1276443 0.1379234
v -1.386709 -0.1276428 -0.1379232
v -1.386709 0.1276443 -0.1379233
v -1.336961 -0.1276429 -0.3880275
v -1.336961 0.1276442 -0.3880276
v -1.219751 -0.127643 -0.6709969
v -1.219751 0.1276441 -0.6709972
v -1.078078 -0.1276431 -0.8830251
v -1.078078 0.127644 -0.8830254
v -0.8830251 -0.1276432 -1.078078
v -0.883025 0.1276439 -1.078078
v -0.6709968 -0.1276433 -1.219751
v -0.6709968 0.1276438 -1.219751
v -0.3880279 -0.1276435 -1.33696
v -0.3880276 0.1276436 -1.336961
v -0.1379235 -0.1276436 -1.386709
v -0.1379233 0.1276435 -1.386709
v 0.1379232 -0.1276437 -1.386709
v 0.1379234 0.1276433 -1.38671
v 0.3880275 -0.1276439 -1.336961
v 0.3880278 0.1276432 -1.336961
v 0.6709965 -0.127644 -1.219751
v 0.6709967 0.127643 -1.219751
v 0.8830248 -0.1276441 -1.078078
v 0.8830249 0.127643 -1.078079
v 1.078078 -0.1276441 -0.8830252
v 1.078078 0.1276429 -0.8830255
v 1.219751 -0.1276442 -0.670997
v 1.219751 0.1276429 -0.6709973
v 1.33696 -0.1276442 -0.3880278
v 1.33696 0.1276429 -0.388028
v 1.386709 -0.1276441 -0.1379235
v 1.386709 0.127643 -0.1379237
v 1.386709 -0.1276441 0.1379231
v 1.386709 0.127643 0.1379231
v 1.336961 -0.127644 0.3880275
v 1.336961 0.1276431 0.3880274
v 1.219751 -0.1276439 0.670997
v 1.219751 0.1276432 0.6709967
v 1.078078 -0.1276438 0.8830252
v 1.078078 0.1276432 0.8830249
v 0.8830251 -0.1276437 1.078078
v 0.8830252 0.1276434 1.078078
v 0.6709969 -0.1276436 1.219751
v 0.670997 0.1276435 1.219751
v 0.3880278 -0.1276434 1.33696
v 0.388028 0.1276437 1.33696
v 0.1379234 -0.1276433 1.386709
v 0.1379236 0.1276438 1.386709
v -0.1379233 -0.1276431 1.386709
v -0.1379231 0.127644 1.386709
v -0.3880276 -0.127643 1.33696
v -0.3880274 0.1276441 1.33696
v 0.1379234 -0.1276433 1.386709
v -0.3880276 -0.127643 1.33696
v -0.1379233 -0.1276431 1.386709
v 0.6709969 -0.1276436 1.219751
v 1.336961 -0.127644 0.3880275
v -1.336961 -0.1276429 -0.3880275
v 0.3880278 -0.1276434 1.33696
v 1.078078 -0.1276438 0.8830252
v 0.8830251 -0.1276437 1.078078
v 1.219751 -0.1276439 0.670997
v -1.219751 -0.1276427 0.6709968
v -0.8830251 -0.1276428 1.078078
v -0.6709968 -0.1276428 1.219751
v -1.078078 -0.1276427 0.8830251
v -1.386709 -0.1276428 0.1379235
v -1.33696 -0.1276427 0.3880278
v -1.386709 -0.1276428 -0.1379232
v 0.3880275 -0.1276439 -1.336961
v -0.6709968 -0.1276433 -1.219751
v -1.078078 -0.1276431 -0.8830251
v -1.219751 -0.127643 -0.6709969
v -0.8830251 -0.1276432 -1.078078
v -0.1379235 -0.1276436 -1.386709
v -0.3880279 -0.1276435 -1.33696
v 0.1379232 -0.1276437 -1.386709
v 1.219751 -0.1276442 -0.670997
v 0.8830248 -0.1276441 -1.078078
v 0.6709965 -0.127644 -1.219751
v 1.078078 -0.1276441 -0.8830252
v 1.386709 -0.1276441 -0.1379235
v 1.33696 -0.1276442 -0.3880278
v 1.386709 -0.1276441 0.1379231
v 1.078078 0.1276429 -0.8830255
v 0.6709967 0.127643 -1.219751
v 0.8830249 0.127643 -1.078079
v 1.33696 0.1276429 -0.388028
v 1.219751 0.1276432 0.6709967
v -1.219751 0.1276441 -0.6709972
v 1.219751 0.1276429 -0.6709973
v 1.386709 0.127643 0.1379231
v 1.386709 0.127643 -0.1379237
v 1.336961 0.1276431 0.3880274
v -0.3880276 0.1276436 -1.336961
v 0.1379234 0.1276433 -1.38671
v 0.3880278 0.1276432 -1.336961
v -0.1379233 0.1276435 -1.386709
v -0.883025 0.1276439 -1.078078
v -0.6709968 0.1276438 -1.219751
v -1.078078 0.127644 -0.8830254
v -0.6709966 0.1276442 1.219751
v -1.33696 0.1276444 0.3880277
v -1.386709 0.1276443 -0.1379233
v -1.336961 0.1276442 -0.3880276
v -1.386709 0.1276443 0.1379234
v -1.078078 0.1276444 0.8830248
v -1.219751 0.1276444 0.6709965
v -0.8830249 0.1276443 1.078078
v 0.388028 0.1276437 1.33696
v -0.1379231 0.127644 1.386709
v -0.3880274 0.1276441 1.33696
v 0.1379236 0.1276438 1.386709
v 0.8830252 0.1276434 1.078078
v 0.670997 0.1276435 1.219751
v 1.078078 0.1276432 0.8830249
vt 0.9208001 0
vt 0.9541999 1
vt 0.9541999 0
vt 0.9208001 1
vt 0.8912795 0
vt 0.8912795 1
vt 0.8587205 0
vt 0.8587205 1
vt 0.8291999 0
vt 0.8291999 1
vt 0.7958001 0
vt 0.7958001 1
vt 0.7662795 0
vt 0.7662795 1
vt 0.7337205 0
vt 0.7337205 1
vt 0.7041999 0
vt 0.7041999 1
vt 0.6708001 0
vt 0.6708001 1
vt 0.6412795 0
vt 0.6412795 1
vt 0.6087205 0
vt 0.6087205 1
vt 0.5791999 0
vt 0.5791999 1
vt 0.5458001 0
vt 0.5458001 1
vt 0.5162795 0
vt 0.5162795 1
vt 0.4837205 0
vt 0.4837205 1
vt 0.4541999 0
vt 0.4541999 1
vt 0.4208002 0
vt 0.4208002 1
vt 0.3912796 0
vt 0.3912796 1
vt 0.3587205 0
vt 0.3587205 1
vt 0.3291999 0
vt 0.3291999 1
vt 0.2958002 0
vt 0.2958002 1
vt 0.2662795 0
vt 0.2662795 1
vt 0.2337205 0
vt 0.2337205 1
vt 0.2041999 0
vt 0.2041999 1
vt 0.1708001 0
vt 0.1708001 1
vt 0.1412795 0
vt 0.1412795 1
vt 0.1087205 0
vt 0.1087205 1
vt 0.07919989 0
vt 0.07919989 1
vt 0.04580016 0
vt 0.04580016 1
vt -0.3246588 -1.646266E-07
vt -0.3246589 0.9999998
vt -1.080654 -5.139473E-07
vt -1.080655 0.9999995
vt -1.985504 -1.00171E-06
vt -1.985504 0.999999
vt 0.03704963 0.4539545
vt 0.05365817 0.6295424
vt 0.03704962 0.5460454
vt 0.09278841 0.2759889
vt 0.3704577 0.05365816
vt 0.6295423 0.9463419
vt 0.0536582 0.3704576
vt 0.2052037 0.1400856
vt 0.1400856 0.2052037
vt 0.2759889 0.0927884
vt 0.2759889 0.9072116
vt 0.1400855 0.7947963
vt 0.09278838 0.7240111
vt 0.2052037 0.8599144
vt 0.4539545 0.9629503
vt 0.3704576 0.9463418
vt 0.5460454 0.9629504
vt 0.9463419 0.3704577
vt 0.9072116 0.7240111
vt 0.7947963 0.8599144
vt 0.7240111 0.9072115
vt 0.8599144 0.7947963
vt 0.9629503 0.5460455
vt 0.9463418 0.6295424
vt 0.9629504 0.4539545
vt 0.7240112 0.09278847
vt 0.8599145 0.2052038
vt 0.9072117 0.275989
vt 0.7947964 0.1400856
vt 0.5460455 0.03704964
vt 0.6295424 0.05365821
vt 0.4539546 0.03704961
vt 0.7947964 0.1400857
vt 0.9072117 0.275989
vt 0.8599145 0.2052038
vt 0.6295424 0.0536582
vt 0.275989 0.09278839
vt 0.7240111 0.9072115
vt 0.7240112 0.09278847
vt 0.4539546 0.03704962
vt 0.5460455 0.03704963
vt 0.3704577 0.05365817
vt 0.9463418 0.6295424
vt 0.9629504 0.4539545
vt 0.9463419 0.3704577
vt 0.9629503 0.5460455
vt 0.8599144 0.7947963
vt 0.9072116 0.7240111
vt 0.7947963 0.8599144
vt 0.09278839 0.7240111
vt 0.3704576 0.9463418
vt 0.5460454 0.9629504
vt 0.6295423 0.9463419
vt 0.4539545 0.9629503
vt 0.2052037 0.8599145
vt 0.2759889 0.9072116
vt 0.1400855 0.7947963
vt 0.0536582 0.3704576
vt 0.03704962 0.5460454
vt 0.05365817 0.6295424
vt 0.03704963 0.4539545
vt 0.1400856 0.2052037
vt 0.09278841 0.2759889
vt 0.2052037 0.1400856
vn -0.4713966 0 0.8819214
vn -0.2902846 0 0.9569404
vn -0.2902846 0 0.9569404
vn -0.4713966 0 0.8819213
vn -0.6343932 0 0.7730105
vn -0.6343932 0 0.7730105
vn -0.7730104 0 0.6343935
vn -0.7730104 0 0.6343933
vn -0.8819212 0 0.4713968
vn -0.8819212 0 0.4713967
vn -0.9569404 0 0.2902846
vn -0.9569404 0 0.2902846
vn -0.9951847 0 0.09801751
vn -0.9951847 0 0.09801749
vn -0.9951848 0 -0.09801672
vn -0.9951847 0 -0.09801675
vn -0.9569402 0 -0.2902848
vn -0.9569402 0 -0.2902848
vn -0.8819213 0 -0.4713966
vn -0.8819213 0 -0.4713967
vn -0.7730106 0 -0.6343931
vn -0.7730105 0 -0.6343933
vn -0.6343932 0 -0.7730105
vn -0.6343931 0 -0.7730106
vn -0.4713966 0 -0.8819214
vn -0.4713965 0 -0.8819214
vn -0.2902848 0 -0.9569402
vn -0.2902845 0 -0.9569404
vn -0.09801742 0 -0.9951847
vn -0.09801726 0 -0.9951847
vn 0.09801674 0 -0.9951847
vn 0.09801686 0 -0.9951847
vn 0.2902847 0 -0.9569404
vn 0.2902848 0 -0.9569404
vn 0.4713966 0 -0.8819213
vn 0.4713964 0 -0.8819214
vn 0.6343931 0 -0.7730107
vn 0.6343931 0 -0.7730106
vn 0.7730104 0 -0.6343934
vn 0.7730104 0 -0.6343935
vn 0.8819212 0 -0.4713968
vn 0.8819212 0 -0.4713969
vn 0.9569404 0 -0.2902845
vn 0.9569404 0 -0.2902846
vn 0.9951847 0 -0.09801749
vn 0.9951847 0 -0.09801753
vn 0.9951847 0 0.09801674
vn 0.9951848 0 0.09801673
vn 0.9569404 0 0.2902847
vn 0.9569404 0 0.2902847
vn 0.8819212 0 0.4713967
vn 0.8819214 0 0.4713966
vn 0.7730106 0 0.6343932
vn 0.7730107 0 0.6343931
vn 0.6343931 0 0.7730106
vn 0.6343932 0 0.7730105
vn 0.4713966 0 0.8819214
vn 0.4713967 0 0.8819213
vn 0.2902845 0 0.9569404
vn 0.2902847 0 0.9569404
vn 0.09801716 0 0.9951847
vn 0.09801731 0 0.9951847
vn -0.09801697 0 0.9951847
vn -0.09801693 0 0.9951847
vn -0.2902846 0 0.9569404
vn -0.2902846 0 0.9569404
vn 0 -1 0
vn 0 -1 0
vn 0 -1 0
vn 0 -1 0
vn 0 -1 0
vn 0 -1 0
vn 0 -1 0
vn 0 -1 0
vn 0 -1 0
vn 0 -1 0
vn 0 -1 0
vn 0 -1 0
vn 0 -1 0
vn 0 -1 0
vn 0 -1 0
vn 0 -1 0
vn 0 -1 0
vn 0 -1 0
vn 0 -1 0
vn 0 -1 0
vn 0 -1 0
vn 0 -1 0
vn 0 -1 0
vn 0 -1 0
vn 0 -1 0
vn 0 -1 0
vn 0 -1 0
vn 0 -1 0
vn 0 -1 0
vn 0 -1 0
vn 0 -1 0
vn 0 -1 0
vn 0 1 0
vn 0 1 0
vn 0 1 0
vn 0 1 0
vn 0 1 0
vn 0 1 0
vn 0 1 0
vn 0 1 0
vn 0 1 0
vn 0 1 0
vn 0 1 0
vn 0 1 0
vn 0 1 0
vn 0 1 0
vn 0 1 0
vn 0 1 0
vn 0 1 0
vn 0 1 0
vn 0 1 0
vn 0 1 0
vn 0 1 0
vn 0 1 0
vn 0 1 0
vn 0 1 0
vn 0 1 0
vn 0 1 0
vn 0 1 0
vn 0 1 0
vn 0 1 0
vn 0 1 0
vn 0 1 0
vn 0 1 0
g gate-drl-21-trigger-01_0
f 3/3/3 2/2/2 1/1/1
f 4/4/4 1/1/1 2/2/2
f 1/1/1 4/4/4 5/5/5
f 6/6/6 5/5/5 4/4/4
f 5/5/5 6/6/6 7/7/7
f 8/8/8 7/7/7 6/6/6
f 7/7/7 8/8/8 9/9/9
f 10/10/10 9/9/9 8/8/8
f 9/9/9 10/10/10 11/11/11
f 12/12/12 11/11/11 10/10/10
f 11/11/11 12/12/12 13/13/13
f 14/14/14 13/13/13 12/12/12
f 13/13/13 14/14/14 15/15/15
f 16/16/16 15/15/15 14/14/14
f 15/15/15 16/16/16 17/17/17
f 18/18/18 17/17/17 16/16/16
f 17/17/17 18/18/18 19/19/19
f 20/20/20 19/19/19 18/18/18
f 19/19/19 20/20/20 21/21/21
f 22/22/22 21/21/21 20/20/20
f 21/21/21 22/22/22 23/23/23
f 24/24/24 23/23/23 22/22/22
f 23/23/23 24/24/24 25/25/25
f 26/26/26 25/25/25 24/24/24
f 25/25/25 26/26/26 27/27/27
f 28/28/28 27/27/27 26/26/26
f 27/27/27 28/28/28 29/29/29
f 30/30/30 29/29/29 28/28/28
f 29/29/29 30/30/30 31/31/31
f 32/32/32 31/31/31 30/30/30
f 31/31/31 32/32/32 33/33/33
f 34/34/34 33/33/33 32/32/32
f 33/33/33 34/34/34 35/35/35
f 36/36/36 35/35/35 34/34/34
f 35/35/35 36/36/36 37/37/37
f 38/38/38 37/37/37 36/36/36
f 37/37/37 38/38/38 39/39/39
f 40/40/40 39/39/39 38/38/38
f 39/39/39 40/40/40 41/41/41
f 42/42/42 41/41/41 40/40/40
f 41/41/41 42/42/42 43/43/43
f 44/44/44 43/43/43 42/42/42
f 43/43/43 44/44/44 45/45/45
f 46/46/46 45/45/45 44/44/44
f 45/45/45 46/46/46 47/47/47
f 48/48/48 47/47/47 46/46/46
f 47/47/47 48/48/48 49/49/49
f 50/50/50 49/49/49 48/48/48
f 49/49/49 50/50/50 51/51/51
f 52/52/52 51/51/51 50/50/50
f 51/51/51 52/52/52 53/53/53
f 54/54/54 53/53/53 52/52/52
f 53/53/53 54/54/54 55/55/55
f 56/56/56 55/55/55 54/54/54
f 55/55/55 56/56/56 57/57/57
f 58/58/58 57/57/57 56/56/56
f 57/57/57 58/58/58 59/59/59
f 60/60/60 59/59/59 58/58/58
f 59/59/59 60/60/60 61/61/61
f 62/62/62 61/61/61 60/60/60
f 61/61/61 62/62/62 63/63/63
f 64/64/64 63/63/63 62/62/62
f 63/63/63 64/64/64 65/65/65
f 66/66/66 65/65/65 64/64/64
f 69/69/69 68/68/68 67/67/67
f 68/68/68 70/70/70 67/67/67
f 71/71/71 70/70/70 68/68/68
f 72/72/72 71/71/71 68/68/68
f 67/67/67 70/70/70 73/73/73
f 74/74/74 70/70/70 71/71/71
f 75/75/75 70/70/70 74/74/74
f 76/76/76 74/74/74 71/71/71
f 77/77/77 72/72/72 68/68/68
f 78/78/78 77/77/77 68/68/68
f 79/79/79 78/78/78 68/68/68
f 80/80/80 77/77/77 78/78/78
f 81/81/81 72/72/72 77/77/77
f 82/82/82 81/81/81 77/77/77
f 83/83/83 72/72/72 81/81/81
f 84/84/84 71/71/71 72/72/72
f 85/85/85 84/84/84 72/72/72
f 86/86/86 85/85/85 72/72/72
f 87/87/87 86/86/86 72/72/72
f 88/88/88 85/85/85 86/86/86
f 89/89/89 84/84/84 85/85/85
f 90/90/90 89/89/89 85/85/85
f 91/91/91 84/84/84 89/89/89
f 92/92/92 71/71/71 84/84/84
f 93/93/93 92/92/92 84/84/84
f 94/94/94 93/93/93 84/84/84
f 95/95/95 92/92/92 93/93/93
f 96/96/96 71/71/71 92/92/92
f 97/97/97 96/96/96 92/92/92
f 98/98/98 71/71/71 96/96/96
f 101/101/101 100/100/100 99/99/99
f 100/100/100 102/102/102 99/99/99
f 103/103/103 102/102/102 100/100/100
f 104/104/104 103/103/103 100/100/100
f 99/99/99 102/102/102 105/105/105
f 106/106/106 102/102/102 103/103/103
f 107/107/107 102/102/102 106/106/106
f 108/108/108 106/106/106 103/103/103
f 109/109/109 104/104/104 100/100/100
f 110/110/110 109/109/109 100/100/100
f 111/111/111 110/110/110 100/100/100
f 112/112/112 109/109/109 110/110/110
f 113/113/113 104/104/104 109/109/109
f 114/114/114 113/113/113 109/109/109
f 115/115/115 104/104/104 113/113/113
f 116/116/116 103/103/103 104/104/104
f 117/117/117 116/116/116 104/104/104
f 118/118/118 117/117/117 104/104/104
f 119/119/119 118/118/118 104/104/104
f 120/120/120 117/117/117 118/118/118
f 121/121/121 116/116/116 117/117/117
f 122/122/122 121/121/121 117/117/117
f 123/123/123 116/116/116 121/121/121
f 124/124/124 103/103/103 116/116/116
f 125/125/125 124/124/124 116/116/116
f 126/126/126 125/125/125 116/116/116
f 127/127/127 124/124/124 125/125/125
f 128/128/128 103/103/103 124/124/124
f 129/129/129 128/128/128 124/124/124
f 130/130/130 103/103/103 128/128/128
