g gate-drl-46-trigger
v 1.496514 0.1310824 3.486194
v -1.395025 0.1310816 3.562852
v -1.496515 0.1310815 3.486194
v 1.395024 0.1310824 3.562852
v -1.264538 0.1310816 3.608847
v 1.264537 0.1310823 3.608847
v -1.105054 0.1310816 3.624179
v 1.496514 0.1310824 3.486194
v 1.395024 0.1310824 3.562852
v -1.395025 0.1310816 3.562852
v 1.264537 0.1310823 3.608847
v -1.264538 0.1310816 3.608847
v 1.105053 0.1310823 3.624179
v -1.105054 0.1310816 3.624179
v -1.496515 -0.1310828 3.486194
v -1.395025 -0.1310827 3.562852
v 1.496513 -0.1310819 3.486195
v -1.264538 -0.1310827 3.608847
v 1.395024 -0.131082 3.562853
v -1.105054 -0.1310827 3.624178
v 1.264536 -0.131082 3.608848
v -1.395025 -0.1310827 3.562852
v 1.395024 -0.131082 3.562853
v 1.496513 -0.1310819 3.486195
v -1.264538 -0.1310827 3.608847
v 1.264536 -0.131082 3.608848
v -1.105054 -0.1310827 3.624178
v 1.105052 -0.131082 3.624179
v -1.627001 0.1310814 4.768372E-07
v -1.627002 -0.1310828 3.072238
v -1.627002 -0.1310829 9.536743E-07
v -1.627002 0.1310815 3.072239
v -1.612504 -0.1310828 3.240887
v -1.612503 0.1310815 3.240887
v -1.569008 -0.1310828 3.378872
v -1.569008 0.1310815 3.378872
v -1.496515 -0.1310828 3.486194
v -1.496515 0.1310815 3.486194
v -1.395025 -0.1310827 3.562852
v -1.395025 0.1310816 3.562852
v -1.264538 -0.1310827 3.608847
v -1.264538 0.1310816 3.608847
v -1.105054 -0.1310827 3.624178
v -1.105054 0.1310816 3.624179
v 1.105053 0.1310823 3.624179
v 1.105052 -0.131082 3.624179
v 1.264536 -0.131082 3.608848
v 1.264537 0.1310823 3.608847
v 1.395024 -0.131082 3.562853
v 1.395024 0.1310824 3.562852
v 1.496513 -0.1310819 3.486195
v 1.496514 0.1310824 3.486194
v 1.569007 -0.1310819 3.378873
v 1.569007 0.1310824 3.378872
v 1.612502 -0.1310819 3.240888
v 1.612503 0.1310824 3.240887
v 1.627001 -0.1310819 3.07224
v 1.627001 0.1310824 3.072239
v 1.627002 0.1310823 -1.430511E-06
v 1.627002 -0.131082 0
v -1.627001 0.1310814 4.768372E-07
v 1.627002 0.1310823 -1.430511E-06
v 1.627001 0.1310824 3.072239
v -1.627002 0.1310815 3.072239
v -1.612503 0.1310815 3.240887
v 1.612503 0.1310824 3.240887
v -1.569008 0.1310815 3.378872
v 1.569007 0.1310824 3.378872
v -1.496515 0.1310815 3.486194
v 1.496514 0.1310824 3.486194
v 1.627001 -0.1310819 3.07224
v 1.627002 -0.131082 0
v -1.627002 -0.1310829 9.536743E-07
v -1.627002 -0.1310828 3.072238
v -1.612504 -0.1310828 3.240887
v 1.612502 -0.1310819 3.240888
v -1.569008 -0.1310828 3.378872
v 1.569007 -0.1310819 3.378873
v -1.496515 -0.1310828 3.486194
v 1.496513 -0.1310819 3.486195
v -1.627001 0.1310814 4.768372E-07
v -1.627002 -0.1310829 9.536743E-07
v 1.627002 -0.131082 0
v 1.627002 0.1310823 -1.430511E-06
vt 0.7577188 0.1067506
vt 0.7577187 0.8511975
vt 0.7577187 0.8932495
vt 0.7577188 0.1488026
vt 0.7577187 0.8091455
vt 0.7577188 0.1908546
vt 0.7577187 0.7670935
vt 0.7577188 0.1067506
vt 0.7577188 0.1488026
vt 0.7577187 0.8511975
vt 0.7577188 0.1908546
vt 0.7577187 0.8091455
vt 0.7577188 0.2329065
vt 0.7577187 0.7670935
vt 0.7577187 0.8932495
vt 0.7577187 0.8511975
vt 0.7577188 0.1067506
vt 0.7577187 0.8091455
vt 0.7577188 0.1488026
vt 0.7577187 0.7670935
vt 0.7577188 0.1908546
vt 0.7577187 0.8511975
vt 0.7577188 0.1488026
vt 0.7577188 0.1067506
vt 0.7577187 0.8091455
vt 0.7577188 0.1908546
vt 0.7577187 0.7670935
vt 0.7577188 0.2329065
vt 0.8411173 0
vt 0.6851278 1
vt 0.8411173 1
vt 0.6851278 0
vt 0.6763794 1
vt 0.6763794 0
vt 0.667631 1
vt 0.667631 0
vt 0.6588827 1
vt 0.6588827 0
vt 0.6418926 1
vt 0.6418926 0
vt 0.6249026 1
vt 0.6249026 0
vt 0.6079125 1
vt 0.6079125 0
vt 0.3920875 0
vt 0.3920875 1
vt 0.3750975 1
vt 0.3750975 0
vt 0.3581074 1
vt 0.3581074 0
vt 0.3411174 1
vt 0.3411174 0
vt 0.332369 1
vt 0.332369 0
vt 0.3236206 1
vt 0.3236206 0
vt 0.3148722 1
vt 0.3148723 0
vt 0.1588827 0
vt 0.1588827 1
vt 0.2422813 0.8932495
vt 0.2422813 0.1067505
vt 0.6834863 0.1067506
vt 0.6834863 0.8932495
vt 0.7082304 0.8932495
vt 0.7082305 0.1067506
vt 0.7329746 0.8932495
vt 0.7329746 0.1067506
vt 0.7577187 0.8932495
vt 0.7577188 0.1067506
vt 0.6834863 0.1067506
vt 0.2422813 0.1067505
vt 0.2422813 0.8932495
vt 0.6834862 0.8932495
vt 0.7082304 0.8932495
vt 0.7082305 0.1067506
vt 0.7329746 0.8932495
vt 0.7329746 0.1067506
vt 0.7577187 0.8932495
vt 0.7577188 0.1067506
vt -4.211549 5.622001E-06
vt -4.21155 1.000006
vt 0.1588827 1
vt 0.1588827 0
vn 0 1 0
vn 0 1 0
vn 0 1 0
vn 0 1 0
vn 0 1 0
vn 0 1 0
vn 0 1 0
vn 0 1 0
vn 0 1 0
vn 0 1 0
vn 0 1 0
vn 0 1 0
vn 0 1 0
vn 0 1 0
vn 0 -1 0
vn 0 -1 0
vn 0 -1 0
vn 0 -1 0
vn 0 -1 0
vn 0 -1 0
vn 0 -1 0
vn 0 -1 0
vn 0 -1 0
vn 0 -1 0
vn 0 -1 0
vn 0 -1 0
vn 0 -1 0
vn 0 -1 0
vn -1 0 0
vn -0.9990808 0 0.04286618
vn -1 0 0
vn -0.9990808 0 0.0428663
vn -0.9809391 0 0.1943155
vn -0.980939 0 0.1943158
vn -0.9005701 0 0.4347109
vn -0.9005699 0 0.4347111
vn -0.7255363 0 0.6881838
vn -0.7255361 0 0.6881841
vn -0.4731796 0 0.8809659
vn -0.4731793 0 0.8809662
vn -0.2156557 0 0.9764695
vn -0.2156553 0 0.9764696
vn -0.04790073 0 0.9988521
vn -0.04790059 0 0.9988521
vn 0.0479008 0 0.9988521
vn 0.04790072 0 0.9988521
vn 0.2156552 0 0.9764696
vn 0.2156557 0 0.9764695
vn 0.4731788 0 0.8809664
vn 0.4731793 0 0.8809662
vn 0.7255354 0 0.6881849
vn 0.7255361 0 0.6881841
vn 0.9005696 0 0.4347116
vn 0.9005699 0 0.4347112
vn 0.9809389 0 0.1943163
vn 0.980939 0 0.1943157
vn 0.9990808 0 0.0428671
vn 0.9990808 0 0.04286689
vn 1 0 0
vn 1 0 0
vn 0 1 0
vn 0 1 0
vn 0 1 0
vn 0 1 0
vn 0 1 0
vn 0 1 0
vn 0 1 0
vn 0 1 0
vn 0 1 0
vn 0 1 0
vn 0 -1 0
vn 0 -1 0
vn 0 -1 0
vn 0 -1 0
vn 0 -1 0
vn 0 -1 0
vn 0 -1 0
vn 0 -1 0
vn 0 -1 0
vn 0 -1 0
vn 0 0 -1
vn 0 0 -1
vn 0 0 -1
vn 0 0 -1
g gate-drl-46-trigger_0
f 3/3/3 2/2/2 1/1/1
f 2/2/2 5/5/5 4/4/4
f 5/5/5 7/7/7 6/6/6
f 10/10/10 9/9/9 8/8/8
f 12/12/12 11/11/11 9/9/9
f 14/14/14 13/13/13 11/11/11
f 17/17/17 16/16/16 15/15/15
f 19/19/19 18/18/18 16/16/16
f 21/21/21 20/20/20 18/18/18
f 24/24/24 23/23/23 22/22/22
f 23/23/23 26/26/26 25/25/25
f 26/26/26 28/28/28 27/27/27
f 31/31/31 30/30/30 29/29/29
f 30/30/30 32/32/32 29/29/29
f 30/30/30 33/33/33 32/32/32
f 33/33/33 34/34/34 32/32/32
f 33/33/33 35/35/35 34/34/34
f 35/35/35 36/36/36 34/34/34
f 35/35/35 37/37/37 36/36/36
f 37/37/37 38/38/38 36/36/36
f 38/38/38 37/37/37 39/39/39
f 40/40/40 38/38/38 39/39/39
f 40/40/40 39/39/39 41/41/41
f 42/42/42 40/40/40 41/41/41
f 42/42/42 41/41/41 43/43/43
f 44/44/44 42/42/42 43/43/43
f 44/44/44 43/43/43 45/45/45
f 43/43/43 46/46/46 45/45/45
f 46/46/46 47/47/47 45/45/45
f 47/47/47 48/48/48 45/45/45
f 47/47/47 49/49/49 48/48/48
f 49/49/49 50/50/50 48/48/48
f 49/49/49 51/51/51 50/50/50
f 51/51/51 52/52/52 50/50/50
f 52/52/52 51/51/51 53/53/53
f 54/54/54 52/52/52 53/53/53
f 54/54/54 53/53/53 55/55/55
f 56/56/56 54/54/54 55/55/55
f 56/56/56 55/55/55 57/57/57
f 58/58/58 56/56/56 57/57/57
f 58/58/58 57/57/57 59/59/59
f 57/57/57 60/60/60 59/59/59
f 63/63/63 62/62/62 61/61/61
f 64/64/64 63/63/63 61/61/61
f 63/63/63 64/64/64 65/65/65
f 65/65/65 66/66/66 63/63/63
f 65/65/65 67/67/67 66/66/66
f 67/67/67 68/68/68 66/66/66
f 67/67/67 69/69/69 68/68/68
f 69/69/69 70/70/70 68/68/68
f 73/73/73 72/72/72 71/71/71
f 74/74/74 73/73/73 71/71/71
f 75/75/75 74/74/74 71/71/71
f 71/71/71 76/76/76 75/75/75
f 76/76/76 77/77/77 75/75/75
f 76/76/76 78/78/78 77/77/77
f 78/78/78 79/79/79 77/77/77
f 78/78/78 80/80/80 79/79/79
f 83/83/83 82/82/82 81/81/81
f 84/84/84 83/83/83 81/81/81
