g gate-halloween-01-trigger
v -0.905071 2.384186E-06 4.640199
v -0.90507 0.2265329 4.640199
v -0.09493505 1.907349E-06 4.733784
v -0.09493421 0.2265329 4.733784
v 0.7152008 1.430511E-06 4.640202
v 0.7152018 0.2265327 4.640202
v 1.768165 1.907349E-06 4.109565
v 1.768166 0.2265332 4.109565
v -1.958034 0.2265325 4.109562
v -0.90507 0.2265329 4.640199
v -0.905071 2.384186E-06 4.640199
v -1.958035 1.907349E-06 4.109562
v -2.525342 0.2265321 3.124661
v -2.525343 1.072884E-06 3.12466
v -2.627002 0.226532 2.366892
v -2.627003 7.152557E-07 2.366891
v -2.525342 0.2265315 1.609123
v -2.525342 -3.996803E-15 1.609122
v -1.958035 0.2265313 0.6242223
v -1.958035 -7.152557E-07 0.6242213
v -1.958035 0.2265313 0.6242223
v -1.958035 -7.152557E-07 0.6242213
v -0.9050705 -2.384186E-07 0.09358392
v -0.9050705 0.2265319 0.09358583
v -0.09493475 0.226532 2.5547E-06
v -0.09493452 1.998401E-15 -6.79041E-08
v 0.7152013 0.2265319 0.09358644
v 0.7152015 -2.384186E-07 0.09358406
v 1.768166 0.2265327 0.6242231
v 1.768166 7.152557E-07 0.624222
v 2.335473 5.960464E-07 1.609124
v 2.335473 0.2265329 1.609125
v 2.437134 9.536743E-07 2.366894
v 2.437134 0.2265334 2.366894
v 2.335473 9.536743E-07 3.124663
v 2.335473 0.2265329 3.124664
v 1.768165 1.907349E-06 4.109565
v 1.768166 0.2265332 4.109565
v 1.38725 0.5348195 3.753272
v 1.768165 1.907349E-06 4.109565
v 2.335473 9.536743E-07 3.124663
v 0.7152008 1.430511E-06 4.640202
v 1.67175 0.7554944 3.193137
v 2.437134 9.536743E-07 2.366894
v 0.7884066 0.7554947 4.01938
v -0.09493505 1.907349E-06 4.733784
v 0.6535431 1.028095 3.204745
v -0.09493519 0.845176 4.087407
v -0.978277 0.7554951 4.019378
v -0.905071 2.384186E-06 4.640199
v -1.577121 0.5348189 3.75327
v -1.958035 1.907349E-06 4.109562
v -2.525343 1.072884E-06 3.12466
v -0.8434129 1.028095 3.204744
v -1.861618 0.7554941 3.193135
v -2.627003 7.152557E-07 2.366891
v -0.09493505 1.085728 3.227486
v -0.09493497 1.261384 2.366892
v 0.825716 1.158285 2.366893
v -1.015586 1.158285 2.366892
v -1.935516 0.8353496 2.366891
v -1.861618 0.7554936 1.540648
v -2.525342 -3.996803E-15 1.609122
v -0.8434128 1.028094 1.529039
v -1.577121 0.5348165 0.9805136
v -1.958035 -7.152557E-07 0.6242213
v -0.9050705 -2.384186E-07 0.09358392
v -0.9782767 0.7554932 0.7144059
v -0.09493452 1.998401E-15 -6.79041E-08
v -0.09493471 0.8451738 0.6463792
v -0.09493481 1.085728 1.506298
v 0.6535433 1.028095 1.52904
v 0.7884073 0.7554935 0.7144065
v 0.7152015 -2.384186E-07 0.09358406
v 1.387251 0.5348179 0.9805148
v 1.768166 7.152557E-07 0.624222
v 2.335473 5.960464E-07 1.609124
v 1.67175 0.7554944 1.54065
v 1.745647 0.8353501 2.366894
v -1.577119 0.7613497 3.753271
v -1.958034 0.2265325 4.109562
v -2.525342 0.2265321 3.124661
v -0.90507 0.2265329 4.640199
v -1.861617 0.9820251 3.193136
v -2.627002 0.226532 2.366892
v -0.978276 0.9820261 4.019379
v -0.09493421 0.2265329 4.733784
v -0.8434123 1.254626 3.204745
v -0.09493415 1.071707 4.087407
v 0.7884077 0.9820264 4.019381
v 0.7152018 0.2265327 4.640202
v 1.387252 0.7613505 3.753273
v 1.768166 0.2265332 4.109565
v 2.335473 0.2265329 3.124664
v 0.6535437 1.254627 3.204745
v 1.67175 0.9820261 3.193137
v 2.437134 0.2265334 2.366894
v -0.09493437 1.31226 3.227486
v -0.09493449 1.487916 2.366893
v -1.015586 1.384817 2.366893
v 0.8257167 1.384817 2.366893
v 1.745648 1.061882 2.366894
v 1.671749 0.9820262 1.540651
v 2.335473 0.2265329 1.609125
v 0.6535435 1.254627 1.529041
v 1.387251 0.76135 0.9805161
v 1.768166 0.2265327 0.6242231
v 0.7152013 0.2265319 0.09358644
v 0.7884073 0.9820252 0.7144076
v -0.09493475 0.226532 2.5547E-06
v -0.09493463 1.071706 0.6463805
v -0.09493455 1.312259 1.506299
v -0.8434125 1.254626 1.529041
v -0.9782766 0.9820251 0.7144072
v -0.9050705 0.2265319 0.09358583
v -1.57712 0.7613488 0.9805151
v -1.958035 0.2265313 0.6242223
v -2.525342 0.2265315 1.609123
v -1.861618 0.9820251 1.540649
v -1.935515 1.061881 2.366893
vt 0.1273223 1.931673E-06
vt 0.1273223 0.9999985
vt 0.3454917 1.448754E-06
vt 0.3454918 0.9999988
vt 0.5636612 9.658363E-07
vt 0.5636612 0.9999992
vt 1 0
vt 1 1
vt 1 1
vt 1.132949 1.000011
vt 1.132949 1.03329E-05
vt 1 0
vt 0.8398446 1
vt 0.8398446 0
vt 0.7597669 1
vt 0.7597669 0
vt 0.6796892 1
vt 0.6796892 0
vt 0.5195338 1
vt 0.5195338 0
vt 9.297249 0.9999868
vt 9.297249 -1.319178E-05
vt 6.358322 -8.794523E-06
vt 6.358321 0.9999912
vt 4.888857 0.9999934
vt 4.888858 -6.595892E-06
vt 3.419394 0.9999956
vt 3.419394 -4.397261E-06
vt 0.4804662 1
vt 0.4804662 0
vt 0.3203108 0
vt 0.3203108 1
vt 0.2402331 0
vt 0.2402331 1
vt 0.1601554 0
vt 0.1601554 1
vt 0 0
vt 0 1
vt 0.7766926 0.656576
vt 1 1
vt 1 0.8398446
vt 0.6666667 0.6666667
vt 0.8600259 0.6998705
vt 1 0.7597669
vt 0.6933593 0.6132815
vt 0.5 0.5
vt 0.7200518 0.5598964
vt 0.5400389 0.4599612
vt 0.3867185 0.3066408
vt 0.3333334 0.3333334
vt 0.343424 0.2233075
vt 0 0
vt 0.1601554 0
vt 0.4401037 0.2799482
vt 0.3001295 0.1399741
vt 0.2402331 0
vt 0.5800778 0.4199223
vt 0.6201166 0.3798835
vt 0.7467444 0.5065113
vt 0.4934888 0.2532557
vt 0.3668609 0.1266278
vt 0.4335923 0.1132816
vt 0.3203108 0
vt 0.5468739 0.2265631
vt 0.5169257 0.156576
vt 0.4804662 0
vt 0.6536441 0.173178
vt 0.6002591 0.1998705
vt 0.7402331 0.2597669
vt 0.7001942 0.2998058
vt 0.6601554 0.3398446
vt 0.7734369 0.4531262
vt 0.8001295 0.399741
vt 0.826822 0.3463559
vt 0.843424 0.4830744
vt 1 0.5195338
vt 1 0.6796892
vt 0.8867185 0.5664077
vt 0.8733722 0.6331391
vt 0.656576 0.2233074
vt 1 0
vt 0.8398446 0
vt 0.6666667 0.3333333
vt 0.6998705 0.1399741
vt 0.7597669 0
vt 0.6132815 0.3066407
vt 0.5 0.5
vt 0.5598964 0.2799482
vt 0.4599612 0.4599611
vt 0.3066408 0.6132815
vt 0.3333334 0.6666666
vt 0.2233075 0.656576
vt 0 1
vt 0 0.8398446
vt 0.2799482 0.5598963
vt 0.1399741 0.6998705
vt 0 0.7597669
vt 0.4199223 0.4199223
vt 0.3798835 0.3798834
vt 0.5065113 0.2532556
vt 0.2532557 0.5065112
vt 0.1266278 0.6331391
vt 0.1132815 0.5664077
vt 0 0.6796892
vt 0.2265631 0.4531261
vt 0.156576 0.4830743
vt 0 0.5195338
vt 0.173178 0.3463559
vt 0.1998705 0.399741
vt 0.2597669 0.2597669
vt 0.2998058 0.2998057
vt 0.3398446 0.3398446
vt 0.4531261 0.2265631
vt 0.399741 0.1998705
vt 0.3463559 0.1731779
vt 0.4830743 0.156576
vt 0.5195338 0
vt 0.6796892 0
vt 0.5664077 0.1132815
vt 0.6331391 0.1266278
vn -0.2868182 0 0.957985
vn -0.2868173 0 0.9579853
vn 0 0 1
vn 0 0 1
vn 0.2868159 0 0.9579856
vn 0.2868168 0 0.9579855
vn 0.6871091 0 0.7265543
vn 0.6871101 0 0.7265533
vn -0.6871095 0 0.7265538
vn -0.2868173 0 0.9579853
vn -0.2868182 0 0.957985
vn -0.68711 0 0.7265534
vn -0.9466965 0 0.322127
vn -0.9466969 0 0.322126
vn -1 0 0
vn -1 0 0
vn -0.9466968 0 -0.3221262
vn -0.9466965 0 -0.3221272
vn -0.6871098 0 -0.7265536
vn -0.6871092 0 -0.7265542
vn -0.6871098 0 -0.7265536
vn -0.6871092 0 -0.7265542
vn -0.2868169 0 -0.9579854
vn -0.2868174 0 -0.9579853
vn 0 1.055289E-05 -1
vn 0 1.055289E-05 -1
vn 0.2868177 0 -0.9579852
vn 0.2868172 0 -0.9579853
vn 0.6871103 0 -0.7265532
vn 0.6871096 0 -0.7265538
vn 0.9466963 0 -0.3221272
vn 0.9466969 0 -0.3221257
vn 1 0 0
vn 1 0 0
vn 0.9466966 0 0.3221263
vn 0.9466965 0 0.3221266
vn 0.6871091 0 0.7265543
vn 0.6871101 0 0.7265533
vn -0.4683231 -0.72693 -0.5022413
vn -0.5380136 -0.6250531 -0.5655527
vn -0.7232726 -0.6426201 -0.2528161
vn -0.2347489 -0.6204982 -0.7482479
vn -0.5346605 -0.7981387 -0.277692
vn -0.7637164 -0.6455519 0
vn -0.2507912 -0.7924968 -0.555925
vn 0 -0.6176699 -0.7864375
vn -0.1931206 -0.9500753 -0.245074
vn 0 -0.8261863 -0.563397
vn 0.2507922 -0.7924969 -0.5559244
vn 0.2347499 -0.6204979 -0.7482479
vn 0.468324 -0.7269298 -0.5022407
vn 0.5380143 -0.6250531 -0.5655521
vn 0.7232723 -0.6426207 -0.2528155
vn 0.1931213 -0.9500753 -0.2450739
vn 0.5346605 -0.7981389 -0.2776914
vn 0.7637159 -0.6455525 0
vn 0 -0.9715704 -0.2367507
vn 0 -1 0
vn -0.2078975 -0.9781506 0
vn 0.2078981 -0.9781505 0
vn 0.5549549 -0.8318804 0
vn 0.5346603 -0.7981386 0.2776927
vn 0.7232722 -0.6426204 0.2528168
vn 0.1931212 -0.9500749 0.2450752
vn 0.4683238 -0.726929 0.5022421
vn 0.5380139 -0.6250526 0.5655531
vn 0.2347495 -0.6204983 0.7482476
vn 0.2507918 -0.7924965 0.5559251
vn 0 -0.6176707 0.7864369
vn 0 -0.8261859 0.5633975
vn 0 -0.9715701 0.2367519
vn -0.1931208 -0.9500751 0.245075
vn -0.2507916 -0.7924965 0.5559252
vn -0.2347493 -0.6204985 0.7482475
vn -0.4683234 -0.7269294 0.5022417
vn -0.5380139 -0.6250529 0.5655527
vn -0.7232726 -0.6426201 0.2528163
vn -0.5346605 -0.7981386 0.2776922
vn -0.5549549 -0.8318803 0
vn -0.4683241 0.7269292 0.5022414
vn -0.5380146 0.6250524 0.5655527
vn -0.7232724 0.6426205 0.2528161
vn -0.2347502 0.6204972 0.7482484
vn -0.5346606 0.7981385 0.2776921
vn -0.7637159 0.6455525 0
vn -0.2507924 0.7924964 0.555925
vn 0 0.6176693 0.7864379
vn -0.1931214 0.9500751 0.2450744
vn 0 0.8261861 0.5633974
vn 0.2507913 0.7924966 0.5559251
vn 0.234749 0.6204976 0.7482484
vn 0.4683236 0.7269293 0.5022417
vn 0.538014 0.6250526 0.5655529
vn 0.7232726 0.64262 0.2528164
vn 0.1931206 0.9500753 0.2450742
vn 0.5346605 0.7981386 0.277692
vn 0.7637163 0.6455521 0
vn 0 0.9715703 0.236751
vn 0 1 0
vn -0.2078982 0.9781505 0
vn 0.2078976 0.9781506 0
vn 0.554955 0.8318803 0
vn 0.5346604 0.7981386 -0.2776925
vn 0.7232726 0.6426201 -0.2528166
vn 0.1931207 0.950075 -0.2450752
vn 0.4683235 0.7269292 -0.502242
vn 0.5380138 0.6250528 -0.565553
vn 0.2347491 0.6204979 -0.748248
vn 0.2507914 0.7924963 -0.5559257
vn 0 0.6176699 -0.7864375
vn 0 0.8261858 -0.5633978
vn 0 0.9715701 -0.2367521
vn -0.1931212 0.9500749 -0.2450752
vn -0.2507918 0.7924964 -0.5559254
vn -0.2347493 0.6204981 -0.7482479
vn -0.4683237 0.7269291 -0.502242
vn -0.5380138 0.6250529 -0.5655528
vn -0.7232722 0.6426205 -0.2528164
vn -0.5346605 0.7981385 -0.2776924
vn -0.5549552 0.8318803 0
g gate-halloween-01-trigger_0
f 3/3/3 2/2/2 1/1/1
f 2/2/2 3/3/3 4/4/4
f 5/5/5 4/4/4 3/3/3
f 4/4/4 5/5/5 6/6/6
f 6/6/6 5/5/5 7/7/7
f 7/7/7 8/8/8 6/6/6
f 11/11/11 10/10/10 9/9/9
f 9/9/9 12/12/12 11/11/11
f 13/13/13 12/12/12 9/9/9
f 13/13/13 14/14/14 12/12/12
f 15/15/15 14/14/14 13/13/13
f 15/15/15 16/16/16 14/14/14
f 17/17/17 16/16/16 15/15/15
f 17/17/17 18/18/18 16/16/16
f 19/19/19 18/18/18 17/17/17
f 19/19/19 20/20/20 18/18/18
f 23/23/23 22/22/22 21/21/21
f 21/21/21 24/24/24 23/23/23
f 25/25/25 23/23/23 24/24/24
f 23/23/23 25/25/25 26/26/26
f 27/27/27 26/26/26 25/25/25
f 26/26/26 27/27/27 28/28/28
f 29/29/29 28/28/28 27/27/27
f 28/28/28 29/29/29 30/30/30
f 31/31/31 30/30/30 29/29/29
f 29/29/29 32/32/32 31/31/31
f 33/33/33 31/31/31 32/32/32
f 32/32/32 34/34/34 33/33/33
f 35/35/35 33/33/33 34/34/34
f 34/34/34 36/36/36 35/35/35
f 37/37/37 35/35/35 36/36/36
f 36/36/36 38/38/38 37/37/37
f 41/41/41 40/40/40 39/39/39
f 39/39/39 40/40/40 42/42/42
f 39/39/39 43/43/43 41/41/41
f 44/44/44 41/41/41 43/43/43
f 42/42/42 45/45/45 39/39/39
f 45/45/45 42/42/42 46/46/46
f 45/45/45 47/47/47 39/39/39
f 43/43/43 39/39/39 47/47/47
f 46/46/46 48/48/48 45/45/45
f 47/47/47 45/45/45 48/48/48
f 49/49/49 48/48/48 46/46/46
f 46/46/46 50/50/50 49/49/49
f 51/51/51 49/49/49 50/50/50
f 50/50/50 52/52/52 51/51/51
f 51/51/51 52/52/52 53/53/53
f 49/49/49 54/54/54 48/48/48
f 54/54/54 49/49/49 51/51/51
f 53/53/53 55/55/55 51/51/51
f 51/51/51 55/55/55 54/54/54
f 55/55/55 53/53/53 56/56/56
f 48/48/48 57/57/57 47/47/47
f 54/54/54 57/57/57 48/48/48
f 58/58/58 47/47/47 57/57/57
f 54/54/54 58/58/58 57/57/57
f 43/43/43 47/47/47 59/59/59
f 58/58/58 59/59/59 47/47/47
f 60/60/60 54/54/54 55/55/55
f 60/60/60 58/58/58 54/54/54
f 56/56/56 61/61/61 55/55/55
f 55/55/55 61/61/61 60/60/60
f 62/62/62 61/61/61 56/56/56
f 60/60/60 61/61/61 62/62/62
f 56/56/56 63/63/63 62/62/62
f 62/62/62 64/64/64 60/60/60
f 58/58/58 60/60/60 64/64/64
f 63/63/63 65/65/65 62/62/62
f 65/65/65 64/64/64 62/62/62
f 66/66/66 65/65/65 63/63/63
f 65/65/65 66/66/66 67/67/67
f 67/67/67 68/68/68 65/65/65
f 65/65/65 68/68/68 64/64/64
f 68/68/68 67/67/67 69/69/69
f 68/68/68 70/70/70 64/64/64
f 69/69/69 70/70/70 68/68/68
f 64/64/64 71/71/71 58/58/58
f 64/64/64 70/70/70 71/71/71
f 58/58/58 71/71/71 72/72/72
f 70/70/70 72/72/72 71/71/71
f 72/72/72 59/59/59 58/58/58
f 73/73/73 70/70/70 69/69/69
f 70/70/70 73/73/73 72/72/72
f 69/69/69 74/74/74 73/73/73
f 75/75/75 73/73/73 74/74/74
f 73/73/73 75/75/75 72/72/72
f 74/74/74 76/76/76 75/75/75
f 75/75/75 76/76/76 77/77/77
f 72/72/72 75/75/75 78/78/78
f 77/77/77 78/78/78 75/75/75
f 59/59/59 72/72/72 78/78/78
f 78/78/78 77/77/77 44/44/44
f 78/78/78 79/79/79 59/59/59
f 44/44/44 79/79/79 78/78/78
f 59/59/59 79/79/79 43/43/43
f 43/43/43 79/79/79 44/44/44
f 82/82/82 81/81/81 80/80/80
f 83/83/83 80/80/80 81/81/81
f 80/80/80 84/84/84 82/82/82
f 85/85/85 82/82/82 84/84/84
f 86/86/86 80/80/80 83/83/83
f 86/86/86 83/83/83 87/87/87
f 86/86/86 88/88/88 80/80/80
f 84/84/84 80/80/80 88/88/88
f 87/87/87 89/89/89 86/86/86
f 88/88/88 86/86/86 89/89/89
f 90/90/90 89/89/89 87/87/87
f 87/87/87 91/91/91 90/90/90
f 92/92/92 90/90/90 91/91/91
f 91/91/91 93/93/93 92/92/92
f 92/92/92 93/93/93 94/94/94
f 90/90/90 95/95/95 89/89/89
f 95/95/95 90/90/90 92/92/92
f 94/94/94 96/96/96 92/92/92
f 92/92/92 96/96/96 95/95/95
f 96/96/96 94/94/94 97/97/97
f 89/89/89 98/98/98 88/88/88
f 95/95/95 98/98/98 89/89/89
f 99/99/99 88/88/88 98/98/98
f 95/95/95 99/99/99 98/98/98
f 84/84/84 88/88/88 100/100/100
f 99/99/99 100/100/100 88/88/88
f 101/101/101 95/95/95 96/96/96
f 101/101/101 99/99/99 95/95/95
f 97/97/97 102/102/102 96/96/96
f 96/96/96 102/102/102 101/101/101
f 103/103/103 102/102/102 97/97/97
f 101/101/101 102/102/102 103/103/103
f 97/97/97 104/104/104 103/103/103
f 103/103/103 105/105/105 101/101/101
f 105/105/105 99/99/99 101/101/101
f 104/104/104 106/106/106 103/103/103
f 106/106/106 105/105/105 103/103/103
f 107/107/107 106/106/106 104/104/104
f 106/106/106 107/107/107 108/108/108
f 108/108/108 109/109/109 106/106/106
f 106/106/106 109/109/109 105/105/105
f 109/109/109 108/108/108 110/110/110
f 109/109/109 111/111/111 105/105/105
f 110/110/110 111/111/111 109/109/109
f 105/105/105 112/112/112 99/99/99
f 105/105/105 111/111/111 112/112/112
f 99/99/99 112/112/112 113/113/113
f 111/111/111 113/113/113 112/112/112
f 113/113/113 100/100/100 99/99/99
f 114/114/114 111/111/111 110/110/110
f 111/111/111 114/114/114 113/113/113
f 110/110/110 115/115/115 114/114/114
f 114/114/114 115/115/115 116/116/116
f 114/114/114 116/116/116 113/113/113
f 117/117/117 116/116/116 115/115/115
f 116/116/116 117/117/117 118/118/118
f 113/113/113 116/116/116 119/119/119
f 118/118/118 119/119/119 116/116/116
f 100/100/100 113/113/113 119/119/119
f 119/119/119 118/118/118 85/85/85
f 119/119/119 120/120/120 100/100/100
f 85/85/85 120/120/120 119/119/119
f 100/100/100 120/120/120 84/84/84
f 84/84/84 120/120/120 85/85/85
