g gate-tryouts-c-01-01-trigger
v 0.4030569 -0.1250002 0.4030615
v 0.4030569 -0.1250001 -0.4030607
v -0.4030619 -0.1250002 0.4030615
v -0.4030619 -0.1250001 -0.4030607
v 0.4030569 0.1249998 -0.4030607
v -0.4030619 0.1249997 0.4030615
v -0.4030619 0.1249998 -0.4030607
v 0.4030569 0.1249997 0.4030615
v 0.4030569 0.1249997 0.4030615
v -0.4030619 -0.1250002 0.4030615
v -0.4030619 0.1249997 0.4030615
v 0.4030569 -0.1250002 0.4030615
v 0.4030569 0.1249997 0.4030615
v 0.4030569 0.1249998 -0.4030607
v 0.4030569 -0.1250001 -0.4030607
v 0.4030569 -0.1250002 0.4030615
v -0.4030619 0.1249998 -0.4030607
v 0.4030569 -0.1250001 -0.4030607
v 0.4030569 0.1249998 -0.4030607
v -0.4030619 -0.1250001 -0.4030607
v -0.4030619 0.1249997 0.4030615
v -0.4030619 -0.1250001 -0.4030607
v -0.4030619 0.1249998 -0.4030607
v -0.4030619 -0.1250002 0.4030615
vt 0 0
vt 0 1
vt 1 0
vt 1 1
vt 1 1
vt 0 0
vt 0 1
vt 1 0
vt 1 1
vt 0 0
vt 0 1
vt 1 0
vt 0 1
vt 1 1
vt 1 0
vt 0 0
vt 1 1
vt 0 0
vt 0 1
vt 1 0
vt 1 1
vt 0 0
vt 0 1
vt 1 0
vn 0 -1 0
vn 0 -1 0
vn 0 -1 0
vn 0 -1 0
vn 0 1 0
vn 0 1 0
vn 0 1 0
vn 0 1 0
vn 0 0 1
vn 0 0 1
vn 0 0 1
vn 0 0 1
vn 1 0 0
vn 1 0 0
vn 1 0 0
vn 1 0 0
vn 0 0 -1
vn 0 0 -1
vn 0 0 -1
vn 0 0 -1
vn -1 0 0
vn -1 0 0
vn -1 0 0
vn -1 0 0
g gate-tryouts-c-01-01-trigger_0
f 3/3/3 2/2/2 1/1/1
f 4/4/4 2/2/2 3/3/3
f 7/7/7 6/6/6 5/5/5
f 6/6/6 8/8/8 5/5/5
f 11/11/11 10/10/10 9/9/9
f 10/10/10 12/12/12 9/9/9
f 15/15/15 14/14/14 13/13/13
f 13/13/13 16/16/16 15/15/15
f 19/19/19 18/18/18 17/17/17
f 18/18/18 20/20/20 17/17/17
f 23/23/23 22/22/22 21/21/21
f 22/22/22 24/24/24 21/21/21
