g gate-other-02-trigger
v 2.738678E-09 0.1467145 0.6574941
v 1.689717 0.1467138 2.347211
v 2.738659E-09 0.1467137 4.036903
v -1.689717 0.1467146 2.347211
v -1.154885E-08 -0.1467137 0.6574941
v -1.689717 -0.1467138 2.347211
v -1.154887E-08 -0.1467146 4.036903
v 1.689717 -0.1467145 2.347211
v -1.154885E-08 -0.1467137 0.6574941
v -1.689717 0.1467146 2.347211
v -1.689717 -0.1467138 2.347211
v 2.738678E-09 0.1467145 0.6574941
v 1.689717 0.1467138 2.347211
v 2.738678E-09 0.1467145 0.6574941
v -1.154885E-08 -0.1467137 0.6574941
v 1.689717 -0.1467145 2.347211
v 2.738659E-09 0.1467137 4.036903
v 1.689717 0.1467138 2.347211
v 1.689717 -0.1467145 2.347211
v -1.154887E-08 -0.1467146 4.036903
v 2.738659E-09 0.1467137 4.036903
v -1.689717 -0.1467138 2.347211
v -1.689717 0.1467146 2.347211
v -1.154887E-08 -0.1467146 4.036903
vt 0 0
vt 0 1
vt 1 1
vt 1 0
vt 1 0
vt 0 0
vt 0 1
vt 1 1
vt 1 1
vt 0 0
vt 0 1
vt 1 0
vt 1 0
vt 0 0
vt 0 1
vt 1 1
vt 1 0
vt 0 0
vt 0 1
vt 1 1
vt 0 0
vt 1 1
vt 1 0
vt 0 1
vn 0 1 0
vn 0 1 0
vn 0 1 0
vn 0 1 0
vn 0 -1 0
vn 0 -1 0
vn 0 -1 0
vn 0 -1 0
vn -0.7071068 0 -0.7071067
vn -0.7071068 0 -0.7071067
vn -0.7071068 0 -0.7071067
vn -0.7071068 0 -0.7071067
vn 0.7071068 0 -0.7071067
vn 0.7071068 0 -0.7071066
vn 0.7071068 0 -0.7071067
vn 0.7071068 0 -0.7071066
vn 0.7071015 0 0.707112
vn 0.7071015 0 0.707112
vn 0.7071015 0 0.707112
vn 0.7071015 0 0.707112
vn -0.7071015 0 0.707112
vn -0.7071015 0 0.707112
vn -0.7071015 0 0.707112
vn -0.7071015 0 0.707112
g gate-other-02-trigger_0
f 3/3/3 2/2/2 1/1/1
f 1/1/1 4/4/4 3/3/3
f 7/7/7 6/6/6 5/5/5
f 5/5/5 8/8/8 7/7/7
f 11/11/11 10/10/10 9/9/9
f 12/12/12 9/9/9 10/10/10
f 15/15/15 14/14/14 13/13/13
f 13/13/13 16/16/16 15/15/15
f 19/19/19 18/18/18 17/17/17
f 17/17/17 20/20/20 19/19/19
f 23/23/23 22/22/22 21/21/21
f 22/22/22 24/24/24 21/21/21
