g gate-07-a-neon-lod2
v -0.01360695 -1.156245 3.695795
v -0.01360705 1.154029 3.652489
v -0.01360705 1.153951 3.699625
v -0.01360695 -1.156167 3.648659
v 0.02721395 1.15399 3.676057
v 0.02721405 -1.156206 3.672227
v -0.01360705 1.153951 3.699625
v -0.01360695 -1.156245 3.695795
vt 0.6846812 0.7805632
vt 0.9978197 0.7870077
vt 0.9978197 0.7805632
vt 0.6846812 0.7870077
vt 0.9978197 0.7934519
vt 0.6846812 0.7934519
vt 0.9978197 0.7996801
vt 0.6846814 0.7996801
vn -0.5000011 -0.001435815 0.8660237
vn -0.5000011 0.001435772 -0.8660237
vn -0.4999992 -0.001435817 0.8660246
vn -0.4999992 0.001435774 -0.8660246
vn 1 0 2.049058E-06
vn 1 0 -2.049058E-06
vn -0.4999992 -0.001435817 0.8660246
vn -0.5000011 -0.001435815 0.8660237
g gate-07-a-neon-lod2_0
f 3/3/3 2/2/2 1/1/1
f 2/2/2 4/4/4 1/1/1
f 2/2/2 5/5/5 4/4/4
f 5/5/5 6/6/6 4/4/4
f 5/5/5 7/7/7 6/6/6
f 7/7/7 8/8/8 6/6/6
