g gate-regional-03-trigger
v 8.493514E-08 0.06417666 3.382252
v -0.2911713 -0.06417696 3.343919
v -0.2911713 0.06417667 3.343919
v 8.493514E-08 -0.06417696 3.382252
v 0.2911715 0.06417667 3.343919
v 0.2911715 -0.06417696 3.343919
v 0.5624999 0.06417669 3.231531
v 0.5624999 -0.06417696 3.231531
v 0.7954951 0.06417671 3.052747
v 0.7954951 -0.06417693 3.052747
v 0.9742786 0.06417674 2.819752
v 0.9742786 -0.0641769 2.819752
v 1.086667 0.06417678 2.548424
v 1.086667 -0.06417687 2.548424
v 1.125 0.06417682 2.257252
v 1.125 -0.06417681 2.257252
v 1.086666 0.06417686 1.96608
v 1.086666 -0.06417678 1.96608
v 0.9742782 0.0641769 1.694752
v 0.9742782 -0.06417675 1.694752
v 0.7954947 0.06417693 1.461757
v 0.7954947 -0.06417669 1.461757
v 0.5624994 0.06417695 1.282974
v 0.5624994 -0.06417669 1.282974
v 0.2911709 0.06417697 1.170586
v 0.2911709 -0.06417666 1.170586
v -5.230263E-07 0.06417698 1.132252
v -5.230263E-07 -0.06417666 1.132252
v -0.2911718 0.06417697 1.170586
v -0.2911718 -0.06417666 1.170586
v -0.5625004 0.06417695 1.282974
v -0.5625004 -0.06417669 1.282974
v -0.7954956 0.06417693 1.461758
v -0.7954956 -0.06417669 1.461758
v -0.9742788 0.0641769 1.694753
v -0.9742788 -0.06417675 1.694753
v -1.086667 0.06417686 1.966082
v -1.086667 -0.06417678 1.966082
v -1.125 0.06417682 2.257253
v -1.125 -0.06417681 2.257253
v -1.086666 0.06417678 2.548424
v -1.086666 -0.06417687 2.548424
v -0.9742785 0.06417674 2.819753
v -0.9742785 -0.0641769 2.819753
v -0.7954949 0.06417671 3.052748
v -0.7954949 -0.06417693 3.052748
v -0.5624998 0.06417669 3.231531
v -0.5624998 -0.06417696 3.231531
v -0.2911713 0.06417667 3.343919
v -0.2911713 -0.06417696 3.343919
v 0.9742782 0.0641769 1.694752
v 0.5624994 0.06417695 1.282974
v 0.7954947 0.06417693 1.461757
v 1.125 0.06417682 2.257252
v 1.086666 0.06417686 1.96608
v -0.5625004 0.06417695 1.282974
v -5.230263E-07 0.06417698 1.132252
v 0.2911709 0.06417697 1.170586
v -0.2911718 0.06417697 1.170586
v -0.5624998 0.06417669 3.231531
v -1.125 0.06417682 2.257253
v -0.9742788 0.0641769 1.694753
v -0.7954956 0.06417693 1.461758
v -1.086667 0.06417686 1.966082
v -0.9742785 0.06417674 2.819753
v -1.086666 0.06417678 2.548424
v -0.7954949 0.06417671 3.052748
v 0.5624999 0.06417669 3.231531
v 8.493514E-08 0.06417666 3.382252
v -0.2911713 0.06417667 3.343919
v 0.2911715 0.06417667 3.343919
v 0.9742786 0.06417674 2.819752
v 0.7954951 0.06417671 3.052747
v 1.086667 0.06417678 2.548424
v 1.086667 -0.06417687 2.548424
v 0.7954951 -0.06417693 3.052747
v 0.9742786 -0.0641769 2.819752
v 1.086666 -0.06417678 1.96608
v 1.125 -0.06417681 2.257252
v -0.2911713 -0.06417696 3.343919
v 0.2911715 -0.06417696 3.343919
v 0.5624999 -0.06417696 3.231531
v 8.493514E-08 -0.06417696 3.382252
v -0.7954956 -0.06417669 1.461758
v -1.086666 -0.06417687 2.548424
v -0.7954949 -0.06417693 3.052748
v -0.5624998 -0.06417696 3.231531
v -0.9742785 -0.0641769 2.819753
v -1.086667 -0.06417678 1.966082
v -1.125 -0.06417681 2.257253
v -0.9742788 -0.06417675 1.694753
v 0.2911709 -0.06417666 1.170586
v -0.2911718 -0.06417666 1.170586
v -0.5625004 -0.06417669 1.282974
v -5.230263E-07 -0.06417666 1.132252
v 0.7954947 -0.06417669 1.461757
v 0.5624994 -0.06417669 1.282974
v 0.9742782 -0.06417675 1.694752
vt 0.9999999 0
vt 1.041667 1
vt 1.041667 0
vt 0.9999999 1
vt 0.9583333 0
vt 0.9583333 1
vt 0.9166667 0
vt 0.9166667 1
vt 0.875 0
vt 0.875 1
vt 0.8333333 0
vt 0.8333333 1
vt 0.7916666 0
vt 0.7916666 1
vt 0.75 0
vt 0.75 1
vt 0.7083333 0
vt 0.7083333 1
vt 0.6666666 0
vt 0.6666666 1
vt 0.6249999 0
vt 0.6249999 1
vt 0.5833333 0
vt 0.5833333 1
vt 0.5416666 0
vt 0.5416666 1
vt 0.4999999 0
vt 0.4999999 1
vt 0.4583333 0
vt 0.4583333 1
vt 0.4166666 0
vt 0.4166666 1
vt 0.3749999 0
vt 0.3749999 1
vt 0.3333333 0
vt 0.3333333 1
vt 0.2916666 0
vt 0.2916666 1
vt 0.2499999 0
vt 0.2499999 1
vt 0.2083333 0
vt 0.2083333 1
vt 0.1666666 0
vt 0.1666666 1
vt 0.125 0
vt 0.125 1
vt 0.08333331 0
vt 0.08333331 1
vt 0.04166666 0
vt 0.04166666 1
vt 0.7500002 0.9330125
vt 0.9330128 0.7499998
vt 0.8535536 0.8535532
vt 0.5 1
vt 0.6294098 0.9829628
vt 0.9330126 0.2499999
vt 1 0.4999998
vt 0.982963 0.6294093
vt 0.9829628 0.3705903
vt 0.06698725 0.2500001
vt 0.4999998 0
vt 0.7499998 0.06698719
vt 0.8535532 0.1464464
vt 0.6294093 0.017037
vt 0.2499999 0.06698737
vt 0.3705903 0.01703712
vt 0.1464466 0.1464467
vt 0.06698728 0.7499999
vt 0 0.5
vt 0.01703706 0.3705905
vt 0.01703706 0.6294096
vt 0.25 0.9330127
vt 0.1464466 0.8535534
vt 0.3705904 0.982963
vt 0.3705904 0.982963
vt 0.1464466 0.8535534
vt 0.25 0.9330127
vt 0.6294098 0.9829628
vt 0.5 1
vt 0.01703706 0.3705905
vt 0.01703706 0.6294096
vt 0.06698728 0.7499999
vt 0 0.5
vt 0.8535532 0.1464464
vt 0.3705903 0.01703712
vt 0.1464466 0.1464467
vt 0.06698725 0.2500001
vt 0.2499999 0.06698737
vt 0.6294093 0.017037
vt 0.4999998 0
vt 0.7499998 0.06698719
vt 0.982963 0.6294093
vt 0.9829628 0.3705903
vt 0.9330126 0.2499999
vt 1 0.4999998
vt 0.8535536 0.8535532
vt 0.9330128 0.7499998
vt 0.7500002 0.9330125
vn 0 0 1
vn -0.2588189 0 0.9659258
vn -0.2588189 0 0.9659258
vn 0 0 1
vn 0.258819 0 0.9659258
vn 0.258819 0 0.9659258
vn 0.5000001 0 0.8660253
vn 0.5000001 0 0.8660253
vn 0.7071068 0 0.7071067
vn 0.7071068 0 0.7071068
vn 0.8660253 0 0.5000001
vn 0.8660253 0 0.5000001
vn 0.9659258 0 0.258819
vn 0.9659258 0 0.258819
vn 1 0 0
vn 1 0 0
vn 0.9659257 0 -0.2588195
vn 0.9659256 0 -0.2588196
vn 0.8660251 0 -0.5000005
vn 0.8660251 0 -0.5000005
vn 0.7071063 0 -0.7071072
vn 0.7071064 0 -0.7071071
vn 0.4999995 0 -0.8660258
vn 0.4999995 0 -0.8660257
vn 0.2588185 0 -0.9659259
vn 0.2588185 0 -0.9659259
vn 0 0 -1
vn 0 0 -1
vn -0.2588195 0 -0.9659257
vn -0.2588195 0 -0.9659257
vn -0.5000002 0 -0.8660253
vn -0.5000002 0 -0.8660253
vn -0.7071071 0 -0.7071064
vn -0.7071071 0 -0.7071064
vn -0.8660257 0 -0.4999996
vn -0.8660257 0 -0.4999995
vn -0.9659259 0 -0.2588187
vn -0.9659259 0 -0.2588187
vn -1 0 0
vn -1 0 0
vn -0.9659257 0 0.2588193
vn -0.9659257 0 0.2588193
vn -0.8660253 0 0.5000003
vn -0.8660253 0 0.5000003
vn -0.7071066 0 0.7071069
vn -0.7071066 0 0.7071069
vn -0.4999999 0 0.8660255
vn -0.4999998 0 0.8660255
vn -0.2588189 0 0.9659258
vn -0.2588189 0 0.9659258
vn 0 1 0
vn 0 1 0
vn 0 1 0
vn 0 1 0
vn 0 1 0
vn 0 1 0
vn 0 1 0
vn 0 1 0
vn 0 1 0
vn 0 1 0
vn 0 1 0
vn 0 1 0
vn 0 1 0
vn 0 1 0
vn 0 1 0
vn 0 1 0
vn 0 1 0
vn 0 1 0
vn 0 1 0
vn 0 1 0
vn 0 1 0
vn 0 1 0
vn 0 1 0
vn 0 1 0
vn 0 -1 0
vn 0 -1 0
vn 0 -1 0
vn 0 -1 0
vn 0 -1 0
vn 0 -1 0
vn 0 -1 0
vn 0 -1 0
vn 0 -1 0
vn 0 -1 0
vn 0 -1 0
vn 0 -1 0
vn 0 -1 0
vn 0 -1 0
vn 0 -1 0
vn 0 -1 0
vn 0 -1 0
vn 0 -1 0
vn 0 -1 0
vn 0 -1 0
vn 0 -1 0
vn 0 -1 0
vn 0 -1 0
vn 0 -1 0
g gate-regional-03-trigger_0
f 3/3/3 2/2/2 1/1/1
f 4/4/4 1/1/1 2/2/2
f 1/1/1 4/4/4 5/5/5
f 6/6/6 5/5/5 4/4/4
f 5/5/5 6/6/6 7/7/7
f 8/8/8 7/7/7 6/6/6
f 7/7/7 8/8/8 9/9/9
f 10/10/10 9/9/9 8/8/8
f 9/9/9 10/10/10 11/11/11
f 12/12/12 11/11/11 10/10/10
f 11/11/11 12/12/12 13/13/13
f 14/14/14 13/13/13 12/12/12
f 13/13/13 14/14/14 15/15/15
f 16/16/16 15/15/15 14/14/14
f 15/15/15 16/16/16 17/17/17
f 18/18/18 17/17/17 16/16/16
f 17/17/17 18/18/18 19/19/19
f 20/20/20 19/19/19 18/18/18
f 19/19/19 20/20/20 21/21/21
f 22/22/22 21/21/21 20/20/20
f 21/21/21 22/22/22 23/23/23
f 24/24/24 23/23/23 22/22/22
f 23/23/23 24/24/24 25/25/25
f 26/26/26 25/25/25 24/24/24
f 25/25/25 26/26/26 27/27/27
f 28/28/28 27/27/27 26/26/26
f 27/27/27 28/28/28 29/29/29
f 30/30/30 29/29/29 28/28/28
f 29/29/29 30/30/30 31/31/31
f 32/32/32 31/31/31 30/30/30
f 31/31/31 32/32/32 33/33/33
f 34/34/34 33/33/33 32/32/32
f 33/33/33 34/34/34 35/35/35
f 36/36/36 35/35/35 34/34/34
f 35/35/35 36/36/36 37/37/37
f 38/38/38 37/37/37 36/36/36
f 37/37/37 38/38/38 39/39/39
f 40/40/40 39/39/39 38/38/38
f 39/39/39 40/40/40 41/41/41
f 42/42/42 41/41/41 40/40/40
f 41/41/41 42/42/42 43/43/43
f 44/44/44 43/43/43 42/42/42
f 43/43/43 44/44/44 45/45/45
f 46/46/46 45/45/45 44/44/44
f 45/45/45 46/46/46 47/47/47
f 48/48/48 47/47/47 46/46/46
f 47/47/47 48/48/48 49/49/49
f 50/50/50 49/49/49 48/48/48
f 53/53/53 52/52/52 51/51/51
f 52/52/52 54/54/54 51/51/51
f 51/51/51 54/54/54 55/55/55
f 56/56/56 54/54/54 52/52/52
f 57/57/57 56/56/56 52/52/52
f 58/58/58 57/57/57 52/52/52
f 59/59/59 56/56/56 57/57/57
f 60/60/60 54/54/54 56/56/56
f 61/61/61 60/60/60 56/56/56
f 62/62/62 61/61/61 56/56/56
f 63/63/63 62/62/62 56/56/56
f 64/64/64 61/61/61 62/62/62
f 65/65/65 60/60/60 61/61/61
f 66/66/66 65/65/65 61/61/61
f 67/67/67 60/60/60 65/65/65
f 68/68/68 54/54/54 60/60/60
f 69/69/69 68/68/68 60/60/60
f 70/70/70 69/69/69 60/60/60
f 71/71/71 68/68/68 69/69/69
f 72/72/72 54/54/54 68/68/68
f 73/73/73 72/72/72 68/68/68
f 74/74/74 54/54/54 72/72/72
f 77/77/77 76/76/76 75/75/75
f 76/76/76 78/78/78 75/75/75
f 75/75/75 78/78/78 79/79/79
f 80/80/80 78/78/78 76/76/76
f 81/81/81 80/80/80 76/76/76
f 82/82/82 81/81/81 76/76/76
f 83/83/83 80/80/80 81/81/81
f 84/84/84 78/78/78 80/80/80
f 85/85/85 84/84/84 80/80/80
f 86/86/86 85/85/85 80/80/80
f 87/87/87 86/86/86 80/80/80
f 88/88/88 85/85/85 86/86/86
f 89/89/89 84/84/84 85/85/85
f 90/90/90 89/89/89 85/85/85
f 91/91/91 84/84/84 89/89/89
f 92/92/92 78/78/78 84/84/84
f 93/93/93 92/92/92 84/84/84
f 94/94/94 93/93/93 84/84/84
f 95/95/95 92/92/92 93/93/93
f 96/96/96 78/78/78 92/92/92
f 97/97/97 96/96/96 92/92/92
f 98/98/98 78/78/78 96/96/96
