g gate-drl-34-a-trigger
v 1.558704 0.3545026 2.260395
v -1.192093E-07 0.3545029 3.370748
v 0.9617193 0.3545026 0.4156909
v -0.961719 0.3545034 0.4156909
v -1.558704 0.3545033 2.260395
v -1.192093E-07 0.08983962 3.370748
v 1.558704 0.08983932 2.260395
v 0.9617193 0.08983938 0.4156909
v -0.961719 0.0898401 0.4156909
v -1.558704 0.08984007 2.260395
v -0.961719 0.0898401 0.4156909
v -1.558704 0.3545033 2.260395
v -1.558704 0.08984007 2.260395
v -0.961719 0.3545034 0.4156909
v -0.961719 0.0898401 0.4156909
v 0.9617193 0.08983938 0.4156909
v 0.9617193 0.3545026 0.4156909
v -0.961719 0.3545034 0.4156909
v 1.558704 0.3545026 2.260395
v 0.9617193 0.3545026 0.4156909
v 0.9617193 0.08983938 0.4156909
v 1.558704 0.08983932 2.260395
v 1.558704 0.3545026 2.260395
v 1.558704 0.08983932 2.260395
v -1.192093E-07 0.08983962 3.370748
v -1.192093E-07 0.3545029 3.370748
v -1.558704 0.08984007 2.260395
v -1.558704 0.3545033 2.260395
vt 1 1
vt 1 0.5
vt 0 1
vt 0 0
vt 1 0
vt 0 0.5
vt 0 1
vt 1 1
vt 1 0
vt 0 0
vt 1 1
vt 0 0
vt 0 1
vt 1 0
vt 0 1
vt 1 1
vt 1 0
vt 0 0
vt 1 0
vt 0 0
vt 0 1
vt 1 1
vt 0 0
vt 0 1
vt 0.5 1
vt 0.5 0
vt 1 1
vt 1 0
vn 0 1 0
vn 0 1 0
vn 0 1 0
vn 0 1 0
vn 0 1 0
vn 0 -1 0
vn 0 -1 0
vn 0 -1 0
vn 0 -1 0
vn 0 -1 0
vn -0.9514189 0 -0.3078993
vn -0.9514189 0 -0.3078993
vn -0.9514189 0 -0.3078993
vn -0.9514189 0 -0.3078993
vn 0 0 -1
vn 0 0 -1
vn 0 0 -1
vn 0 0 -1
vn 0.951419 0 -0.307899
vn 0.951419 0 -0.307899
vn 0.951419 0 -0.307899
vn 0.951419 0 -0.307899
vn 0.5801973 0 0.814476
vn 0.5801973 0 0.814476
vn 0 0 1
vn 0 0 1
vn -0.5801974 0 0.814476
vn -0.5801974 0 0.8144759
g gate-drl-34-a-trigger_0
f 3/3/3 2/2/2 1/1/1
f 2/2/2 3/3/3 4/4/4
f 4/4/4 5/5/5 2/2/2
f 8/8/8 7/7/7 6/6/6
f 9/9/9 8/8/8 6/6/6
f 6/6/6 10/10/10 9/9/9
f 13/13/13 12/12/12 11/11/11
f 14/14/14 11/11/11 12/12/12
f 17/17/17 16/16/16 15/15/15
f 15/15/15 18/18/18 17/17/17
f 21/21/21 20/20/20 19/19/19
f 19/19/19 22/22/22 21/21/21
f 25/25/25 24/24/24 23/23/23
f 23/23/23 26/26/26 25/25/25
f 27/27/27 25/25/25 26/26/26
f 26/26/26 28/28/28 27/27/27
