g gate-drl-37-trigger
v 0.8041571 -0.2578328 1.130289
v -1.675594E-08 -0.2578325 2.487161
v 0.8041571 -0.2578325 2.020214
v -0.8041571 -0.2578325 2.020214
v 0.651454 -0.2578328 0.9601899
v 0.4493956 -0.2578328 0.8239897
v -1.640871E-08 -0.2578328 0.7152969
v -0.4493956 -0.2578328 0.8239897
v -0.651454 -0.2578328 0.9601899
v -0.8041571 -0.2578328 1.130289
v -0.651454 -0.1254988 0.9601899
v -0.8041571 -0.1254985 2.020214
v -0.8041571 -0.1254988 1.130289
v -0.4493956 -0.1254988 0.8239897
v -1.640871E-08 -0.1254988 0.7152969
v 0.4493956 -0.1254988 0.8239897
v 0.651454 -0.1254988 0.9601899
v 0.8041571 -0.1254988 1.130289
v -1.675594E-08 -0.1254985 2.487161
v 0.8041571 -0.1254985 2.020214
v -0.8041571 -0.1254985 2.020214
v -0.8041571 -0.2578328 1.130289
v -0.8041571 -0.1254988 1.130289
v -0.8041571 -0.2578325 2.020214
v -0.8041571 -0.1254985 2.020214
v -1.675594E-08 -0.2578325 2.487161
v -0.8041571 -0.2578325 2.020214
v -1.675594E-08 -0.1254985 2.487161
v 0.8041571 -0.2578325 2.020214
v 0.8041571 -0.1254985 2.020214
v 0.8041571 -0.1254988 1.130289
v 0.8041571 -0.2578325 2.020214
v 0.8041571 -0.1254985 2.020214
v 0.8041571 -0.2578328 1.130289
v -0.8041571 -0.2578328 1.130289
v -0.651454 -0.1254988 0.9601899
v -0.8041571 -0.1254988 1.130289
v -0.651454 -0.2578328 0.9601899
v -0.4493956 -0.1254988 0.8239897
v -0.4493956 -0.2578328 0.8239897
v -1.640871E-08 -0.1254988 0.7152969
v -1.640871E-08 -0.2578328 0.7152969
v 0.4493956 -0.1254988 0.8239897
v 0.4493956 -0.2578328 0.8239897
v 0.651454 -0.1254988 0.9601899
v 0.651454 -0.2578328 0.9601899
v 0.8041571 -0.1254988 1.130289
v 0.8041571 -0.2578328 1.130289
vt 1 0
vt 0.5 1
vt 1 1
vt 0 1
vt 0.8333334 0
vt 0.6666666 0
vt 0.5 0
vt 0.3333333 0
vt 0.1666667 0
vt 0 0
vt 0.8333334 0
vt 1 1
vt 1 0
vt 0.6666666 0
vt 0.5 0
vt 0.3333333 0
vt 0.1666667 0
vt 0 0
vt 0.5 1
vt 0 1
vt 1 1
vt 0 0
vt 0 1
vt 1 0
vt 0 1
vt 0.5 0
vt 0 0
vt 0.5 1
vt 1 0
vt 1 1
vt 1 1
vt 0 0
vt 0 1
vt 1 0
vt 1 0
vt 0.8333334 1
vt 1 1
vt 0.8333334 0
vt 0.6666666 1
vt 0.6666667 0
vt 0.5 1
vt 0.5 0
vt 0.3333333 1
vt 0.3333334 0
vt 0.1666667 1
vt 0.1666666 0
vt 0 1
vt 0 0
vn 0 -1 0
vn 0 -1 0
vn 0 -1 0
vn 0 -1 0
vn 0 -1 0
vn 0 -1 0
vn 0 -1 0
vn 0 -1 0
vn 0 -1 0
vn 0 -1 0
vn 0 1 0
vn 0 1 0
vn 0 1 0
vn 0 1 0
vn 0 1 0
vn 0 1 0
vn 0 1 0
vn 0 1 0
vn 0 1 0
vn 0 1 0
vn -1 0 0
vn -1 0 0
vn -1 0 0
vn -1 0 0
vn -0.5021499 0 0.8647806
vn 0 0 1
vn -0.5021499 0 0.8647806
vn 0 0 1
vn 0.5021499 0 0.8647806
vn 0.5021499 0 0.8647806
vn 1 0 0
vn 1 0 0
vn 1 0 0
vn 1 0 0
vn -0.7441332 0 -0.6680313
vn -0.6565013 0 -0.7543249
vn -0.7441332 0 -0.6680312
vn -0.6565014 0 -0.7543249
vn -0.4033789 0 -0.915033
vn -0.403379 0 -0.915033
vn 0 0 -1
vn 0 0 -1
vn 0.4033789 0 -0.915033
vn 0.4033789 0 -0.915033
vn 0.6565014 0 -0.7543249
vn 0.6565013 0 -0.7543249
vn 0.7441332 0 -0.6680313
vn 0.7441332 0 -0.6680312
g gate-drl-37-trigger_0
f 3/3/3 2/2/2 1/1/1
f 2/2/2 4/4/4 1/1/1
f 4/4/4 5/5/5 1/1/1
f 6/6/6 5/5/5 4/4/4
f 7/7/7 6/6/6 4/4/4
f 8/8/8 7/7/7 4/4/4
f 9/9/9 8/8/8 4/4/4
f 10/10/10 9/9/9 4/4/4
f 13/13/13 12/12/12 11/11/11
f 11/11/11 12/12/12 14/14/14
f 14/14/14 12/12/12 15/15/15
f 15/15/15 12/12/12 16/16/16
f 16/16/16 12/12/12 17/17/17
f 17/17/17 12/12/12 18/18/18
f 12/12/12 19/19/19 18/18/18
f 19/19/19 20/20/20 18/18/18
f 23/23/23 22/22/22 21/21/21
f 24/24/24 21/21/21 22/22/22
f 27/27/27 26/26/26 25/25/25
f 28/28/28 25/25/25 26/26/26
f 26/26/26 29/29/29 28/28/28
f 30/30/30 28/28/28 29/29/29
f 33/33/33 32/32/32 31/31/31
f 34/34/34 31/31/31 32/32/32
f 37/37/37 36/36/36 35/35/35
f 38/38/38 35/35/35 36/36/36
f 36/36/36 39/39/39 38/38/38
f 40/40/40 38/38/38 39/39/39
f 39/39/39 41/41/41 40/40/40
f 42/42/42 40/40/40 41/41/41
f 41/41/41 43/43/43 42/42/42
f 44/44/44 42/42/42 43/43/43
f 43/43/43 45/45/45 44/44/44
f 46/46/46 44/44/44 45/45/45
f 45/45/45 47/47/47 46/46/46
f 48/48/48 46/46/46 47/47/47
