g gate-drl-47-trigger
v 1.382548 -0.3060749 -2.394642
v 0.4801539 -0.3060749 -2.723087
v -0.480154 -0.3060749 -2.723087
v -1.382548 -0.3060749 -2.394642
v 2.118186 -0.3060748 -1.777369
v -2.118186 -0.3060748 -1.777369
v 2.598341 -0.3060747 -0.9457182
v -2.59834 -0.3060747 -0.9457183
v -2.765096 -0.3060745 -4.385602E-07
v 2.765096 -0.3060745 -2.104251E-08
v -2.59834 -0.3060743 0.9457176
v 2.59834 -0.3060743 0.94572
v -2.118186 -0.3060742 1.777368
v 2.118185 -0.3060742 1.77737
v -1.382549 -0.3060741 2.394641
v 1.382547 -0.3060741 2.394643
v -0.4801548 -0.3060741 2.723086
v 0.4801527 -0.3060741 2.723087
v 1.382548 -0.3060749 -2.394642
v 0.4801539 0.3060742 -2.723087
v 0.4801539 -0.3060749 -2.723087
v 1.382548 0.3060742 -2.394642
v 2.118186 -0.3060748 -1.777369
v 2.118186 0.3060744 -1.777369
v 2.598341 -0.3060747 -0.9457182
v 2.598341 0.3060745 -0.9457183
v 2.765096 -0.3060745 -2.104251E-08
v 2.765096 0.3060747 -8.709222E-08
v 2.59834 -0.3060743 0.94572
v 2.59834 0.3060749 0.9457199
v 2.118185 -0.3060742 1.77737
v 2.118185 0.306075 1.77737
v 1.382547 -0.3060741 2.394643
v 1.382547 0.3060751 2.394643
v 0.4801527 -0.3060741 2.723087
v 0.4801527 0.3060751 2.723087
v -0.4801548 -0.3060741 2.723086
v -0.4801548 0.3060751 2.723086
v -1.382549 -0.3060741 2.394641
v -1.382549 0.3060751 2.394641
v -2.118186 -0.3060742 1.777368
v -2.118186 0.306075 1.777368
v -2.59834 -0.3060743 0.9457176
v -2.59834 0.3060749 0.9457175
v -2.765096 -0.3060745 -4.385602E-07
v -2.765096 0.3060747 -5.046099E-07
v -2.59834 -0.3060747 -0.9457183
v -2.59834 0.3060745 -0.9457185
v -2.118186 -0.3060748 -1.777369
v -2.118186 0.3060744 -1.777369
v -1.382548 -0.3060749 -2.394642
v -1.382548 0.3060742 -2.394642
v -0.480154 -0.3060749 -2.723087
v -0.480154 0.3060742 -2.723087
v 0.4801539 -0.3060749 -2.723087
v 0.4801539 0.3060742 -2.723087
v -0.480154 0.3060742 -2.723087
v 0.4801539 0.3060742 -2.723087
v 1.382548 0.3060742 -2.394642
v -1.382548 0.3060742 -2.394642
v 2.118186 0.3060744 -1.777369
v -2.118186 0.3060744 -1.777369
v -2.59834 0.3060745 -0.9457185
v 2.598341 0.3060745 -0.9457183
v -2.765096 0.3060747 -5.046099E-07
v 2.765096 0.3060747 -8.709222E-08
v -2.59834 0.3060749 0.9457175
v 2.59834 0.3060749 0.9457199
v -2.118186 0.306075 1.777368
v 2.118185 0.306075 1.77737
v -1.382549 0.3060751 2.394641
v 1.382547 0.3060751 2.394643
v -0.4801548 0.3060751 2.723086
v 0.4801527 0.3060751 2.723087
vt 0.9166667 0
vt 0.9722222 0
vt 0.9708205 0
vt 0.9126309 0
vt 0.861111 0
vt 0.8046721 0
vt 0.8055555 0
vt 0.6599653 0
vt 0.4959643 0
vt 0.75 0
vt 0.3324501 0
vt 0.3400339 0
vt 0.1891446 0
vt 0.195327 0
vt 0.0833329 0
vt 0.08736816 0
vt 0.02777743 0
vt 0.02917883 0
vt 0.9166667 0
vt 0.9722222 1
vt 0.9722222 0
vt 0.9166667 1
vt 0.861111 0
vt 0.861111 1
vt 0.8055555 0
vt 0.8055555 1
vt 0.75 0
vt 0.75 1
vt 0.6944443 0
vt 0.6944443 1
vt 0.6388887 0
vt 0.6388887 1
vt 0.5833333 0
vt 0.5833333 1
vt 0.5277777 0
vt 0.5277777 1
vt 0.4722221 0
vt 0.4722221 1
vt 0.4166666 0
vt 0.4166666 1
vt 0.3611111 0
vt 0.3611111 1
vt 0.3055555 0
vt 0.3055555 1
vt 0.25 0
vt 0.25 1
vt 0.1944444 0
vt 0.1944444 1
vt 0.1388889 0
vt 0.1388889 1
vt 0.08333335 0
vt 0.08333335 1
vt 0.02777781 0
vt 0.02777781 1
vt -0.02777779 0
vt -0.02777779 1
vt 0.9708207 1
vt 0.9722222 1
vt 0.9166667 1
vt 0.9126313 1
vt 0.861111 1
vt 0.8046725 1
vt 0.6599656 1
vt 0.8055555 1
vt 0.4959645 1
vt 0.75 1
vt 0.3324502 1
vt 0.6944443 1
vt 0.1891447 1
vt 0.1953273 1
vt 0.08333312 1
vt 0.08736844 1
vt 0.0277776 1
vt 0.02917906 1
vn 0 -1 0
vn 0 -1 0
vn 0 -1 0
vn 0 -1 0
vn 0 -1 0
vn 0 -1 0
vn 0 -1 0
vn 0 -1 0
vn 0 -1 0
vn 0 -1 0
vn 0 -1 0
vn 0 -1 0
vn 0 -1 0
vn 0 -1 0
vn 0 -1 0
vn 0 -1 0
vn 0 -1 0
vn 0 -1 0
vn 0.4999997 0 -0.8660255
vn 0.1736481 0 -0.9848077
vn 0.1736481 0 -0.9848077
vn 0.4999997 0 -0.8660255
vn 0.7660441 0 -0.6427879
vn 0.7660441 0 -0.6427879
vn 0.9396926 0 -0.3420203
vn 0.9396926 0 -0.3420203
vn 1 0 0
vn 1 0 0
vn 0.9396923 0 0.3420209
vn 0.9396923 0 0.3420209
vn 0.7660438 0 0.6427884
vn 0.7660438 0 0.6427885
vn 0.4999994 0 0.8660258
vn 0.4999994 0 0.8660258
vn 0.1736477 0 0.9848078
vn 0.1736477 0 0.9848078
vn -0.1736487 0 0.9848077
vn -0.1736487 0 0.9848077
vn -0.5000002 0 0.8660253
vn -0.5000002 0 0.8660253
vn -0.7660444 0 0.6427877
vn -0.7660443 0 0.6427877
vn -0.9396926 0 0.3420201
vn -0.9396926 0 0.3420201
vn -1 0 0
vn -1 0 0
vn -0.9396926 0 -0.3420204
vn -0.9396926 0 -0.3420203
vn -0.7660441 0 -0.6427879
vn -0.7660441 0 -0.6427879
vn -0.4999999 0 -0.8660255
vn -0.4999999 0 -0.8660255
vn -0.1736484 0 -0.9848077
vn -0.1736484 0 -0.9848077
vn 0.1736481 0 -0.9848077
vn 0.1736481 0 -0.9848077
vn 0 1 0
vn 0 1 0
vn 0 1 0
vn 0 1 0
vn 0 1 0
vn 0 1 0
vn 0 1 0
vn 0 1 0
vn 0 1 0
vn 0 1 0
vn 0 1 0
vn 0 1 0
vn 0 1 0
vn 0 1 0
vn 0 1 0
vn 0 1 0
vn 0 1 0
vn 0 1 0
g gate-drl-47-trigger_0
f 3/3/3 2/2/2 1/1/1
f 1/1/1 4/4/4 3/3/3
f 1/1/1 5/5/5 4/4/4
f 5/5/5 6/6/6 4/4/4
f 5/5/5 7/7/7 6/6/6
f 7/7/7 8/8/8 6/6/6
f 7/7/7 9/9/9 8/8/8
f 7/7/7 10/10/10 9/9/9
f 10/10/10 11/11/11 9/9/9
f 10/10/10 12/12/12 11/11/11
f 12/12/12 13/13/13 11/11/11
f 12/12/12 14/14/14 13/13/13
f 14/14/14 15/15/15 13/13/13
f 14/14/14 16/16/16 15/15/15
f 16/16/16 17/17/17 15/15/15
f 16/16/16 18/18/18 17/17/17
f 21/21/21 20/20/20 19/19/19
f 20/20/20 22/22/22 19/19/19
f 19/19/19 22/22/22 23/23/23
f 22/22/22 24/24/24 23/23/23
f 23/23/23 24/24/24 25/25/25
f 24/24/24 26/26/26 25/25/25
f 25/25/25 26/26/26 27/27/27
f 26/26/26 28/28/28 27/27/27
f 27/27/27 28/28/28 29/29/29
f 28/28/28 30/30/30 29/29/29
f 29/29/29 30/30/30 31/31/31
f 30/30/30 32/32/32 31/31/31
f 31/31/31 32/32/32 33/33/33
f 32/32/32 34/34/34 33/33/33
f 33/33/33 34/34/34 35/35/35
f 34/34/34 36/36/36 35/35/35
f 35/35/35 36/36/36 37/37/37
f 36/36/36 38/38/38 37/37/37
f 37/37/37 38/38/38 39/39/39
f 38/38/38 40/40/40 39/39/39
f 39/39/39 40/40/40 41/41/41
f 40/40/40 42/42/42 41/41/41
f 41/41/41 42/42/42 43/43/43
f 42/42/42 44/44/44 43/43/43
f 43/43/43 44/44/44 45/45/45
f 44/44/44 46/46/46 45/45/45
f 45/45/45 46/46/46 47/47/47
f 46/46/46 48/48/48 47/47/47
f 47/47/47 48/48/48 49/49/49
f 48/48/48 50/50/50 49/49/49
f 49/49/49 50/50/50 51/51/51
f 50/50/50 52/52/52 51/51/51
f 51/51/51 52/52/52 53/53/53
f 52/52/52 54/54/54 53/53/53
f 53/53/53 54/54/54 55/55/55
f 54/54/54 56/56/56 55/55/55
f 59/59/59 58/58/58 57/57/57
f 57/57/57 60/60/60 59/59/59
f 60/60/60 61/61/61 59/59/59
f 60/60/60 62/62/62 61/61/61
f 62/62/62 63/63/63 61/61/61
f 63/63/63 64/64/64 61/61/61
f 63/63/63 65/65/65 64/64/64
f 65/65/65 66/66/66 64/64/64
f 65/65/65 67/67/67 66/66/66
f 67/67/67 68/68/68 66/66/66
f 67/67/67 69/69/69 68/68/68
f 69/69/69 70/70/70 68/68/68
f 69/69/69 71/71/71 70/70/70
f 71/71/71 72/72/72 70/70/70
f 71/71/71 73/73/73 72/72/72
f 73/73/73 74/74/74 72/72/72
