g gate-06-a-neon-lod2
v 0.01704695 1.2192 0.598221
v 0.03227894 1.230199 2.616385
v 0.01322995 1.2192 2.616353
v 0.03609695 1.230199 0.598253
v 0.03227995 1.208202 2.616385
v 0.03609695 1.208202 0.598253
v 0.01322995 1.2192 2.616353
v 0.01704695 1.2192 0.598221
v 0.01704705 -1.219263 0.598221
v 0.03227905 -1.208264 2.616385
v 0.01323005 -1.219263 2.616353
v 0.03609705 -1.208264 0.598253
v 0.03228005 -1.230261 2.616385
v 0.03609705 -1.230261 0.598253
v 0.01323005 -1.219263 2.616353
v 0.01704705 -1.219263 0.598221
v 0.02339705 -1.146585 0.51776
v 0.01957895 1.151165 0.495763
v 0.01957895 1.151165 0.51776
v 0.02339705 -1.146585 0.495763
v 0.03862895 1.151196 0.506762
v 0.04244705 -1.146554 0.506762
v 0.01957895 1.151165 0.51776
v 0.02339705 -1.146585 0.51776
v -0.00709795 -1.146593 2.714249
v 0.01195195 1.151175 2.721431
v -0.00709805 1.151157 2.710432
v 0.01195205 -1.146575 2.725248
v -0.00709805 1.151193 2.732429
v -0.00709795 -1.146557 2.736246
v -0.00709805 1.151157 2.710432
v -0.00709795 -1.146593 2.714249
vt 0.8739301 0.5538764
vt 0.50258 0.5490514
vt 0.50258 0.5538764
vt 0.8739301 0.5490514
vt 0.50258 0.5442014
vt 0.8739301 0.5442014
vt 0.50258 0.5393764
vt 0.8739301 0.5393764
vt 0.8739301 0.5538764
vt 0.50258 0.5490514
vt 0.50258 0.5538764
vt 0.8739301 0.5490514
vt 0.50258 0.5442014
vt 0.8739301 0.5442014
vt 0.50258 0.5393764
vt 0.8739301 0.5393764
vt 0.87393 0.5550765
vt 0.50258 0.5514764
vt 0.5025799 0.5550824
vt 0.8739301 0.5514764
vt 0.50258 0.5466264
vt 0.8739301 0.5466264
vt 0.50258 0.5418014
vt 0.8739301 0.5418014
vt 0.87393 0.5549157
vt 0.50258 0.5502514
vt 0.5025799 0.5549305
vt 0.8739301 0.5502514
vt 0.50258 0.5454264
vt 0.8739301 0.5454264
vt 0.50258 0.5405764
vt 0.8739301 0.5405764
vn -0.9999982 -2.526855E-05 -0.001891473
vn 0.4998831 0.8660923 0.0009455797
vn -0.9999982 -2.519876E-05 -0.001891474
vn 0.5000649 0.8659874 0.0009459236
vn 0.499925 -0.8660682 0.0009457825
vn 0.5001064 -0.8659634 0.0009461255
vn -0.9999982 -2.519876E-05 -0.001891474
vn -0.9999982 -2.526855E-05 -0.001891473
vn -0.9999982 -2.526855E-05 -0.001891473
vn 0.4998831 0.8660923 0.0009455797
vn -0.9999982 -2.519876E-05 -0.001891473
vn 0.5000649 0.8659874 0.0009459236
vn 0.499925 -0.8660682 0.0009457826
vn 0.5001064 -0.8659634 0.0009461257
vn -0.9999982 -2.519876E-05 -0.001891473
vn -0.9999982 -2.526855E-05 -0.001891473
vn -0.4999938 -0.0008308239 0.8660287
vn -0.5000064 -0.0008308448 -0.8660214
vn -0.5000232 -0.0008308728 0.8660117
vn -0.4999769 -0.0008307958 -0.8660384
vn 0.9999987 0.001661667 1.957955E-05
vn 0.9999987 0.001661667 1.965621E-05
vn -0.5000232 -0.0008308728 0.8660117
vn -0.4999938 -0.0008308239 0.8660287
vn -0.4999973 -0.00143865 -0.8660258
vn 1 1.136886E-07 7.589123E-06
vn -0.499986 -0.001438661 -0.8660323
vn 1 1.578597E-07 3.422695E-05
vn -0.5000157 0.001438647 0.8660151
vn -0.5000042 0.001438658 0.8660219
vn -0.499986 -0.001438661 -0.8660323
vn -0.4999973 -0.00143865 -0.8660258
g gate-06-a-neon-lod2_0
f 3/3/3 2/2/2 1/1/1
f 2/2/2 4/4/4 1/1/1
f 2/2/2 5/5/5 4/4/4
f 5/5/5 6/6/6 4/4/4
f 5/5/5 7/7/7 6/6/6
f 7/7/7 8/8/8 6/6/6
f 11/11/11 10/10/10 9/9/9
f 10/10/10 12/12/12 9/9/9
f 10/10/10 13/13/13 12/12/12
f 13/13/13 14/14/14 12/12/12
f 13/13/13 15/15/15 14/14/14
f 15/15/15 16/16/16 14/14/14
f 19/19/19 18/18/18 17/17/17
f 18/18/18 20/20/20 17/17/17
f 18/18/18 21/21/21 20/20/20
f 21/21/21 22/22/22 20/20/20
f 21/21/21 23/23/23 22/22/22
f 23/23/23 24/24/24 22/22/22
f 27/27/27 26/26/26 25/25/25
f 26/26/26 28/28/28 25/25/25
f 26/26/26 29/29/29 28/28/28
f 29/29/29 30/30/30 28/28/28
f 29/29/29 31/31/31 30/30/30
f 31/31/31 32/32/32 30/30/30
