g gate-drl-18-trigger
v 4.188402E-09 0.132332 0.5393107
v 1.806689 0.1323313 2.346
v 4.188374E-09 0.1323312 4.152689
v -1.806689 0.132332 2.346
v -1.51467E-08 -0.1323312 0.5393107
v -1.806689 -0.1323313 2.346
v -1.514672E-08 -0.132332 4.152689
v 1.806689 -0.132332 2.346
v -1.51467E-08 -0.1323312 0.5393107
v -1.806689 0.132332 2.346
v -1.806689 -0.1323313 2.346
v 4.188402E-09 0.132332 0.5393107
v -1.51467E-08 -0.1323312 0.5393107
v 1.806689 -0.132332 2.346
v 1.806689 0.1323313 2.346
v 4.188402E-09 0.132332 0.5393107
v -1.514672E-08 -0.132332 4.152689
v 4.188374E-09 0.1323312 4.152689
v 1.806689 0.1323313 2.346
v 1.806689 -0.132332 2.346
v -1.806689 -0.1323313 2.346
v 4.188374E-09 0.1323312 4.152689
v -1.514672E-08 -0.132332 4.152689
v -1.806689 0.132332 2.346
vt 0 0
vt 0 1
vt 1 1
vt 1 0
vt 1 0
vt 0 0
vt 0 1
vt 1 1
vt 1 1
vt 0 0
vt 0 1
vt 1 0
vt 0 1
vt 1 1
vt 1 0
vt 0 0
vt 1 1
vt 1 0
vt 0 0
vt 0 1
vt 1 1
vt 0 0
vt 0 1
vt 1 0
vn 0 1 0
vn 0 1 0
vn 0 1 0
vn 0 1 0
vn 0 -1 0
vn 0 -1 0
vn 0 -1 0
vn 0 -1 0
vn -0.7071068 0 -0.7071068
vn -0.7071068 0 -0.7071068
vn -0.7071068 0 -0.7071068
vn -0.7071068 0 -0.7071068
vn 0.7071068 0 -0.7071068
vn 0.7071068 0 -0.7071068
vn 0.7071068 0 -0.7071068
vn 0.7071068 0 -0.7071068
vn 0.7071068 0 0.7071068
vn 0.7071068 0 0.7071068
vn 0.7071068 0 0.7071068
vn 0.7071068 0 0.7071068
vn -0.7071068 0 0.7071068
vn -0.7071068 0 0.7071068
vn -0.7071068 0 0.7071068
vn -0.7071068 0 0.7071068
g gate-drl-18-trigger_0
f 3/3/3 2/2/2 1/1/1
f 1/1/1 4/4/4 3/3/3
f 7/7/7 6/6/6 5/5/5
f 5/5/5 8/8/8 7/7/7
f 11/11/11 10/10/10 9/9/9
f 10/10/10 12/12/12 9/9/9
f 15/15/15 14/14/14 13/13/13
f 13/13/13 16/16/16 15/15/15
f 19/19/19 18/18/18 17/17/17
f 17/17/17 20/20/20 19/19/19
f 23/23/23 22/22/22 21/21/21
f 24/24/24 21/21/21 22/22/22
