g gate-drl-16-trigger
v -0.913578 0.05901866 0.4108785
v -0.377879 0.05901869 -1.074972E-08
v 0.377879 0.05901869 -1.074972E-08
v 0.913578 0.05901866 0.4108785
v -1.203233 0.05901854 2.582972
v 1.203233 0.05901854 2.582972
v -1.203233 -0.05901867 2.582972
v 1.203233 -0.05901867 2.582972
v 0.913578 -0.05901854 0.4108784
v -0.913578 -0.05901854 0.4108784
v -0.377879 -0.05901852 -8.958507E-08
v 0.377879 -0.05901852 -8.958507E-08
v 0.377879 -0.05901852 -8.958507E-08
v -0.377879 0.05901869 -1.074972E-08
v -0.377879 -0.05901852 -8.958507E-08
v 0.377879 0.05901869 -1.074972E-08
v 1.203233 -0.05901867 2.582972
v 1.203233 0.05901854 2.582972
v 0.913578 0.05901866 0.4108785
v 0.913578 -0.05901854 0.4108784
v 1.203233 0.05901854 2.582972
v -1.203233 -0.05901867 2.582972
v -1.203233 0.05901854 2.582972
v 1.203233 -0.05901867 2.582972
v -1.203233 -0.05901867 2.582972
v -0.913578 -0.05901854 0.4108784
v -0.913578 0.05901866 0.4108785
v -1.203233 0.05901854 2.582972
v 0.377879 -0.05901852 -8.958507E-08
v 0.913578 -0.05901854 0.4108784
v 0.913578 0.05901866 0.4108785
v 0.377879 0.05901869 -1.074972E-08
v -0.377879 -0.05901852 -8.958507E-08
v -0.913578 0.05901866 0.4108785
v -0.913578 -0.05901854 0.4108784
v -0.377879 0.05901869 -1.074972E-08
vt 1 0.159072
vt 0.7586619 0
vt 0.2413381 0
vt 0 0.159072
vt 1 1
vt 0 1
vt 0 1
vt 1 1
vt 1 0.159072
vt 0 0.159072
vt 0.2413381 0
vt 0.7586619 0
vt 0.7586619 1
vt 0.2413381 0
vt 0.2413381 1
vt 0.7586619 0
vt 1 1
vt 1 0
vt 0.159072 0
vt 0.159072 1
vt 0 0
vt 1 1
vt 1 0
vt 0 1
vt 0 1
vt 0.840928 1
vt 0.840928 0
vt 0 0
vt -2.949246 1.000004
vt 0.159072 1
vt 0.159072 0
vt -2.949246 3.732875E-06
vt 3.949246 0.9999984
vt 0.840928 0
vt 0.840928 1
vt 3.949246 -1.611106E-06
vn 0 1 0
vn 0 1 0
vn 0 1 0
vn 0 1 0
vn 0 1 0
vn 0 1 0
vn 0 -1 0
vn 0 -1 0
vn 0 -1 0
vn 0 -1 0
vn 0 -1 0
vn 0 -1 0
vn 0 0 -1
vn 0 0 -1
vn 0 0 -1
vn 0 0 -1
vn 0.9912253 0 -0.1321829
vn 0.9912253 0 -0.1321829
vn 0.9912253 0 -0.1321829
vn 0.9912253 0 -0.1321829
vn 0 0 1
vn 0 0 1
vn 0 0 1
vn 0 0 1
vn -0.9912253 0 -0.1321828
vn -0.9912253 0 -0.1321828
vn -0.9912253 0 -0.1321828
vn -0.9912253 0 -0.1321828
vn 0.6085956 0 -0.7934805
vn 0.6085957 0 -0.7934805
vn 0.6085956 0 -0.7934805
vn 0.6085956 0 -0.7934805
vn -0.6085956 0 -0.7934805
vn -0.6085956 0 -0.7934805
vn -0.6085957 0 -0.7934805
vn -0.6085956 0 -0.7934805
g gate-drl-16-trigger_0
f 3/3/3 2/2/2 1/1/1
f 4/4/4 3/3/3 1/1/1
f 4/4/4 1/1/1 5/5/5
f 4/4/4 5/5/5 6/6/6
f 9/9/9 8/8/8 7/7/7
f 7/7/7 10/10/10 9/9/9
f 10/10/10 11/11/11 9/9/9
f 11/11/11 12/12/12 9/9/9
f 15/15/15 14/14/14 13/13/13
f 14/14/14 16/16/16 13/13/13
f 19/19/19 18/18/18 17/17/17
f 17/17/17 20/20/20 19/19/19
f 23/23/23 22/22/22 21/21/21
f 22/22/22 24/24/24 21/21/21
f 27/27/27 26/26/26 25/25/25
f 25/25/25 28/28/28 27/27/27
f 31/31/31 30/30/30 29/29/29
f 29/29/29 32/32/32 31/31/31
f 35/35/35 34/34/34 33/33/33
f 34/34/34 36/36/36 33/33/33
