g gate-regional-04-lod2
v 0 0 1.900326
v 0 -0.0096273 1.909954
v 0.5255288 0 1.814207
v 0.5284543 -0.0096273 1.823345
v 0 0 1.919581
v 0.8539623 -0.0096273 1.674339
v 0.8492281 0 1.666023
v 1.144116 -0.0096273 1.460546
v 1.137817 0 1.453382
v 1.388529 -0.0096273 1.191667
v 1.380906 1E-07 1.185914
v 1.622324 -0.0096273 0.7111331
v 1.613102 1E-07 0.7077799
v 1.696882 -0.0096273 0.3593545
v 1.68717 1E-07 0.3576626
v 1.71421 -0.0096273 0
v 1.704582 1E-07 0
v 1.723837 1E-07 0
v 1.706589 1E-07 0.360997
v 1.631539 1E-07 0.7144549
v 1.39615 0 1.197421
v 1.150413 0 1.46771
v 1.696882 0.0096275 0.3593545
v 1.71421 0.0096275 0
v 1.622324 0.0096275 0.7111331
v 1.68717 1E-07 0.3576626
v 1.704582 1E-07 0
v 1.613102 1E-07 0.7077799
v 1.380906 1E-07 1.185914
v 1.388529 0.0096275 1.191667
v 1.137817 0 1.453382
v 1.144116 0.0096275 1.460546
v 0.8492281 0 1.666023
v 0.8539623 0.009627401 1.674339
v 0.5255288 0 1.814207
v 0.8586949 0 1.682655
v 0.5284543 0.009627401 1.823345
v 0.5314057 0 1.832483
v 0 0.009627401 1.909954
v 0 0 1.900326
v -1.68717 1E-07 0.3576645
v -1.704582 1E-07 1.8E-06
v -1.714209 -0.0096273 1.8E-06
v -1.696882 -0.0096273 0.3593562
v -1.613101 1E-07 0.7077819
v -1.723837 1E-07 1.8E-06
v -1.622323 -0.0096273 0.7111351
v -1.380904 1E-07 1.185916
v -1.706588 1E-07 0.360999
v -1.388528 -0.0096273 1.191669
v -1.137816 0 1.453383
v -1.696882 0.0096275 0.3593562
v -1.714209 0.0096275 1.8E-06
v -1.631538 1E-07 0.7144568
v -1.144114 -0.0096273 1.460547
v -0.8492267 0 1.666024
v -1.68717 1E-07 0.3576645
v -1.704582 1E-07 1.8E-06
v -1.613101 1E-07 0.7077819
v -1.622323 0.0096275 0.7111351
v -1.380904 1E-07 1.185916
v -1.388528 0.0096275 1.191669
v -1.137816 0 1.453383
v -1.396148 0 1.197423
v -1.144114 0.0096275 1.460547
v -0.8492267 0 1.666024
v -1.150412 0 1.467711
v -0.8539609 0.009627401 1.67434
v -0.5255283 0 1.814207
v -0.8539609 -0.0096273 1.67434
v -0.5255283 0 1.814207
v -0.8586935 0 1.682656
v -0.5284535 0.009627401 1.823345
v -0.5284535 -0.0096273 1.823345
v 0 0.009627401 1.909954
v 0 0 1.900326
v 0 0 1.919581
v -0.5314049 0 1.832484
v 0 -0.0096273 1.909954
v 0 0 1.900326
v 0 0.0163919 1.517324
v 0 -0.0022066 1.874342
v 0.498038 0.0002814 1.794419
v 0.4273246 0.0074645 1.457067
v 0.8697289 0.0003251 1.620002
v 0.712772 -0.0049363 1.317599
v 1.154949 -0.0018341 1.39665
v 0.9243678 -0.0117288 1.14932
v 1.395166 -0.0024027 1.110219
v 1.122738 -0.0185288 0.9004131
v 1.578068 0.0009394001 0.730623
v 1.252186 -0.0194537 0.616585
v 1.31115 -0.0148097 0.3064191
v 1.662725 -0.0041835 0.320038
v 1.352067 -0.0121953 0.2367226
v 1.6665 -0.0378092 0.2326872
v -1.665968 0.0214173 0.2299176
v -1.661967 0.0005346001 0.3208082
v -1.348627 -0.0100049 0.2346318
v -1.306332 -0.0119054 0.3277925
v -1.57902 -0.0005806001 0.7291676
v -1.253183 -0.0132993 0.6061974
v -1.100313 -0.0121868 0.9294933
v -1.398304 -0.0009327 1.109247
v -0.9278647 -0.001036 1.142372
v -1.154108 -0.0007079 1.398763
v -0.6881374 -0.0054577 1.331524
v -0.8741758 -0.0012717 1.618948
v -0.4238401 -0.0019576 1.456898
v -0.4976113 -0.0022764 1.792989
v 0 0.0163919 1.517324
v 0 -0.0022066 1.874342
v -1.661967 0.0035345 0.3208082
v -1.665968 0.0244172 0.2299176
v -1.348627 -0.0070049 0.2346318
v -1.306332 -0.008905401 0.3277925
v -1.57902 0.0024192 0.7291676
v -1.253183 -0.0102993 0.6061974
v -1.100313 -0.0091869 0.9294933
v -1.398304 0.0020673 1.109247
v -0.9278647 0.001964 1.142372
v -1.154108 0.0022921 1.398763
v -0.6881374 -0.0024578 1.331524
v -0.8741758 0.0017283 1.618948
v -0.4238401 0.0010424 1.456898
v -0.4976113 0.0007235 1.792989
v 0 0.0193919 1.517324
v 0 0.0007933 1.874342
v 1.352067 -0.009195301 0.2367226
v 1.6665 -0.0348092 0.2326872
v 1.662725 -0.0011834 0.320038
v 1.31115 -0.0118097 0.3064191
v 1.578068 0.0039393 0.730623
v 1.252186 -0.0164538 0.616585
v 1.122738 -0.0155289 0.9004131
v 1.395166 0.0005972 1.110219
v 0.9243678 -0.0087288 1.14932
v 1.154949 0.001166 1.39665
v 0.712772 -0.0019363 1.317599
v 0.8697289 0.0033251 1.620002
v 0.4273246 0.0104645 1.457067
v 0.498038 0.0032814 1.794419
v 0 0.0193919 1.517324
v 0 0.0007933 1.874342
vt 0.9870445 0.9990063
vt 0.9883193 0.999141
vt 0.9876893 0.9527187
vt 0.9889595 0.9527465
vt 0.9896097 0.9992697
vt 0.9890453 0.9218095
vt 0.9877775 0.9217978
vt 0.988819 0.8906662
vt 0.9875543 0.890662
vt 0.9884827 0.8592678
vt 0.9872178 0.8592592
vt 0.9881645 0.8129335
vt 0.986882 0.8129035
vt 0.9881925 0.781868
vt 0.986908 0.7818487
vt 0.9883275 0.750792
vt 0.9870515 0.7508515
vt 0.9896145 0.7507295
vt 0.9894778 0.7818807
vt 0.9894455 0.8129612
vt 0.9897467 0.8592802
vt 0.990084 0.890674
vt 0.9907628 0.7818682
vt 0.990902 0.750795
vt 0.9907268 0.8129287
vt 0.9920467 0.7818535
vt 0.9921777 0.7508635
vt 0.9920093 0.8128935
vt 0.9922743 0.8592272
vt 0.9910098 0.8592557
vt 0.9926137 0.8906355
vt 0.991349 0.8906565
vt 0.9928448 0.921795
vt 0.9915795 0.9218093
vt 0.9927623 0.9527455
vt 0.9903142 0.921823
vt 0.991495 0.9527583
vt 0.9902295 0.9527708
vt 0.9909022 0.999163
vt 0.9921793 0.9990603
vt 0.9992248 0.7816148
vt 0.999249 0.7506173
vt 0.9979737 0.7505522
vt 0.9979392 0.7816287
vt 0.9991108 0.8126655
vt 0.996686 0.7504865
vt 0.997829 0.8126945
vt 0.998991 0.8590147
vt 0.9966545 0.7816387
vt 0.997726 0.8590323
vt 0.9989925 0.8904253
vt 0.9953697 0.7816237
vt 0.9953992 0.750548
vt 0.996548 0.8127225
vt 0.9977267 0.8904385
vt 0.9990237 0.9215767
vt 0.9940845 0.7816038
vt 0.9941238 0.750611
vt 0.9939837 0.812654
vt 0.9952665 0.8126903
vt 0.993934 0.8590115
vt 0.995199 0.859031
vt 0.993931 0.8904275
vt 0.9964622 0.8590503
vt 0.9951955 0.8904397
vt 0.9939528 0.9215838
vt 0.99646 0.8904515
vt 0.9952202 0.921595
vt 0.994012 0.9525255
vt 0.9977552 0.9215922
vt 0.9990895 0.9525152
vt 0.9964877 0.921607
vt 0.9952812 0.9525433
vt 0.9978203 0.9525383
vt 0.9953927 0.9989502
vt 0.9941155 0.9988355
vt 0.996687 0.9990647
vt 0.9965507 0.952559
vt 0.9979802 0.9989437
vt 0.999257 0.9988205
vt 0.970758 0.7791498
vt 0.9437692 0.7544145
vt 0.9151043 0.7974975
vt 0.9453782 0.815738
vt 0.9019858 0.837456
vt 0.9355775 0.8470607
vt 0.8983272 0.8742462
vt 0.932944 0.8749948
vt 0.902018 0.9125245
vt 0.93686 0.9076058
vt 0.9162345 0.9532782
vt 0.9481313 0.9377192
vt 0.9662975 0.964485
vt 0.9398975 0.990002
vt 0.9683915 0.9724903
vt 0.9458442 0.9973568
vt 0.8981658 0.7528312
vt 0.89188 0.7599087
vt 0.920755 0.7778972
vt 0.9170393 0.7876843
vt 0.8681885 0.7966577
vt 0.900713 0.8117385
vt 0.8881378 0.8464853
vt 0.853645 0.8374007
vt 0.8845817 0.874797
vt 0.8496463 0.8758838
vt 0.8871353 0.9064345
vt 0.852601 0.9121725
vt 0.896071 0.9353182
vt 0.865574 0.9529017
vt 0.9209538 0.9718183
vt 0.8942423 0.9964395
vt 0.8416973 0.9885425
vt 0.8478 0.995778
vt 0.8710217 0.9712963
vt 0.8675563 0.9614183
vt 0.8189492 0.9512013
vt 0.8518485 0.9369565
vt 0.8401688 0.9019035
vt 0.8054532 0.9100965
vt 0.8373488 0.8735142
vt 0.8024535 0.8715197
vt 0.840728 0.8419573
vt 0.806356 0.8353177
vt 0.8504183 0.8133172
vt 0.8203915 0.7949423
vt 0.8762478 0.7774807
vt 0.8501883 0.7521693
vt 0.82302 0.7779793
vt 0.8002617 0.753304
vt 0.794378 0.7607087
vt 0.8209928 0.7860017
vt 0.771026 0.7976323
vt 0.8030547 0.812919
vt 0.7920418 0.8431245
vt 0.7571575 0.8385085
vt 0.7884138 0.8757672
vt 0.7538053 0.8768203
vt 0.791294 0.903681
vt 0.7577875 0.913577
vt 0.8013645 0.9349215
vt 0.7712482 0.9534205
vt 0.8270565 0.9712918
vt 0.8002807 0.9962575
vn -0.1617233 0 -0.9868361
vn 0.01192844 -0.9972796 0.07273932
vn -0.2907021 0 -0.9568136
vn 0.01656818 -0.9982065 0.05752726
vn 0.1617375 0 0.9868339
vn 0.02409484 -0.9989269 0.03955335
vn -0.5080115 0 -0.8613504
vn 0.03034759 -0.9990008 0.03280969
vn -0.6703001 0 -0.7420902
vn 0.05451087 -0.9979613 0.03319541
vn -0.8296909 0 -0.5582231
vn 0.05210112 -0.9984927 0.01725336
vn -0.9459502 0 -0.3243119
vn 0.03614666 -0.9993415 0.003147084
vn -0.9919695 0 -0.1264774
vn 0.02161783 -0.9997659 0.0008187898
vn -0.9988284 0 -0.04839342
vn 0.9988501 0 0.04794367
vn 0.9915832 0 0.1294715
vn 0.9451824 0 0.3265429
vn 0.8257903 0 0.5639773
vn 0.6694184 0 0.7428856
vn 0.03614664 0.9993415 0.003147071
vn 0.02161777 0.9997659 0.0008187829
vn 0.0521024 0.9984927 0.01725402
vn -0.9919695 0 -0.1264774
vn -0.9988284 0 -0.04839342
vn -0.9459502 0 -0.3243119
vn -0.8296909 0 -0.5582231
vn 0.05451312 0.997961 0.03319708
vn -0.6703001 0 -0.7420902
vn 0.03034852 0.9990007 0.03281077
vn -0.5080115 0 -0.8613504
vn 0.02409498 0.9989268 0.03955373
vn -0.2907021 0 -0.9568136
vn 0.5068519 0 0.8620332
vn 0.0165683 0.9982065 0.05752758
vn 0.2924665 0 0.9562758
vn 0.01192848 0.9972796 0.07273959
vn -0.1617233 0 -0.9868361
vn 0.9919694 0 -0.1264781
vn 0.9988284 0 -0.04839408
vn -0.02161463 -0.9997661 0.0008186449
vn -0.03614844 -0.9993414 0.003147463
vn 0.9459498 0 -0.324313
vn -0.99885 0 0.04794433
vn -0.05210751 -0.9984924 0.01725574
vn 0.8296895 0 -0.5582252
vn -0.9915829 0 0.1294735
vn -0.05451022 -0.9979614 0.03319349
vn 0.6703004 0 -0.7420898
vn -0.03614846 0.9993414 0.00314746
vn -0.02161468 0.9997661 0.0008186416
vn -0.9451821 0 0.3265434
vn -0.03034292 -0.9990011 0.03280614
vn 0.5080111 0 -0.8613505
vn 0.9919694 0 -0.1264781
vn 0.9988284 0 -0.04839408
vn 0.9459498 0 -0.324313
vn -0.05210879 0.9984924 0.01725639
vn 0.8296895 0 -0.5582252
vn -0.05451251 0.9979612 0.03319517
vn 0.6703004 0 -0.7420898
vn -0.8257899 0 0.5639779
vn -0.03034391 0.999001 0.03280728
vn 0.5080111 0 -0.8613505
vn -0.6694192 0 0.7428848
vn -0.02409481 0.9989268 0.03955412
vn 0.2907025 0 -0.9568135
vn -0.02409465 -0.9989268 0.03955375
vn 0.2907025 0 -0.9568135
vn -0.5068515 0 0.8620334
vn -0.01656897 0.9982065 0.05752627
vn -0.01656886 -0.9982065 0.05752601
vn -0.01192797 0.9972799 0.07273639
vn 0.1617233 0 -0.9868362
vn -0.1617374 0 0.9868339
vn -0.2924661 0 0.9562759
vn -0.01192792 -0.9972799 0.07273611
vn 0.1617233 0 -0.9868362
vn -0.01238332 -0.9992808 -0.03584172
vn -0.01238332 -0.9992808 -0.03584171
vn -0.014684 -0.9997372 -0.01760644
vn -0.0149704 -0.9997703 -0.01533316
vn -0.007946968 -0.9998711 0.01394888
vn -0.006957861 -0.999862 0.0150909
vn 0.01230085 -0.9995043 0.02898052
vn 0.01263637 -0.9994971 0.02908547
vn 0.03551671 -0.99902 0.02641441
vn 0.03717585 -0.9989786 0.0256836
vn 0.04707623 -0.9987826 0.01473525
vn 0.04700197 -0.9987879 0.01460845
vn 0.01755398 -0.9967892 0.07812341
vn 0.007801258 -0.9946174 0.1033219
vn -0.02478932 -0.9820718 0.18687
vn -0.02478932 -0.9820718 0.18687
vn -0.06281209 -0.9922696 -0.1070308
vn -0.05091811 -0.9970638 -0.057193
vn -0.06281209 -0.9922696 -0.1070308
vn -0.04663466 -0.9981369 -0.03934495
vn -0.03346998 -0.9993919 0.009775099
vn -0.03361724 -0.9993901 0.009449775
vn -0.01621051 -0.9996684 0.02000619
vn -0.01665669 -0.9996637 0.01987408
vn -0.00587748 -0.9999005 0.01283138
vn -0.006139385 -0.9999082 0.01207555
vn -0.004571544 -0.999983 0.003629785
vn -0.004726288 -0.9999826 0.003546195
vn 0.01180367 -0.999895 -0.00840701
vn 0.01296288 -0.9998661 -0.00998764
vn 0.02378515 -0.9994107 -0.02474573
vn 0.02378515 -0.9994107 -0.02474573
vn 0.05091776 0.9970638 0.05719314
vn 0.0628118 0.9922696 0.1070309
vn 0.0628118 0.9922696 0.1070309
vn 0.0466343 0.9981369 0.03934512
vn 0.03346969 0.9993919 -0.009775018
vn 0.03361693 0.9993901 -0.009449687
vn 0.01621043 0.9996684 -0.02000633
vn 0.0166566 0.9996637 -0.01987421
vn 0.00587759 0.9999005 -0.0128315
vn 0.006139501 0.9999082 -0.01207566
vn 0.004571648 0.999983 -0.003629797
vn 0.004726395 0.9999826 -0.003546207
vn -0.01180369 0.999895 0.008407146
vn -0.0129629 0.9998661 0.009987792
vn -0.02378519 0.9994107 0.02474602
vn -0.02378519 0.9994107 0.02474602
vn 0.02478918 0.9820717 -0.1868707
vn 0.02478918 0.9820717 -0.1868707
vn -0.007801439 0.9946174 -0.1033221
vn -0.01755417 0.9967892 -0.07812345
vn -0.04707633 0.9987826 -0.01473506
vn -0.04700208 0.9987879 -0.01460826
vn -0.03717576 0.9989786 -0.0256838
vn -0.03551661 0.99902 -0.02641463
vn -0.01263638 0.9994971 -0.0290857
vn -0.01230088 0.9995043 -0.02898074
vn 0.006957745 0.999862 -0.01509092
vn 0.007946864 0.9998711 -0.01394889
vn 0.01497036 0.9997703 0.01533324
vn 0.01468395 0.9997372 0.01760652
vn 0.01238324 0.9992808 0.03584187
vn 0.01238324 0.9992808 0.03584187
g gate-regional-04-lod2_0
f 3/3/3 2/2/2 1/1/1
f 2/2/2 3/3/3 4/4/4
f 5/5/5 2/2/2 4/4/4
f 6/6/6 4/4/4 3/3/3
f 3/3/3 7/7/7 6/6/6
f 8/8/8 6/6/6 7/7/7
f 7/7/7 9/9/9 8/8/8
f 10/10/10 8/8/8 9/9/9
f 9/9/9 11/11/11 10/10/10
f 12/12/12 10/10/10 11/11/11
f 11/11/11 13/13/13 12/12/12
f 14/14/14 12/12/12 13/13/13
f 13/13/13 15/15/15 14/14/14
f 16/16/16 14/14/14 15/15/15
f 15/15/15 17/17/17 16/16/16
f 14/14/14 16/16/16 18/18/18
f 12/12/12 14/14/14 19/19/19
f 18/18/18 19/19/19 14/14/14
f 10/10/10 12/12/12 20/20/20
f 19/19/19 20/20/20 12/12/12
f 8/8/8 10/10/10 21/21/21
f 20/20/20 21/21/21 10/10/10
f 6/6/6 8/8/8 22/22/22
f 21/21/21 22/22/22 8/8/8
f 18/18/18 23/23/23 19/19/19
f 18/18/18 24/24/24 23/23/23
f 19/19/19 25/25/25 20/20/20
f 19/19/19 23/23/23 25/25/25
f 24/24/24 26/26/26 23/23/23
f 24/24/24 27/27/27 26/26/26
f 23/23/23 26/26/26 28/28/28
f 23/23/23 28/28/28 25/25/25
f 29/29/29 25/25/25 28/28/28
f 30/30/30 20/20/20 25/25/25
f 25/25/25 29/29/29 30/30/30
f 20/20/20 30/30/30 21/21/21
f 31/31/31 30/30/30 29/29/29
f 32/32/32 21/21/21 30/30/30
f 30/30/30 31/31/31 32/32/32
f 21/21/21 32/32/32 22/22/22
f 33/33/33 32/32/32 31/31/31
f 32/32/32 33/33/33 34/34/34
f 34/34/34 22/22/22 32/32/32
f 35/35/35 34/34/34 33/33/33
f 22/22/22 34/34/34 36/36/36
f 22/22/22 36/36/36 6/6/6
f 4/4/4 6/6/6 36/36/36
f 35/35/35 37/37/37 34/34/34
f 37/37/37 36/36/36 34/34/34
f 36/36/36 38/38/38 4/4/4
f 37/37/37 38/38/38 36/36/36
f 4/4/4 38/38/38 5/5/5
f 5/5/5 38/38/38 37/37/37
f 37/37/37 39/39/39 5/5/5
f 37/37/37 35/35/35 39/39/39
f 40/40/40 39/39/39 35/35/35
f 43/43/43 42/42/42 41/41/41
f 43/43/43 41/41/41 44/44/44
f 44/44/44 41/41/41 45/45/45
f 46/46/46 43/43/43 44/44/44
f 44/44/44 45/45/45 47/47/47
f 47/47/47 45/45/45 48/48/48
f 44/44/44 49/49/49 46/46/46
f 49/49/49 44/44/44 47/47/47
f 47/47/47 48/48/48 50/50/50
f 50/50/50 48/48/48 51/51/51
f 46/46/46 49/49/49 52/52/52
f 52/52/52 53/53/53 46/46/46
f 49/49/49 47/47/47 54/54/54
f 54/54/54 47/47/47 50/50/50
f 51/51/51 55/55/55 50/50/50
f 55/55/55 51/51/51 56/56/56
f 53/53/53 52/52/52 57/57/57
f 57/57/57 58/58/58 53/53/53
f 59/59/59 57/57/57 52/52/52
f 60/60/60 52/52/52 49/49/49
f 52/52/52 60/60/60 59/59/59
f 49/49/49 54/54/54 60/60/60
f 61/61/61 59/59/59 60/60/60
f 60/60/60 62/62/62 61/61/61
f 62/62/62 60/60/60 54/54/54
f 63/63/63 61/61/61 62/62/62
f 54/54/54 50/50/50 64/64/64
f 54/54/54 64/64/64 62/62/62
f 64/64/64 50/50/50 55/55/55
f 62/62/62 65/65/65 63/63/63
f 65/65/65 62/62/62 64/64/64
f 66/66/66 63/63/63 65/65/65
f 55/55/55 67/67/67 64/64/64
f 64/64/64 67/67/67 65/65/65
f 65/65/65 68/68/68 66/66/66
f 68/68/68 65/65/65 67/67/67
f 69/69/69 66/66/66 68/68/68
f 67/67/67 55/55/55 70/70/70
f 56/56/56 70/70/70 55/55/55
f 70/70/70 56/56/56 71/71/71
f 67/67/67 72/72/72 68/68/68
f 70/70/70 72/72/72 67/67/67
f 68/68/68 73/73/73 69/69/69
f 73/73/73 68/68/68 72/72/72
f 71/71/71 74/74/74 70/70/70
f 72/72/72 70/70/70 74/74/74
f 75/75/75 69/69/69 73/73/73
f 69/69/69 75/75/75 76/76/76
f 77/77/77 75/75/75 73/73/73
f 72/72/72 78/78/78 73/73/73
f 73/73/73 78/78/78 77/77/77
f 74/74/74 78/78/78 72/72/72
f 77/77/77 78/78/78 74/74/74
f 74/74/74 79/79/79 77/77/77
f 79/79/79 74/74/74 71/71/71
f 71/71/71 80/80/80 79/79/79
f 83/83/83 82/82/82 81/81/81
f 81/81/81 84/84/84 83/83/83
f 85/85/85 83/83/83 84/84/84
f 84/84/84 86/86/86 85/85/85
f 87/87/87 85/85/85 86/86/86
f 86/86/86 88/88/88 87/87/87
f 89/89/89 87/87/87 88/88/88
f 88/88/88 90/90/90 89/89/89
f 91/91/91 89/89/89 90/90/90
f 90/90/90 92/92/92 91/91/91
f 92/92/92 93/93/93 91/91/91
f 94/94/94 91/91/91 93/93/93
f 94/94/94 93/93/93 95/95/95
f 95/95/95 96/96/96 94/94/94
f 99/99/99 98/98/98 97/97/97
f 98/98/98 99/99/99 100/100/100
f 101/101/101 98/98/98 100/100/100
f 100/100/100 102/102/102 101/101/101
f 101/101/101 102/102/102 103/103/103
f 104/104/104 101/101/101 103/103/103
f 105/105/105 104/104/104 103/103/103
f 106/106/106 104/104/104 105/105/105
f 105/105/105 107/107/107 106/106/106
f 108/108/108 106/106/106 107/107/107
f 107/107/107 109/109/109 108/108/108
f 109/109/109 110/110/110 108/108/108
f 110/110/110 109/109/109 111/111/111
f 111/111/111 112/112/112 110/110/110
f 115/115/115 114/114/114 113/113/113
f 113/113/113 116/116/116 115/115/115
f 116/116/116 113/113/113 117/117/117
f 117/117/117 118/118/118 116/116/116
f 119/119/119 118/118/118 117/117/117
f 117/117/117 120/120/120 119/119/119
f 121/121/121 119/119/119 120/120/120
f 120/120/120 122/122/122 121/121/121
f 123/123/123 121/121/121 122/122/122
f 122/122/122 124/124/124 123/123/123
f 125/125/125 123/123/123 124/124/124
f 124/124/124 126/126/126 125/125/125
f 127/127/127 125/125/125 126/126/126
f 126/126/126 128/128/128 127/127/127
f 131/131/131 130/130/130 129/129/129
f 131/131/131 129/129/129 132/132/132
f 133/133/133 131/131/131 132/132/132
f 132/132/132 134/134/134 133/133/133
f 133/133/133 134/134/134 135/135/135
f 135/135/135 136/136/136 133/133/133
f 136/136/136 135/135/135 137/137/137
f 137/137/137 138/138/138 136/136/136
f 137/137/137 139/139/139 138/138/138
f 140/140/140 138/138/138 139/139/139
f 141/141/141 140/140/140 139/139/139
f 141/141/141 142/142/142 140/140/140
f 143/143/143 142/142/142 141/141/141
f 142/142/142 143/143/143 144/144/144
