g gate-neon-09-trigger
v 1.219025 0.06249983 1.215615
v -1.219023 -0.06250019 1.215615
v -1.219023 0.06249983 1.215615
v 1.219025 -0.06250019 1.215615
v -1.219025 -0.06249971 -1.215615
v -1.219023 0.06249983 1.215615
v -1.219023 -0.06250019 1.215615
v -1.219025 0.06250028 -1.215615
v 1.219022 -0.06249971 -1.215615
v -1.219025 0.06250028 -1.215615
v -1.219025 -0.06249971 -1.215615
v 1.219022 0.06250028 -1.215615
v 1.219025 0.06249983 1.215615
v 1.219022 0.06250028 -1.215615
v 1.219022 -0.06249971 -1.215615
v 1.219025 -0.06250019 1.215615
v -1.219023 0.06249983 1.215615
v -1.219025 0.06250028 -1.215615
v 1.219022 0.06250028 -1.215615
v 1.219025 0.06249983 1.215615
v -1.219023 -0.06250019 1.215615
v 1.219025 -0.06250019 1.215615
v 1.219022 -0.06249971 -1.215615
v -1.219025 -0.06249971 -1.215615
vt 0.9722222 0
vt 1.027778 1
vt 1.027778 0
vt 0.9722222 1
vt 0.4722221 1
vt 0.02777781 0
vt 0.02777781 1
vt 0.4722221 0
vt 0.5277777 1
vt 0.4722221 0
vt 0.4722221 1
vt 0.5277777 0
vt 0.9722222 0
vt 0.5277777 0
vt 0.5277777 1
vt 0.9722222 1
vt 0.007596135 0.4131758
vt 0.9924039 0.4131757
vt 0.9924039 0.5868239
vt 0.007596105 0.586824
vt 0.007596135 0.4131758
vt 0.007596105 0.586824
vt 0.9924039 0.5868239
vt 0.9924039 0.4131757
vn 0 0 1
vn 0 0 1
vn 0 0 1
vn 0 0 1
vn -1 0 0
vn -1 0 0
vn -1 0 0
vn -1 0 0
vn 0 0 -1
vn 0 0 -1
vn 0 0 -1
vn 0 0 -1
vn 1 0 0
vn 1 0 0
vn 1 0 0
vn 1 0 0
vn 0 1 0
vn 0 1 0
vn 0 1 0
vn 0 1 0
vn 0 -1 0
vn 0 -1 0
vn 0 -1 0
vn 0 -1 0
g gate-neon-09-trigger_0
f 3/3/3 2/2/2 1/1/1
f 2/2/2 4/4/4 1/1/1
f 7/7/7 6/6/6 5/5/5
f 8/8/8 5/5/5 6/6/6
f 11/11/11 10/10/10 9/9/9
f 10/10/10 12/12/12 9/9/9
f 15/15/15 14/14/14 13/13/13
f 13/13/13 16/16/16 15/15/15
f 19/19/19 18/18/18 17/17/17
f 17/17/17 20/20/20 19/19/19
f 23/23/23 22/22/22 21/21/21
f 21/21/21 24/24/24 23/23/23
