g gate-08-lod2
v 0.08665468 -0.1118084 2.05088
v -0.03276875 -0.04355243 2.12016
v -0.03276875 0.04355156 2.12016
v 0.08665468 0.1118076 2.05088
v 0.1158719 -0.03680041 2.03392
v 0.1158719 0.03679958 2.03392
v 0 0.139616 2.884914E-08
v 0.3770234 0.35856 7.408999E-08
v -0.02601719 0.3585598 0.3552001
v -0.2367359 0.139616 0.241248
v 0 -0.139616 -2.884914E-08
v -0.4024656 0.1396159 0.410112
v -0.2367359 -0.139616 0.241248
v -0.02601719 -0.3585601 0.3551999
v -0.429025 0.3585598 0.7104319
v 0.3770234 -0.35856 -7.408999E-08
v -0.4024656 -0.1396161 0.410112
v -0.6835843 0.1396159 0.6965759
v -0.03276875 0.04355156 2.12016
v 0.08665468 0.1118076 2.05088
v -0.6835843 -0.1396161 0.6965759
v -0.03276875 -0.04355243 2.12016
v -0.429025 -0.3585601 0.7104319
v 0.08665468 -0.1118084 2.05088
v 0.07942344 -0.06032037 1.770592
v 0.1158719 -0.03680041 2.03392
v -0.174464 -0.1396161 0.7242559
v 0.07942344 0.06031963 1.770592
v 0.1744312 -0.1082241 0.4520959
v -0.174464 0.1396158 0.7242559
v 0.3400312 -0.09446405 0.321664
v 0.7540156 -0.056064 -1.158462E-08
v 0.3400312 0.09446392 0.321664
v 0.7540156 0.056064 1.158462E-08
v 0.3770234 0.35856 7.408999E-08
v -0.02601719 0.3585598 0.3552001
v 0.1744312 0.1082239 0.452096
v -0.429025 0.3585598 0.7104319
v 0.08665468 0.1118076 2.05088
v 0.1158719 0.03679958 2.03392
v 0.1744312 -0.1082241 0.4520959
v 0.1744312 0.1082239 0.452096
v 0.07942344 0.06031963 1.770592
v 0.07942344 -0.06032037 1.770592
v 0.3400312 -0.09446405 0.321664
v 0.1158719 -0.03680041 2.03392
v 0.1158719 0.03679958 2.03392
v 0.3400312 0.09446392 0.321664
v 0.07942344 0.06031963 1.770592
v 0.1744312 0.1082239 0.452096
v -0.2367359 0.139616 0.241248
v -0.2368328 0.139616 2.884914E-08
v -0.2368328 -0.139616 -2.884914E-08
v -0.2367359 -0.139616 0.241248
v -0.630625 -0.139616 -2.884914E-08
v -0.4024656 -0.1396161 0.410112
v -0.4024656 0.1396159 0.410112
v -0.630625 0.139616 2.884914E-08
v -0.2367359 0.139616 0.241248
v -0.2368328 0.139616 2.884914E-08
v -0.6897297 -1.446384E-07 0.696288
v -0.4051531 0.01599992 0.384672
v -0.3960015 -8.295952E-08 0.397792
v -0.7097625 0.01599986 0.6933119
v -0.4143375 -7.753751E-08 0.371552
v -0.06109062 0.01599956 2.108032
v -0.04668906 -4.349018E-07 2.101024
v -0.07545781 -4.378046E-07 2.115072
v -0.7297937 -1.434019E-07 0.690304
v -0.7097625 -0.01600014 0.6933119
v -0.4051531 -0.01600008 0.384672
v -0.06109062 -0.01600043 2.108032
v -0.6897297 -1.446384E-07 0.696288
v -0.3960015 -8.295952E-08 0.397792
v -0.04668906 -4.349018E-07 2.101024
vt 0.6187598 0.3358112
vt 0.6066486 0.3599268
vt 0.5913874 0.3598328
vt 0.5795761 0.3355649
vt 0.6056537 0.3298079
vt 0.5927563 0.3297261
vt 0.9282905 0.07511907
vt 0.9942687 0.03267225
vt 0.9886295 0.1294776
vt 0.9281336 0.1332124
vt 0.8721913 0.0753263
vt 0.9271138 0.1721088
vt 0.8758914 0.1327581
vt 0.8153188 0.1305553
vt 0.9724814 0.2526795
vt 0.8009862 0.03835886
vt 0.8781533 0.1696008
vt 0.9242842 0.2395149
vt 0.8398123 0.4911906
vt 0.8696697 0.4917497
vt 0.8782604 0.2292805
vt 0.8184792 0.4882138
vt 0.8294517 0.2198414
vt 0.7914004 0.4687921
vt 0.7789871 0.4148787
vt 0.7765022 0.4641411
vt 0.7746518 0.2177749
vt 0.7631876 0.4141543
vt 0.7560261 0.1339903
vt 0.7196894 0.2244955
vt 0.7474115 0.09477946
vt 0.7241424 0.004336896
vt 0.7158294 0.1005755
vt 0.7072333 0.007787144
vt 0.6488718 0.06745765
vt 0.6647348 0.1582459
vt 0.7200006 0.1402069
vt 0.6618096 0.2400663
vt 0.762502 0.4647192
vt 0.7761056 0.4594288
vt 0.6037022 0.2830918
vt 0.6412632 0.2778019
vt 0.6006383 0.04960283
vt 0.5797097 0.05255011
vt 0.5789333 0.3105802
vt 0.5650827 0.008136193
vt 0.5521767 0.00829299
vt 0.5458436 0.3109887
vt 0.5386533 0.053052
vt 0.520404 0.2841185
vt 0.6225296 0.299886
vt 0.6595054 0.279395
vt 0.6832197 0.3221867
vt 0.6462491 0.3426855
vt 0.7167147 0.3825029
vt 0.6344781 0.3824487
vt 0.6344551 0.4313893
vt 0.7166901 0.4314169
vt 0.6461864 0.4711621
vt 0.6831316 0.4917037
vt 0.5252235 0.8195945
vt 0.5269851 0.7949952
vt 0.5255669 0.7956357
vt 0.526619 0.8196262
vt 0.5284854 0.7943548
vt 0.5270341 0.9080298
vt 0.5256336 0.9075204
vt 0.5284591 0.9085478
vt 0.5279616 0.8196587
vt 0.5293323 0.8196459
vt 0.5299601 0.7950204
vt 0.5298814 0.9080486
vt 0.530754 0.819634
vt 0.5313506 0.7956929
vt 0.5312814 0.907547
vn 0.5018598 0 0.864949
vn 0.5017967 0 0.8649856
vn 0.5017967 0 0.8649856
vn 0.5018598 0 0.864949
vn 0.5020253 0 0.8648529
vn 0.5020253 0 0.8648529
vn -0.6149622 0.4740361 -0.6301678
vn 0.3122777 0.8767487 0.365779
vn 0.02650555 0.9979075 0.05897578
vn -0.6000755 0.5268463 -0.6019488
vn -0.6149622 -0.4740357 -0.630168
vn -0.6106973 0.4901931 -0.6218997
vn -0.6000754 -0.526846 -0.601949
vn 0.02650538 -0.9979075 0.05897524
vn -0.1757643 0.9839894 -0.02952453
vn 0.3122777 -0.8767489 0.3657787
vn -0.6106976 -0.4901929 -0.6218999
vn -0.9005131 0.4073096 -0.1522335
vn -0.8164235 0.4033158 0.4132662
vn 0.2032099 0.9623 0.1807887
vn -0.9005132 -0.4073095 -0.1522336
vn -0.8164235 -0.403316 0.413266
vn -0.1757644 -0.9839894 -0.02952485
vn 0.2032098 -0.9623 0.1807883
vn 0.8540515 -0.4919211 -0.1691435
vn 0.9203943 -0.3796507 -0.09348621
vn 0.8170702 -0.4737654 0.3285462
vn 0.8540516 0.4919211 -0.1691434
vn 0.5770741 -0.4388301 0.688777
vn 0.8170702 0.4737653 0.3285465
vn 0.5729626 -0.453449 0.6827136
vn 0.6106279 -0.2284791 0.7582419
vn 0.5729626 0.4534488 0.6827137
vn 0.6106279 0.2284789 0.758242
vn 0.3122777 0.8767487 0.365779
vn 0.02650555 0.9979075 0.05897578
vn 0.577074 0.43883 0.688777
vn -0.1757643 0.9839894 -0.02952453
vn 0.2032099 0.9623 0.1807887
vn 0.9203943 0.3796507 -0.09348607
vn -0.4624209 -0.8866583 0.00201895
vn -0.462421 0.8866583 0.002019305
vn -0.3742113 0.9272895 0.009994962
vn -0.3742112 -0.9272897 0.009994608
vn 0.8976049 -0.4210265 0.1305456
vn 0.9778732 -0.161463 0.1330172
vn 0.9778732 0.1614629 0.1330173
vn 0.8976048 0.4210266 0.1305458
vn -0.3742113 0.9272895 0.009994962
vn -0.462421 0.8866583 0.002019305
vn 0.5532419 0.8330207 -0.0002220286
vn 0.7070164 0.7071971 -0.0002837969
vn 0.7070164 -0.7071971 -0.0002840632
vn 0.5532418 -0.8330207 -0.0002223423
vn -0.7237024 -0.5604922 0.4026204
vn -0.6766475 -0.6328028 0.3764421
vn -0.6766475 0.6328028 0.3764423
vn -0.7237024 0.560492 0.4026206
vn 0.5532419 0.8330207 -0.0002220286
vn 0.7070164 0.7071971 -0.0002837969
vn 0.9828264 -2.540359E-07 0.1845324
vn -0.05715589 0.9967136 -0.05740272
vn 0.7122487 -6.45154E-07 0.7019271
vn -0.2266204 0.972815 -0.04768928
vn -0.7112474 -1.754555E-07 -0.7029418
vn -0.009805859 0.9999403 0.004825402
vn 0.9091305 0 -0.4165113
vn -0.9088737 -1.101673E-07 0.4170715
vn -0.9860007 0 -0.1667412
vn -0.2266204 -0.9728149 -0.04768971
vn -0.05715602 -0.9967136 -0.05740331
vn -0.009805862 -0.9999403 0.004824967
vn 0.9828264 -2.540359E-07 0.1845324
vn 0.7122487 -6.45154E-07 0.7019271
vn 0.9091305 0 -0.4165113
g gate-08-lod2_0
f 3/3/3 2/2/2 1/1/1
f 1/1/1 4/4/4 3/3/3
f 4/4/4 1/1/1 5/5/5
f 5/5/5 6/6/6 4/4/4
f 9/9/9 8/8/8 7/7/7
f 7/7/7 10/10/10 9/9/9
f 10/10/10 7/7/7 11/11/11
f 9/9/9 10/10/10 12/12/12
f 11/11/11 13/13/13 10/10/10
f 14/14/14 13/13/13 11/11/11
f 15/15/15 9/9/9 12/12/12
f 11/11/11 16/16/16 14/14/14
f 17/17/17 13/13/13 14/14/14
f 18/18/18 15/15/15 12/12/12
f 18/18/18 12/12/12 17/17/17
f 15/15/15 18/18/18 19/19/19
f 19/19/19 20/20/20 15/15/15
f 18/18/18 21/21/21 19/19/19
f 17/17/17 21/21/21 18/18/18
f 22/22/22 19/19/19 21/21/21
f 17/17/17 23/23/23 21/21/21
f 22/22/22 21/21/21 23/23/23
f 17/17/17 14/14/14 23/23/23
f 23/23/23 24/24/24 22/22/22
f 23/23/23 25/25/25 24/24/24
f 26/26/26 24/24/24 25/25/25
f 25/25/25 23/23/23 27/27/27
f 27/27/27 23/23/23 14/14/14
f 28/28/28 25/25/25 27/27/27
f 14/14/14 29/29/29 27/27/27
f 30/30/30 27/27/27 29/29/29
f 27/27/27 30/30/30 28/28/28
f 29/29/29 14/14/14 31/31/31
f 16/16/16 31/31/31 14/14/14
f 16/16/16 32/32/32 31/31/31
f 33/33/33 31/31/31 32/32/32
f 32/32/32 34/34/34 33/33/33
f 33/33/33 34/34/34 35/35/35
f 35/35/35 36/36/36 33/33/33
f 37/37/37 33/33/33 36/36/36
f 29/29/29 37/37/37 30/30/30
f 30/30/30 37/37/37 36/36/36
f 36/36/36 38/38/38 30/30/30
f 28/28/28 30/30/30 38/38/38
f 39/39/39 28/28/28 38/38/38
f 40/40/40 28/28/28 39/39/39
f 43/43/43 42/42/42 41/41/41
f 41/41/41 44/44/44 43/43/43
f 44/44/44 41/41/41 45/45/45
f 46/46/46 44/44/44 45/45/45
f 45/45/45 47/47/47 46/46/46
f 45/45/45 48/48/48 47/47/47
f 48/48/48 49/49/49 47/47/47
f 48/48/48 50/50/50 49/49/49
f 53/53/53 52/52/52 51/51/51
f 51/51/51 54/54/54 53/53/53
f 55/55/55 53/53/53 54/54/54
f 55/55/55 54/54/54 56/56/56
f 55/55/55 56/56/56 57/57/57
f 57/57/57 58/58/58 55/55/55
f 58/58/58 57/57/57 59/59/59
f 59/59/59 60/60/60 58/58/58
f 63/63/63 62/62/62 61/61/61
f 64/64/64 61/61/61 62/62/62
f 64/64/64 62/62/62 65/65/65
f 66/66/66 61/61/61 64/64/64
f 61/61/61 66/66/66 67/67/67
f 68/68/68 66/66/66 64/64/64
f 69/69/69 64/64/64 65/65/65
f 64/64/64 69/69/69 68/68/68
f 65/65/65 70/70/70 69/69/69
f 68/68/68 69/69/69 70/70/70
f 70/70/70 65/65/65 71/71/71
f 70/70/70 72/72/72 68/68/68
f 73/73/73 70/70/70 71/71/71
f 70/70/70 73/73/73 72/72/72
f 71/71/71 74/74/74 73/73/73
f 75/75/75 72/72/72 73/73/73
