g gate-drl-47-eagle-01-lod2
v 0.3815311 -1.431863 0.4046333
v -0.4293024 -1.479263 0.4046333
v -0.3819028 -1.431863 0.4046333
v 0.428931 -1.479263 0.4046333
v 0.3815309 1.431071 0.4046333
v 0.4289308 1.478471 0.4046333
v -0.08203561 1.486804 0.4046333
v -0.08193568 1.439404 0.4046333
v -0.3819028 -1.431863 0.4046333
v -0.4293024 -1.479263 0.4046333
v -0.4376357 1.131204 0.4046333
v -0.3902368 1.131104 0.4046333
v -0.3520359 1.403454 0.4046333
v -0.3194357 1.370354 0.4046333
v -0.08203561 1.486804 0.4046333
v -0.08193568 1.439404 0.4046333
v 0.3815311 -1.431863 0.4046333
v -0.3819028 -1.431863 0.4046333
v -0.3819028 -1.431863 0.3765335
v 0.3815311 -1.431863 0.3765335
v -0.3819028 -1.431863 0.4046333
v -0.3902368 1.131104 0.3765335
v -0.3819028 -1.431863 0.3765335
v -0.3902368 1.131104 0.4046333
v -0.3194357 1.370354 0.3765335
v -0.3194357 1.370354 0.4046333
v -0.08193568 1.439404 0.3765335
v -0.08193568 1.439404 0.4046333
v 0.3815309 1.431071 0.3765335
v 0.3815309 1.431071 0.4046333
v 0.3815309 1.431071 0.4046333
v 0.3815311 -1.431863 0.4046333
v 0.3815311 -1.431863 0.3765335
v 0.3815309 1.431071 0.3765335
v 0.428931 -1.479263 0.4046333
v 0.4289308 1.478471 0.4046333
v 0.4289308 1.478471 -0.4045665
v 0.428931 -1.479263 -0.4045665
v -0.4293024 -1.479263 0.4046333
v 0.428931 -1.479263 0.4046333
v 0.428931 -1.479263 -0.4045665
v -0.4293024 -1.479263 -0.4045665
v 0.4289308 1.478471 0.4046333
v -0.08203561 1.486804 -0.4045665
v 0.4289308 1.478471 -0.4045665
v -0.08203561 1.486804 0.4046333
v -0.3520359 1.403454 -0.4045665
v -0.3520359 1.403454 0.4046333
v -0.4376357 1.131204 0.4046333
v -0.4376357 1.131204 -0.4045665
v -0.4293024 -1.479263 -0.4045665
v -0.4293024 -1.479263 0.4046333
v -0.4293024 -1.479263 -0.4045665
v 0.3815311 -1.431863 -0.4045665
v -0.3819028 -1.431863 -0.4045665
v 0.428931 -1.479263 -0.4045665
v 0.3815309 1.431071 -0.4045665
v 0.4289308 1.478471 -0.4045665
v -0.08203561 1.486804 -0.4045665
v -0.08193568 1.439404 -0.4045665
v -0.4376357 1.131204 -0.4045665
v -0.4293024 -1.479263 -0.4045665
v -0.3819028 -1.431863 -0.4045665
v -0.3902368 1.131104 -0.4045665
v -0.3194357 1.370354 -0.4045665
v -0.3520359 1.403454 -0.4045665
v -0.08193568 1.439404 -0.4045665
v -0.08203561 1.486804 -0.4045665
v 0.3815311 -1.431863 -0.4045665
v 0.3815311 -1.431863 -0.3764668
v -0.3819028 -1.431863 -0.3764668
v -0.3819028 -1.431863 -0.4045665
v -0.3819028 -1.431863 -0.4045665
v -0.3819028 -1.431863 -0.3764668
v -0.3902368 1.131104 -0.3764668
v -0.3902368 1.131104 -0.4045665
v -0.3194357 1.370354 -0.4045665
v -0.3194357 1.370354 -0.3764668
v -0.08193568 1.439404 -0.3764668
v -0.08193568 1.439404 -0.4045665
v 0.3815309 1.431071 -0.3764668
v 0.3815309 1.431071 -0.4045665
v 0.3815309 1.431071 -0.4045665
v 0.3815309 1.431071 -0.3764668
v 0.3815311 -1.431863 -0.3764668
v 0.3815311 -1.431863 -0.4045665
v 0.3815309 1.431071 0.3765335
v 0.3815311 -1.431863 0.3765335
v -0.3819028 -1.431863 0.3765335
v -0.3902368 1.131104 0.3765335
v -0.3194357 1.370354 0.3765335
v -0.08193568 1.439404 0.3765335
v -0.3819028 -1.431863 -0.3764668
v 0.3815311 -1.431863 -0.3764668
v 0.3815309 1.431071 -0.3764668
v -0.3902368 1.131104 -0.3764668
v -0.08193568 1.439404 -0.3764668
v -0.3194357 1.370354 -0.3764668
vt 0.7780387 0.9202363
vt 0.87731 0.927636
vt 0.871299 0.921151
vt 0.7717831 0.926485
vt 0.7779567 0.5645324
vt 0.7716857 0.5582817
vt 0.835422 0.557068
vt 0.835418 0.563648
vt 0.4692203 0.3860817
vt 0.47548 0.3923537
vt 0.476586 0.067509
vt 0.470028 0.067513
vt 0.465827 0.033424
vt 0.461328 0.0379905
vt 0.432019 0.022943
vt 0.432016 0.029523
vt 0.217548 0.915954
vt 0.1235385 0.915954
vt 0.1235385 0.919448
vt 0.217548 0.919448
vt 0.5374839 0.06580857
vt 0.5409769 0.384088
vt 0.5409769 0.06580857
vt 0.5374839 0.384088
vt 0.5409769 0.4159825
vt 0.5374839 0.4159825
vt 0.5409769 0.447575
vt 0.5374839 0.447575
vt 0.5409769 0.5047466
vt 0.5374839 0.5047466
vt 0.6289015 0.941142
vt 0.9840189 0.941142
vt 0.9840189 0.937648
vt 0.6289015 0.937648
vt 0.760665 0.9249585
vt 0.760665 0.558052
vt 0.66003 0.558052
vt 0.66003 0.9249585
vt 0.005913 0.906168
vt 0.1117125 0.906168
vt 0.1117125 0.805533
vt 0.005913 0.805533
vt 0.767606 0.0847915
vt 0.868242 0.14787
vt 0.868242 0.0847915
vt 0.767606 0.14787
vt 0.868242 0.1840055
vt 0.767606 0.1840055
vt 0.767606 0.220533
vt 0.868242 0.220533
vt 0.868242 0.5447195
vt 0.767606 0.5447195
vt 0.87731 0.927636
vt 0.7780387 0.9202363
vt 0.871299 0.921151
vt 0.7717831 0.926485
vt 0.7779567 0.5645324
vt 0.7716857 0.5582817
vt 0.835422 0.557068
vt 0.835418 0.563648
vt 0.476586 0.067509
vt 0.47548 0.3923537
vt 0.4692203 0.3860817
vt 0.470028 0.067513
vt 0.461328 0.0379905
vt 0.465827 0.033424
vt 0.432016 0.029523
vt 0.432019 0.022943
vt 0.217548 0.915954
vt 0.217548 0.919448
vt 0.1235385 0.919448
vt 0.1235385 0.915954
vt 0.5374839 0.06580857
vt 0.5409769 0.06580857
vt 0.5409769 0.384088
vt 0.5374839 0.384088
vt 0.5374839 0.4159825
vt 0.5409769 0.4159825
vt 0.5409769 0.447575
vt 0.5374839 0.447575
vt 0.5409769 0.5047466
vt 0.5374839 0.5047466
vt 0.6289015 0.941142
vt 0.6289015 0.937648
vt 0.9840189 0.937648
vt 0.9840189 0.941142
vt 0.5083686 0.6055081
vt 0.5083671 0.9894013
vt 0.6107366 0.9894013
vt 0.6118561 0.645731
vt 0.6023622 0.6136484
vt 0.5705151 0.60439
vt 0.6107366 0.9894013
vt 0.5083671 0.9894013
vt 0.5083686 0.6055081
vt 0.6118561 0.645731
vt 0.5705151 0.60439
vt 0.6023622 0.6136484
vn 0 0 1
vn 0 0 1
vn 0 0 1
vn 0 0 1
vn 0 0 1
vn 0 0 1
vn 0 0 1
vn 0 0 1
vn 0 0 1
vn 0 0 1
vn 0 0 1
vn 0 0 1
vn 0 0 1
vn 0 0 1
vn 0 0 1
vn 0 0 1
vn 0 1 0
vn 0 1 0
vn 0 1 0
vn 0 1 0
vn 0.9999948 0.003251633 0
vn 0.9899019 -0.1417541 0
vn 0.9999948 0.003251633 0
vn 0.9899019 -0.1417541 0
vn 0.7054145 -0.708795 0
vn 0.7054145 -0.708795 0
vn 0.1320922 -0.9912374 0
vn 0.1320922 -0.9912374 0
vn -0.0179776 -0.9998384 0
vn -0.0179776 -0.9998384 0
vn -1 0 0
vn -1 0 0
vn -1 0 0
vn -1 0 0
vn 1 0 0
vn 1 0 0
vn 1 0 0
vn 1 0 0
vn 0 -1 0
vn 0 -1 0
vn 0 -1 0
vn 0 -1 0
vn 0.01630609 0.9998671 0
vn -0.1410854 0.9899975 0
vn 0.01630612 0.9998671 0
vn -0.1410854 0.9899975 0
vn -0.7052633 0.7089453 0
vn -0.7052633 0.7089453 0
vn -0.9886634 0.1501486 0
vn -0.9886634 0.1501486 0
vn -0.999995 -0.003192256 0
vn -0.999995 -0.003192256 0
vn 0 0 -1
vn 0 0 -1
vn 0 0 -1
vn 0 0 -1
vn 0 0 -1
vn 0 0 -1
vn 0 0 -1
vn 0 0 -1
vn 0 0 -1
vn 0 0 -1
vn 0 0 -1
vn 0 0 -1
vn 0 0 -1
vn 0 0 -1
vn 0 0 -1
vn 0 0 -1
vn 0 1 0
vn 0 1 0
vn 0 1 0
vn 0 1 0
vn 0.9999948 0.003251633 0
vn 0.9999948 0.003251633 0
vn 0.9899019 -0.1417541 0
vn 0.9899019 -0.1417541 0
vn 0.7054145 -0.708795 0
vn 0.7054145 -0.708795 0
vn 0.1320922 -0.9912374 0
vn 0.1320922 -0.9912374 0
vn -0.0179776 -0.9998384 0
vn -0.0179776 -0.9998384 0
vn -1 0 0
vn -1 0 0
vn -1 0 0
vn -1 0 0
vn 0 0 1
vn 0 0 1
vn 0 0 1
vn 0 0 1
vn 0 0 1
vn 0 0 1
vn 0 0 -1
vn 0 0 -1
vn 0 0 -1
vn 0 0 -1
vn 0 0 -1
vn 0 0 -1
g gate-drl-47-eagle-01-lod2_0
f 3/3/3 2/2/2 1/1/1
f 2/2/2 4/4/4 1/1/1
f 1/1/1 4/4/4 5/5/5
f 4/4/4 6/6/6 5/5/5
f 6/6/6 7/7/7 5/5/5
f 7/7/7 8/8/8 5/5/5
f 11/11/11 10/10/10 9/9/9
f 12/12/12 11/11/11 9/9/9
f 13/13/13 11/11/11 12/12/12
f 14/14/14 13/13/13 12/12/12
f 15/15/15 13/13/13 14/14/14
f 16/16/16 15/15/15 14/14/14
f 19/19/19 18/18/18 17/17/17
f 20/20/20 19/19/19 17/17/17
f 23/23/23 22/22/22 21/21/21
f 22/22/22 24/24/24 21/21/21
f 22/22/22 25/25/25 24/24/24
f 25/25/25 26/26/26 24/24/24
f 25/25/25 27/27/27 26/26/26
f 27/27/27 28/28/28 26/26/26
f 27/27/27 29/29/29 28/28/28
f 29/29/29 30/30/30 28/28/28
f 33/33/33 32/32/32 31/31/31
f 34/34/34 33/33/33 31/31/31
f 37/37/37 36/36/36 35/35/35
f 38/38/38 37/37/37 35/35/35
f 41/41/41 40/40/40 39/39/39
f 42/42/42 41/41/41 39/39/39
f 45/45/45 44/44/44 43/43/43
f 44/44/44 46/46/46 43/43/43
f 44/44/44 47/47/47 46/46/46
f 47/47/47 48/48/48 46/46/46
f 49/49/49 48/48/48 47/47/47
f 50/50/50 49/49/49 47/47/47
f 50/50/50 51/51/51 49/49/49
f 51/51/51 52/52/52 49/49/49
f 55/55/55 54/54/54 53/53/53
f 54/54/54 56/56/56 53/53/53
f 54/54/54 57/57/57 56/56/56
f 57/57/57 58/58/58 56/56/56
f 58/58/58 57/57/57 59/59/59
f 57/57/57 60/60/60 59/59/59
f 63/63/63 62/62/62 61/61/61
f 64/64/64 63/63/63 61/61/61
f 64/64/64 61/61/61 65/65/65
f 61/61/61 66/66/66 65/65/65
f 65/65/65 66/66/66 67/67/67
f 66/66/66 68/68/68 67/67/67
f 71/71/71 70/70/70 69/69/69
f 72/72/72 71/71/71 69/69/69
f 75/75/75 74/74/74 73/73/73
f 76/76/76 75/75/75 73/73/73
f 75/75/75 76/76/76 77/77/77
f 78/78/78 75/75/75 77/77/77
f 79/79/79 78/78/78 77/77/77
f 80/80/80 79/79/79 77/77/77
f 81/81/81 79/79/79 80/80/80
f 82/82/82 81/81/81 80/80/80
f 85/85/85 84/84/84 83/83/83
f 86/86/86 85/85/85 83/83/83
f 89/89/89 88/88/88 87/87/87
f 90/90/90 89/89/89 87/87/87
f 91/91/91 90/90/90 87/87/87
f 92/92/92 91/91/91 87/87/87
f 95/95/95 94/94/94 93/93/93
f 96/96/96 95/95/95 93/93/93
f 97/97/97 95/95/95 96/96/96
f 98/98/98 97/97/97 96/96/96
