g gate-other-03-lod2
v 0.4339754 -0.649142 0
v 1.706323 -0.6491445 0
v 1.706323 0.6491448 2.384186E-07
v 0.4339754 0.6491426 0
v 0.4339764 0.6491423 0.2166541
v 1.706323 0.6491448 2.384186E-07
v 1.706323 0.6491445 0.2166541
v 0.4339754 0.6491426 0
v 0.4339764 -0.6491416 0.2166541
v 0.4339754 0.6491426 0
v 0.4339764 0.6491423 0.2166541
v 0.4339754 -0.649142 0
v 0.4339764 -0.6491416 0.2166541
v 1.706323 -0.6491442 0.2166538
v 1.706323 -0.6491445 0
v 0.4339754 -0.649142 0
v 1.706323 -0.6491442 0.2166538
v 1.706323 0.6491445 0.2166541
v 1.706323 0.6491448 2.384186E-07
v 1.706323 -0.6491445 0
v 0.8652412 0.2167518 0.2161942
v 0.8652402 -0.2164267 0.2161944
v 0.4339764 0.6491423 0.2166541
v 0.4339764 -0.6491416 0.2166541
v 1.272508 0.2167517 0.216604
v 0.8652412 0.2167518 0.2161942
v 1.706323 0.6491445 0.2166541
v 1.272507 -0.2164265 0.2166045
v 0.8652402 -0.2164267 0.2161944
v 1.706323 -0.6491442 0.2166538
v 2.058961 -0.2164279 3.245003
v 1.272507 -0.2164269 0.8245499
v 0.9338914 -0.2164272 1.290616
v 1.511066 -0.2164279 3.066981
v 4.967552E-08 -0.2164282 4.740925
v 4.967552E-08 -0.216428 4.164835
v -2.058961 -0.2164276 3.245003
v 4.967552E-08 -0.2164282 4.740925
v 4.967552E-08 -0.216428 4.164835
v -1.511066 -0.2164275 3.066981
v -1.272508 -0.2164268 0.8245494
v -0.9338908 -0.2164267 1.290616
v 0.9338914 -0.2164272 1.290616
v 1.272507 -0.2164269 0.8245499
v 0.8652685 -0.216427 0.824357
v -0.8652408 -0.2164271 0.8245494
v -0.9338908 -0.2164267 1.290616
v -1.272508 -0.2164268 0.8245494
v 0.8652685 -0.216427 0.824357
v 1.272507 -0.2164269 0.8245499
v 1.272507 -0.2164265 0.2166045
v 0.8652402 -0.2164267 0.2161944
v 2.058961 0.216752 3.245003
v 1.272508 0.2167516 0.8245497
v 1.272507 -0.2164269 0.8245499
v 2.058961 -0.2164279 3.245003
v 0.8652685 -0.216427 0.824357
v -0.8652312 0.2167517 0.8246131
v -0.8652408 -0.2164271 0.8245494
v 0.8652691 0.2167517 0.8243568
v 4.967552E-08 0.2167522 4.740925
v 2.058961 0.216752 3.245003
v 2.058961 -0.2164279 3.245003
v 4.967552E-08 -0.2164282 4.740925
v 1.272508 0.2167516 0.8245497
v 1.272508 0.2167517 0.216604
v 1.272507 -0.2164265 0.2166045
v 1.272507 -0.2164269 0.8245499
v 0.8652691 0.2167517 0.8243568
v 0.8652412 0.2167518 0.2161942
v 1.272508 0.2167517 0.216604
v 1.272508 0.2167516 0.8245497
v 0.8652685 -0.216427 0.824357
v 0.8652402 -0.2164267 0.2161944
v 0.8652691 0.2167517 0.8243568
v 0.8652412 0.2167518 0.2161942
v 1.511066 0.216752 3.066981
v 1.511066 -0.2164279 3.066981
v 0.9338914 -0.2164272 1.290616
v 0.9338914 0.2167518 1.290615
v 1.511066 -0.2164279 3.066981
v 1.511066 0.216752 3.066981
v 4.967552E-08 0.2167523 4.164835
v 4.967552E-08 -0.216428 4.164835
v -0.9338908 -0.2164267 1.290616
v -0.9338908 0.2167522 1.290615
v 0.9338914 0.2167518 1.290615
v 0.9338914 -0.2164272 1.290616
v 0.9338914 0.2167518 1.290615
v 1.272508 0.2167516 0.8245497
v 2.058961 0.216752 3.245003
v 1.511066 0.216752 3.066981
v 4.967552E-08 0.2167523 4.164835
v 4.967552E-08 0.2167522 4.740925
v 4.967552E-08 0.2167523 4.164835
v 4.967552E-08 0.2167522 4.740925
v -2.058961 0.2167529 3.245003
v -1.511067 0.2167528 3.066981
v -1.272509 0.216752 0.824549
v -0.9338908 0.2167522 1.290615
v -0.8652312 0.2167517 0.8246131
v -0.9338908 0.2167522 1.290615
v -1.272509 0.216752 0.824549
v 0.9338914 0.2167518 1.290615
v 0.8652691 0.2167517 0.8243568
v 1.272508 0.2167516 0.8245497
v -2.058961 0.2167529 3.245003
v -2.058961 -0.2164276 3.245003
v -1.272508 -0.2164268 0.8245494
v -1.272509 0.216752 0.824549
v -2.058961 -0.2164276 3.245003
v -2.058961 0.2167529 3.245003
v 4.967552E-08 0.2167522 4.740925
v 4.967552E-08 -0.2164282 4.740925
v -1.511067 0.2167528 3.066981
v -0.9338908 0.2167522 1.290615
v -0.9338908 -0.2164267 1.290616
v -1.511066 -0.2164275 3.066981
v -1.511066 -0.2164275 3.066981
v 4.967552E-08 -0.216428 4.164835
v 4.967552E-08 0.2167523 4.164835
v -1.511067 0.2167528 3.066981
v -0.4339758 -0.6491425 -4.768372E-07
v -1.706323 0.6491443 -2.384186E-07
v -1.706323 -0.6491451 -4.768372E-07
v -0.4339758 0.6491421 -4.768372E-07
v -0.4339767 0.6491417 0.2166536
v -1.706323 0.6491439 0.2166536
v -1.706323 0.6491443 -2.384186E-07
v -0.4339758 0.6491421 -4.768372E-07
v -0.4339767 0.6491417 0.2166536
v -0.4339758 0.6491421 -4.768372E-07
v -0.4339758 -0.6491425 -4.768372E-07
v -0.4339767 -0.6491422 0.2166536
v -0.4339767 -0.6491422 0.2166536
v -0.4339758 -0.6491425 -4.768372E-07
v -1.706323 -0.6491451 -4.768372E-07
v -1.706323 -0.6491447 0.2166531
v -1.706323 -0.6491447 0.2166531
v -1.706323 0.6491443 -2.384186E-07
v -1.706323 0.6491439 0.2166536
v -1.706323 -0.6491451 -4.768372E-07
v -0.8652406 -0.2164273 0.2161937
v -0.8652415 0.2167513 0.2161937
v -0.4339767 0.6491417 0.2166536
v -0.4339767 -0.6491422 0.2166536
v -0.8652415 0.2167513 0.2161937
v -1.272509 0.2167511 0.2166033
v -1.706323 0.6491439 0.2166536
v -1.272508 -0.2164271 0.2166038
v -0.8652406 -0.2164273 0.2161937
v -1.706323 -0.6491447 0.2166531
v -0.8652408 -0.2164271 0.8245494
v -0.8652406 -0.2164273 0.2161937
v -1.272508 -0.2164271 0.2166038
v -1.272508 -0.2164268 0.8245494
v -1.272509 0.216752 0.824549
v -1.272508 -0.2164268 0.8245494
v -1.272508 -0.2164271 0.2166038
v -1.272509 0.2167511 0.2166033
v -0.8652312 0.2167517 0.8246131
v -1.272509 0.216752 0.824549
v -1.272509 0.2167511 0.2166033
v -0.8652415 0.2167513 0.2161937
v -0.8652408 -0.2164271 0.8245494
v -0.8652312 0.2167517 0.8246131
v -0.8652415 0.2167513 0.2161937
v -0.8652406 -0.2164273 0.2161937
vt 0.1696191 0.17996
vt 0.169619 0.2159595
vt 0.2056186 0.2159595
vt 0.2056186 0.17996
vt 0.4847572 0.3948052
vt 0.3581088 0.3736705
vt 0.3581088 0.3948052
vt 0.4847574 0.3736704
vt 0.3091468 0.3098737
vt 0.3302816 0.1832254
vt 0.3091468 0.1832254
vt 0.3302816 0.3098737
vt 0.03210192 0.1837935
vt 0.03210192 0.05714525
vt 0.01096713 0.05714525
vt 0.01096713 0.1837936
vt 0.4643535 0.3410716
vt 0.4643536 0.2144229
vt 0.4432189 0.2144228
vt 0.4432189 0.3410716
vt 0.1664285 0.1760083
vt 0.2086851 0.1760081
vt 0.1242486 0.1339382
vt 0.2508967 0.1339382
vt 0.1664285 0.2182676
vt 0.1664285 0.1760083
vt 0.1242483 0.2605864
vt 0.2086851 0.2182676
vt 0.2086851 0.1760081
vt 0.250897 0.2605864
vt 0.4296292 0.3043539
vt 0.3496907 0.05832824
vt 0.3199472 0.0992667
vt 0.3815033 0.2887169
vt 0.2203476 0.4564062
vt 0.2203474 0.4058036
vt 0.01106577 0.3043537
vt 0.2203474 0.456406
vt 0.2203476 0.4058034
vt 0.05919164 0.2887169
vt 0.09100419 0.05832819
vt 0.1207476 0.09926664
vt 0.3199472 0.09926672
vt 0.3496907 0.05832823
vt 0.3083 0.05832823
vt 0.1324006 0.05832824
vt 0.1207476 0.09926662
vt 0.09100422 0.05832824
vt 0.2574619 0.1878484
vt 0.3006049 0.1878891
vt 0.3006049 0.1174077
vt 0.2574619 0.1173668
vt 0.004509717 0.04576425
vt 0.263685 0.04576425
vt 0.263685 0.002157853
vt 0.004509717 0.002157853
vt 0.4918959 0.4447741
vt 0.3123359 0.4025173
vt 0.3123358 0.444774
vt 0.4918961 0.4025173
vt 0.2466823 0.4984379
vt 0.4931949 0.498438
vt 0.4931949 0.4496801
vt 0.2466821 0.44968
vt 0.263685 0.04576425
vt 0.3349277 0.04576425
vt 0.3349277 0.002157853
vt 0.263685 0.002157853
vt 0.006975025 0.3720739
vt 0.006975025 0.4411119
vt 0.0492343 0.4410719
vt 0.0492343 0.372034
vt 0.1855177 0.3648777
vt 0.2545557 0.3648777
vt 0.1855177 0.3226209
vt 0.2545557 0.3226209
vt 0.1119441 0.2661167
vt 0.1119441 0.3101424
vt 0.3039819 0.3101424
vt 0.3039819 0.2661167
vt 0.186747 0.4993543
vt 0.1867471 0.4492396
vt 0.0007977408 0.4492396
vt 0.0007977408 0.4993543
vt 0.4475282 0.004649442
vt 0.4052713 0.004649442
vt 0.4052713 0.1984568
vt 0.4475282 0.1984568
vt 0.3199472 0.09926672
vt 0.3496907 0.05832824
vt 0.4296292 0.3043539
vt 0.3815033 0.2887169
vt 0.2203474 0.4058036
vt 0.2203474 0.456406
vt 0.2203474 0.4058036
vt 0.2203475 0.4564061
vt 0.01106561 0.3043539
vt 0.05919162 0.2887169
vt 0.09100422 0.05832824
vt 0.1207476 0.09926662
vt 0.1324026 0.05832824
vt 0.1207476 0.09926664
vt 0.09100422 0.05832824
vt 0.3199472 0.09926671
vt 0.3083 0.05832824
vt 0.3496907 0.05832824
vt 0.004509717 0.04576425
vt 0.004509717 0.002157853
vt 0.263685 0.002157853
vt 0.263685 0.04576425
vt 0.4931949 0.4496801
vt 0.4931949 0.498438
vt 0.2466823 0.4984379
vt 0.2466821 0.44968
vt 0.1119441 0.2661167
vt 0.3039819 0.2661167
vt 0.3039819 0.3101424
vt 0.1119441 0.3101424
vt 0.186747 0.4993543
vt 0.0007977408 0.4993543
vt 0.0007977408 0.4492396
vt 0.1867471 0.4492396
vt 0.1696191 0.17996
vt 0.2056186 0.2159595
vt 0.169619 0.2159595
vt 0.2056186 0.17996
vt 0.4847572 0.3948052
vt 0.3581088 0.3948052
vt 0.3581088 0.3736705
vt 0.4847574 0.3736704
vt 0.3091468 0.1832254
vt 0.3302816 0.1832254
vt 0.3302816 0.3098737
vt 0.3091468 0.3098737
vt 0.03210192 0.1837935
vt 0.01096713 0.1837936
vt 0.01096713 0.05714525
vt 0.03210192 0.05714525
vt 0.4643535 0.3410716
vt 0.4432189 0.2144228
vt 0.4643536 0.2144229
vt 0.4432189 0.3410716
vt 0.2086851 0.1760081
vt 0.1664285 0.1760083
vt 0.1242486 0.1339382
vt 0.2508967 0.1339382
vt 0.1664285 0.1760083
vt 0.1664285 0.2182676
vt 0.1242483 0.2605864
vt 0.2086851 0.2182676
vt 0.2086851 0.1760081
vt 0.250897 0.2605864
vt 0.2574619 0.1878484
vt 0.2574619 0.1173668
vt 0.3006049 0.1174077
vt 0.3006049 0.1878891
vt 0.263685 0.04576425
vt 0.263685 0.002157853
vt 0.3349277 0.002157853
vt 0.3349277 0.04576425
vt 0.006975025 0.3720739
vt 0.0492343 0.372034
vt 0.0492343 0.4410719
vt 0.006975025 0.4411119
vt 0.1855177 0.3648777
vt 0.1855177 0.3226209
vt 0.2545557 0.3226209
vt 0.2545557 0.3648777
vn 0 0 -1
vn 0 0 -1
vn 0 0 -1
vn 0 0 -1
vn 0 1 0
vn 0 1 0
vn 0 1 0
vn 0 1 0
vn -1 0 0
vn -1 0 0
vn -1 0 0
vn -1 0 0
vn 0 -1 0
vn 0 -1 0
vn 0 -1 0
vn 0 -1 0
vn 1 0 0
vn 1 0 0
vn 1 0 0
vn 1 0 0
vn 0.001066144 0 0.9999994
vn 0.001066144 0 0.9999994
vn 0.001066144 0 0.9999994
vn 0.001066144 0 0.9999994
vn -0.0001145886 0 1
vn -0.0002440087 -0.0005889975 0.9999999
vn -0.0001145886 0 1
vn -0.0001145886 0 1
vn -0.0002440086 0.0005874531 0.9999999
vn -0.0001145886 0 1
vn 0 -1 0
vn 0 -1 0
vn 0 -1 0
vn 0 -1 0
vn 0 -1 0
vn 0 -1 0
vn 0 -1 0
vn 0 -1 0
vn 0 -1 0
vn 0 -1 0
vn 0 -1 0
vn 0 -1 0
vn 0 -1 0
vn 0 -1 0
vn 0 -1 0
vn 0 -1 0
vn 0 -1 0
vn 0 -1 0
vn 0 -1 0
vn 0 -1 0
vn 0 -1 0
vn 0 -1 0
vn 0.9510565 0 -0.3090171
vn 0.9510565 0 -0.3090171
vn 0.9510565 0 -0.3090171
vn 0.9510565 0 -0.3090171
vn -0.0001296454 7.32038E-05 -1
vn -0.0001296454 7.32038E-05 -1
vn -0.0001296454 7.32038E-05 -1
vn -0.0001296454 7.32038E-05 -1
vn 0.5877851 0 0.8090171
vn 0.5877851 0 0.8090171
vn 0.5877851 0 0.8090171
vn 0.5877851 0 0.8090171
vn 1 0 0
vn 1 0 0
vn 1 0 0
vn 1 0 0
vn 0 1 0
vn 0 1 0
vn 0 1 0
vn 0 1 0
vn -1 0 4.621065E-05
vn -1 0 4.621065E-05
vn -1 0 4.621065E-05
vn -1 0 4.621065E-05
vn -0.9510568 0 0.3090163
vn -0.9510568 0 0.3090163
vn -0.9510568 0 0.3090163
vn -0.9510568 0 0.3090163
vn -0.5877853 0 -0.8090169
vn -0.5877853 0 -0.8090169
vn -0.5877854 0 -0.8090169
vn -0.5877854 0 -0.8090169
vn 0 0 1
vn 0 0 1
vn 0 0 1
vn 0 0 1
vn 0 1 0
vn 0 1 0
vn 0 1 0
vn 0 1 0
vn 0 1 0
vn 0 1 0
vn 0 1 0
vn 0 1 0
vn 0 1 0
vn 0 1 0
vn 0 1 0
vn 0 1 0
vn 0 1 0
vn 0 1 0
vn 0 1 0
vn 0 1 0
vn 0 1 0
vn 0 1 0
vn -0.9510565 0 -0.3090169
vn -0.9510565 0 -0.3090169
vn -0.9510565 0 -0.3090169
vn -0.9510565 0 -0.3090169
vn -0.5877851 0 0.8090171
vn -0.5877851 0 0.8090171
vn -0.5877851 0 0.8090171
vn -0.5877851 0 0.8090171
vn 0.9510565 0 0.3090168
vn 0.9510565 0 0.3090169
vn 0.9510565 0 0.3090168
vn 0.9510565 0 0.3090168
vn 0.5877853 0 -0.8090169
vn 0.5877853 0 -0.809017
vn 0.5877853 0 -0.809017
vn 0.5877854 0 -0.809017
vn 0 0 -1
vn 0 0 -1
vn 0 0 -1
vn 0 0 -1
vn 0 1 0
vn 0 1 0
vn 0 1 0
vn 0 1 0
vn 1 0 0
vn 1 0 0
vn 1 0 0
vn 1 0 0
vn 0 -1 0
vn 0 -1 0
vn 0 -1 0
vn 0 -1 0
vn -1 0 0
vn -1 0 0
vn -1 0 0
vn -1 0 0
vn -0.001066421 0 0.9999994
vn -0.001066421 0 0.9999994
vn -0.001066421 0 0.9999994
vn -0.001066421 0 0.9999994
vn 0.0002438666 -0.0005892735 0.9999999
vn 0.0001148635 0 1
vn 0.0001148635 0 1
vn 0.0001148635 0 1
vn 0.0002438666 0.000587729 0.9999999
vn 0.0001148635 0 1
vn 0 -1 0
vn 0 -1 0
vn 0 -1 0
vn 0 -1 0
vn -1 0 0
vn -1 0 0
vn -1 0 0
vn -1 0 0
vn 0 1 0
vn 0 1 0
vn 0 1 0
vn 0 1 0
vn 1 -1.004406E-05 0
vn 1 -1.004406E-05 0
vn 1 -1.004406E-05 0
vn 1 -1.004406E-05 0
g gate-other-03-lod2_0
f 3/3/3 2/2/2 1/1/1
f 1/1/1 4/4/4 3/3/3
f 7/7/7 6/6/6 5/5/5
f 6/6/6 8/8/8 5/5/5
f 11/11/11 10/10/10 9/9/9
f 10/10/10 12/12/12 9/9/9
f 15/15/15 14/14/14 13/13/13
f 13/13/13 16/16/16 15/15/15
f 19/19/19 18/18/18 17/17/17
f 17/17/17 20/20/20 19/19/19
f 23/23/23 22/22/22 21/21/21
f 24/24/24 22/22/22 23/23/23
f 23/23/23 26/26/26 25/25/25
f 25/25/25 27/27/27 23/23/23
f 27/27/27 25/25/25 28/28/28
f 28/28/28 29/29/29 24/24/24
f 28/28/28 30/30/30 27/27/27
f 24/24/24 30/30/30 28/28/28
f 33/33/33 32/32/32 31/31/31
f 31/31/31 34/34/34 33/33/33
f 34/34/34 31/31/31 35/35/35
f 35/35/35 36/36/36 34/34/34
f 39/39/39 38/38/38 37/37/37
f 37/37/37 40/40/40 39/39/39
f 40/40/40 37/37/37 41/41/41
f 41/41/41 42/42/42 40/40/40
f 45/45/45 44/44/44 43/43/43
f 46/46/46 45/45/45 43/43/43
f 47/47/47 46/46/46 43/43/43
f 48/48/48 46/46/46 47/47/47
f 51/51/51 50/50/50 49/49/49
f 49/49/49 52/52/52 51/51/51
f 55/55/55 54/54/54 53/53/53
f 53/53/53 56/56/56 55/55/55
f 59/59/59 58/58/58 57/57/57
f 58/58/58 60/60/60 57/57/57
f 63/63/63 62/62/62 61/61/61
f 61/61/61 64/64/64 63/63/63
f 67/67/67 66/66/66 65/65/65
f 65/65/65 68/68/68 67/67/67
f 71/71/71 70/70/70 69/69/69
f 69/69/69 72/72/72 71/71/71
f 75/75/75 74/74/74 73/73/73
f 76/76/76 74/74/74 75/75/75
f 79/79/79 78/78/78 77/77/77
f 77/77/77 80/80/80 79/79/79
f 83/83/83 82/82/82 81/81/81
f 81/81/81 84/84/84 83/83/83
f 87/87/87 86/86/86 85/85/85
f 85/85/85 88/88/88 87/87/87
f 91/91/91 90/90/90 89/89/89
f 89/89/89 92/92/92 91/91/91
f 91/91/91 92/92/92 93/93/93
f 91/91/91 93/93/93 94/94/94
f 97/97/97 96/96/96 95/95/95
f 95/95/95 98/98/98 97/97/97
f 99/99/99 97/97/97 98/98/98
f 98/98/98 100/100/100 99/99/99
f 103/103/103 102/102/102 101/101/101
f 104/104/104 101/101/101 102/102/102
f 101/101/101 104/104/104 105/105/105
f 106/106/106 105/105/105 104/104/104
f 109/109/109 108/108/108 107/107/107
f 107/107/107 110/110/110 109/109/109
f 113/113/113 112/112/112 111/111/111
f 111/111/111 114/114/114 113/113/113
f 117/117/117 116/116/116 115/115/115
f 115/115/115 118/118/118 117/117/117
f 121/121/121 120/120/120 119/119/119
f 119/119/119 122/122/122 121/121/121
f 125/125/125 124/124/124 123/123/123
f 124/124/124 126/126/126 123/123/123
f 129/129/129 128/128/128 127/127/127
f 127/127/127 130/130/130 129/129/129
f 133/133/133 132/132/132 131/131/131
f 131/131/131 134/134/134 133/133/133
f 137/137/137 136/136/136 135/135/135
f 135/135/135 138/138/138 137/137/137
f 141/141/141 140/140/140 139/139/139
f 140/140/140 142/142/142 139/139/139
f 145/145/145 144/144/144 143/143/143
f 145/145/145 143/143/143 146/146/146
f 148/148/148 147/147/147 145/145/145
f 145/145/145 149/149/149 148/148/148
f 150/150/150 148/148/148 149/149/149
f 146/146/146 151/151/151 150/150/150
f 149/149/149 152/152/152 150/150/150
f 150/150/150 152/152/152 146/146/146
f 155/155/155 154/154/154 153/153/153
f 153/153/153 156/156/156 155/155/155
f 159/159/159 158/158/158 157/157/157
f 157/157/157 160/160/160 159/159/159
f 163/163/163 162/162/162 161/161/161
f 161/161/161 164/164/164 163/163/163
f 167/167/167 166/166/166 165/165/165
f 165/165/165 168/168/168 167/167/167
