g gate-neon-08-trigger
v 0.2143456 0.06249983 1.215615
v -0.214346 -0.06250016 1.215615
v -0.214346 0.06249983 1.215615
v 0.2143456 -0.06250016 1.215615
v 0.6171839 0.06249985 1.068994
v 0.6171839 -0.06250013 1.068994
v 0.9455807 0.06249991 0.7934363
v 0.9455807 -0.06250009 0.7934363
v 1.159927 0.06249998 0.4221785
v 1.159927 -0.0625 0.4221785
v 1.234368 0.06250005 -2.384186E-07
v 1.234368 -0.06249993 -2.384186E-07
v 1.159926 0.06250013 -0.4221797
v 1.159926 -0.06249986 -0.4221797
v 0.9455802 0.0625002 -0.7934372
v 0.9455802 -0.0624998 -0.7934372
v 0.6171834 0.06250025 -1.068995
v 0.6171834 -0.06249973 -1.068995
v 0.2143451 0.06250028 -1.215616
v 0.2143451 -0.06249971 -1.215616
v -0.2143463 0.06250028 -1.215615
v -0.2143463 -0.06249971 -1.215615
v -0.6171845 0.06250025 -1.068994
v -0.6171845 -0.06249973 -1.068994
v -0.9455811 0.0625002 -0.7934365
v -0.9455811 -0.0624998 -0.7934365
v -1.159927 0.06250013 -0.4221787
v -1.159927 -0.06249986 -0.4221787
v -1.234368 0.06250005 0
v -1.234368 -0.06249993 0
v -1.159927 0.06249998 0.4221786
v -1.159927 -0.0625 0.4221786
v -0.9455808 0.06249991 0.7934363
v -0.9455808 -0.06250009 0.7934363
v -0.6171842 0.06249985 1.068994
v -0.6171842 -0.06250013 1.068994
v -0.214346 0.06249983 1.215615
v -0.214346 -0.06250016 1.215615
v 0.9455802 0.0625002 -0.7934372
v 0.2143451 0.06250028 -1.215616
v 0.6171834 0.06250025 -1.068995
v 1.234368 0.06250005 -2.384186E-07
v 1.159926 0.06250013 -0.4221797
v 0.9455807 0.06249991 0.7934363
v 1.159927 0.06249998 0.4221785
v -1.159927 0.06250013 -0.4221787
v -0.6171845 0.06250025 -1.068994
v -0.2143463 0.06250028 -1.215615
v -0.9455811 0.0625002 -0.7934365
v -0.6171842 0.06249985 1.068994
v -1.159927 0.06249998 0.4221786
v -1.234368 0.06250005 0
v -0.9455808 0.06249991 0.7934363
v 0.2143456 0.06249983 1.215615
v -0.214346 0.06249983 1.215615
v 0.6171839 0.06249985 1.068994
v 1.159927 -0.0625 0.4221785
v 0.6171839 -0.06250013 1.068994
v 0.9455807 -0.06250009 0.7934363
v 1.159926 -0.06249986 -0.4221797
v 1.234368 -0.06249993 -2.384186E-07
v 0.6171834 -0.06249973 -1.068995
v 0.9455802 -0.0624998 -0.7934372
v -0.9455808 -0.06250009 0.7934363
v -0.214346 -0.06250016 1.215615
v 0.2143456 -0.06250016 1.215615
v -0.6171842 -0.06250013 1.068994
v -0.9455811 -0.0624998 -0.7934365
v -1.234368 -0.06249993 0
v -1.159927 -0.0625 0.4221786
v -1.159927 -0.06249986 -0.4221787
v -0.2143463 -0.06249971 -1.215615
v -0.6171845 -0.06249973 -1.068994
v 0.2143451 -0.06249971 -1.215616
vt 0.9722222 0
vt 1.027778 1
vt 1.027778 0
vt 0.9722222 1
vt 0.9166667 0
vt 0.9166667 1
vt 0.861111 0
vt 0.861111 1
vt 0.8055555 0
vt 0.8055555 1
vt 0.75 0
vt 0.75 1
vt 0.6944444 0
vt 0.6944444 1
vt 0.6388888 0
vt 0.6388888 1
vt 0.5833333 0
vt 0.5833333 1
vt 0.5277777 0
vt 0.5277777 1
vt 0.4722221 0
vt 0.4722221 1
vt 0.4166666 0
vt 0.4166666 1
vt 0.3611111 0
vt 0.3611111 1
vt 0.3055555 0
vt 0.3055555 1
vt 0.25 0
vt 0.25 1
vt 0.1944444 0
vt 0.1944444 1
vt 0.1388889 0
vt 0.1388889 1
vt 0.08333335 0
vt 0.08333335 1
vt 0.02777781 0
vt 0.02777781 1
vt 0.821394 0.883022
vt 0.9924039 0.5868239
vt 0.9330128 0.7499998
vt 0.5 1
vt 0.6710104 0.9698462
vt 0.1786062 0.8830222
vt 0.3289899 0.9698462
vt 0.67101 0.03015366
vt 0.9330126 0.2499999
vt 0.9924039 0.4131757
vt 0.8213937 0.1169777
vt 0.06698728 0.2499999
vt 0.3289899 0.03015372
vt 0.4999999 0
vt 0.1786062 0.1169778
vt 0.007596105 0.586824
vt 0.007596135 0.4131758
vt 0.06698728 0.75
vt 0.3289899 0.9698462
vt 0.06698728 0.75
vt 0.1786062 0.8830222
vt 0.6710104 0.9698462
vt 0.5 1
vt 0.9330128 0.7499998
vt 0.821394 0.883022
vt 0.1786062 0.1169778
vt 0.007596135 0.4131758
vt 0.007596105 0.586824
vt 0.06698728 0.2499999
vt 0.8213937 0.1169777
vt 0.4999999 0
vt 0.3289899 0.03015372
vt 0.67101 0.03015366
vt 0.9924039 0.4131757
vt 0.9330126 0.2499999
vt 0.9924039 0.5868239
vn 0.173648 0 0.9848077
vn -0.173648 0 0.9848077
vn -0.173648 0 0.9848077
vn 0.173648 0 0.9848078
vn 0.4999999 0 0.8660254
vn 0.5 0 0.8660254
vn 0.7660445 0 0.6427875
vn 0.7660445 0 0.6427876
vn 0.9396926 0 0.3420202
vn 0.9396926 0 0.3420202
vn 1 0 0
vn 1 0 0
vn 0.9396924 0 -0.3420207
vn 0.9396924 0 -0.3420207
vn 0.766044 0 -0.6427882
vn 0.766044 0 -0.6427882
vn 0.4999995 0 -0.8660257
vn 0.4999996 0 -0.8660257
vn 0.1736477 0 -0.9848078
vn 0.1736477 0 -0.9848078
vn -0.1736486 0 -0.9848077
vn -0.1736486 0 -0.9848077
vn -0.5000002 0 -0.8660253
vn -0.5000002 0 -0.8660253
vn -0.7660446 0 -0.6427875
vn -0.7660446 0 -0.6427874
vn -0.9396927 0 -0.3420199
vn -0.9396927 0 -0.3420199
vn -1 0 0
vn -1 0 0
vn -0.9396926 0 0.3420202
vn -0.9396926 0 0.3420202
vn -0.7660446 0 0.6427874
vn -0.7660446 0 0.6427875
vn -0.5000001 0 0.8660253
vn -0.5000001 0 0.8660253
vn -0.173648 0 0.9848077
vn -0.173648 0 0.9848077
vn 0 1 0
vn 0 1 0
vn 0 1 0
vn 0 1 0
vn 0 1 0
vn 0 1 0
vn 0 1 0
vn 0 1 0
vn 0 1 0
vn 0 1 0
vn 0 1 0
vn 0 1 0
vn 0 1 0
vn 0 1 0
vn 0 1 0
vn 0 1 0
vn 0 1 0
vn 0 1 0
vn 0 -1 0
vn 0 -1 0
vn 0 -1 0
vn 0 -1 0
vn 0 -1 0
vn 0 -1 0
vn 0 -1 0
vn 0 -1 0
vn 0 -1 0
vn 0 -1 0
vn 0 -1 0
vn 0 -1 0
vn 0 -1 0
vn 0 -1 0
vn 0 -1 0
vn 0 -1 0
vn 0 -1 0
vn 0 -1 0
g gate-neon-08-trigger_0
f 3/3/3 2/2/2 1/1/1
f 4/4/4 1/1/1 2/2/2
f 1/1/1 4/4/4 5/5/5
f 6/6/6 5/5/5 4/4/4
f 5/5/5 6/6/6 7/7/7
f 8/8/8 7/7/7 6/6/6
f 7/7/7 8/8/8 9/9/9
f 10/10/10 9/9/9 8/8/8
f 9/9/9 10/10/10 11/11/11
f 12/12/12 11/11/11 10/10/10
f 11/11/11 12/12/12 13/13/13
f 14/14/14 13/13/13 12/12/12
f 13/13/13 14/14/14 15/15/15
f 16/16/16 15/15/15 14/14/14
f 15/15/15 16/16/16 17/17/17
f 18/18/18 17/17/17 16/16/16
f 17/17/17 18/18/18 19/19/19
f 20/20/20 19/19/19 18/18/18
f 19/19/19 20/20/20 21/21/21
f 22/22/22 21/21/21 20/20/20
f 21/21/21 22/22/22 23/23/23
f 24/24/24 23/23/23 22/22/22
f 23/23/23 24/24/24 25/25/25
f 26/26/26 25/25/25 24/24/24
f 25/25/25 26/26/26 27/27/27
f 28/28/28 27/27/27 26/26/26
f 27/27/27 28/28/28 29/29/29
f 30/30/30 29/29/29 28/28/28
f 29/29/29 30/30/30 31/31/31
f 32/32/32 31/31/31 30/30/30
f 31/31/31 32/32/32 33/33/33
f 34/34/34 33/33/33 32/32/32
f 33/33/33 34/34/34 35/35/35
f 36/36/36 35/35/35 34/34/34
f 35/35/35 36/36/36 37/37/37
f 38/38/38 37/37/37 36/36/36
f 41/41/41 40/40/40 39/39/39
f 40/40/40 42/42/42 39/39/39
f 39/39/39 42/42/42 43/43/43
f 44/44/44 42/42/42 40/40/40
f 45/45/45 42/42/42 44/44/44
f 46/46/46 44/44/44 40/40/40
f 47/47/47 46/46/46 40/40/40
f 48/48/48 47/47/47 40/40/40
f 49/49/49 46/46/46 47/47/47
f 50/50/50 44/44/44 46/46/46
f 51/51/51 50/50/50 46/46/46
f 52/52/52 51/51/51 46/46/46
f 53/53/53 50/50/50 51/51/51
f 54/54/54 44/44/44 50/50/50
f 55/55/55 54/54/54 50/50/50
f 56/56/56 44/44/44 54/54/54
f 59/59/59 58/58/58 57/57/57
f 58/58/58 60/60/60 57/57/57
f 57/57/57 60/60/60 61/61/61
f 62/62/62 60/60/60 58/58/58
f 63/63/63 60/60/60 62/62/62
f 64/64/64 62/62/62 58/58/58
f 65/65/65 64/64/64 58/58/58
f 66/66/66 65/65/65 58/58/58
f 67/67/67 64/64/64 65/65/65
f 68/68/68 62/62/62 64/64/64
f 69/69/69 68/68/68 64/64/64
f 70/70/70 69/69/69 64/64/64
f 71/71/71 68/68/68 69/69/69
f 72/72/72 62/62/62 68/68/68
f 73/73/73 72/72/72 68/68/68
f 74/74/74 62/62/62 72/72/72
