g gate-10-a-lod2
v 0.014443 0.003870849 -0.7521521
v 0.0105747 -0.01057684 -0.7521521
v 0.01057447 -0.01057575 0.7521521
v 0.01444309 0.003871403 0.7521521
v 0.003868523 0.01444748 -0.7521521
v 0.003868961 0.01444832 0.7521521
v -0.01057861 0.01057669 0.7521521
v -0.01057873 0.01057615 -0.7521521
v -0.01444895 -0.003871765 0.7521521
v -0.01444918 -0.003871536 -0.7521521
v -0.00387516 -0.01444773 0.7521521
v -0.003875141 -0.01444858 -0.7521521
v 0.01057447 -0.01057575 0.7521521
v 0.0105747 -0.01057684 -0.7521521
vt 0.02574321 0.8470427
vt 0.02523672 0.8470427
vt 0.02523672 0.7640985
vt 0.02574321 0.7640988
vt 0.02625173 0.8470424
vt 0.02625173 0.7640982
vt 0.02675849 0.7640982
vt 0.02675825 0.8470424
vt 0.02726697 0.7640982
vt 0.02726697 0.8470424
vt 0.02777373 0.7640982
vt 0.02777346 0.8470427
vt 0.02815395 0.7640982
vt 0.02815395 0.8470427
vn 0.9659182 0.2588474 -1.551819E-07
vn 0.7071702 -0.7070433 4.791092E-07
vn 0.7071705 -0.7070431 4.79109E-07
vn 0.9659182 0.2588475 -1.55182E-07
vn 0.2588658 0.9659132 -4.884486E-07
vn 0.258866 0.9659132 -4.884486E-07
vn -0.7071356 0.7070779 -1.785666E-07
vn -0.7071357 0.7070778 -1.785665E-07
vn -0.9659336 -0.2587897 1.623721E-07
vn -0.9659337 -0.2587896 1.623721E-07
vn -0.2588763 -0.9659105 4.86814E-07
vn -0.2588763 -0.9659105 4.868141E-07
vn 0.7071705 -0.7070431 4.79109E-07
vn 0.7071702 -0.7070433 4.791092E-07
g gate-10-a-lod2_0
f 3/3/3 2/2/2 1/1/1
f 1/1/1 4/4/4 3/3/3
f 4/4/4 1/1/1 5/5/5
f 5/5/5 6/6/6 4/4/4
f 5/5/5 7/7/7 6/6/6
f 5/5/5 8/8/8 7/7/7
f 8/8/8 9/9/9 7/7/7
f 8/8/8 10/10/10 9/9/9
f 10/10/10 11/11/11 9/9/9
f 10/10/10 12/12/12 11/11/11
f 13/13/13 11/11/11 12/12/12
f 12/12/12 14/14/14 13/13/13
