g gate-drl-09-trigger-01
v 1.185204 -0.06896574 1.837335
v 1.26139 -0.06896573 2.072241
v 1.188538 -0.06896574 1.845384
v -1.082887 -0.06896584 3.329462
v -1.264694 -0.06896587 2.933997
v -1.182915 -0.06896585 3.155117
v -1.331034 0.06896572 2.584515
v -1.182915 0.06896576 3.155117
v -1.264694 0.06896574 2.933997
v 0.7694768 0.0689659 3.635793
v 1.082887 0.0689659 3.329462
v 0.9299709 0.0689659 3.507707
v 1.082887 0.0689659 3.329462
v 1.264694 0.06896591 2.933997
v 1.182915 0.0689659 3.155117
v 1.326218 0.0689659 2.350656
v 1.188538 0.06896588 1.845384
v 1.26139 0.06896589 2.072241
v -0.7694768 -0.06896582 3.635793
v 0.7694768 0.0689659 3.635793
v 0.7694768 -0.06896572 3.635793
v -0.7694768 0.0689658 3.635793
v 0.7694768 0.0689659 3.635793
v 0.9299707 -0.06896572 3.507707
v 0.7694768 -0.06896572 3.635793
v 0.9299709 0.0689659 3.507707
v 1.082887 0.0689659 3.329462
v 1.082886 -0.06896572 3.329462
v 1.182915 -0.06896571 3.155117
v 1.182915 0.0689659 3.155117
v 1.264694 0.06896591 2.933997
v 1.264694 -0.06896571 2.933997
v 1.331034 -0.06896572 2.584515
v 1.331034 0.0689659 2.584515
v 1.326218 0.0689659 2.350656
v 1.326218 -0.06896573 2.350656
v 1.26139 -0.06896573 2.072241
v 1.26139 0.06896589 2.072241
v 1.188538 0.06896588 1.845384
v 1.188538 -0.06896574 1.845384
v 1.185204 -0.06896574 1.837335
v 1.185204 0.06896587 1.837335
v 1.054936 0.06896586 1.642375
v 1.054936 -0.06896576 1.642375
v 0.8247016 0.06896584 1.41214
v 0.8247016 -0.06896579 1.41214
v 0.6206424 0.06896582 1.327616
v 0.6206424 -0.0689658 1.327616
v -0.6206426 0.06896574 1.327616
v -0.6206427 -0.06896588 1.327616
v -0.8247018 0.06896573 1.41214
v -0.8247018 -0.06896589 1.41214
v -1.054936 0.06896572 1.642375
v -1.054936 -0.0689659 1.642375
v -1.185204 0.06896572 1.837335
v -1.185204 -0.0689659 1.837335
v -1.188538 -0.0689659 1.845384
v -1.188538 0.06896572 1.845384
v -1.261391 0.06896572 2.072241
v -1.261391 -0.0689659 2.072241
v -1.326218 -0.0689659 2.350656
v -1.326218 0.0689657 2.350656
v -1.331034 0.06896572 2.584515
v -1.331034 -0.0689659 2.584515
v -1.264694 -0.06896587 2.933997
v -1.264694 0.06896574 2.933997
v -1.182915 0.06896576 3.155117
v -1.182915 -0.06896585 3.155117
v -1.082887 -0.06896584 3.329462
v -1.082886 0.06896577 3.329462
v -0.9299707 0.06896579 3.507707
v -0.9299709 -0.06896583 3.507707
v -0.7694768 -0.06896582 3.635793
v -0.7694768 0.0689658 3.635793
v -1.054936 -0.0689659 1.642375
v -0.6206427 -0.06896588 1.327616
v -0.8247018 -0.06896589 1.41214
v -1.188538 -0.0689659 1.845384
v -1.185204 -0.0689659 1.837335
v 0.8247016 -0.06896579 1.41214
v 0.6206424 -0.0689658 1.327616
v 1.26139 -0.06896573 2.072241
v 1.185204 -0.06896574 1.837335
v 1.054936 -0.06896576 1.642375
v 1.331034 -0.06896572 2.584515
v 1.326218 -0.06896573 2.350656
v 0.9299707 -0.06896572 3.507707
v 1.182915 -0.06896571 3.155117
v 1.264694 -0.06896571 2.933997
v 1.082886 -0.06896572 3.329462
v -0.7694768 -0.06896582 3.635793
v 0.7694768 -0.06896572 3.635793
v -1.264694 -0.06896587 2.933997
v -1.082887 -0.06896584 3.329462
v -0.9299709 -0.06896583 3.507707
v -1.326218 -0.0689659 2.350656
v -1.331034 -0.0689659 2.584515
v -1.261391 -0.0689659 2.072241
v -1.182915 0.06896576 3.155117
v -0.9299707 0.06896579 3.507707
v -1.082886 0.06896577 3.329462
v -0.7694768 0.0689658 3.635793
v -1.261391 0.06896572 2.072241
v -1.331034 0.06896572 2.584515
v -1.326218 0.0689657 2.350656
v 1.326218 0.0689659 2.350656
v 1.082887 0.0689659 3.329462
v 0.7694768 0.0689659 3.635793
v 1.264694 0.06896591 2.933997
v 1.331034 0.0689659 2.584515
v 1.188538 0.06896588 1.845384
v 0.6206424 0.06896582 1.327616
v 1.054936 0.06896586 1.642375
v 1.185204 0.06896587 1.837335
v 0.8247016 0.06896584 1.41214
v -0.8247018 0.06896573 1.41214
v -0.6206426 0.06896574 1.327616
v -1.185204 0.06896572 1.837335
v -1.054936 0.06896572 1.642375
v -1.188538 0.06896572 1.845384
vt 0.7177453 0.09019307
vt 0.6365221 0.0565493
vt 0.7149621 0.08904024
vt 0.2588435 0.9001098
vt 0.35875 0.9414923
vt 0.2992147 0.916832
vt 0.4644733 0.9852844
vt 0.2992147 0.916832
vt 0.3587499 0.9414923
vt 0.1464466 0.1464466
vt 0.2588435 0.09989025
vt 0.2023132 0.1233059
vt 0.2588435 0.09989025
vt 0.35875 0.05850766
vt 0.2992148 0.08316796
vt 0.5402548 0.01667404
vt 0.7149621 0.08904023
vt 0.6365221 0.05654929
vt 0.875 0
vt 1.088388 0.9999998
vt 1.088388 -1.724597E-07
vt 0.875 1
vt 0.125 1
vt 0.1447518 0
vt 0.125 0
vt 0.1447518 1
vt 0.1647383 1
vt 0.1647383 0
vt 0.1790117 0
vt 0.1790117 1
vt 0.2000606 1
vt 0.2000606 0
vt 0.2374395 0
vt 0.2374395 1
vt 0.2642322 1
vt 0.2642322 0
vt 0.2982679 0
vt 0.2982679 1
vt 0.3260006 1
vt 0.3260006 0
vt 0.3269846 0
vt 0.3269846 1
vt 0.3550981 1
vt 0.3550981 0
vt 0.394902 1
vt 0.394902 0
vt 0.4241278 1
vt 0.4241278 0
vt 0.5758722 1
vt 0.5758722 0
vt 0.605098 1
vt 0.605098 0
vt 0.6449019 1
vt 0.6449019 0
vt 0.6730154 1
vt 0.6730154 0
vt 0.6739994 0
vt 0.6739994 1
vt 0.7017322 1
vt 0.7017322 0
vt 0.7357678 0
vt 0.7357678 1
vt 0.7625605 1
vt 0.7625605 0
vt 0.7999395 0
vt 0.7999395 1
vt 0.8209883 1
vt 0.8209883 0
vt 0.8352617 0
vt 0.8352617 1
vt 0.8552482 1
vt 0.8552482 0
vt 0.875 0
vt 0.875 1
vt 0.7851564 0.8647643
vt 0.8939901 0.7145991
vt 0.8647643 0.7851564
vt 0.714962 0.9109598
vt 0.7177453 0.909807
vt 0.8647644 0.2148437
vt 0.8939902 0.285401
vt 0.6365221 0.0565493
vt 0.7177453 0.09019307
vt 0.7851565 0.1352358
vt 0.4644734 0.01471562
vt 0.5402547 0.01667404
vt 0.2023132 0.1233059
vt 0.2992148 0.08316795
vt 0.35875 0.05850765
vt 0.2588436 0.09989023
vt 0.1464466 0.8535534
vt 0.1464466 0.1464466
vt 0.35875 0.9414923
vt 0.2588435 0.9001098
vt 0.2023132 0.8766941
vt 0.5402547 0.983326
vt 0.4644733 0.9852844
vt 0.636522 0.9434507
vt 0.2992147 0.916832
vt 0.2023131 0.8766941
vt 0.2588435 0.9001098
vt 0.1464466 0.8535534
vt 0.636522 0.9434507
vt 0.4644733 0.9852844
vt 0.5402547 0.983326
vt 0.5402548 0.01667404
vt 0.2588435 0.09989025
vt 0.1464466 0.1464466
vt 0.35875 0.05850766
vt 0.4644734 0.01471562
vt 0.7149621 0.08904023
vt 0.8939902 0.285401
vt 0.7851565 0.1352358
vt 0.7177454 0.09019307
vt 0.8647644 0.2148437
vt 0.8647643 0.7851564
vt 0.8939901 0.7145991
vt 0.7177453 0.909807
vt 0.7851565 0.8647643
vt 0.7149621 0.9109598
vn 0 -1 0
vn 0 -1 0
vn 0 -1 0
vn 0 -1 0
vn 0 -1 0
vn 0 -1 0
vn 0 1 0
vn 0 1 0
vn 0 1 0
vn 0 1 0
vn 0 1 0
vn 0 1 0
vn 0 1 0
vn 0 1 0
vn 0 1 0
vn 0 1 0
vn 0 1 0
vn 0 1 0
vn 0 0 1
vn 0 0 1
vn 0 0 1
vn 0 0 1
vn 0.6237774 0 0.781602
vn 0.6944473 0 0.7195436
vn 0.6237774 0 0.781602
vn 0.6944474 0 0.7195435
vn 0.8167886 0 0.5769371
vn 0.8167885 0 0.5769371
vn 0.9057866 0 0.423734
vn 0.9057868 0 0.423734
vn 0.9635264 0 0.2676135
vn 0.9635264 0 0.2676136
vn 0.9965159 0 0.08340356
vn 0.9965159 0 0.08340353
vn 0.9922375 0 -0.1243571
vn 0.9922375 0 -0.1243571
vn 0.9638369 0 -0.2664928
vn 0.9638369 0 -0.2664926
vn 0.938782 0 -0.3445117
vn 0.9387832 0 -0.3445084
vn 0.8819221 0 -0.4713952
vn 0.8819204 0 -0.4713983
vn 0.7730102 0 -0.6343936
vn 0.7730101 0 -0.6343936
vn 0.5555701 0 -0.8314697
vn 0.5555702 0 -0.8314697
vn 0.1950902 0 -0.9807854
vn 0.1950902 0 -0.9807854
vn -0.1950901 0 -0.9807854
vn -0.1950903 0 -0.9807853
vn -0.5555701 0 -0.8314697
vn -0.5555701 0 -0.8314697
vn -0.7730105 0 -0.6343933
vn -0.7730105 0 -0.6343933
vn -0.8819188 0 -0.4714013
vn -0.8819217 0 -0.471396
vn -0.9387829 0 -0.3445094
vn -0.9387808 0 -0.3445151
vn -0.9638369 0 -0.2664925
vn -0.9638369 0 -0.2664925
vn -0.9922375 0 -0.124357
vn -0.9922375 0 -0.124357
vn -0.9965159 0 0.08340356
vn -0.9965159 0 0.08340351
vn -0.9635264 0 0.2676135
vn -0.9635264 0 0.2676136
vn -0.9057866 0 0.423734
vn -0.9057868 0 0.4237339
vn -0.8167886 0 0.5769371
vn -0.8167886 0 0.5769371
vn -0.6944474 0 0.7195435
vn -0.6944474 0 0.7195435
vn -0.6237773 0 0.7816021
vn -0.6237775 0 0.781602
vn 0 -1 0
vn 0 -1 0
vn 0 -1 0
vn 0 -1 0
vn 0 -1 0
vn 0 -1 0
vn 0 -1 0
vn 0 -1 0
vn 0 -1 0
vn 0 -1 0
vn 0 -1 0
vn 0 -1 0
vn 0 -1 0
vn 0 -1 0
vn 0 -1 0
vn 0 -1 0
vn 0 -1 0
vn 0 -1 0
vn 0 -1 0
vn 0 -1 0
vn 0 -1 0
vn 0 -1 0
vn 0 -1 0
vn 0 -1 0
vn 0 1 0
vn 0 1 0
vn 0 1 0
vn 0 1 0
vn 0 1 0
vn 0 1 0
vn 0 1 0
vn 0 1 0
vn 0 1 0
vn 0 1 0
vn 0 1 0
vn 0 1 0
vn 0 1 0
vn 0 1 0
vn 0 1 0
vn 0 1 0
vn 0 1 0
vn 0 1 0
vn 0 1 0
vn 0 1 0
vn 0 1 0
vn 0 1 0
g gate-drl-09-trigger-01_0
f 3/3/3 2/2/2 1/1/1
f 6/6/6 5/5/5 4/4/4
f 9/9/9 8/8/8 7/7/7
f 12/12/12 11/11/11 10/10/10
f 15/15/15 14/14/14 13/13/13
f 18/18/18 17/17/17 16/16/16
f 21/21/21 20/20/20 19/19/19
f 22/22/22 19/19/19 20/20/20
f 25/25/25 24/24/24 23/23/23
f 26/26/26 23/23/23 24/24/24
f 26/26/26 24/24/24 27/27/27
f 28/28/28 27/27/27 24/24/24
f 28/28/28 29/29/29 27/27/27
f 30/30/30 27/27/27 29/29/29
f 30/30/30 29/29/29 31/31/31
f 32/32/32 31/31/31 29/29/29
f 32/32/32 33/33/33 31/31/31
f 34/34/34 31/31/31 33/33/33
f 34/34/34 33/33/33 35/35/35
f 36/36/36 35/35/35 33/33/33
f 36/36/36 37/37/37 35/35/35
f 38/38/38 35/35/35 37/37/37
f 38/38/38 37/37/37 39/39/39
f 40/40/40 39/39/39 37/37/37
f 40/40/40 41/41/41 39/39/39
f 42/42/42 39/39/39 41/41/41
f 42/42/42 41/41/41 43/43/43
f 44/44/44 43/43/43 41/41/41
f 43/43/43 44/44/44 45/45/45
f 46/46/46 45/45/45 44/44/44
f 45/45/45 46/46/46 47/47/47
f 48/48/48 47/47/47 46/46/46
f 47/47/47 48/48/48 49/49/49
f 50/50/50 49/49/49 48/48/48
f 49/49/49 50/50/50 51/51/51
f 52/52/52 51/51/51 50/50/50
f 51/51/51 52/52/52 53/53/53
f 54/54/54 53/53/53 52/52/52
f 53/53/53 54/54/54 55/55/55
f 56/56/56 55/55/55 54/54/54
f 56/56/56 57/57/57 55/55/55
f 58/58/58 55/55/55 57/57/57
f 58/58/58 57/57/57 59/59/59
f 60/60/60 59/59/59 57/57/57
f 60/60/60 61/61/61 59/59/59
f 62/62/62 59/59/59 61/61/61
f 62/62/62 61/61/61 63/63/63
f 64/64/64 63/63/63 61/61/61
f 64/64/64 65/65/65 63/63/63
f 66/66/66 63/63/63 65/65/65
f 66/66/66 65/65/65 67/67/67
f 68/68/68 67/67/67 65/65/65
f 68/68/68 69/69/69 67/67/67
f 70/70/70 67/67/67 69/69/69
f 70/70/70 69/69/69 71/71/71
f 72/72/72 71/71/71 69/69/69
f 72/72/72 73/73/73 71/71/71
f 74/74/74 71/71/71 73/73/73
f 77/77/77 76/76/76 75/75/75
f 76/76/76 78/78/78 75/75/75
f 75/75/75 78/78/78 79/79/79
f 80/80/80 78/78/78 76/76/76
f 81/81/81 80/80/80 76/76/76
f 82/82/82 78/78/78 80/80/80
f 83/83/83 82/82/82 80/80/80
f 84/84/84 83/83/83 80/80/80
f 85/85/85 78/78/78 82/82/82
f 86/86/86 85/85/85 82/82/82
f 87/87/87 78/78/78 85/85/85
f 88/88/88 87/87/87 85/85/85
f 89/89/89 88/88/88 85/85/85
f 90/90/90 87/87/87 88/88/88
f 91/91/91 78/78/78 87/87/87
f 92/92/92 91/91/91 87/87/87
f 93/93/93 78/78/78 91/91/91
f 94/94/94 93/93/93 91/91/91
f 95/95/95 94/94/94 91/91/91
f 96/96/96 78/78/78 93/93/93
f 97/97/97 96/96/96 93/93/93
f 98/98/98 78/78/78 96/96/96
f 101/101/101 100/100/100 99/99/99
f 100/100/100 102/102/102 99/99/99
f 102/102/102 103/103/103 99/99/99
f 99/99/99 103/103/103 104/104/104
f 104/104/104 103/103/103 105/105/105
f 106/106/106 103/103/103 102/102/102
f 107/107/107 106/106/106 102/102/102
f 108/108/108 107/107/107 102/102/102
f 109/109/109 106/106/106 107/107/107
f 110/110/110 106/106/106 109/109/109
f 111/111/111 103/103/103 106/106/106
f 112/112/112 103/103/103 111/111/111
f 113/113/113 112/112/112 111/111/111
f 114/114/114 113/113/113 111/111/111
f 115/115/115 112/112/112 113/113/113
f 116/116/116 103/103/103 112/112/112
f 117/117/117 116/116/116 112/112/112
f 118/118/118 103/103/103 116/116/116
f 119/119/119 118/118/118 116/116/116
f 120/120/120 103/103/103 118/118/118
