g gate-swatch-inflatable-01-lod2
v 2.13901 0.06070632 3.834892
v 2.376069 0.509016 3.372358
v 2.524887 0.507238 3.37312
v 2.514372 0.540004 7.623556
v 2.172157 0.09093207 7.266941
v 2.899791 0.0335283 3.377438
v 2.820238 0.09779006 8.010398
v 2.56855 -0.3403597 7.692897
v 2.535403 -0.4277357 3.388106
v 2.172157 0.09093207 7.266941
v 2.13901 0.06070632 3.834892
v 2.374468 -0.4323079 3.380486
v 2.376069 0.509016 3.372358
v 2.159584 0.02463809 2.918205
v 2.524887 0.507238 3.37312
v 2.578609 0.475996 0.6695436
v 2.195246 -0.03276572 0.57658
v 2.899791 0.0335283 3.377438
v 2.951912 -0.02565372 0.576072
v 2.590724 -0.514096 0.6748775
v 2.535403 -0.4277357 3.388106
v 2.159584 0.02463809 2.918205
v 2.195246 -0.03276572 0.57658
v 2.374468 -0.4323079 3.380486
v 2.578609 0.475996 0.6695436
v 2.195246 -0.03276572 0.57658
v 2.223821 -0.02895594 0.3304535
v 2.200275 2.733802 0.2961635
v 2.676448 2.638298 0.005079492
v 2.730398 -0.01803368 0.02514651
v 2.561463 2.693162 0.6329675
v 2.868473 2.693416 0.2758435
v 2.974314 -0.01676369 0.3375665
v 2.951912 -0.02565372 0.576072
v 2.676448 2.638298 0.005079492
v 2.730398 -0.01803368 0.02514651
v 2.223821 -0.02895594 0.3304535
v 2.195246 -0.03276572 0.57658
v 2.590724 -0.514096 0.6748775
v 2.208048 -2.791968 0.3380735
v 2.700909 -2.72161 0.005842
v 2.730398 -0.01803368 0.02514651
v 2.56512 -2.754376 0.6522714
v 2.910306 -2.738628 0.32385
v 2.974314 -0.01676369 0.3375665
v 2.951912 -0.02565372 0.576072
v 2.700909 -2.72161 0.005842
v 2.730398 -0.01803368 0.02514651
v 2.172157 0.09093207 7.266941
v -2.152955 0.05359429 7.27456
v -2.539517 -0.3848097 7.692136
v 2.56855 -0.3403597 7.692897
v 2.820238 0.09779006 8.010398
v -2.832125 0.0320043 8.000746
v -2.481681 0.4869178 7.62381
v 2.514372 0.540004 7.623556
v 2.172157 0.09093207 7.266941
v -2.152955 0.05359429 7.27456
v -2.152955 0.05359429 7.27456
v -2.481681 0.4869178 7.62381
v -2.083918 0.05003834 3.83413
v -2.53746 0.5278121 3.372358
v -2.321205 0.5130801 3.366008
v -2.841269 0.03403628 3.369563
v -2.832125 0.0320043 8.000746
v -2.539517 -0.3848097 7.692136
v -2.516887 -0.4914899 3.38963
v -2.152955 0.05359429 7.27456
v -2.083918 0.05003834 3.83413
v -2.322347 -0.436372 3.379724
v 2.374468 -0.4323079 3.380486
v 2.159584 0.02463809 2.918205
v -2.094433 0.03048033 2.928366
v -2.322347 -0.436372 3.379724
v -2.083918 0.05003834 3.83413
v 2.13901 0.06070632 3.834892
v -2.321205 0.5130801 3.366008
v 2.376069 0.509016 3.372358
v -2.094433 0.03048033 2.928366
v 2.159584 0.02463809 2.918205
v -2.094433 0.03048033 2.928366
v -2.321205 0.5130801 3.366008
v -2.53746 0.5278121 3.372358
v -2.487854 0.5008881 0.6581135
v -2.120722 0.01498634 0.589533
v -2.841269 0.03403628 3.369563
v -2.889504 0.007620305 0.5697215
v -2.469566 -0.4955539 0.6545585
v -2.516887 -0.4914899 3.38963
v -2.094433 0.03048033 2.928366
v -2.120722 0.01498634 0.589533
v -2.322347 -0.436372 3.379724
v -2.487854 0.5008881 0.6581135
v -2.889504 0.007620305 0.5697215
v -2.853842 0.009652317 0.32512
v -2.886761 2.770886 0.3075935
v -2.388413 2.695448 0.005587492
v -2.336063 -0.01803368 0.03378149
v -2.525573 2.743201 0.64262
v -2.208961 2.723896 0.2811775
v -2.101749 0.009906322 0.351028
v -2.120722 0.01498634 0.589533
v -2.388413 2.695448 0.005587492
v -2.336063 -0.01803368 0.03378149
v -2.853842 0.009652317 0.32512
v -2.889504 0.007620305 0.5697215
v -2.469566 -0.4955539 0.6545585
v -2.895905 -2.733548 0.339852
v -2.362124 -2.658618 0.01422298
v -2.336063 -0.01803368 0.03378149
v -2.509342 -2.736849 0.6469374
v -2.208733 -2.70764 0.326643
v -2.101749 0.009906322 0.351028
v -2.120722 0.01498634 0.589533
v -2.362124 -2.658618 0.01422298
v -2.336063 -0.01803368 0.03378149
v 2.561463 2.693162 0.6329675
v 2.200275 2.733802 0.2961635
v 2.524658 2.838958 0.2905765
v 2.868473 2.693416 0.2758435
v 2.676448 2.638298 0.005079492
v 2.208048 -2.791968 0.3380735
v 2.56512 -2.754376 0.6522714
v 2.56192 -2.871724 0.3301995
v 2.700909 -2.72161 0.005842
v 2.910306 -2.738628 0.32385
v -2.525573 2.743201 0.64262
v -2.886761 2.770886 0.3075935
v -2.540432 2.871724 0.3454395
v -2.208961 2.723896 0.2811775
v -2.388413 2.695448 0.005587492
v -2.895905 -2.733548 0.339852
v -2.509342 -2.736849 0.6469374
v -2.545232 -2.82575 0.3309615
v -2.362124 -2.658618 0.01422298
v -2.208733 -2.70764 0.326643
vt 0.2291687 0.009105943
vt 0.2114853 0.03080455
vt 0.2107257 0.03742126
vt 0.3663318 0.03717206
vt 0.3527116 0.01032316
vt 0.2114009 0.06698378
vt 0.3787165 0.06740187
vt 0.3684088 0.09579767
vt 0.210157 0.09618812
vt 0.3521532 0.1255494
vt 0.2284769 0.1262673
vt 0.210915 0.1032971
vt 0.4681624 0.245998
vt 0.490869 0.2281862
vt 0.4614896 0.2464524
vt 0.4619163 0.1471646
vt 0.4893064 0.143913
vt 0.4324833 0.244814
vt 0.432492 0.1437923
vt 0.4039218 0.1466393
vt 0.4039069 0.2463665
vt 0.3741361 0.2281837
vt 0.3765429 0.1438767
vt 0.3968018 0.2454893
vt 0.2234358 0.3437044
vt 0.2410545 0.3627723
vt 0.2508598 0.3633622
vt 0.2496378 0.2623556
vt 0.2768117 0.2656648
vt 0.2792848 0.3613231
vt 0.2243571 0.2642268
vt 0.2013728 0.2639751
vt 0.2011346 0.3611015
vt 0.2096296 0.361772
vt 0.1875706 0.2655339
vt 0.1855764 0.3604546
vt 0.3209784 0.3648907
vt 0.3308555 0.3640379
vt 0.3493268 0.345326
vt 0.3222674 0.264284
vt 0.2936538 0.2667285
vt 0.2924288 0.3638865
vt 0.3448856 0.2651998
vt 0.3678669 0.2647849
vt 0.3716857 0.3621479
vt 0.3631914 0.3623821
vt 0.3831743 0.2647296
vt 0.3871721 0.3611942
vt 0.03430007 0.2531099
vt 0.2081985 0.2527834
vt 0.2248382 0.223497
vt 0.01739047 0.2241154
vt 0.008926315 0.1957307
vt 0.2343831 0.1954301
vt 0.2219495 0.1650844
vt 0.0196498 0.1656508
vt 0.03412572 0.1395907
vt 0.207946 0.1395063
vt 0.1503241 0.3845708
vt 0.1637161 0.3583924
vt 0.02636691 0.3864594
vt 0.008665424 0.3553942
vt 0.008596016 0.364719
vt 0.008575553 0.3278408
vt 0.1755235 0.3274345
vt 0.1661047 0.29952
vt 0.009446302 0.2991239
vt 0.150025 0.2695813
vt 0.02619108 0.268114
vt 0.00897539 0.2906708
vt 0.005406301 0.09559494
vt 0.01539291 0.1253601
vt 0.1848021 0.1255029
vt 0.1952235 0.09583943
vt 0.1844275 0.06558038
vt 0.01625833 0.06513944
vt 0.1951067 0.03512103
vt 0.00546545 0.03579631
vt 0.1849086 0.00554675
vt 0.01511372 0.005686394
vt 0.2452843 0.2302157
vt 0.2678024 0.2473367
vt 0.2771391 0.2474518
vt 0.2757342 0.1483494
vt 0.2476413 0.1457131
vt 0.3043137 0.2468404
vt 0.3041852 0.1462479
vt 0.3332499 0.1483747
vt 0.3325746 0.2470117
vt 0.3631248 0.2301069
vt 0.3609334 0.145392
vt 0.3409845 0.2471781
vt 0.4489453 0.03362502
vt 0.4320342 0.01624298
vt 0.4221557 0.01489487
vt 0.4243352 0.1157832
vt 0.3964206 0.1134097
vt 0.3926208 0.01600009
vt 0.4487299 0.1139658
vt 0.4709823 0.1132977
vt 0.4711637 0.01587699
vt 0.4626253 0.01544471
vt 0.484439 0.1126658
vt 0.4866368 0.01572164
vt 0.4301202 0.3631182
vt 0.4401022 0.3615776
vt 0.4575395 0.3436608
vt 0.4318888 0.2630155
vt 0.4014388 0.2657182
vt 0.4004016 0.3606571
vt 0.4563665 0.2632846
vt 0.4778732 0.264273
vt 0.4785454 0.361677
vt 0.4704653 0.36257
vt 0.4913679 0.2657986
vt 0.4937889 0.3600694
vt 0.396198 0.3971348
vt 0.409732 0.3814663
vt 0.3961828 0.3828624
vt 0.3815303 0.3832017
vt 0.3882827 0.3707286
vt 0.1796709 0.3810841
vt 0.1938109 0.3944454
vt 0.1942983 0.3816141
vt 0.2011062 0.3687664
vt 0.2091423 0.3816776
vt 0.2623289 0.394337
vt 0.2765478 0.379738
vt 0.2622027 0.3824405
vt 0.2478246 0.3804368
vt 0.2547308 0.3687699
vt 0.318876 0.3841552
vt 0.3349036 0.3959692
vt 0.3332253 0.3841145
vt 0.3406355 0.3707983
vt 0.3473217 0.3831953
vn -0.9935167 -0.010041 0.1132424
vn 0.004053103 0.7167674 0.6973006
vn 0.1893812 0.941525 0.2786849
vn 0.3695629 0.9292056 0.0002906511
vn -0.999551 -0.02786197 0.0110193
vn 0.9997067 0.02115337 0.01178774
vn 0.9999152 0.005124281 0.01197376
vn 0.4123444 -0.9107499 0.02251361
vn 0.1914336 -0.9287342 0.3174996
vn -0.999551 -0.02786197 0.0110193
vn -0.9935167 -0.010041 0.1132424
vn -0.0123742 -0.681618 0.7316036
vn 0.009632203 0.6811088 -0.7321189
vn -0.9927661 -0.02016284 -0.1183584
vn 0.1710775 0.935621 -0.3087815
vn 0.01161116 0.9998087 -0.01574183
vn -0.9995128 -0.02675439 -0.01607225
vn 0.9995819 0.005020872 0.02847547
vn 0.9995813 -0.003989254 0.02866088
vn 0.0277544 -0.9991943 0.02898833
vn 0.1939942 -0.9452816 -0.2623148
vn -0.9927661 -0.02016284 -0.1183584
vn -0.9995128 -0.02675439 -0.01607225
vn 0.04349703 -0.6979347 -0.7148393
vn 0.006651922 0.1474301 0.9890501
vn -0.7205313 0.687207 -0.09263577
vn -0.8658577 0.3296022 -0.376368
vn -0.9969833 -0.01074929 -0.07686668
vn 0.1612551 -0.0006935187 -0.9869126
vn 0.1724026 -0.0003813025 -0.9850265
vn -0.007176453 0.02503414 0.9996608
vn 0.9920372 0.03819495 0.1200139
vn 0.949391 0.2951717 -0.1073802
vn 0.7420779 0.6611106 0.1106935
vn 0.1612551 -0.0006935187 -0.9869126
vn 0.1724026 -0.0003813025 -0.9850265
vn -0.8601357 -0.3412541 -0.3790939
vn -0.6865496 -0.718785 -0.1095339
vn 0.008249342 -0.1332531 0.9910477
vn -0.9975559 0.009691177 -0.06919859
vn 0.1482478 -0.00282058 -0.9889463
vn 0.1781869 -0.003271569 -0.9839913
vn -0.02339042 -0.009179727 0.9996842
vn 0.9906351 -0.02311182 0.1345655
vn 0.9528908 -0.2783989 -0.1203882
vn 0.743287 -0.6661521 0.06136622
vn 0.1482478 -0.00282058 -0.9889463
vn 0.1781869 -0.003271569 -0.9839913
vn -0.0005960467 -0.05391987 -0.9985451
vn -0.000572204 -0.05736904 -0.9983529
vn 0.006127386 -0.8800012 0.474932
vn 0.006151231 -0.8866296 0.4624391
vn -0.001263665 0.02533663 0.9996781
vn -0.001215976 0.02136713 0.9997709
vn -0.008773868 0.9193488 0.3933459
vn -0.008773882 0.9218358 0.3874813
vn -0.0005960467 -0.05391987 -0.9985451
vn -0.000572204 -0.05736904 -0.9983529
vn 0.9998232 -0.003460709 0.01849023
vn -0.3864187 0.922253 0.01140021
vn 0.9906516 0.02505808 0.1340948
vn -0.1839263 0.9471585 0.2627964
vn 0.05638297 0.7272425 0.6840609
vn -0.9997024 0.02207544 0.01038377
vn -0.9999468 0.0008940633 0.01027842
vn -0.4209733 -0.9069564 0.01455072
vn -0.1414263 -0.9593114 0.2443773
vn 0.9998232 -0.003460709 0.01849023
vn 0.9906516 0.02505808 0.1340948
vn 0.194525 -0.7298939 0.6552976
vn 7.15256E-05 -0.9999727 0.007390979
vn -0.0002384213 -0.01897778 -0.9998199
vn -0.0002622634 -0.01769738 -0.9998434
vn 4.768369E-05 -0.9999181 0.01280307
vn -2.384204E-05 0.02363529 0.9997206
vn -7.152504E-05 0.02876052 0.9995863
vn -0.0003576282 0.9995114 -0.03125671
vn -0.0003814705 0.9991131 -0.04210481
vn -0.0002622634 -0.01769738 -0.9998434
vn -0.0002384213 -0.01897778 -0.9998199
vn 0.9929405 0.03248777 -0.1140776
vn 0.01993275 0.677946 -0.7348414
vn -0.1840235 0.9434853 -0.2756283
vn -0.0309025 0.9995028 -0.006259187
vn 0.9997239 0.02329651 0.003059487
vn -0.99998 -0.00604904 -0.001854366
vn -0.9999481 -0.01002201 -0.001821242
vn -0.005221384 -0.9999576 0.007599617
vn -0.1354979 -0.965019 -0.2244519
vn 0.9929405 0.03248777 -0.1140776
vn 0.9997239 0.02329651 0.003059487
vn 0.1400823 -0.7305664 -0.6683185
vn 0.02079117 0.1467721 0.9889517
vn -0.6896423 0.7144388 -0.1181976
vn -0.8480656 0.3425686 -0.4042668
vn -0.9967017 -0.02014689 -0.07861191
vn 0.174836 -0.0009092333 -0.9845971
vn 0.1933161 -0.0004213001 -0.9811364
vn -0.01244564 0.01845388 0.9997522
vn 0.99071 0.03773605 0.1306515
vn 0.9471912 0.2934783 -0.1292256
vn 0.734085 0.6766036 0.05767973
vn 0.174836 -0.0009092333 -0.9845971
vn 0.1933161 -0.0004213001 -0.9811364
vn -0.8479291 -0.366157 -0.3833343
vn -0.679805 -0.7220729 -0.1283592
vn 0.05072684 -0.1281616 0.9904552
vn -0.9997496 0.02034359 -0.009320833
vn 0.2189449 -0.007288575 -0.97571
vn 0.2276295 -0.007487832 -0.9737191
vn 0.01559301 -0.008535621 0.9998419
vn 0.9786064 -0.03334929 0.2030211
vn 0.9553854 -0.2876017 -0.06725948
vn 0.7668872 -0.6356008 0.08885723
vn 0.2189449 -0.007288575 -0.97571
vn 0.2276295 -0.007487832 -0.9737191
vn 0.06968136 0.9211251 0.3829791
vn -0.2541727 0.9636032 -0.08285657
vn -0.009703735 0.9943825 -0.1054
vn 0.3198911 0.942616 -0.09562776
vn 0.115935 0.8468153 -0.519098
vn -0.1800926 -0.9830063 -0.03556978
vn 0.0649057 -0.9378527 0.34091
vn 0.02682463 -0.9987109 -0.04309228
vn 0.1209417 -0.9237087 -0.3635042
vn 0.2952264 -0.9551386 -0.0234883
vn 0.07240513 0.9170521 0.3921388
vn -0.2218285 0.9715756 -0.08266114
vn 0.0256321 0.9996519 -0.006247079
vn 0.3283249 0.9415681 -0.07518277
vn 0.1185705 0.9066764 -0.4048198
vn -0.2091805 -0.971135 -0.1146311
vn 0.05366205 -0.9631742 0.2634687
vn -0.01285099 -0.9932693 -0.1151135
vn 0.1066686 -0.9087837 -0.4034032
vn 0.2714149 -0.9580198 -0.09236932
g gate-swatch-inflatable-01-lod2_0
f 3/3/3 2/2/2 1/1/1
f 3/3/3 1/1/1 4/4/4
f 1/1/1 5/5/5 4/4/4
f 6/6/6 3/3/3 4/4/4
f 6/6/6 4/4/4 7/7/7
f 6/6/6 7/7/7 8/8/8
f 8/8/8 9/9/9 6/6/6
f 8/8/8 10/10/10 9/9/9
f 10/10/10 11/11/11 9/9/9
f 9/9/9 11/11/11 12/12/12
f 15/15/15 14/14/14 13/13/13
f 14/14/14 15/15/15 16/16/16
f 16/16/16 17/17/17 14/14/14
f 16/16/16 15/15/15 18/18/18
f 18/18/18 19/19/19 16/16/16
f 20/20/20 19/19/19 18/18/18
f 20/20/20 18/18/18 21/21/21
f 21/21/21 22/22/22 20/20/20
f 23/23/23 20/20/20 22/22/22
f 21/21/21 24/24/24 22/22/22
f 27/27/27 26/26/26 25/25/25
f 27/27/27 25/25/25 28/28/28
f 27/27/27 28/28/28 29/29/29
f 29/29/29 30/30/30 27/27/27
f 25/25/25 31/31/31 28/28/28
f 25/25/25 32/32/32 31/31/31
f 32/32/32 25/25/25 33/33/33
f 34/34/34 33/33/33 25/25/25
f 33/33/33 35/35/35 32/32/32
f 35/35/35 33/33/33 36/36/36
f 39/39/39 38/38/38 37/37/37
f 39/39/39 37/37/37 40/40/40
f 41/41/41 40/40/40 37/37/37
f 37/37/37 42/42/42 41/41/41
f 40/40/40 43/43/43 39/39/39
f 43/43/43 44/44/44 39/39/39
f 45/45/45 39/39/39 44/44/44
f 39/39/39 45/45/45 46/46/46
f 45/45/45 44/44/44 47/47/47
f 47/47/47 48/48/48 45/45/45
f 51/51/51 50/50/50 49/49/49
f 51/51/51 49/49/49 52/52/52
f 51/51/51 52/52/52 53/53/53
f 53/53/53 54/54/54 51/51/51
f 53/53/53 55/55/55 54/54/54
f 53/53/53 56/56/56 55/55/55
f 55/55/55 56/56/56 57/57/57
f 57/57/57 58/58/58 55/55/55
f 61/61/61 60/60/60 59/59/59
f 61/61/61 62/62/62 60/60/60
f 63/63/63 62/62/62 61/61/61
f 60/60/60 62/62/62 64/64/64
f 64/64/64 65/65/65 60/60/60
f 64/64/64 66/66/66 65/65/65
f 67/67/67 66/66/66 64/64/64
f 68/68/68 66/66/66 67/67/67
f 67/67/67 69/69/69 68/68/68
f 67/67/67 70/70/70 69/69/69
f 73/73/73 72/72/72 71/71/71
f 71/71/71 74/74/74 73/73/73
f 75/75/75 74/74/74 71/71/71
f 71/71/71 76/76/76 75/75/75
f 77/77/77 75/75/75 76/76/76
f 77/77/77 76/76/76 78/78/78
f 78/78/78 79/79/79 77/77/77
f 78/78/78 80/80/80 79/79/79
f 83/83/83 82/82/82 81/81/81
f 83/83/83 81/81/81 84/84/84
f 85/85/85 84/84/84 81/81/81
f 84/84/84 86/86/86 83/83/83
f 84/84/84 87/87/87 86/86/86
f 86/86/86 87/87/87 88/88/88
f 88/88/88 89/89/89 86/86/86
f 90/90/90 89/89/89 88/88/88
f 88/88/88 91/91/91 90/90/90
f 89/89/89 90/90/90 92/92/92
f 95/95/95 94/94/94 93/93/93
f 95/95/95 93/93/93 96/96/96
f 95/95/95 96/96/96 97/97/97
f 97/97/97 98/98/98 95/95/95
f 93/93/93 99/99/99 96/96/96
f 93/93/93 100/100/100 99/99/99
f 100/100/100 93/93/93 101/101/101
f 102/102/102 101/101/101 93/93/93
f 101/101/101 103/103/103 100/100/100
f 103/103/103 101/101/101 104/104/104
f 107/107/107 106/106/106 105/105/105
f 107/107/107 105/105/105 108/108/108
f 109/109/109 108/108/108 105/105/105
f 105/105/105 110/110/110 109/109/109
f 108/108/108 111/111/111 107/107/107
f 111/111/111 112/112/112 107/107/107
f 113/113/113 107/107/107 112/112/112
f 107/107/107 113/113/113 114/114/114
f 113/113/113 112/112/112 115/115/115
f 115/115/115 116/116/116 113/113/113
f 119/119/119 118/118/118 117/117/117
f 120/120/120 119/119/119 117/117/117
f 118/118/118 119/119/119 121/121/121
f 121/121/121 119/119/119 120/120/120
f 124/124/124 123/123/123 122/122/122
f 125/125/125 124/124/124 122/122/122
f 123/123/123 124/124/124 126/126/126
f 126/126/126 124/124/124 125/125/125
f 129/129/129 128/128/128 127/127/127
f 130/130/130 129/129/129 127/127/127
f 128/128/128 129/129/129 131/131/131
f 131/131/131 129/129/129 130/130/130
f 134/134/134 133/133/133 132/132/132
f 135/135/135 134/134/134 132/132/132
f 133/133/133 134/134/134 136/136/136
f 136/136/136 134/134/134 135/135/135
