g gate-regional-05-lod2
v 0.2543251 0.000882444 1.668319
v -1.983643E-07 0.000516844 1.702843
v -2E-07 0.0117491 1.688329
v 0.2506927 0.0113181 1.654742
v 0.5496079 0.0001836438 1.501828
v 0.2089747 0.0067549 1.526427
v -2E-07 0.0072198 1.557449
v 0.4444386 0.0064382 1.39748
v 0.5402439 0.0104421 1.491854
v 0.5656564 0.0063941 1.25556
v 0.7044875 0.0126706 1.283511
v 0.6579272 0.0050669 1.080386
v 0.7182701 -0.0002876561 1.288664
v 0.7886061 0.0125807 1.102255
v 0.8025669 0.000707444 1.107004
v 0.7194759 0.003144 0.8958622
v 0.7886061 0.0125807 1.102255
v 0.6579272 0.0050669 1.080386
v 0.8437355 0.0140638 0.8985284
v 0.8025669 0.000707444 1.107004
v 0.7741354 0.0008856 0.6091069
v 0.8603212 0.002255244 0.9009315
v 0.8859566 0.0186478 0.5941604
v 0.7924196 -0.0108509 0.4005835
v 0.9020376 0.000385844 0.5943644
v 0.9008766 0.0013597 0.2646445
v 0.8084778 0.0194506 0.184194
v 0.9042574 0.0055755 0.1834881
v 0.914344 -0.001090056 0.262125
v 0.8215947 0.0259385 0.1535752
v 0.9150648 -0.001318756 0.1833918
v 0.8480558 0.0227427 0.1263341
v 0.9155524 -0.001265856 0.1084914
v 0.9045254 0.0110223 0.1077075
v -0.2543255 0.000882444 1.668319
v -2E-07 0.0117491 1.688329
v -1.983643E-07 0.000516844 1.702843
v -0.2506931 0.0113181 1.654742
v -0.208975 0.006937 1.526427
v -2E-07 0.0072198 1.557449
v -0.444439 0.0072135 1.39748
v -0.5397629 0.0104421 1.492173
v -0.5496083 -0.0003514562 1.501828
v -0.5656568 0.006534101 1.25556
v -0.7062825 0.0095576 1.280053
v -0.6612433 0.0056918 1.072281
v -0.7200652 -0.0002876561 1.285207
v -0.7886066 0.0076303 1.096001
v -0.8049092 -0.000247056 1.099645
v -0.6612433 0.0056918 1.072281
v -0.7886066 0.0076303 1.096001
v -0.7245157 0.0041051 0.8767121
v -0.8466697 0.0071303 0.8861064
v -0.8049092 -0.000247056 1.099645
v -0.7602246 0.0029188 0.7020009
v -0.8622807 -0.000681556 0.8891132
v -0.8811963 0.0159396 0.6539458
v -0.7867373 -0.0058547 0.440035
v -0.8973987 -3.055597E-05 0.6449386
v -0.9000883 0.0047251 0.3782295
v -0.7907903 -0.0076571 0.3612728
v -0.911555 -0.0002192562 0.3769909
v -0.8988653 0.0103052 0.2308161
v -0.8045171 0.0048429 0.1834926
v -0.9042577 0.004776501 0.1468935
v -0.9142626 -0.0009594563 0.2199091
v -0.8214254 0.0160407 0.1522006
v -0.9150652 -0.0001187561 0.1475371
v -0.8480563 0.0163359 0.128119
v -0.915164 -0.000175956 0.1079694
v -0.9045259 0.0111136 0.1077075
v 0.2543251 0.000882444 1.668319
v -2E-07 -0.0061621 1.688329
v -1.983643E-07 0.000516844 1.702843
v 0.2506927 -0.006593 1.654742
v 0.5496079 0.0001836438 1.501828
v 0.2089747 0.004755 1.526427
v -2E-07 0.0052198 1.557449
v 0.4444386 0.0044382 1.39748
v 0.5402439 -0.007468901 1.491854
v 0.5656564 0.004394101 1.25556
v 0.7044875 -0.0052403 1.283511
v 0.6579272 0.0030669 1.080386
v 0.7182701 -0.0002876561 1.288664
v 0.7886061 -0.0053303 1.102255
v 0.8025669 0.000707444 1.107004
v 0.6579272 0.0030669 1.080386
v 0.7886061 -0.0053303 1.102255
v 0.7194759 0.001144 0.8958622
v 0.8437355 -0.0038474 0.8985284
v 0.8025669 0.000707444 1.107004
v 0.7741354 -0.0011144 0.6091069
v 0.8603212 0.002255244 0.9009315
v 0.8859566 0.000737 0.5941604
v 0.7924196 -0.0128509 0.4005835
v 0.9020376 0.000385844 0.5943644
v 0.9008766 -0.0165515 0.2646445
v 0.8084778 0.0174505 0.184194
v 0.9042574 -0.0100907 0.1834881
v 0.914344 -0.001090056 0.262125
v 0.8215947 0.0239385 0.1535752
v 0.9150648 -0.001318756 0.1833918
v 0.8480558 0.01836 0.1263341
v 0.9155524 -0.001265856 0.1084914
v 0.9045254 -0.0076542 0.1077075
v -1.983643E-07 0.000516844 1.702843
v -2E-07 -0.0061621 1.688329
v -0.2543255 0.000882444 1.668319
v -0.2506931 -0.006593 1.654742
v -0.208975 0.004937 1.526427
v -2E-07 0.0052198 1.557449
v -0.444439 0.0052135 1.39748
v -0.5397629 -0.007468901 1.492173
v -0.5496083 -0.0003514562 1.501828
v -0.5656568 0.0045341 1.25556
v -0.7062825 -0.0083533 1.280053
v -0.6612433 0.0036918 1.072281
v -0.7200652 -0.0002876561 1.285207
v -0.7886066 -0.0102807 1.096001
v -0.8049092 -0.000247056 1.099645
v -0.7245157 0.0021052 0.8767121
v -0.7886066 -0.0102807 1.096001
v -0.6612433 0.0036918 1.072281
v -0.8466697 -0.0107808 0.8861064
v -0.8049092 -0.000247056 1.099645
v -0.7602246 0.0009189001 0.7020009
v -0.8622807 -0.000681556 0.8891132
v -0.8811963 -0.0019713 0.6539458
v -0.7867373 -0.0078547 0.440035
v -0.8973987 -3.055597E-05 0.6449386
v -0.9000883 -0.0131859 0.3782295
v -0.7907903 -0.0096572 0.3612728
v -0.911555 -0.0002192562 0.3769909
v -0.8988653 -0.007606 0.2308161
v -0.8045171 0.002843 0.1834926
v -0.9042577 -0.0126361 0.1468935
v -0.9142626 -0.0009594563 0.2199091
v -0.8214254 0.0140408 0.1522006
v -0.9150652 -0.0001187561 0.1475371
v -0.8480563 0.0124579 0.128119
v -0.915164 -0.000175956 0.1079694
v -0.9045259 -0.009455101 0.1077075
v 0.9057949 0.005728 0.1144642
v 0.9000083 -5.84E-05 0.1144642
v 0.9000083 -5.84E-05 -6.000001E-07
v 0.9057949 0.005728 -6.000001E-07
v 0.9115812 -5.84E-05 0.1144642
v 0.9115812 -5.84E-05 -6.000001E-07
v 0.9057949 -0.0058448 0.1144642
v 0.9057949 -0.0058448 -6.000001E-07
v 0.9000083 -5.84E-05 0.1144642
v 0.9000083 -5.84E-05 -6.000001E-07
v -0.9057953 0.005728 -6.000001E-07
v -0.9000089 -5.84E-05 -6.000001E-07
v -0.9000089 -5.84E-05 0.1144642
v -0.9057953 0.005728 0.1144642
v -0.9115818 -5.84E-05 -6.000001E-07
v -0.9115818 -5.84E-05 0.1144642
v -0.9057953 -0.0058448 -6.000001E-07
v -0.9057953 -0.0058448 0.1144642
v -0.9000089 -5.84E-05 -6.000001E-07
v -0.9000089 -5.84E-05 0.1144642
vt 0.1334195 0.742029
vt 0.1773243 0.7301117
vt 0.1758813 0.7264317
vt 0.1328927 0.738265
vt 0.07353675 0.7365725
vt 0.1306565 0.714539
vt 0.1668483 0.705151
vt 0.082705 0.7106568
vt 0.07461 0.7329995
vt 0.05154225 0.6973907
vt 0.03226625 0.7132803
vt 0.02125325 0.6775892
vt 0.029743 0.7164997
vt 0.003459 0.6927627
vt 0.00090425 0.695823
vt 0.2118175 0.5829433
vt 0.2474453 0.5671688
vt 0.246444 0.5905322
vt 0.210543 0.5610173
vt 0.2482843 0.563272
vt 0.1597943 0.5766097
vt 0.2108677 0.5567818
vt 0.1560998 0.556893
vt 0.1220808 0.5755723
vt 0.1561483 0.5521128
vt 0.09765325 0.5566292
vt 0.08258925 0.574704
vt 0.0831495 0.5564308
vt 0.0971005 0.5533608
vt 0.07673575 0.5723758
vt 0.0831675 0.5534142
vt 0.07225575 0.5669942
vt 0.069967 0.553033
vt 0.0697695 0.5566375
vt 0.0426635 0.688739
vt 0.00989925 0.6575443
vt 0.007112 0.6603492
vt 0.0446385 0.6854963
vt 0.056123 0.664626
vt 0.026664 0.6416053
vt 0.1016368 0.6800777
vt 0.1001075 0.7037858
vt 0.09979125 0.7075703
vt 0.1354302 0.6802112
vt 0.147619 0.702303
vt 0.1723472 0.6734778
vt 0.1486475 0.7060382
vt 0.1823193 0.6941093
vt 0.1838325 0.6978685
vt 0.243972 0.6192935
vt 0.2464492 0.5965125
vt 0.2079285 0.6100072
vt 0.2087038 0.5883385
vt 0.2471582 0.5925223
vt 0.1762853 0.6046817
vt 0.2092938 0.5844705
vt 0.1673467 0.5834662
vt 0.1293395 0.601113
vt 0.1657882 0.5789083
vt 0.11827 0.5810263
vt 0.115174 0.6008255
vt 0.118013 0.5779942
vt 0.092204 0.5814195
vt 0.0828995 0.5994158
vt 0.077039 0.5808707
vt 0.0900825 0.5775697
vt 0.07637725 0.5966725
vt 0.07731825 0.5780203
vt 0.072337 0.591218
vt 0.0704025 0.5772613
vt 0.07004975 0.5806885
vt 0.04877675 0.6532465
vt 0.01659725 0.6217753
vt 0.014604 0.623505
vt 0.050224 0.6510863
vt 0.1047933 0.6740252
vt 0.06262725 0.6305137
vt 0.0341285 0.6063185
vt 0.1074483 0.6476337
vt 0.1051315 0.671497
vt 0.1412045 0.6489035
vt 0.1518842 0.6717963
vt 0.176741 0.6450565
vt 0.1525965 0.674307
vt 0.1856793 0.665323
vt 0.1866525 0.6680248
vt 0.2476595 0.5600582
vt 0.2475573 0.5379108
vt 0.213483 0.554949
vt 0.2115 0.5328875
vt 0.2481273 0.5351185
vt 0.1611737 0.550308
vt 0.211591 0.529879
vt 0.1569465 0.5305715
vt 0.123175 0.5500633
vt 0.156739 0.5278155
vt 0.09832275 0.532052
vt 0.0838945 0.5500075
vt 0.083939 0.532005
vt 0.09784325 0.5289375
vt 0.0780905 0.548174
vt 0.083829 0.5298495
vt 0.0733805 0.5431995
vt 0.0706425 0.5302155
vt 0.070604 0.5322375
vt 0.01129625 0.5727
vt 0.013532 0.5712995
vt 0.04038475 0.6074165
vt 0.042154 0.605511
vt 0.05762025 0.587088
vt 0.033227 0.558809
vt 0.09917525 0.6109443
vt 0.09318075 0.6340925
vt 0.0925545 0.6365515
vt 0.1322203 0.6173162
vt 0.1401735 0.6414093
vt 0.1696918 0.6174195
vt 0.1404922 0.6441078
vt 0.1757243 0.63972
vt 0.1764483 0.642778
vt 0.2094103 0.5272325
vt 0.2465238 0.5099577
vt 0.2461758 0.533057
vt 0.20818 0.5054035
vt 0.2466702 0.506818
vt 0.1773693 0.5249745
vt 0.2083247 0.5024117
vt 0.1664595 0.5044652
vt 0.1301955 0.5256978
vt 0.164552 0.5018735
vt 0.1172763 0.5067495
vt 0.1159523 0.5268775
vt 0.1168668 0.5043057
vt 0.091254 0.509674
vt 0.08379475 0.5279253
vt 0.0763025 0.5103757
vt 0.08911675 0.5070572
vt 0.07726775 0.5260905
vt 0.07616925 0.5078275
vt 0.0726985 0.5215205
vt 0.0692235 0.508582
vt 0.069425 0.510741
vt 0.04591225 0.5547153
vt 0.04591225 0.5562752
vt 0.06610875 0.5562752
vt 0.06610875 0.5547153
vt 0.04591225 0.5531595
vt 0.06610875 0.5531595
vt 0.04591225 0.5516037
vt 0.06610875 0.5516037
vt 0.04591225 0.5500445
vt 0.06610875 0.5500445
vt 0.045984 0.5639067
vt 0.045984 0.5654668
vt 0.06618025 0.5654668
vt 0.06618025 0.5639067
vt 0.045984 0.5623515
vt 0.06618025 0.5623515
vt 0.045984 0.560795
vt 0.06618025 0.560795
vt 0.045984 0.5592358
vt 0.06618025 0.5592358
vn 0.1884953 0.7987664 0.5713508
vn 0.08131162 0.7942398 0.6021391
vn 0.04502995 0.9439229 0.3270808
vn 0.1105509 0.9414653 0.3184678
vn 0.4083577 0.7839095 0.4676856
vn -0.008599591 0.9994472 -0.03211545
vn -0.002913955 0.9993974 -0.03458955
vn -0.02302289 0.9994109 -0.02545285
vn 0.2270203 0.9367442 0.2664059
vn -0.03802555 0.9990118 -0.02301306
vn 0.2891064 0.9394532 0.1839703
vn -0.04614038 0.9985753 -0.02680401
vn 0.5503914 0.7659327 0.3322895
vn 0.3301319 0.9316501 0.1517931
vn 0.5854234 0.7631747 0.2735763
vn -0.09208097 0.9955602 -0.01951999
vn 0.2676489 0.9605715 0.07527512
vn -0.06997836 0.9973023 -0.02215981
vn 0.2995338 0.9519261 0.06415677
vn 0.5797361 0.7977997 0.1655953
vn -0.1449916 0.9887735 -0.0361171
vn 0.6276751 0.7676111 0.1296044
vn 0.2657628 0.9640281 0.004466398
vn -0.1276631 0.9913947 -0.02896073
vn 0.6223406 0.7813705 0.04639129
vn 0.26904 0.9618118 0.0503554
vn 0.1345273 0.9829358 0.1254574
vn 0.3396154 0.9371005 0.08064697
vn 0.4573748 0.8890771 0.01871205
vn 0.1963352 0.9716433 0.1317638
vn 0.5199187 0.8536122 0.03210439
vn 0.1963352 0.9716433 0.1317638
vn 0.6591511 0.7513822 0.03073059
vn 0.4606978 0.8839173 0.08029785
vn -0.1912704 0.7949939 0.5756737
vn -0.04488176 0.9438169 0.3274068
vn -0.08131162 0.7942398 0.6021392
vn -0.1124833 0.9398841 0.3224365
vn 0.008270292 0.9995195 -0.0298733
vn 0.003204686 0.9994221 -0.03384148
vn 0.0151198 0.9996347 -0.02239999
vn -0.2204546 0.940126 0.2599286
vn -0.395027 0.7994435 0.4525967
vn 0.01666648 0.9997134 -0.01718884
vn -0.2519485 0.9550528 0.1561922
vn 0.01578011 0.9997602 -0.0151808
vn -0.4625646 0.8423959 0.2764112
vn -0.2598314 0.9592181 0.1113032
vn -0.4530716 0.8686391 0.2004799
vn 0.01847222 0.9997724 -0.01067312
vn -0.1967187 0.9791829 0.05002645
vn 0.03901879 0.9992352 -0.002579355
vn -0.2580598 0.964325 0.05901191
vn -0.4192681 0.9007882 0.1131142
vn 0.08411673 0.9963953 -0.01098587
vn -0.5175915 0.8485981 0.1094544
vn -0.2779474 0.9602542 0.02563342
vn 0.1197369 0.9924344 -0.02715066
vn -0.6082795 0.792128 0.05029352
vn -0.2511342 0.9679247 0.007315165
vn 0.105739 0.9942583 0.01642217
vn -0.5618747 0.8270257 0.01803929
vn -0.224568 0.9743317 0.01572167
vn 0.008134297 0.9959402 0.08964916
vn -0.3372935 0.9356431 0.1039484
vn -0.523006 0.8523265 0.002113607
vn -0.1480355 0.9536986 0.2618102
vn -0.561156 0.8271765 0.02971637
vn -0.1480355 0.9536986 0.2618102
vn -0.5992756 0.7977836 0.0664082
vn -0.4044638 0.9000714 0.1621122
vn 0.1462747 -0.8871577 0.4376699
vn 0.02685047 -0.9777277 0.2081527
vn 0.05963458 -0.8945209 0.4430305
vn 0.07487938 -0.9735745 0.2157448
vn 0.2861868 -0.8954231 0.3410493
vn -0.02940669 -0.9963006 -0.08074858
vn -0.01390676 -0.9962729 -0.08512889
vn -0.05279338 -0.996344 -0.06716678
vn 0.1394002 -0.9756157 0.1695335
vn -0.06189891 -0.9970582 -0.04520784
vn 0.1493091 -0.9841354 0.09583374
vn -0.06183047 -0.9977314 -0.02663146
vn 0.3235538 -0.9261149 0.1939695
vn 0.1555213 -0.9852231 0.07175407
vn 0.3189837 -0.9364951 0.1456926
vn -0.05107484 -0.9985936 -0.01421746
vn 0.1501186 -0.9879454 0.03779273
vn -0.03502807 -0.9993284 -0.01076884
vn 0.1243667 -0.9919327 0.02454322
vn 0.3497038 -0.9325819 0.0894328
vn 0.004460948 -0.9997976 0.01961944
vn 0.2586976 -0.9644884 0.05326881
vn 0.1668317 -0.9855064 0.03072939
vn -0.02245011 -0.9995714 0.01878997
vn 0.3253762 -0.9450226 0.03259605
vn 0.205839 -0.9776527 -0.04272842
vn -0.2897799 -0.9471462 -0.1376288
vn 0.203661 -0.9754509 -0.08377218
vn 0.599729 -0.80006 0.01513483
vn -0.3569197 -0.9233942 -0.1412495
vn 0.6402067 -0.7681358 -0.01014423
vn -0.3569197 -0.9233942 -0.1412495
vn 0.5705268 -0.8212093 -0.01070577
vn 0.1653864 -0.9829958 -0.07979168
vn -0.05963458 -0.8945209 0.4430305
vn -0.02699169 -0.9777948 0.2078194
vn -0.1428819 -0.8903001 0.4323776
vn -0.07259774 -0.9747191 0.2113107
vn 0.02971973 -0.9961094 -0.08296258
vn 0.01361636 -0.9962133 -0.08586991
vn 0.06086672 -0.9956747 -0.07019453
vn -0.1473403 -0.9727536 0.1790005
vn -0.3096653 -0.8816921 0.3559865
vn 0.08364653 -0.9951916 -0.05096129
vn -0.190333 -0.9739126 0.1235618
vn 0.09297124 -0.9949614 -0.03752694
vn -0.4226159 -0.8710888 0.2502002
vn -0.229527 -0.9672366 0.108493
vn -0.4577137 -0.8635966 0.211422
vn 0.08848459 -0.9956832 -0.02802556
vn -0.2003575 -0.9780412 0.05737746
vn 0.1035915 -0.9942831 -0.02588284
vn -0.1909275 -0.9810415 0.03322998
vn -0.507017 -0.8503086 0.1410994
vn 0.0523825 -0.9985918 -0.008384457
vn -0.4347793 -0.896269 0.08757167
vn -0.192481 -0.9809377 0.02668815
vn 0.02197141 -0.9995824 0.01877384
vn -0.4496239 -0.8921432 0.0438024
vn -0.2694028 -0.9629647 0.01100865
vn 0.04209083 -0.9989003 -0.02065198
vn -0.5411662 -0.8407382 0.01726971
vn -0.2680555 -0.9633128 -0.01321629
vn 0.1672645 -0.9793367 -0.1136754
vn -0.2383212 -0.9653446 -0.106362
vn -0.5968708 -0.8018486 0.02799797
vn 0.3346497 -0.8957798 -0.2925545
vn -0.6582609 -0.7527081 0.01109279
vn 0.3346497 -0.8957798 -0.2925545
vn -0.7131153 -0.7006197 -0.02446788
vn -0.2998026 -0.9386933 -0.1702155
vn 0 1 0
vn -1 0 0
vn -1 0 0
vn 0 1 0
vn 1 0 0
vn 1 0 0
vn 0 -1 0
vn 0 -1 0
vn -1 0 0
vn -1 0 0
vn 0 1 0
vn 1 0 0
vn 1 0 0
vn 0 1 0
vn -1 0 0
vn -1 0 0
vn 0 -1 0
vn 0 -1 0
vn 1 0 0
vn 1 0 0
g gate-regional-05-lod2_0
f 3/3/3 2/2/2 1/1/1
f 3/3/3 1/1/1 4/4/4
f 4/4/4 1/1/1 5/5/5
f 3/3/3 4/4/4 6/6/6
f 6/6/6 7/7/7 3/3/3
f 8/8/8 6/6/6 4/4/4
f 4/4/4 9/9/9 8/8/8
f 4/4/4 5/5/5 9/9/9
f 10/10/10 8/8/8 9/9/9
f 11/11/11 9/9/9 5/5/5
f 9/9/9 11/11/11 10/10/10
f 10/10/10 11/11/11 12/12/12
f 5/5/5 13/13/13 11/11/11
f 14/14/14 12/12/12 11/11/11
f 14/14/14 11/11/11 13/13/13
f 13/13/13 15/15/15 14/14/14
f 18/18/18 17/17/17 16/16/16
f 19/19/19 16/16/16 17/17/17
f 19/19/19 17/17/17 20/20/20
f 16/16/16 19/19/19 21/21/21
f 20/20/20 22/22/22 19/19/19
f 23/23/23 21/21/21 19/19/19
f 23/23/23 19/19/19 22/22/22
f 21/21/21 23/23/23 24/24/24
f 22/22/22 25/25/25 23/23/23
f 26/26/26 24/24/24 23/23/23
f 26/26/26 23/23/23 25/25/25
f 27/27/27 24/24/24 26/26/26
f 26/26/26 28/28/28 27/27/27
f 25/25/25 29/29/29 26/26/26
f 28/28/28 26/26/26 29/29/29
f 28/28/28 30/30/30 27/27/27
f 29/29/29 31/31/31 28/28/28
f 28/28/28 32/32/32 30/30/30
f 28/28/28 31/31/31 33/33/33
f 34/34/34 32/32/32 28/28/28
f 33/33/33 34/34/34 28/28/28
f 37/37/37 36/36/36 35/35/35
f 36/36/36 38/38/38 35/35/35
f 39/39/39 38/38/38 36/36/36
f 36/36/36 40/40/40 39/39/39
f 38/38/38 39/39/39 41/41/41
f 35/35/35 38/38/38 42/42/42
f 38/38/38 41/41/41 42/42/42
f 42/42/42 43/43/43 35/35/35
f 42/42/42 41/41/41 44/44/44
f 43/43/43 42/42/42 45/45/45
f 42/42/42 44/44/44 45/45/45
f 46/46/46 45/45/45 44/44/44
f 45/45/45 47/47/47 43/43/43
f 48/48/48 45/45/45 46/46/46
f 47/47/47 45/45/45 48/48/48
f 48/48/48 49/49/49 47/47/47
f 52/52/52 51/51/51 50/50/50
f 53/53/53 51/51/51 52/52/52
f 53/53/53 54/54/54 51/51/51
f 55/55/55 53/53/53 52/52/52
f 54/54/54 53/53/53 56/56/56
f 57/57/57 53/53/53 55/55/55
f 56/56/56 53/53/53 57/57/57
f 58/58/58 57/57/57 55/55/55
f 57/57/57 59/59/59 56/56/56
f 58/58/58 60/60/60 57/57/57
f 60/60/60 59/59/59 57/57/57
f 58/58/58 61/61/61 60/60/60
f 59/59/59 60/60/60 62/62/62
f 61/61/61 63/63/63 60/60/60
f 63/63/63 62/62/62 60/60/60
f 61/61/61 64/64/64 63/63/63
f 64/64/64 65/65/65 63/63/63
f 63/63/63 66/66/66 62/62/62
f 65/65/65 66/66/66 63/63/63
f 64/64/64 67/67/67 65/65/65
f 65/65/65 68/68/68 66/66/66
f 67/67/67 69/69/69 65/65/65
f 70/70/70 68/68/68 65/65/65
f 69/69/69 71/71/71 65/65/65
f 65/65/65 71/71/71 70/70/70
f 74/74/74 73/73/73 72/72/72
f 73/73/73 75/75/75 72/72/72
f 76/76/76 72/72/72 75/75/75
f 77/77/77 75/75/75 73/73/73
f 73/73/73 78/78/78 77/77/77
f 75/75/75 77/77/77 79/79/79
f 75/75/75 79/79/79 80/80/80
f 75/75/75 80/80/80 76/76/76
f 80/80/80 79/79/79 81/81/81
f 76/76/76 80/80/80 82/82/82
f 80/80/80 81/81/81 82/82/82
f 83/83/83 82/82/82 81/81/81
f 82/82/82 84/84/84 76/76/76
f 85/85/85 82/82/82 83/83/83
f 84/84/84 82/82/82 85/85/85
f 85/85/85 86/86/86 84/84/84
f 89/89/89 88/88/88 87/87/87
f 90/90/90 88/88/88 89/89/89
f 91/91/91 88/88/88 90/90/90
f 92/92/92 90/90/90 89/89/89
f 90/90/90 93/93/93 91/91/91
f 94/94/94 90/90/90 92/92/92
f 93/93/93 90/90/90 94/94/94
f 95/95/95 94/94/94 92/92/92
f 94/94/94 96/96/96 93/93/93
f 94/94/94 95/95/95 97/97/97
f 96/96/96 94/94/94 97/97/97
f 98/98/98 97/97/97 95/95/95
f 98/98/98 99/99/99 97/97/97
f 97/97/97 100/100/100 96/96/96
f 99/99/99 100/100/100 97/97/97
f 98/98/98 101/101/101 99/99/99
f 99/99/99 102/102/102 100/100/100
f 99/99/99 101/101/101 103/103/103
f 104/104/104 102/102/102 99/99/99
f 103/103/103 105/105/105 99/99/99
f 99/99/99 105/105/105 104/104/104
f 108/108/108 107/107/107 106/106/106
f 107/107/107 108/108/108 109/109/109
f 107/107/107 109/109/109 110/110/110
f 110/110/110 111/111/111 107/107/107
f 112/112/112 110/110/110 109/109/109
f 113/113/113 109/109/109 108/108/108
f 109/109/109 113/113/113 112/112/112
f 108/108/108 114/114/114 113/113/113
f 115/115/115 112/112/112 113/113/113
f 116/116/116 113/113/113 114/114/114
f 113/113/113 116/116/116 115/115/115
f 115/115/115 116/116/116 117/117/117
f 114/114/114 118/118/118 116/116/116
f 119/119/119 117/117/117 116/116/116
f 119/119/119 116/116/116 118/118/118
f 118/118/118 120/120/120 119/119/119
f 123/123/123 122/122/122 121/121/121
f 124/124/124 121/121/121 122/122/122
f 124/124/124 122/122/122 125/125/125
f 121/121/121 124/124/124 126/126/126
f 125/125/125 127/127/127 124/124/124
f 128/128/128 126/126/126 124/124/124
f 128/128/128 124/124/124 127/127/127
f 129/129/129 126/126/126 128/128/128
f 127/127/127 130/130/130 128/128/128
f 128/128/128 131/131/131 129/129/129
f 128/128/128 130/130/130 131/131/131
f 131/131/131 132/132/132 129/129/129
f 133/133/133 131/131/131 130/130/130
f 132/132/132 131/131/131 134/134/134
f 134/134/134 131/131/131 133/133/133
f 135/135/135 132/132/132 134/134/134
f 134/134/134 136/136/136 135/135/135
f 137/137/137 134/134/134 133/133/133
f 134/134/134 137/137/137 136/136/136
f 136/136/136 138/138/138 135/135/135
f 139/139/139 136/136/136 137/137/137
f 136/136/136 140/140/140 138/138/138
f 141/141/141 136/136/136 139/139/139
f 140/140/140 136/136/136 142/142/142
f 141/141/141 142/142/142 136/136/136
f 145/145/145 144/144/144 143/143/143
f 143/143/143 146/146/146 145/145/145
f 146/146/146 143/143/143 147/147/147
f 147/147/147 148/148/148 146/146/146
f 148/148/148 147/147/147 149/149/149
f 149/149/149 150/150/150 148/148/148
f 150/150/150 149/149/149 151/151/151
f 151/151/151 152/152/152 150/150/150
f 155/155/155 154/154/154 153/153/153
f 153/153/153 156/156/156 155/155/155
f 156/156/156 153/153/153 157/157/157
f 157/157/157 158/158/158 156/156/156
f 158/158/158 157/157/157 159/159/159
f 159/159/159 160/160/160 158/158/158
f 160/160/160 159/159/159 161/161/161
f 161/161/161 162/162/162 160/160/160
