g gate-swatch-inflatable-02-trigger
v -2.369654 0.1299999 2.648187
v -2.369654 0.1300004 -2.384186E-07
v 2.369654 0.1300004 -2.384186E-07
v 2.369654 0.1299999 2.648187
v 0.8909559 0.1299996 3.893704
v -0.8909559 0.1299996 3.893704
v -2.369654 -0.1300001 2.648187
v 2.369654 -0.1299995 -2.384186E-07
v -2.369654 -0.1299995 -2.384186E-07
v 2.369654 -0.1300001 2.648187
v 0.8909559 -0.1300004 3.893704
v -0.8909559 -0.1300004 3.893704
v 2.369654 -0.1299995 -2.384186E-07
v -2.369654 0.1300004 -2.384186E-07
v -2.369654 -0.1299995 -2.384186E-07
v 2.369654 0.1300004 -2.384186E-07
v 2.369654 0.1299999 2.648187
v 2.369654 0.1300004 -2.384186E-07
v 2.369654 -0.1299995 -2.384186E-07
v 2.369654 -0.1300001 2.648187
v -0.8909559 -0.1300004 3.893704
v -0.8909559 0.1299996 3.893704
v 0.8909559 0.1299996 3.893704
v 0.8909559 -0.1300004 3.893704
v -2.369654 -0.1299995 -2.384186E-07
v -2.369654 0.1299999 2.648187
v -2.369654 -0.1300001 2.648187
v -2.369654 0.1300004 -2.384186E-07
v 0.8909559 0.1299996 3.893704
v 2.369654 0.1299999 2.648187
v 2.369654 -0.1300001 2.648187
v 0.8909559 -0.1300004 3.893704
v -0.8909559 0.1299996 3.893704
v -2.369654 -0.1300001 2.648187
v -2.369654 0.1299999 2.648187
v -0.8909559 -0.1300004 3.893704
vt 1 0.6763016
vt 1 0
vt 0 0
vt 0 0.6763016
vt 0.2539082 1
vt 0.7460917 1
vt 0 0.6763016
vt 1 0
vt 0 0
vt 1 0.6763016
vt 0.7460917 1
vt 0.2539082 1
vt 1 1
vt 0 0
vt 0 1
vt 1 0
vt 0.6763016 0
vt 0 0
vt 0 1
vt 0.6763016 1
vt 0.7460917 1
vt 0.7460917 0
vt 0.2539082 0
vt 0.2539082 1
vt 1 1
vt 0.3236984 0
vt 0.3236984 1
vt 1 0
vt 0.2539082 0
vt -7.575137 -1.085283E-05
vt -7.575138 0.9999892
vt 0.2539082 1
vt -5.941922 9.239376E-06
vt 0.3236984 1
vt 0.3236984 0
vt -5.941921 1.000009
vn 0 1 0
vn 0 1 0
vn 0 1 0
vn 0 1 0
vn 0 1 0
vn 0 1 0
vn 0 -1 0
vn 0 -1 0
vn 0 -1 0
vn 0 -1 0
vn 0 -1 0
vn 0 -1 0
vn 0 0 -1
vn 0 0 -1
vn 0 0 -1
vn 0 0 -1
vn 1 0 0
vn 1 0 0
vn 1 0 0
vn 1 0 0
vn 0 0 1
vn 0 0 1
vn 0 0 1
vn 0 0 1
vn -1 0 0
vn -1 0 0
vn -1 0 0
vn -1 0 0
vn 0.6442256 0 0.7648356
vn 0.6442256 0 0.7648355
vn 0.6442256 0 0.7648356
vn 0.6442256 0 0.7648356
vn -0.6442256 0 0.7648356
vn -0.6442256 0 0.7648356
vn -0.6442256 0 0.7648355
vn -0.6442256 0 0.7648356
g gate-swatch-inflatable-02-trigger_0
f 3/3/3 2/2/2 1/1/1
f 4/4/4 3/3/3 1/1/1
f 1/1/1 5/5/5 4/4/4
f 1/1/1 6/6/6 5/5/5
f 9/9/9 8/8/8 7/7/7
f 7/7/7 8/8/8 10/10/10
f 10/10/10 11/11/11 7/7/7
f 11/11/11 12/12/12 7/7/7
f 15/15/15 14/14/14 13/13/13
f 14/14/14 16/16/16 13/13/13
f 19/19/19 18/18/18 17/17/17
f 17/17/17 20/20/20 19/19/19
f 23/23/23 22/22/22 21/21/21
f 21/21/21 24/24/24 23/23/23
f 27/27/27 26/26/26 25/25/25
f 28/28/28 25/25/25 26/26/26
f 31/31/31 30/30/30 29/29/29
f 29/29/29 32/32/32 31/31/31
f 35/35/35 34/34/34 33/33/33
f 34/34/34 36/36/36 33/33/33
