g gate-missions-06-b-trigger
v -1.736704 -0.07644942 -5.02983E-07
v 7.886659E-07 -0.07644929 -1.736703
v 5.878005E-07 0.076449 -1.736703
v -1.736704 0.07644887 -6.1996E-07
v -6.406034E-07 0.07644907 1.736704
v -4.39738E-07 -0.0764492 1.736704
v 1.736704 0.07644922 7.430773E-07
v 1.736704 -0.07644907 8.600543E-07
v 7.886659E-07 -0.07644929 -1.736703
v 5.878005E-07 0.076449 -1.736703
v 5.878005E-07 0.076449 -1.736703
v 1.736704 0.07644922 7.430773E-07
v -6.406034E-07 0.07644907 1.736704
v -1.736704 0.07644887 -6.1996E-07
v 7.886659E-07 -0.07644929 -1.736703
v -1.736704 -0.07644942 -5.02983E-07
v -4.39738E-07 -0.0764492 1.736704
v 1.736704 -0.07644907 8.600543E-07
vt 0.75 1
vt 1 1
vt 1 0
vt 0.75 0
vt 0.5 0
vt 0.5 1
vt 0.25 0
vt 0.25 1
vt 3.794549E-08 1
vt 3.794549E-08 0
vt 0 0.5
vt 0.5000001 0
vt 1 0.5
vt 0.5 1
vt 0 0.5
vt 0.5 1
vt 1 0.5
vt 0.5000001 0
vn -1 0 0
vn 0 0 -1
vn 0 0 -1
vn -1 0 0
vn 0 0 1
vn 0 0 1
vn 1 0 0
vn 1 0 0
vn 0 0 -1
vn 0 0 -1
vn 0 1 0
vn 0 1 0
vn 0 1 0
vn 0 1 0
vn 0 -1 0
vn 0 -1 0
vn 0 -1 0
vn 0 -1 0
g gate-missions-06-b-trigger_0
f 3/3/3 2/2/2 1/1/1
f 1/1/1 4/4/4 3/3/3
f 4/4/4 1/1/1 5/5/5
f 6/6/6 5/5/5 1/1/1
f 7/7/7 5/5/5 6/6/6
f 6/6/6 8/8/8 7/7/7
f 7/7/7 8/8/8 9/9/9
f 9/9/9 10/10/10 7/7/7
f 13/13/13 12/12/12 11/11/11
f 11/11/11 14/14/14 13/13/13
f 17/17/17 16/16/16 15/15/15
f 15/15/15 18/18/18 17/17/17
