g gate-neon-10-lod2
v 1.1937 0 -1.05275
v -1.1937 0 -1.05275
v -1.2266 0.019 -1.07175
v 1.2266 0.019 -1.07175
v 1.2595 0 -1.09075
v -1.2595 0 -1.09075
v 1.2266 -0.019 -1.07175
v -1.2266 -0.019 -1.07175
v 1.1937 0 -1.05275
v -1.1937 0 -1.05275
v 1.1937 0 -1.05275
v -2.641173E-08 0 1.01475
v -2.641173E-08 -0.019 1.05275
v 1.2266 -0.019 -1.07175
v -2.641173E-08 0 1.09075
v 1.2595 0 -1.09075
v 1.2266 0.019 -1.07175
v -2.641173E-08 0.019 1.05275
v 1.1937 0 -1.05275
v -2.641173E-08 0 1.01475
v -2.641173E-08 -0.019 1.05275
v -2.641173E-08 0 1.01475
v -1.1937 0 -1.05275
v -1.2266 -0.019 -1.07175
v -2.641173E-08 0 1.09075
v -1.2595 0 -1.09075
v -1.2266 0.019 -1.07175
v -2.641173E-08 0.019 1.05275
v -1.1937 0 -1.05275
v -2.641173E-08 0 1.01475
vt 0.7413372 0.7761745
vt 0.5076085 0.7761745
vt 0.5043877 0.779023
vt 0.7445582 0.779023
vt 0.7477793 0.781871
vt 0.5011668 0.781871
vt 0.7445582 0.7847185
vt 0.5043877 0.7847185
vt 0.7413372 0.7875673
vt 0.5076085 0.7875673
vt 0.5076095 0.77502
vt 0.741334 0.775021
vt 0.7445558 0.772172
vt 0.5043883 0.7721732
vt 0.747778 0.769325
vt 0.5011668 0.7693263
vt 0.5043883 0.7664782
vt 0.7445558 0.7664797
vt 0.5076095 0.7636315
vt 0.741334 0.7636307
vt 0.5044555 0.7594135
vt 0.5076777 0.7622615
vt 0.7414023 0.7622575
vt 0.7446228 0.7594097
vt 0.5012323 0.7565665
vt 0.7478433 0.7565632
vt 0.7446213 0.7537243
vt 0.5044538 0.753712
vt 0.7414002 0.7508693
vt 0.5076758 0.750871
vn 0 0 1
vn 0 0 1
vn 0 0.8710113 -0.4912629
vn 0 0.8710113 -0.4912629
vn 0 0 -1
vn 0 0 -1
vn 0 -0.8710113 -0.4912629
vn 0 -0.8710113 -0.4912629
vn 0 0 1
vn 0 0 1
vn -0.8660212 0 -0.5000073
vn -0.8660212 0 -0.5000073
vn 0.4255491 -0.8709437 0.2456931
vn 0.4255663 -0.8709325 0.245703
vn 0.8660228 0 0.5000044
vn 0.8660228 0 0.5000045
vn 0.4255663 0.8709325 0.245703
vn 0.4255491 0.8709437 0.2456931
vn -0.8660212 0 -0.5000073
vn -0.8660212 0 -0.5000073
vn -0.4255491 -0.8709437 0.2456931
vn 0.8660212 0 -0.5000073
vn 0.8660212 0 -0.5000073
vn -0.4255663 -0.8709325 0.245703
vn -0.8660228 0 0.5000044
vn -0.8660228 0 0.5000045
vn -0.4255663 0.8709325 0.245703
vn -0.4255491 0.8709437 0.2456931
vn 0.8660212 0 -0.5000073
vn 0.8660212 0 -0.5000073
g gate-neon-10-lod2_0
f 3/3/3 2/2/2 1/1/1
f 3/3/3 1/1/1 4/4/4
f 3/3/3 4/4/4 5/5/5
f 6/6/6 3/3/3 5/5/5
f 5/5/5 7/7/7 6/6/6
f 7/7/7 8/8/8 6/6/6
f 7/7/7 9/9/9 8/8/8
f 9/9/9 10/10/10 8/8/8
f 13/13/13 12/12/12 11/11/11
f 11/11/11 14/14/14 13/13/13
f 15/15/15 13/13/13 14/14/14
f 15/15/15 14/14/14 16/16/16
f 16/16/16 17/17/17 15/15/15
f 17/17/17 18/18/18 15/15/15
f 18/18/18 17/17/17 19/19/19
f 19/19/19 20/20/20 18/18/18
f 23/23/23 22/22/22 21/21/21
f 21/21/21 24/24/24 23/23/23
f 24/24/24 21/21/21 25/25/25
f 26/26/26 24/24/24 25/25/25
f 25/25/25 27/27/27 26/26/26
f 25/25/25 28/28/28 27/27/27
f 29/29/29 27/27/27 28/28/28
f 28/28/28 30/30/30 29/29/29
