g gate-neon-01-lod2
v 0.316 0.25 0.05
v 0.316 -0.2500001 0
v 0.316 -0.2500001 0.05
v 0.316 0.25 0
v -0.3157 0.25 0.05
v 0.316 0.25 0
v 0.316 0.25 0.05
v -0.3157 0.25 0
v 0.316 0.25 0.05
v 0.316 -0.2500001 0.05
v -0.3157 0.25 0.05
v -0.3157 -0.2500001 0.05
v -0.3157 0.25 0
v -0.3157 0.25 0.05
v -0.3157 -0.2500001 0
v -0.3157 -0.2500001 0.05
v 0.316 -0.2500001 0
v 0.316 0.25 0
v -0.3157 -0.2500001 0
v -0.3157 0.25 0
v 0.316 -0.2500001 0.05
v -0.3157 -0.2500001 0
v -0.3157 -0.2500001 0.05
v 0.316 -0.2500001 0
v -0.18735 -0.125 0.05
v -0.18735 -0.125 0.5
v 0.18765 -0.125 0.5
v 0.18765 -0.125 0.05
v 0.18765 0.125 0.05
v 0.18765 0.125 0.5
v -0.18735 0.125 0.5
v -0.18735 0.125 0.05
v -0.18735 0.125 0.5
v -0.18735 -0.125 0.05
v -0.18735 0.125 0.05
v -0.18735 -0.125 0.5
v -0.18735 -0.075 0.5500001
v -0.18735 0.075 0.5500001
v -0.18735 0.125 0.5
v 0.18765 0.125 0.5
v 0.18765 0.075 0.5500001
v -0.18735 0.075 0.5500001
v -0.18735 -0.075 0.5500001
v 0.18765 -0.075 0.5500001
v 0.18765 -0.125 0.5
v -0.18735 -0.125 0.5
v 0.18765 0.125 0.5
v 0.18765 0.125 0.05
v 0.18765 -0.125 0.05
v 0.18765 -0.125 0.5
v 0.18765 -0.075 0.5500001
v 0.18765 0.075 0.5500001
v -0.11235 0.019 0.5500001
v -0.11235 0.019 0.6873501
v -0.11235 -0.019 0.6873501
v -0.11235 -0.019 0.5500001
v -0.11235 -0.019 0.6873501
v 0.11265 -0.019 0.68975
v 0.11265 -0.019 0.5500001
v -0.11235 -0.019 0.5500001
v -0.11235 0.019 0.6873501
v -0.11235 0.019 0.5500001
v 0.11265 0.019 0.5500001
v 0.11265 0.019 0.68975
v 0.11265 -0.019 0.5500001
v 0.11265 -0.019 0.68975
v 0.11265 0.019 0.68975
v 0.11265 0.019 0.5500001
v -0.11235 0.019 0.6873501
v 0.11265 0.019 0.68975
v 0.11265 -0.019 0.68975
v -0.11235 -0.019 0.6873501
v -0.8031447 -3.155996E-05 1.887779
v -0.7855906 -0.01903155 1.89505
v -0.02814957 -3.155996E-05 1.075284
v -0.01059556 -0.01903155 1.082555
v -0.7680372 -3.155996E-05 1.902321
v 0.006957918 -3.155996E-05 1.089826
v -0.01059556 0.01896844 1.082555
v 0.006957918 -3.155996E-05 1.089826
v -0.7680372 -3.155996E-05 1.902321
v -0.7855906 0.01896844 1.89505
v -0.02814957 -3.155996E-05 1.075284
v -0.8031447 -3.155996E-05 1.887779
v -0.7855906 -0.01903155 1.89505
v -0.8031447 -3.155996E-05 1.887779
v -0.8031502 -3.155996E-05 3.039394
v -0.7855968 -0.01903155 3.032123
v -0.7680432 -3.155996E-05 3.024852
v -0.7680372 -3.155996E-05 1.902321
v -0.7855906 0.01896844 1.89505
v -0.7680372 -3.155996E-05 1.902321
v -0.7680432 -3.155996E-05 3.024852
v -0.7855968 0.01896844 3.032123
v -0.8031502 -3.155996E-05 3.039394
v -0.8031447 -3.155996E-05 1.887779
v -0.7855968 -0.01903155 3.032123
v -0.8031502 -3.155996E-05 3.039394
v 0.3484293 -3.153016E-05 4.210749
v 0.3607484 -0.01903155 4.198247
v -0.7680432 -3.155996E-05 3.024852
v 0.3728039 -3.155996E-05 4.185483
v -0.7680432 -3.155996E-05 3.024852
v 0.3728039 -3.155996E-05 4.185483
v 0.3607484 0.01896844 4.198247
v -0.7855968 0.01896844 3.032123
v 0.3484293 -3.153016E-05 4.210749
v -0.8031502 -3.155996E-05 3.039394
v 0.02021593 -3.155996E-05 0.6873517
v -0.01059556 -0.01903155 1.082555
v 0.006957918 -3.155996E-05 1.089826
v 0.00266242 -0.01903155 0.6873517
v -0.02814957 -3.155996E-05 1.075284
v -0.01489112 -3.155996E-05 0.6873517
v -0.02814957 -3.155996E-05 1.075284
v -0.01489112 -3.155996E-05 0.6873517
v 0.00266242 0.01896844 0.6873517
v -0.01059556 0.01896844 1.082555
v 0.02021593 -3.155996E-05 0.6873517
v 0.006957918 -3.155996E-05 1.089826
v 0.3728039 -3.155996E-05 4.185483
v 0.3607484 -0.01903155 4.198247
v 0.3484293 -3.153016E-05 4.210749
v 0.3607484 0.01896844 4.198247
vt 0.245322 0.5564415
vt 0.2370785 0.6388798
vt 0.2453223 0.63888
vt 0.2370782 0.5564412
vt 0.2328517 0.6421487
vt 0.224608 0.7463015
vt 0.2328517 0.7463012
vt 0.224608 0.642149
vt 0.00429775 0.5772255
vt 0.0042975 0.6596637
vt 0.1084502 0.5772255
vt 0.1084502 0.6596637
vt 0.232836 0.5562763
vt 0.2245923 0.5562765
vt 0.232836 0.6387147
vt 0.224592 0.638715
vt 0.1084502 0.7460548
vt 0.1084502 0.6636168
vt 0.0042975 0.7460548
vt 0.00429775 0.6636168
vt 0.236954 0.746508
vt 0.245198 0.6423557
vt 0.236954 0.6423555
vt 0.245198 0.7465082
vt 0.1128085 0.5927842
vt 0.1128082 0.666979
vt 0.1746372 0.666979
vt 0.174637 0.5927842
vt 0.174637 0.7462327
vt 0.174637 0.672038
vt 0.1128082 0.672038
vt 0.1128082 0.7462327
vt 0.2206503 0.671998
vt 0.179434 0.7461922
vt 0.2206533 0.74619
vt 0.1794312 0.671995
vt 0.1876772 0.6637505
vt 0.2124092 0.663755
vt 0.1748848 0.5399768
vt 0.1130558 0.5399775
vt 0.1130553 0.5516357
vt 0.1748845 0.5516355
vt 0.1748832 0.5763665
vt 0.1130543 0.5763673
vt 0.113054 0.5880262
vt 0.1748832 0.5880245
vt 0.180027 0.5848315
vt 0.1800295 0.6590288
vt 0.2212485 0.6590265
vt 0.221246 0.5848345
vt 0.2130042 0.5765917
vt 0.1882727 0.5765867
vt 0.1092692 0.5676245
vt 0.0866235 0.5676243
vt 0.0866235 0.5738897
vt 0.1092692 0.5738897
vt 0.04590075 0.5742267
vt 0.0830015 0.5745
vt 0.0829235 0.5514588
vt 0.0458275 0.5515813
vt 0.004535 0.5511302
vt 0.00446275 0.5737758
vt 0.0415585 0.5738987
vt 0.04163625 0.5508572
vt 0.08654675 0.565205
vt 0.1095883 0.565205
vt 0.109588 0.55894
vt 0.08654675 0.5589398
vt 0.1822416 0.5717296
vt 0.2195889 0.5717296
vt 0.2195889 0.5654224
vt 0.1822416 0.5654224
vt 0.002665774 0.5291894
vt 0.003363311 0.5318322
vt 0.1077108 0.527995
vt 0.1084055 0.5306047
vt 0.004057343 0.5344418
vt 0.1091023 0.5332477
vt 0.108792 0.538021
vt 0.109484 0.5406654
vt 0.004438698 0.5418453
vt 0.003750039 0.5392343
vt 0.1081023 0.5354099
vt 0.003057993 0.5365903
vt 0.003442385 0.5172669
vt 0.002714714 0.514632
vt 0.1105994 0.5146896
vt 0.1098359 0.5173128
vt 0.1090773 0.5199046
vt 0.004167486 0.5198687
vt 0.1097318 0.5242413
vt 0.1090396 0.526852
vt 0.004129876 0.5272654
vt 0.00333925 0.5246828
vt 0.002543951 0.5220699
vt 0.1104262 0.5215964
vt 0.117003 0.5058368
vt 0.1176021 0.5038847
vt 0.002687616 0.5030701
vt 0.002679907 0.5050259
vt 0.1164073 0.5077675
vt 0.002697895 0.5069745
vt 0.1163477 0.5129036
vt 0.0026298 0.5121379
vt 0.002607257 0.5101835
vt 0.1169338 0.5109698
vt 0.002610878 0.5082324
vt 0.1175232 0.5090145
vt 0.1206783 0.5100023
vt 0.1577118 0.5132674
vt 0.1584299 0.5106304
vt 0.1207022 0.5126191
vt 0.1569968 0.5158722
vt 0.1207246 0.5152324
vt 0.1215025 0.5085247
vt 0.1577737 0.507884
vt 0.1577958 0.5052711
vt 0.1207866 0.5059204
vt 0.1578195 0.5026537
vt 0.1200675 0.5032837
vt 0.1146459 0.5161742
vt 0.1145505 0.5185897
vt 0.1169657 0.518494
vt 0.1170614 0.5160788
vn 1 0 0
vn 1 0 0
vn 1 0 0
vn 1 0 0
vn 0 1 0
vn 0 1 0
vn 0 1 0
vn 0 1 0
vn 0 0 1
vn 0 0 1
vn 0 0 1
vn 0 0 1
vn -1 0 0
vn -1 0 0
vn -1 0 0
vn -1 0 0
vn 0 0 -1
vn 0 0 -1
vn 0 0 -1
vn 0 0 -1
vn 0 -1 0
vn 0 -1 0
vn 0 -1 0
vn 0 -1 0
vn 0 -1 0
vn 0 -1 0
vn 0 -1 0
vn 0 -1 0
vn 0 1 0
vn 0 1 0
vn 0 1 0
vn 0 1 0
vn -1 0 0
vn -1 0 0
vn -1 0 0
vn -1 0 0
vn -1 0 0
vn -1 0 0
vn 0 0.7071072 0.7071062
vn 0 0.7071072 0.7071062
vn 0 0.3826838 0.9238794
vn 0 0.3826838 0.9238794
vn 0 -0.3826838 0.9238794
vn 0 -0.3826838 0.9238794
vn 0 -0.7071072 0.7071062
vn 0 -0.7071072 0.7071062
vn 1 0 0
vn 1 0 0
vn 1 0 0
vn 1 0 0
vn 1 0 0
vn 1 0 0
vn -1 0 0
vn -1 0 0
vn -1 0 0
vn -1 0 0
vn 0 -1 0
vn 0 -1 0
vn 0 -1 0
vn 0 -1 0
vn 0 1 0
vn 0 1 0
vn 0 1 0
vn 0 1 0
vn 1 0 0
vn 1 0 0
vn 1 0 0
vn 1 0 0
vn -0.01066571 0 0.9999431
vn -0.01066571 0 0.9999431
vn -0.01066571 0 0.9999431
vn -0.01066571 0 0.9999431
vn -0.5291732 -0.6820582 -0.5047498
vn -0.1254732 -0.9848515 -0.119682
vn -0.5291732 -0.6820582 -0.5047498
vn 0.1254808 -0.9848498 0.1196894
vn 0.5291777 -0.6820514 0.5047541
vn 0.5291777 -0.6820515 0.5047541
vn 0.1254808 0.9848498 0.1196894
vn 0.5291777 0.6820514 0.5047541
vn 0.5291777 0.6820514 0.5047541
vn -0.1254732 0.9848515 -0.1196821
vn -0.5291732 0.6820581 -0.5047498
vn -0.5291733 0.6820581 -0.5047498
vn -0.1855327 -0.9826381 0
vn -0.7345099 -0.678598 0
vn -0.7345099 -0.678598 0
vn -0.1855365 -0.9826373 0
vn 0.7345123 -0.6785954 0
vn 0.7345123 -0.6785955 0
vn -0.1855327 0.9826381 0
vn 0.7345123 0.6785954 0
vn 0.7345123 0.6785954 0
vn -0.1855365 0.9826373 0
vn -0.7345099 0.678598 0
vn -0.7345099 0.678598 0
vn -0.1293742 -0.9834021 0.1272106
vn -0.5234026 -0.6791852 0.5145456
vn -0.5234026 -0.6791852 0.5145457
vn -0.008830612 -0.9999231 0.008712248
vn 0.5234458 -0.6791518 -0.5145456
vn 0.5234458 -0.6791518 -0.5145455
vn 0.5234458 0.6791518 -0.5145456
vn 0.5234458 0.6791518 -0.5145455
vn -0.008830328 0.9999231 0.008711992
vn -0.1293739 0.9834023 0.1272103
vn -0.5234023 0.6791857 0.5145454
vn -0.5234023 0.6791857 0.5145454
vn 0.7319713 -0.6809009 0.02433181
vn 0.1694362 -0.9855266 0.005357397
vn 0.7319713 -0.6809009 0.02433181
vn 0.01561073 -0.9998782 0.00019173
vn -0.7319148 -0.6809455 -0.02478212
vn -0.7319147 -0.6809455 -0.02478212
vn -0.7319148 0.6809455 -0.02478213
vn -0.7319147 0.6809455 -0.02478212
vn 0.01561079 0.9998782 0.0001917283
vn 0.1694362 0.9855266 0.005357394
vn 0.7319713 0.6809008 0.02433181
vn 0.7319713 0.6809008 0.02433181
vn 0.7196841 0 0.6943017
vn 0.7196841 0 0.6943017
vn 0.7196841 0 0.6943017
vn 0.7196841 0 0.6943017
g gate-neon-01-lod2_0
f 3/3/3 2/2/2 1/1/1
f 2/2/2 4/4/4 1/1/1
f 7/7/7 6/6/6 5/5/5
f 6/6/6 8/8/8 5/5/5
f 11/11/11 10/10/10 9/9/9
f 12/12/12 10/10/10 11/11/11
f 15/15/15 14/14/14 13/13/13
f 14/14/14 15/15/15 16/16/16
f 19/19/19 18/18/18 17/17/17
f 20/20/20 18/18/18 19/19/19
f 23/23/23 22/22/22 21/21/21
f 22/22/22 24/24/24 21/21/21
f 27/27/27 26/26/26 25/25/25
f 25/25/25 28/28/28 27/27/27
f 31/31/31 30/30/30 29/29/29
f 29/29/29 32/32/32 31/31/31
f 35/35/35 34/34/34 33/33/33
f 36/36/36 33/33/33 34/34/34
f 36/36/36 37/37/37 33/33/33
f 37/37/37 38/38/38 33/33/33
f 41/41/41 40/40/40 39/39/39
f 39/39/39 42/42/42 41/41/41
f 42/42/42 43/43/43 41/41/41
f 43/43/43 44/44/44 41/41/41
f 45/45/45 44/44/44 43/43/43
f 43/43/43 46/46/46 45/45/45
f 49/49/49 48/48/48 47/47/47
f 49/49/49 47/47/47 50/50/50
f 47/47/47 51/51/51 50/50/50
f 47/47/47 52/52/52 51/51/51
f 55/55/55 54/54/54 53/53/53
f 53/53/53 56/56/56 55/55/55
f 59/59/59 58/58/58 57/57/57
f 57/57/57 60/60/60 59/59/59
f 63/63/63 62/62/62 61/61/61
f 61/61/61 64/64/64 63/63/63
f 67/67/67 66/66/66 65/65/65
f 65/65/65 68/68/68 67/67/67
f 71/71/71 70/70/70 69/69/69
f 69/69/69 72/72/72 71/71/71
f 75/75/75 74/74/74 73/73/73
f 74/74/74 75/75/75 76/76/76
f 76/76/76 77/77/77 74/74/74
f 77/77/77 76/76/76 78/78/78
f 81/81/81 80/80/80 79/79/79
f 79/79/79 82/82/82 81/81/81
f 82/82/82 79/79/79 83/83/83
f 83/83/83 84/84/84 82/82/82
f 87/87/87 86/86/86 85/85/85
f 85/85/85 88/88/88 87/87/87
f 85/85/85 89/89/89 88/88/88
f 85/85/85 90/90/90 89/89/89
f 93/93/93 92/92/92 91/91/91
f 91/91/91 94/94/94 93/93/93
f 91/91/91 95/95/95 94/94/94
f 91/91/91 96/96/96 95/95/95
f 99/99/99 98/98/98 97/97/97
f 97/97/97 100/100/100 99/99/99
f 100/100/100 97/97/97 101/101/101
f 101/101/101 102/102/102 100/100/100
f 105/105/105 104/104/104 103/103/103
f 105/105/105 103/103/103 106/106/106
f 107/107/107 105/105/105 106/106/106
f 107/107/107 106/106/106 108/108/108
f 111/111/111 110/110/110 109/109/109
f 112/112/112 109/109/109 110/110/110
f 110/110/110 113/113/113 112/112/112
f 114/114/114 112/112/112 113/113/113
f 117/117/117 116/116/116 115/115/115
f 115/115/115 118/118/118 117/117/117
f 119/119/119 117/117/117 118/118/118
f 118/118/118 120/120/120 119/119/119
f 123/123/123 122/122/122 121/121/121
f 124/124/124 123/123/123 121/121/121
