g gate-multigp-c-04-trigger
v 1.069617 -0.01899909 0.9160841
v 1.069617 -0.01573942 -0.9161476
v -1.069617 -0.01899883 0.9160836
v -1.069617 -0.01573942 -0.9161476
v -1.069617 0.01899765 -0.9160859
v 1.069617 0.01899712 -0.9160859
v 1.069617 0.01573793 0.9161457
v -1.069617 0.0157383 0.9161454
v 1.069617 0.01573793 0.9161457
v -1.069617 -0.01899883 0.9160836
v -1.069617 0.0157383 0.9161454
v 1.069617 -0.01899909 0.9160841
v 1.069617 0.01573793 0.9161457
v 1.069617 0.01899712 -0.9160859
v 1.069617 -0.01573942 -0.9161476
v 1.069617 -0.01899909 0.9160841
v 1.069617 0.01899712 -0.9160859
v -1.069617 0.01899765 -0.9160859
v -1.069617 -0.01573942 -0.9161476
v 1.069617 -0.01573942 -0.9161476
v -1.069617 -0.01573942 -0.9161476
v -1.069617 0.01899765 -0.9160859
v -1.069617 0.0157383 0.9161454
v -1.069617 -0.01899883 0.9160836
vt 0 0
vt 0 1
vt 1 0
vt 1 1
vt 0 1
vt 1 1
vt 1 0
vt 0 0
vt 1 1
vt 0 0
vt 0 1
vt 1 0
vt 0 1
vt 1 1
vt 1 0
vt 0 0
vt 0 1
vt 1 1
vt 1 0
vt 0 0
vt 0 0
vt 0 1
vt 1 1
vt 1 0
vn 0 -0.9999985 -0.001778962
vn 0 -0.9999985 -0.001778989
vn 0 -0.9999985 -0.001778989
vn 0 -0.9999985 -0.001778989
vn 0 0.9999985 0.001778828
vn 0 0.9999985 0.001778828
vn 0 0.9999985 0.001778855
vn 0 0.9999985 0.001778857
vn 0 -0.00177723 0.9999985
vn 0 -0.00177723 0.9999985
vn 0 -0.001777228 0.9999985
vn 0 -0.001777228 0.9999985
vn 1 0 0
vn 1 0 0
vn 1 0 0
vn 1 0 0
vn 0 0.001777336 -0.9999985
vn 0 0.001777362 -0.9999985
vn 0 0.001777336 -0.9999985
vn 0 0.001777336 -0.9999985
vn -1 0 0
vn -1 0 0
vn -1 0 0
vn -1 0 0
g gate-multigp-c-04-trigger_0
f 3/3/3 2/2/2 1/1/1
f 4/4/4 2/2/2 3/3/3
f 7/7/7 6/6/6 5/5/5
f 5/5/5 8/8/8 7/7/7
f 11/11/11 10/10/10 9/9/9
f 10/10/10 12/12/12 9/9/9
f 15/15/15 14/14/14 13/13/13
f 13/13/13 16/16/16 15/15/15
f 19/19/19 18/18/18 17/17/17
f 17/17/17 20/20/20 19/19/19
f 23/23/23 22/22/22 21/21/21
f 21/21/21 24/24/24 23/23/23
