g gate-other-02-lod2
v 0 -0.2165893 0.04472136
v -1.869284 0.2165864 1.913977
v -1.869284 -0.2165893 1.914005
v 0 0.2165857 0.04469609
v -2.30249 -0.2165892 2.347211
v -2.30249 0.2165865 2.347186
v 0 0.2165864 4.649673
v 0 -0.2165893 4.649701
v -2.30249 0.2165865 2.347186
v -2.30249 -0.2165892 2.347211
v -2.30249 -0.2165886 0.2166637
v -2.30249 0.2165879 0.2166639
v -2.30249 -0.2165892 2.347211
v -1.869284 -0.2165893 1.914005
v -2.30249 -0.2165886 0.2166637
v -1.869284 -0.2165886 0.2165881
v -1.436692 0.6491816 0.2165881
v -2.735056 0.6491817 0.2165881
v -2.735056 0.649182 -2.609207E-07
v -1.436692 0.6491818 -4.934647E-07
v -2.735056 -0.6491809 0.2165881
v -2.735056 0.649182 -2.609207E-07
v -2.735056 0.6491817 0.2165881
v -2.735056 -0.6491812 -2.609207E-07
v -2.735056 -0.6491812 -2.609207E-07
v -1.436692 -0.6491836 -4.934647E-07
v -1.436692 0.6491818 -4.934647E-07
v -2.735056 0.649182 -2.609207E-07
v -2.735056 -0.6491812 -2.609207E-07
v -2.735056 -0.6491809 0.2165881
v -1.436692 -0.6491834 0.2165879
v -1.436692 -0.6491836 -4.934647E-07
v -2.30249 0.2165879 0.2166639
v -1.869284 0.2165864 1.913977
v -2.30249 0.2165865 2.347186
v -1.869285 0.216588 0.2165884
v -1.689717 0.2165865 2.347186
v 0 0.2165858 0.6574647
v 0 -0.2165894 0.6574941
v -1.689717 -0.2165893 2.347211
v -1.869284 -0.2165893 1.914005
v -1.869284 0.2165864 1.913977
v -1.869284 -0.2165886 0.2165881
v -1.869285 0.216588 0.2165884
v -1.436692 -0.6491836 -4.934647E-07
v -1.436692 -0.6491834 0.2165879
v -1.436692 0.6491818 -4.934647E-07
v -1.436692 0.6491816 0.2165881
v -1.689717 -0.2165893 2.347211
v 0 -0.2165889 4.036903
v 0 0.2165861 4.036886
v -1.689717 0.2165865 2.347186
v -1.689717 -0.2165893 2.347211
v -2.30249 -0.2165892 2.347211
v 0 -0.2165893 4.649701
v 0 -0.2165889 4.036903
v 1.689717 -0.2165902 2.347211
v 0 -0.2165893 4.649701
v 2.30249 -0.2165901 2.347211
v 0 -0.2165893 0.04472136
v 1.869284 -0.2165901 1.914006
v 1.869284 0.216586 1.913978
v 0 0.2165857 0.04469609
v 0 0.2165864 4.649673
v 2.30249 0.2165861 2.347187
v 2.30249 -0.2165901 2.347211
v 0 -0.2165893 4.649701
v 1.689717 -0.2165902 2.347211
v 2.30249 -0.2165901 2.347211
v 1.869284 -0.2165901 1.914006
v 0 -0.2165894 0.6574941
v 0 -0.2165893 0.04472136
v -1.869284 -0.2165893 1.914005
v -1.689717 -0.2165893 2.347211
v -2.30249 -0.2165892 2.347211
v 2.30249 0.2165861 2.347187
v 2.30249 0.2165862 0.2166644
v 2.30249 -0.2165904 0.2166642
v 2.30249 -0.2165901 2.347211
v 2.30249 -0.2165904 0.2166642
v 1.869284 -0.2165901 1.914006
v 2.30249 -0.2165901 2.347211
v 1.869284 -0.2165904 0.2165886
v 2.735056 0.6491802 2.041671E-07
v 2.735056 0.6491799 0.2165886
v 1.436692 0.6491799 0.2165886
v 1.436692 0.6491801 -2.837679E-08
v 2.735056 -0.6491829 2.041671E-07
v 2.735056 -0.6491827 0.2165886
v 2.735056 0.6491799 0.2165886
v 2.735056 0.6491802 2.041671E-07
v 1.436692 -0.6491853 -2.837679E-08
v 2.735056 -0.6491829 2.041671E-07
v 1.436692 0.6491801 -2.837679E-08
v 2.735056 0.6491802 2.041671E-07
v 1.436692 -0.6491851 0.2165884
v 2.735056 -0.6491827 0.2165886
v 2.735056 -0.6491829 2.041671E-07
v 1.436692 -0.6491853 -2.837679E-08
v 2.30249 0.2165861 2.347187
v 1.869284 0.216586 1.913978
v 2.30249 0.2165862 0.2166644
v 1.869285 0.2165863 0.2165888
v 1.689717 0.2165861 2.347187
v 1.689717 -0.2165902 2.347211
v 0 -0.2165894 0.6574941
v 0 0.2165858 0.6574647
v 1.869284 -0.2165904 0.2165886
v 1.869284 0.216586 1.913978
v 1.869284 -0.2165901 1.914006
v 1.869285 0.2165863 0.2165888
v 1.436692 0.6491799 0.2165886
v 1.436692 -0.6491851 0.2165884
v 1.436692 -0.6491853 -2.837679E-08
v 1.436692 0.6491801 -2.837679E-08
v 0 -0.2165889 4.036903
v 1.689717 -0.2165902 2.347211
v 1.689717 0.2165861 2.347187
v 0 0.2165861 4.036886
v -1.689717 0.2165865 2.347186
v -2.30249 0.2165865 2.347186
v -1.869284 0.2165864 1.913977
v 0 0.2165858 0.6574647
v 0 0.2165857 0.04469609
v 1.869284 0.216586 1.913978
v 1.689717 0.2165861 2.347187
v 2.30249 0.2165861 2.347187
v 0 0.2165864 4.649673
v -2.30249 0.2165865 2.347186
v -1.689717 0.2165865 2.347186
v 0 0.2165861 4.036886
v 0 0.2165864 4.649673
v 1.689717 0.2165861 2.347187
v 2.30249 0.2165861 2.347187
v -1.436692 0.6491816 0.2165881
v -1.436692 -0.6491834 0.2165879
v -1.869284 -0.2165886 0.2165881
v -2.735056 -0.6491809 0.2165881
v -1.869285 0.216588 0.2165884
v -2.30249 -0.2165886 0.2166637
v -2.735056 0.6491817 0.2165881
v -2.30249 0.2165879 0.2166639
v 1.436692 0.6491799 0.2165886
v 1.869284 -0.2165904 0.2165886
v 1.436692 -0.6491851 0.2165884
v 2.735056 -0.6491827 0.2165886
v 1.869285 0.2165863 0.2165888
v 2.30249 -0.2165904 0.2166642
v 2.735056 0.6491799 0.2165886
v 2.30249 0.2165862 0.2166644
vt 0.740414 0.9959292
vt 0.9455692 0.9623117
vt 0.9455709 0.9959292
vt 0.7404126 0.9623117
vt 0.5036318 0.7139103
vt 0.5414146 0.7139084
vt 0.5414152 0.9978915
vt 0.5036324 0.9978937
vt 0.5414146 0.7139084
vt 0.5036318 0.7139103
vt 0.5036318 0.5015796
vt 0.5414146 0.5015797
vt 0.9882493 0.7373457
vt 0.9470713 0.6961678
vt 0.9882492 0.505919
vt 0.9470714 0.5059118
vt 0.8570963 0.6816795
vt 0.8570963 0.7943523
vt 0.8383005 0.7943523
vt 0.8383005 0.6816795
vt 0.8108717 0.6782613
vt 0.8296671 0.7909342
vt 0.8108717 0.7909342
vt 0.8296671 0.6782613
vt 0.5578952 0.8306174
vt 0.6157345 0.8306174
vt 0.6157345 0.8884568
vt 0.5578952 0.8884567
vt 0.630564 0.6420085
vt 0.6105322 0.6420085
vt 0.6105322 0.5219268
vt 0.630564 0.5219268
vt 0.5507005 0.5020953
vt 0.5918784 0.692344
vt 0.5507004 0.7335219
vt 0.5918783 0.502088
vt 0.8063956 0.6308323
vt 0.8063857 0.8384665
vt 0.7687494 0.8384626
vt 0.7687593 0.630829
vt 0.5480874 0.9560565
vt 0.5480921 0.9961197
vt 0.7332057 0.9560564
vt 0.7332054 0.9961196
vt 0.7211349 0.6590419
vt 0.7023395 0.6590419
vt 0.7211349 0.7717149
vt 0.7023395 0.7717149
vt 0.7268285 0.8409705
vt 0.7268112 0.6316068
vt 0.7647617 0.6316043
vt 0.7647791 0.8409691
vt 0.7684748 0.8971707
vt 0.7682834 0.9452125
vt 0.9780008 0.7371561
vt 0.9299588 0.7369652
vt 0.7697531 0.5754805
vt 0.9780008 0.7371561
vt 0.7699447 0.5274389
vt 0.740414 0.9959292
vt 0.9455709 0.9959292
vt 0.9455692 0.9623117
vt 0.7404126 0.9623117
vt 0.5414152 0.9978915
vt 0.5414146 0.7139084
vt 0.5036318 0.7139103
vt 0.5036324 0.9978937
vt 0.7697531 0.5754805
vt 0.7699445 0.5274388
vt 0.730487 0.5665839
vt 0.608269 0.7356861
vt 0.5602272 0.7354953
vt 0.7291383 0.9057549
vt 0.7684748 0.8971707
vt 0.7682834 0.9452125
vt 0.5414146 0.7139084
vt 0.5414146 0.5015797
vt 0.5036318 0.5015796
vt 0.5036318 0.7139103
vt 0.9882492 0.505919
vt 0.9470713 0.6961678
vt 0.9860147 0.7373457
vt 0.9470714 0.5059118
vt 0.8383005 0.7943523
vt 0.8570963 0.7943523
vt 0.8570963 0.6816795
vt 0.8383005 0.6816795
vt 0.8296671 0.6782613
vt 0.8108717 0.6782613
vt 0.8108717 0.7909342
vt 0.8296671 0.7909342
vt 0.6157345 0.8306174
vt 0.5578952 0.8306174
vt 0.6157345 0.8884568
vt 0.5578952 0.8884567
vt 0.6105322 0.5219268
vt 0.6105322 0.6420085
vt 0.630564 0.6420085
vt 0.630564 0.5219268
vt 0.5507004 0.7335219
vt 0.5918784 0.692344
vt 0.5507005 0.5020953
vt 0.5918783 0.502088
vt 0.8063956 0.6308323
vt 0.7687593 0.630829
vt 0.7687494 0.8384626
vt 0.8063857 0.8384665
vt 0.7332057 0.9560564
vt 0.5480921 0.9961197
vt 0.5480874 0.9560565
vt 0.7332054 0.9961196
vt 0.7023395 0.7717149
vt 0.7023395 0.6590419
vt 0.7211349 0.6590419
vt 0.7211349 0.7717149
vt 0.7268112 0.6316068
vt 0.7268285 0.8409705
vt 0.7647791 0.8409691
vt 0.7647617 0.6316043
vt 0.7684748 0.8971707
vt 0.7682831 0.9452127
vt 0.729138 0.905755
vt 0.608269 0.7356861
vt 0.5602272 0.7354953
vt 0.7304869 0.5665841
vt 0.7697532 0.5754806
vt 0.7699447 0.5274389
vt 0.978001 0.7371562
vt 0.7682834 0.9452125
vt 0.7684747 0.8971705
vt 0.9299588 0.7369652
vt 0.9780008 0.7371561
vt 0.7697531 0.5754805
vt 0.7699447 0.5274388
vt 0.9418782 0.5100428
vt 0.9418782 0.5981436
vt 0.9125247 0.56879
vt 0.8537776 0.5981435
vt 0.9125247 0.5393966
vt 0.8831295 0.56879
vt 0.8537776 0.510043
vt 0.8831295 0.5393966
vt 0.9418782 0.5100428
vt 0.9125247 0.56879
vt 0.9418782 0.5981436
vt 0.8537776 0.5981435
vt 0.9125247 0.5393966
vt 0.8831295 0.56879
vt 0.8537776 0.510043
vt 0.8831295 0.5393966
vn -0.7071065 -4.291577E-05 -0.7071071
vn -0.7071065 -4.291577E-05 -0.7071071
vn -0.7071064 -4.291577E-05 -0.7071071
vn -0.7071065 -4.291577E-05 -0.707107
vn -0.7071064 4.365196E-05 0.7071071
vn -0.7071064 4.365195E-05 0.7071071
vn -0.7071064 4.365196E-05 0.7071071
vn -0.7071064 4.365196E-05 0.7071071
vn -1 0 0
vn -1 0 0
vn -1 0 0
vn -1 0 0
vn 0 -1 0
vn 0 -1 0
vn 0 -1 0
vn 0 -1 0
vn 0 1 0
vn 0 1 0
vn 0 1 0
vn 0 1 0
vn -1 0 0
vn -1 0 0
vn -1 0 0
vn -1 0 0
vn 0 0 -1
vn 0 0 -1
vn 0 0 -1
vn 0 0 -1
vn 0 -1 0
vn 0 -1 0
vn 0 -1 0
vn 0 -1 0
vn 0 1 0
vn 0 1 0
vn 0 1 0
vn 0 1 0
vn 0.7071072 4.439574E-05 0.7071062
vn 0.7071072 4.439574E-05 0.7071063
vn 0.7071072 4.439574E-05 0.7071062
vn 0.7071072 4.439574E-05 0.7071063
vn 1 0 0
vn 1 0 0
vn 1 0 0
vn 1 0 0
vn 1 0 0
vn 1 0 0
vn 1 0 0
vn 1 0 0
vn 0.7071024 -3.449188E-05 -0.7071111
vn 0.7071024 -3.449188E-05 -0.7071112
vn 0.7071024 -3.449188E-05 -0.7071111
vn 0.7071024 -3.449188E-05 -0.7071111
vn 0 -1 0
vn 0 -1 0
vn 0 -1 0
vn 0 -1 0
vn 0 -1 0
vn 0 -1 0
vn 0 -1 0
vn 0.7071065 -4.288972E-05 -0.7071069
vn 0.7071066 -4.288972E-05 -0.7071069
vn 0.7071065 -4.288972E-05 -0.7071069
vn 0.7071065 -4.288972E-05 -0.707107
vn 0.7071064 4.344065E-05 0.7071071
vn 0.7071064 4.344065E-05 0.7071072
vn 0.7071064 4.344065E-05 0.7071071
vn 0.7071064 4.344065E-05 0.7071072
vn 0 -1 0
vn 0 -1 0
vn 0 -1 0
vn 0 -1 0
vn 0 -1 0
vn 0 -1 0
vn 0 -1 0
vn 0 -1 0
vn 1 0 0
vn 1 0 0
vn 1 0 0
vn 1 0 0
vn 0 -1 0
vn 0 -1 0
vn 0 -1 0
vn 0 -1 0
vn 0 1 0
vn 0 1 0
vn 0 1 0
vn 0 1 0
vn 1 0 0
vn 1 0 0
vn 1 0 0
vn 1 0 0
vn 0 0 -1
vn 0 0 -1
vn 0 0 -1
vn 0 0 -1
vn 0 -1 0
vn 0 -1 0
vn 0 -1 0
vn 0 -1 0
vn 0 1 0
vn 0 1 0
vn 0 1 0
vn 0 1 0
vn -0.7071073 4.416538E-05 0.7071062
vn -0.7071072 4.416539E-05 0.7071062
vn -0.7071073 4.416538E-05 0.7071062
vn -0.7071073 4.416539E-05 0.7071062
vn -1 0 0
vn -1 0 0
vn -1 0 0
vn -1 0 0
vn -1 0 0
vn -1 0 0
vn -1 0 0
vn -1 0 0
vn -0.7071024 -3.420395E-05 -0.7071112
vn -0.7071024 -3.420396E-05 -0.7071112
vn -0.7071024 -3.420395E-05 -0.7071112
vn -0.7071024 -3.420396E-05 -0.7071111
vn 0 1 0
vn 0 1 0
vn 0 1 0
vn 0 1 0
vn 0 1 0
vn 0 1 0
vn 0 1 0
vn 0 1 0
vn 0 1 0
vn 0 1 0
vn 0 1 0
vn 0 1 0
vn 0 1 0
vn 0 1 0
vn 0 1 0
vn 4.363891E-05 8.788783E-05 1
vn 0 0 1
vn 0 0 1
vn -0.0001749802 0 1
vn 4.36389E-05 8.788783E-05 1
vn -0.0001749802 0 1
vn 4.36389E-05 8.788783E-05 1
vn 4.36389E-05 8.788783E-05 1
vn -4.363891E-05 8.785341E-05 1
vn 0 0 1
vn 0 0 1
vn 0.0001749457 0 1
vn -4.363891E-05 8.78534E-05 1
vn 0.0001749457 0 1
vn -4.363892E-05 8.785341E-05 1
vn -4.363891E-05 8.78534E-05 1
g gate-other-02-lod2_0
f 3/3/3 2/2/2 1/1/1
f 2/2/2 4/4/4 1/1/1
f 7/7/7 6/6/6 5/5/5
f 5/5/5 8/8/8 7/7/7
f 11/11/11 10/10/10 9/9/9
f 9/9/9 12/12/12 11/11/11
f 15/15/15 14/14/14 13/13/13
f 15/15/15 16/16/16 14/14/14
f 19/19/19 18/18/18 17/17/17
f 17/17/17 20/20/20 19/19/19
f 23/23/23 22/22/22 21/21/21
f 22/22/22 24/24/24 21/21/21
f 27/27/27 26/26/26 25/25/25
f 25/25/25 28/28/28 27/27/27
f 31/31/31 30/30/30 29/29/29
f 29/29/29 32/32/32 31/31/31
f 35/35/35 34/34/34 33/33/33
f 36/36/36 33/33/33 34/34/34
f 39/39/39 38/38/38 37/37/37
f 37/37/37 40/40/40 39/39/39
f 43/43/43 42/42/42 41/41/41
f 43/43/43 44/44/44 42/42/42
f 47/47/47 46/46/46 45/45/45
f 46/46/46 47/47/47 48/48/48
f 51/51/51 50/50/50 49/49/49
f 49/49/49 52/52/52 51/51/51
f 55/55/55 54/54/54 53/53/53
f 53/53/53 56/56/56 55/55/55
f 58/58/58 56/56/56 57/57/57
f 57/57/57 59/59/59 58/58/58
f 62/62/62 61/61/61 60/60/60
f 60/60/60 63/63/63 62/62/62
f 66/66/66 65/65/65 64/64/64
f 64/64/64 67/67/67 66/66/66
f 70/70/70 69/69/69 68/68/68
f 70/70/70 68/68/68 71/71/71
f 71/71/71 72/72/72 70/70/70
f 73/73/73 72/72/72 71/71/71
f 71/71/71 74/74/74 73/73/73
f 75/75/75 73/73/73 74/74/74
f 78/78/78 77/77/77 76/76/76
f 76/76/76 79/79/79 78/78/78
f 82/82/82 81/81/81 80/80/80
f 83/83/83 80/80/80 81/81/81
f 86/86/86 85/85/85 84/84/84
f 84/84/84 87/87/87 86/86/86
f 90/90/90 89/89/89 88/88/88
f 88/88/88 91/91/91 90/90/90
f 94/94/94 93/93/93 92/92/92
f 94/94/94 95/95/95 93/93/93
f 98/98/98 97/97/97 96/96/96
f 96/96/96 99/99/99 98/98/98
f 102/102/102 101/101/101 100/100/100
f 102/102/102 103/103/103 101/101/101
f 106/106/106 105/105/105 104/104/104
f 104/104/104 107/107/107 106/106/106
f 110/110/110 109/109/109 108/108/108
f 111/111/111 108/108/108 109/109/109
f 114/114/114 113/113/113 112/112/112
f 112/112/112 115/115/115 114/114/114
f 118/118/118 117/117/117 116/116/116
f 116/116/116 119/119/119 118/118/118
f 122/122/122 121/121/121 120/120/120
f 122/122/122 120/120/120 123/123/123
f 123/123/123 124/124/124 122/122/122
f 125/125/125 124/124/124 123/123/123
f 123/123/123 126/126/126 125/125/125
f 127/127/127 125/125/125 126/126/126
f 130/130/130 129/129/129 128/128/128
f 128/128/128 131/131/131 130/130/130
f 133/133/133 131/131/131 132/132/132
f 132/132/132 134/134/134 133/133/133
f 137/137/137 136/136/136 135/135/135
f 138/138/138 136/136/136 137/137/137
f 139/139/139 137/137/137 135/135/135
f 140/140/140 138/138/138 137/137/137
f 141/141/141 139/139/139 135/135/135
f 138/138/138 140/140/140 142/142/142
f 141/141/141 142/142/142 139/139/139
f 138/138/138 142/142/142 141/141/141
f 145/145/145 144/144/144 143/143/143
f 146/146/146 144/144/144 145/145/145
f 143/143/143 144/144/144 147/147/147
f 146/146/146 148/148/148 144/144/144
f 143/143/143 147/147/147 149/149/149
f 150/150/150 148/148/148 146/146/146
f 147/147/147 150/150/150 149/149/149
f 149/149/149 150/150/150 146/146/146
