<?xml version="1.0" encoding="UTF-8"?>
<svg id="Bronze" xmlns="http://www.w3.org/2000/svg" viewBox="0 0 192.49 339.32">
  <defs>
    <style>
      .cls-1 {
        fill: #e86726;
      }

      .cls-1, .cls-2, .cls-3, .cls-4, .cls-5, .cls-6 {
        fill-rule: evenodd;
      }

      .cls-2 {
        fill: #faab57;
      }

      .cls-3 {
        fill: #bd4727;
      }

      .cls-4, .cls-7 {
        fill: #c87229;
      }

      .cls-5 {
        fill: #dd7f27;
      }

      .cls-8 {
        fill: #ffddb8;
      }

      .cls-9, .cls-6 {
        fill: #f59b3d;
      }
    </style>
  </defs>
  <polygon class="cls-3" points="130.62 114.67 60.72 114.67 3.57 .39 73.47 .39 130.62 114.67"/>
  <g>
    <path class="cls-4" d="m60.95,100.29h69.9c8.42,0,15.31,6.89,15.31,15.31v50.55H45.64v-50.55c0-8.42,6.89-15.31,15.31-15.31h0Zm-.92,51.48h71.75v-36.17c0-.48-.44-.92-.92-.92H60.95c-.48,0-.92.44-.92.92v36.17Z"/>
    <path class="cls-4" d="m95.9,147.52c44.01,0,81.09,29.64,92.37,70.05h3.53v25.85c0,52.97-42.94,95.9-95.9,95.9S0,296.39,0,243.42v-25.85h3.53c11.29-40.41,48.36-70.05,92.37-70.05Z"/>
    <path class="cls-6" d="m164.94,309.98c-4.76,4.93-10.03,9.35-15.74,13.18v-74.68h15.74v61.5h0Zm-71.2,29.32c-8.5-.19-16.73-1.49-24.55-3.75v-63.96h24.55v67.71h0Zm-42.75-11.13c-9.17-4.87-17.46-11.18-24.55-18.63v-61.06h24.55v79.69Z"/>
    <circle class="cls-8" cx="95.9" cy="222.48" r="95.9" transform="translate(-32.66 17.13) rotate(-8.73)"/>
    <circle class="cls-9" cx="95.9" cy="217.57" r="95.9" transform="translate(-45.53 26.44) rotate(-12.71)"/>
    <path class="cls-2" d="m167.98,154.31c9.32,10.61,16.33,23.29,20.26,37.26H3.57c3.93-13.97,10.94-26.66,20.26-37.26h144.15Zm23.83,63.26c0,19.91-6.07,38.4-16.46,53.73H16.45C6.07,255.97,0,237.48,0,217.57h191.81Z"/>
    <circle class="cls-7" cx="95.9" cy="217.57" r="73.23"/>
    <path class="cls-5" d="m95.9,286.46c32.22,0,58.5-26.28,58.5-58.5s-26.28-58.5-58.5-58.5-58.5,26.28-58.5,58.5,26.28,58.5,58.5,58.5Z"/>
    <path class="cls-6" d="m134.22,183.77c8.27,7.17,14.5,16.63,17.72,27.38H39.86c3.22-10.75,9.45-20.21,17.72-27.38h76.64Zm20.13,46.49c-.6,15.45-7.18,29.37-17.51,39.49H54.96c-10.32-10.12-16.91-24.03-17.51-39.49h116.9Z"/>
  </g>
  <polygon class="cls-1" points="61.18 114.67 131.08 114.67 188.24 .39 118.33 .39 61.18 114.67"/>
</svg>