<?xml version="1.0" encoding="UTF-8"?>
<svg id="Gold" xmlns="http://www.w3.org/2000/svg" viewBox="0 0 192.49 339.32">
  <defs>
    <style>
      .cls-1 {
        fill: #fef081;
      }

      .cls-2 {
        fill: #fedd30;
      }

      .cls-2, .cls-3, .cls-4, .cls-5, .cls-6, .cls-7, .cls-8 {
        fill-rule: evenodd;
      }

      .cls-3 {
        fill: #e86726;
      }

      .cls-4 {
        fill: #bd4727;
      }

      .cls-9, .cls-5 {
        fill: #ffcd05;
      }

      .cls-6, .cls-10 {
        fill: #f4a51d;
      }

      .cls-7 {
        fill: #febb12;
      }

      .cls-8 {
        fill: #e19525;
      }
    </style>
  </defs>
  <polygon class="cls-4" points="130.85 114.29 60.95 114.29 3.8 0 73.71 0 130.85 114.29"/>
  <g>
    <path class="cls-6" d="m60.95,99.9h69.9c8.42,0,15.31,6.89,15.31,15.31v50.55H45.64v-50.55c0-8.42,6.89-15.31,15.31-15.31h0Zm-.92,51.47h71.75v-36.17c0-.48-.44-.92-.92-.92H60.95c-.48,0-.92.44-.92.92v36.17Z"/>
    <path class="cls-6" d="m95.9,147.13c44.01,0,81.09,29.64,92.37,70.05h3.53v25.85c0,52.97-42.94,95.9-95.9,95.9S0,296,0,243.04v-25.85h3.53c11.29-40.41,48.37-70.05,92.37-70.05Z"/>
    <path class="cls-5" d="m164.94,309.59c-4.76,4.93-10.03,9.35-15.74,13.18v-74.68h15.74v61.5h0Zm-71.2,29.32c-8.5-.19-16.74-1.48-24.56-3.75v-63.96h24.56v67.71h0Zm-42.75-11.13c-9.17-4.87-17.45-11.18-24.55-18.63v-61.06h24.55v79.69Z"/>
    <circle class="cls-1" cx="95.9" cy="222.09" r="95.9" transform="translate(-20.42 9.98) rotate(-5.38)"/>
    <circle class="cls-9" cx="95.9" cy="217.18" r="95.9" transform="translate(-70.98 48.32) rotate(-20.84)"/>
    <path class="cls-2" d="m167.98,153.92c9.32,10.61,16.33,23.29,20.26,37.27H3.57c3.93-13.97,10.94-26.66,20.26-37.27h144.15Zm23.83,63.26c0,19.91-6.07,38.4-16.45,53.73H16.45C6.07,255.58,0,237.09,0,217.18h191.8Z"/>
    <path class="cls-8" d="m95.9,290.41c40.33,0,73.23-32.9,73.23-73.23s-32.89-73.23-73.23-73.23S22.67,176.85,22.67,217.18s32.9,73.23,73.23,73.23Z"/>
    <circle class="cls-10" cx="95.9" cy="227.58" r="58.5" transform="translate(-138.81 304.38) rotate(-85.27)"/>
    <path class="cls-7" d="m134.22,183.38c8.27,7.17,14.5,16.63,17.72,27.39H39.86c3.22-10.76,9.45-20.21,17.72-27.39h76.64Zm20.13,46.49c-.6,15.45-7.19,29.37-17.51,39.49H54.96c-10.32-10.12-16.91-24.03-17.51-39.49h116.9Z"/>
  </g>
  <polygon class="cls-3" points="60.95 114.29 130.85 114.29 188.01 0 118.1 0 60.95 114.29"/>
</svg>