<?xml version="1.0" encoding="UTF-8"?>
<svg id="silver" xmlns="http://www.w3.org/2000/svg" viewBox="0 0 192.49 339.32">
  <defs>
    <style>
      .cls-1 {
        fill: #ece9f1;
      }

      .cls-1, .cls-2, .cls-3, .cls-4, .cls-5, .cls-6, .cls-7, .cls-8 {
        fill-rule: evenodd;
      }

      .cls-2 {
        fill: #6a686d;
      }

      .cls-3 {
        fill: #bcbac3;
      }

      .cls-4 {
        fill: #e86726;
      }

      .cls-5 {
        fill: #bd4727;
      }

      .cls-6 {
        fill: #d9d7e0;
      }

      .cls-7 {
        fill: #a09ea5;
      }

      .cls-8, .cls-9 {
        fill: #858389;
      }
    </style>
  </defs>
  <polygon class="cls-5" points="131.3 114.67 61.4 114.67 4.25 .39 74.16 .39 131.3 114.67"/>
  <g>
    <path class="cls-2" d="m61.63,100.29h69.91c8.42,0,15.31,6.89,15.31,15.31v50.55H46.32v-50.55c0-8.42,6.89-15.31,15.31-15.31h0Zm-.92,51.48h71.75v-36.17c0-.48-.44-.92-.92-.92H61.63c-.48,0-.92.44-.92.92v36.17Z"/>
    <path class="cls-8" d="m96.58,147.52c44.01,0,81.09,29.64,92.37,70.05h3.53v25.85c0,52.97-42.94,95.9-95.9,95.9S.68,296.39.68,243.42v-25.85h3.53c11.29-40.41,48.37-70.05,92.37-70.05Z"/>
    <path class="cls-3" d="m165.62,309.98c-4.76,4.93-10.03,9.35-15.74,13.18v-74.68h15.74v61.5h0Zm-71.21,29.32c-8.5-.19-16.73-1.49-24.55-3.75v-63.96h24.55v67.71h0Zm-42.75-11.13c-9.17-4.87-17.46-11.18-24.55-18.63v-61.06h24.55v79.69Z"/>
    <path class="cls-1" d="m96.58,318.38c52.82,0,95.9-43.08,95.9-95.9s-43.08-95.9-95.9-95.9S.68,169.66.68,222.48s43.08,95.9,95.9,95.9Z"/>
    <path class="cls-3" d="m96.58,313.47c52.82,0,95.9-43.08,95.9-95.9s-43.08-95.9-95.9-95.9S.68,164.75.68,217.57s43.08,95.9,95.9,95.9Z"/>
    <path class="cls-6" d="m168.66,154.31c9.32,10.61,16.33,23.29,20.26,37.26H4.25c3.93-13.97,10.94-26.66,20.26-37.26h144.15Zm23.83,63.26c0,19.91-6.07,38.4-16.45,53.73H17.13C6.75,255.97.68,237.48.68,217.57h191.81Z"/>
    <circle class="cls-9" cx="96.58" cy="217.57" r="73.23" transform="translate(-127.34 298.33) rotate(-85.9)"/>
    <path class="cls-7" d="m96.58,286.46c32.22,0,58.5-26.28,58.5-58.5s-26.28-58.5-58.5-58.5-58.5,26.28-58.5,58.5,26.28,58.5,58.5,58.5Z"/>
    <path class="cls-3" d="m134.9,183.77c8.27,7.17,14.5,16.63,17.72,27.38H40.54c3.22-10.75,9.45-20.21,17.72-27.38h76.64Zm20.13,46.49c-.6,15.45-7.18,29.37-17.51,39.49H55.64c-10.32-10.12-16.91-24.03-17.51-39.49h116.9Z"/>
  </g>
  <polygon class="cls-4" points="61.86 114.67 131.76 114.67 188.92 .39 119.01 .39 61.86 114.67"/>
</svg>