g frame-34-body-arm-2-lod2
v -0.07625549 0.1188628 -0.006480153
v -0.01399357 0.04287582 -0.006480153
v -0.03305602 0.03457358 -0.006480153
v -0.0918875 0.1060238 -0.006480153
v -0.106043 0.1147074 -0.006480153
v -0.08202301 0.1344363 -0.006480153
v -0.08406301 0.1366854 -0.006480153
v -0.107782 0.1169228 -0.006480153
v -0.113383 0.1405324 -0.006480153
v -0.105929 0.1466544 -0.006480153
v -0.112367 0.1435404 -0.006480153
v -0.109077 0.1462434 -0.006480153
v -0.0918875 0.1060238 -0.006480153
v -0.03305602 0.03457358 -0.006480153
v -0.03305602 0.03457358 -0.01141004
v -0.0918875 0.1060238 -0.01141004
v -0.07625549 0.1188629 -0.01141004
v -0.03305602 0.03457358 -0.01141004
v -0.01399359 0.04287586 -0.01141004
v -0.0918875 0.1060238 -0.01141004
v -0.106043 0.1147074 -0.01141004
v -0.08202301 0.1344363 -0.01141004
v -0.08406301 0.1366854 -0.01141004
v -0.107782 0.1169229 -0.01141004
v -0.113383 0.1405324 -0.01141004
v -0.105929 0.1466544 -0.01141004
v -0.112367 0.1435404 -0.01141004
v -0.109077 0.1462434 -0.01141004
v -0.07625549 0.1188629 -0.01141004
v -0.07625549 0.1188628 -0.006480153
v -0.08202301 0.1344363 -0.006480153
v -0.08202301 0.1344363 -0.01141004
v -0.08406301 0.1366854 -0.01141004
v -0.08406301 0.1366854 -0.006480153
v -0.105929 0.1466544 -0.01141004
v -0.105929 0.1466544 -0.006480153
v -0.109077 0.1462434 -0.006480153
v -0.109077 0.1462434 -0.01141004
v -0.112367 0.1435404 -0.01141004
v -0.112367 0.1435404 -0.006480153
v -0.113383 0.1405324 -0.006480153
v -0.113383 0.1405324 -0.01141004
v -0.107782 0.1169229 -0.01141004
v -0.107782 0.1169228 -0.006480153
v -0.106043 0.1147074 -0.01141004
v -0.106043 0.1147074 -0.006480153
v -0.0918875 0.1060238 -0.01141004
v -0.0918875 0.1060238 -0.006480153
v -0.07625549 0.1188628 -0.006480153
v -0.07625549 0.1188629 -0.01141004
v -0.01399359 0.04287586 -0.01141004
v -0.01399357 0.04287582 -0.006480153
v -0.03305602 0.03457358 -0.006480153
v -0.01399357 0.04287582 -0.006480153
v -0.01399359 0.04287586 -0.01141004
v -0.03305602 0.03457358 -0.01141004
v -0.09545401 0.1113544 -0.001881153
v -0.09160401 0.1145294 -0.001881153
v -0.08462898 0.1060544 -0.001881153
v -0.03192987 0.03400992 -0.001881153
v -0.08259851 0.1051106 -0.001881153
v -0.03056473 0.03496581 -0.001881153
v -0.08040399 0.1055544 -0.001881153
v -0.07810403 0.1075544 -0.001881153
v -0.01758546 0.04405398 -0.001881153
v -0.07718899 0.1095807 -0.001881153
v -0.0163212 0.04493923 -0.001881153
v -0.07765399 0.1117544 -0.001881153
v -0.08075399 0.1234544 -0.001881153
v -0.08465399 0.1202544 -0.001881153
v -0.07765399 0.1117544 -0.001881153
v -0.08465399 0.1202544 -0.006480153
v -0.08465399 0.1202544 -0.001881153
v -0.07765399 0.1117544 -0.006480153
v -0.07718899 0.1095807 -0.001881153
v -0.07718899 0.1095807 -0.006480153
v -0.07810403 0.1075544 -0.001881153
v -0.07810403 0.1075544 -0.006480153
v -0.08040399 0.1055544 -0.001881153
v -0.08040399 0.1055544 -0.006480153
v -0.08259851 0.1051106 -0.001881153
v -0.08259851 0.1051106 -0.006480153
v -0.08462898 0.1060544 -0.006480153
v -0.08462898 0.1060544 -0.001881153
v -0.09160401 0.1145294 -0.006480153
v -0.09160401 0.1145294 -0.001881153
v -0.09545401 0.1113544 -0.006480153
v -0.08462898 0.1060544 -0.006480153
v -0.09160401 0.1145294 -0.006480153
v -0.03184189 0.03390279 -0.006480153
v -0.08259851 0.1051106 -0.006480153
v -0.03048289 0.03485438 -0.006480153
v -0.08040399 0.1055544 -0.006480153
v -0.07810403 0.1075544 -0.006480153
v -0.01749117 0.04395128 -0.006480153
v -0.07718899 0.1095807 -0.006480153
v -0.01623327 0.04483207 -0.006480153
v -0.07765399 0.1117544 -0.006480153
v -0.08075399 0.1234544 -0.006480153
v -0.08465399 0.1202544 -0.006480153
v -0.01623327 0.04483207 -0.006480153
v -0.0163212 0.04493923 -0.001881153
v -0.08075399 0.1234544 -0.006480153
v -0.08075399 0.1234544 -0.001881153
v -0.08075399 0.1234544 -0.006480153
v -0.08075399 0.1234544 -0.001881153
v -0.08465399 0.1202544 -0.001881153
v -0.08465399 0.1202544 -0.006480153
v -0.09160401 0.1145294 -0.001881153
v -0.09545401 0.1113544 -0.001881153
v -0.09160401 0.1145294 -0.006480153
v -0.09545401 0.1113544 -0.006480153
v -0.09545401 0.1113544 -0.006480153
v -0.09545401 0.1113544 -0.001881153
v -0.03192987 0.03400992 -0.001881153
v -0.03184189 0.03390279 -0.006480153
v -0.03184189 0.03390279 -0.006480153
v -0.03192987 0.03400992 -0.001881153
v -0.03056473 0.03496581 -0.001881153
v -0.03048289 0.03485438 -0.006480153
v -0.01758546 0.04405398 -0.001881153
v -0.01749117 0.04395128 -0.006480153
v -0.0163212 0.04493923 -0.001881153
v -0.01623327 0.04483207 -0.006480153
v -0.01977412 0.04941686 -0.01174915
v -0.08062901 0.1235089 -0.01174915
v -0.08062901 0.1235089 -0.01333435
v -0.01968971 0.04931408 -0.01333435
v -0.08062901 0.1235089 -0.01174915
v -0.09531201 0.11145 -0.01174915
v -0.09531201 0.1114499 -0.01333435
v -0.08062901 0.1235089 -0.01333435
v -0.09531201 0.1114499 -0.01333435
v -0.09531201 0.11145 -0.01174915
v -0.03431199 0.03715227 -0.01333435
v -0.03425128 0.03707844 -0.01174915
v -0.02376611 0.04367328 -0.01333435
v -0.01968971 0.04931408 -0.01333435
v -0.08062901 0.1235089 -0.01333435
v -0.02928794 0.03923279 -0.01333435
v -0.09531201 0.1114499 -0.01333435
v -0.03431199 0.03715227 -0.01333435
v -0.02937584 0.03899828 -0.01174915
v -0.03425128 0.03707844 -0.01174915
v -0.09531201 0.11145 -0.01174915
v -0.08062901 0.1235089 -0.01174915
v -0.02386096 0.04344759 -0.01174915
v -0.01977412 0.04941686 -0.01174915
v -0.02376611 0.04367328 -0.01333435
v -0.02386096 0.04344759 -0.01174915
v -0.01977412 0.04941686 -0.01174915
v -0.01968971 0.04931408 -0.01333435
v -0.02937584 0.03899828 -0.01174915
v -0.03431199 0.03715227 -0.01333435
v -0.03425128 0.03707844 -0.01174915
v -0.02928794 0.03923279 -0.01333435
v -0.02386096 0.04344759 -0.01174915
v -0.02928794 0.03923279 -0.01333435
v -0.02937584 0.03899828 -0.01174915
v -0.02376611 0.04367328 -0.01333435
vt 0.1682292 0.418632
vt 0.1176803 0.4805368
vt 0.1331924 0.4872571
vt 0.1810182 0.4290578
vt 0.1925289 0.4220426
vt 0.1729966 0.4059979
vt 0.1746241 0.4041364
vt 0.1939246 0.4202205
vt 0.1984981 0.4010366
vt 0.1924523 0.3960754
vt 0.1976454 0.3985564
vt 0.1950106 0.3963852
vt 0.1015666 0.7067643
vt 0.1763221 0.7067643
vt 0.1763221 0.7027339
vt 0.1015666 0.7027339
vt 0.578951 0.7207541
vt 0.614044 0.7893489
vt 0.6295386 0.7826389
vt 0.5662392 0.7312182
vt 0.5547286 0.7241254
vt 0.5742616 0.7080806
vt 0.5725561 0.7062199
vt 0.5532942 0.7223433
vt 0.5487593 0.7031201
vt 0.5548051 0.6981581
vt 0.5494847 0.7008252
vt 0.5522476 0.6984694
vt 0.03243572 0.6185989
vt 0.03243572 0.6226286
vt 0.04596234 0.6226286
vt 0.04596234 0.6185989
vt 0.04851985 0.6185989
vt 0.04851985 0.6226286
vt 0.06805434 0.6185989
vt 0.06805434 0.6226286
vt 0.07076634 0.6226286
vt 0.07076634 0.6185989
vt 0.07425535 0.6185989
vt 0.07425535 0.6226286
vt 0.0769681 0.6226286
vt 0.0769681 0.6185989
vt 0.09669498 0.6185989
vt 0.09669498 0.6226286
vt 0.09905934 0.6185989
vt 0.09905934 0.6226286
vt 0.1125462 0.6185989
vt 0.1125462 0.6226286
vt 0.3347394 0.9310991
vt 0.3347394 0.9351289
vt 0.4140958 0.9351287
vt 0.4140959 0.931099
vt 0.007645556 0.8400365
vt 0.007620579 0.8408231
vt 0.007807098 0.840829
vt 0.007832073 0.8400423
vt 0.7308196 0.6915897
vt 0.7278751 0.6890314
vt 0.7222156 0.6955429
vt 0.6795553 0.7506766
vt 0.7206074 0.6962404
vt 0.6784984 0.7499127
vt 0.7188826 0.6958526
vt 0.7171006 0.6942251
vt 0.668517 0.7425575
vt 0.716441 0.6926363
vt 0.6675462 0.7418453
vt 0.7168674 0.6909686
vt 0.7195036 0.6819004
vt 0.7225254 0.6844579
vt 0.7279591 0.8882689
vt 0.7193551 0.8870283
vt 0.7193551 0.8882689
vt 0.7279591 0.8870283
vt 0.7297416 0.8882689
vt 0.7297416 0.8870283
vt 0.7316026 0.8882689
vt 0.7316026 0.8870283
vt 0.7339276 0.8882689
vt 0.7339276 0.8870283
vt 0.735788 0.8882689
vt 0.735788 0.8870283
vt 0.7376476 0.8870283
vt 0.7376476 0.8882689
vt 0.7461751 0.8870283
vt 0.7461751 0.8882689
vt 0.1648673 0.4528076
vt 0.1733949 0.4567609
vt 0.1678141 0.4502494
vt 0.2160838 0.5120361
vt 0.1750222 0.4574001
vt 0.217124 0.5112616
vt 0.1767279 0.4570699
vt 0.1785099 0.4554424
vt 0.2271693 0.5039172
vt 0.1791695 0.453873
vt 0.2281353 0.5032071
vt 0.1787431 0.4521874
vt 0.1761069 0.4431184
vt 0.1731623 0.4456759
vt 0.6121017 0.9964422
vt 0.6119934 0.9952016
vt 0.5326561 0.9964421
vt 0.5326561 0.9952016
vt 0.5518869 0.3221246
vt 0.5518869 0.3233652
vt 0.5558394 0.3233652
vt 0.5558394 0.3221246
vt 0.5639064 0.4010899
vt 0.5677816 0.4010899
vt 0.5639064 0.3998494
vt 0.5677816 0.3998494
vt 0.5999641 0.9014516
vt 0.5999641 0.9026914
vt 0.6781341 0.9026914
vt 0.6782424 0.9014517
vt 0.006943522 0.8407291
vt 0.00700309 0.8407216
vt 0.006994996 0.84066
vt 0.006935262 0.8406656
vt 0.006959777 0.8400623
vt 0.006899804 0.8400651
vt 0.006956514 0.840004
vt 0.006896559 0.8400069
vt 0.2739622 0.3958408
vt 0.1993224 0.3958429
vt 0.1993224 0.3970834
vt 0.2740658 0.3970813
vt 0.02784835 0.6406714
vt 0.0425761 0.6406714
vt 0.0425761 0.6394324
vt 0.02784835 0.6394324
vt 0.5999641 0.8966441
vt 0.5999641 0.8978839
vt 0.6748016 0.8966441
vt 0.6748761 0.8978839
vt 0.6283692 0.7082677
vt 0.6314915 0.7038417
vt 0.5832361 0.6466444
vt 0.6241111 0.711749
vt 0.5719194 0.6561776
vt 0.6202151 0.7133994
vt 0.5809919 0.4779382
vt 0.5847726 0.4794827
vt 0.6331163 0.4222046
vt 0.6217988 0.4126692
vt 0.5767382 0.4744186
vt 0.5736138 0.46973
vt 0.007929283 0.8403164
vt 0.007989805 0.8403205
vt 0.00796602 0.8400475
vt 0.007906261 0.8400541
vt 0.008005817 0.8405886
vt 0.007950954 0.8407897
vt 0.008010978 0.840787
vt 0.007945263 0.840584
vt 0.007989805 0.8403205
vt 0.007945263 0.840584
vt 0.008005817 0.8405886
vt 0.007929283 0.8403164
vn 0 0 1
vn 0 0 1
vn 0 0 1
vn 0 0 1
vn 0 0 1
vn 0 0 1
vn 0 0 1
vn 0 0 1
vn 0 0 1
vn 0 0 1
vn 0 0 1
vn 0 0 1
vn -0.7719826 -0.6356436 -3.236275E-06
vn -0.7719826 -0.6356436 -3.236275E-06
vn -0.7719826 -0.6356436 -3.236275E-06
vn -0.7719826 -0.6356436 -3.236275E-06
vn 0 0 -1
vn 0 0 -1
vn 0 0 -1
vn 0 0 -1
vn 0 0 -1
vn 0 0 -1
vn 0 0 -1
vn 0 0 -1
vn 0 0 -1
vn 0 0 -1
vn 0 0 -1
vn 0 0 -1
vn 0.937757 0.3472924 1.709693E-06
vn 0.937757 0.3472924 1.709693E-06
vn 0.8547713 0.5190049 8.706807E-07
vn 0.8547713 0.5190049 8.706807E-07
vn 0.5898992 0.8074769 0
vn 0.5898992 0.8074769 0
vn 0.1484183 0.9889247 0
vn 0.1484183 0.9889247 0
vn -0.3975012 0.9176016 0
vn -0.3975012 0.9176016 0
vn -0.8228543 0.5682523 0
vn -0.8228543 0.5682523 0
vn -0.9989238 0.04638074 -5.952799E-07
vn -0.9989238 0.04638074 -5.952799E-07
vn -0.9007925 -0.4342496 -2.138331E-06
vn -0.9007916 -0.4342518 -2.138342E-06
vn -0.6652128 -0.7466539 -3.668875E-06
vn -0.6652128 -0.7466539 -3.668875E-06
vn -0.5228957 -0.8523967 -4.189789E-06
vn -0.5228957 -0.8523967 -4.189789E-06
vn 0.7735046 0.6337907 4.471945E-06
vn 0.7735046 0.6337907 4.471945E-06
vn 0.7735046 0.6337907 4.471945E-06
vn 0.7735046 0.6337907 4.471945E-06
vn 0.3993023 -0.9168193 -4.231796E-06
vn 0.3993023 -0.9168193 -4.231796E-06
vn 0.3993023 -0.9168193 -4.231796E-06
vn 0.3993023 -0.9168193 -4.231796E-06
vn 0 0 1
vn 0 0 1
vn 0 0 1
vn 0 0 1
vn 0 0 1
vn 0 0 1
vn 0 0 1
vn 0 0 1
vn 0 0 1
vn 0 0 1
vn 0 0 1
vn 0 0 1
vn 0 0 1
vn 0 0 1
vn -0.9005203 -0.4348138 0
vn -0.7719302 -0.6357073 0
vn -0.7719302 -0.6357073 0
vn -0.9005203 -0.4348138 0
vn -0.9943109 0.1065171 0
vn -0.9943109 0.1065171 0
vn -0.8023293 0.5968817 0
vn -0.8023293 0.5968817 0
vn -0.4418282 0.8970997 0
vn -0.4418282 0.8970997 0
vn 0.1175118 0.9930715 1.154598E-07
vn 0.1175118 0.9930715 1.154598E-07
vn 0.6120353 0.7908304 -2.812475E-08
vn 0.6120355 0.7908303 -2.8125E-08
vn 0.7721267 0.6354687 -2.742426E-07
vn 0.7721266 0.6354687 -2.742426E-07
vn 0 0 -1
vn 0 0 -1
vn 0 0 -1
vn 0 0 -1
vn 0 0 -1
vn 0 0 -1
vn 0 0 -1
vn 0 0 -1
vn 0 0 -1
vn 0 0 -1
vn 0 0 -1
vn 0 0 -1
vn 0 0 -1
vn 0 0 -1
vn 0.7730247 0.6343759 -3.159067E-07
vn 0.7730247 0.634376 -3.159067E-07
vn 0.7730247 0.634376 -3.159068E-07
vn 0.7730247 0.634376 -3.159068E-07
vn -0.6343149 0.7730749 0
vn -0.6343149 0.7730749 0
vn -0.6343149 0.7730749 0
vn -0.6343149 0.7730749 0
vn -0.6362324 0.7714975 -8.126432E-07
vn -0.6362324 0.7714975 -8.126432E-07
vn -0.6362324 0.7714975 -8.126432E-07
vn -0.6362324 0.7714975 -8.126432E-07
vn -0.7727695 -0.6346866 -2.137194E-07
vn -0.7727695 -0.6346866 -2.137194E-07
vn -0.7727695 -0.6346866 -2.137194E-07
vn -0.7727695 -0.6346866 -2.137194E-07
vn 0.573319 -0.8187814 0.03003986
vn 0.573319 -0.8187814 0.03003986
vn 0.5733176 -0.8187824 0.03003938
vn 0.5733176 -0.8187824 0.03003937
vn 0.5733176 -0.8187824 0.03003938
vn 0.5733176 -0.8187824 0.03003938
vn 0.5733187 -0.8187817 0.03003872
vn 0.5733187 -0.8187817 0.03003872
vn 0.7727591 0.6346995 -3.236271E-07
vn 0.7727591 0.6346995 -3.236271E-07
vn 0.7727591 0.6346995 -3.236271E-07
vn 0.7727591 0.6346995 -3.236271E-07
vn -0.6346735 0.7727804 -2.834376E-05
vn -0.6346735 0.7727804 -2.834376E-05
vn -0.6346735 0.7727804 -2.834376E-05
vn -0.6346735 0.7727804 -2.834376E-05
vn -0.7728801 -0.6345521 4.810396E-05
vn -0.7728801 -0.6345521 4.810396E-05
vn -0.7728801 -0.6345521 4.810396E-05
vn -0.7728801 -0.6345521 4.810396E-05
vn 0 0 -1
vn 0 0 -1
vn 0 0 -1
vn 0 0 -1
vn 0 0 -1
vn 0 0 -1
vn 0 0 1
vn 0 0 1
vn 0 0 1
vn 0 0 1
vn 0 0 1
vn 0 0 1
vn 0.8177976 -0.5750074 0.02394739
vn 0.8177976 -0.5750074 0.02394739
vn 0.8177977 -0.5750074 0.02394739
vn 0.8177976 -0.5750074 0.02394739
vn 0.3732545 -0.9236755 -0.08662989
vn 0.3732545 -0.9236755 -0.08662989
vn 0.3732545 -0.9236755 -0.08662989
vn 0.3732544 -0.9236755 -0.08662988
vn 0.6254459 -0.7764926 -0.07665967
vn 0.6254459 -0.7764926 -0.07665968
vn 0.6254459 -0.7764926 -0.07665968
vn 0.6254459 -0.7764926 -0.07665968
g frame-34-body-arm-2-lod2_0
f 3/3/3 2/2/2 1/1/1
f 1/1/1 4/4/4 3/3/3
f 5/5/5 4/4/4 1/1/1
f 1/1/1 6/6/6 5/5/5
f 5/5/5 6/6/6 7/7/7
f 7/7/7 8/8/8 5/5/5
f 9/9/9 8/8/8 7/7/7
f 7/7/7 10/10/10 9/9/9
f 10/10/10 11/11/11 9/9/9
f 10/10/10 12/12/12 11/11/11
f 15/15/15 14/14/14 13/13/13
f 13/13/13 16/16/16 15/15/15
f 19/19/19 18/18/18 17/17/17
f 18/18/18 20/20/20 17/17/17
f 17/17/17 20/20/20 21/21/21
f 21/21/21 22/22/22 17/17/17
f 23/23/23 22/22/22 21/21/21
f 21/21/21 24/24/24 23/23/23
f 23/23/23 24/24/24 25/25/25
f 25/25/25 26/26/26 23/23/23
f 26/26/26 25/25/25 27/27/27
f 27/27/27 28/28/28 26/26/26
f 31/31/31 30/30/30 29/29/29
f 29/29/29 32/32/32 31/31/31
f 32/32/32 33/33/33 31/31/31
f 34/34/34 31/31/31 33/33/33
f 35/35/35 34/34/34 33/33/33
f 34/34/34 35/35/35 36/36/36
f 36/36/36 35/35/35 37/37/37
f 35/35/35 38/38/38 37/37/37
f 38/38/38 39/39/39 37/37/37
f 37/37/37 39/39/39 40/40/40
f 40/40/40 39/39/39 41/41/41
f 39/39/39 42/42/42 41/41/41
f 43/43/43 41/41/41 42/42/42
f 41/41/41 43/43/43 44/44/44
f 44/44/44 43/43/43 45/45/45
f 45/45/45 46/46/46 44/44/44
f 47/47/47 46/46/46 45/45/45
f 46/46/46 47/47/47 48/48/48
f 51/51/51 50/50/50 49/49/49
f 49/49/49 52/52/52 51/51/51
f 55/55/55 54/54/54 53/53/53
f 53/53/53 56/56/56 55/55/55
f 59/59/59 58/58/58 57/57/57
f 60/60/60 59/59/59 57/57/57
f 60/60/60 61/61/61 59/59/59
f 61/61/61 60/60/60 62/62/62
f 62/62/62 63/63/63 61/61/61
f 64/64/64 63/63/63 62/62/62
f 64/64/64 62/62/62 65/65/65
f 66/66/66 64/64/64 65/65/65
f 66/66/66 65/65/65 67/67/67
f 68/68/68 66/66/66 67/67/67
f 68/68/68 67/67/67 69/69/69
f 70/70/70 68/68/68 69/69/69
f 73/73/73 72/72/72 71/71/71
f 72/72/72 74/74/74 71/71/71
f 75/75/75 71/71/71 74/74/74
f 74/74/74 76/76/76 75/75/75
f 76/76/76 77/77/77 75/75/75
f 76/76/76 78/78/78 77/77/77
f 78/78/78 79/79/79 77/77/77
f 78/78/78 80/80/80 79/79/79
f 80/80/80 81/81/81 79/79/79
f 80/80/80 82/82/82 81/81/81
f 81/81/81 82/82/82 83/83/83
f 83/83/83 84/84/84 81/81/81
f 84/84/84 83/83/83 85/85/85
f 85/85/85 86/86/86 84/84/84
f 89/89/89 88/88/88 87/87/87
f 88/88/88 90/90/90 87/87/87
f 88/88/88 91/91/91 90/90/90
f 92/92/92 90/90/90 91/91/91
f 93/93/93 92/92/92 91/91/91
f 92/92/92 93/93/93 94/94/94
f 95/95/95 92/92/92 94/94/94
f 94/94/94 96/96/96 95/95/95
f 96/96/96 97/97/97 95/95/95
f 97/97/97 96/96/96 98/98/98
f 97/97/97 98/98/98 99/99/99
f 98/98/98 100/100/100 99/99/99
f 103/103/103 102/102/102 101/101/101
f 102/102/102 103/103/103 104/104/104
f 107/107/107 106/106/106 105/105/105
f 105/105/105 108/108/108 107/107/107
f 111/111/111 110/110/110 109/109/109
f 111/111/111 112/112/112 110/110/110
f 115/115/115 114/114/114 113/113/113
f 113/113/113 116/116/116 115/115/115
f 119/119/119 118/118/118 117/117/117
f 117/117/117 120/120/120 119/119/119
f 119/119/119 120/120/120 121/121/121
f 120/120/120 122/122/122 121/121/121
f 122/122/122 123/123/123 121/121/121
f 122/122/122 124/124/124 123/123/123
f 127/127/127 126/126/126 125/125/125
f 125/125/125 128/128/128 127/127/127
f 131/131/131 130/130/130 129/129/129
f 129/129/129 132/132/132 131/131/131
f 135/135/135 134/134/134 133/133/133
f 134/134/134 135/135/135 136/136/136
f 139/139/139 138/138/138 137/137/137
f 140/140/140 139/139/139 137/137/137
f 141/141/141 139/139/139 140/140/140
f 142/142/142 141/141/141 140/140/140
f 145/145/145 144/144/144 143/143/143
f 146/146/146 145/145/145 143/143/143
f 147/147/147 146/146/146 143/143/143
f 148/148/148 146/146/146 147/147/147
f 151/151/151 150/150/150 149/149/149
f 149/149/149 152/152/152 151/151/151
f 155/155/155 154/154/154 153/153/153
f 154/154/154 156/156/156 153/153/153
f 159/159/159 158/158/158 157/157/157
f 158/158/158 160/160/160 157/157/157
