g frame-34-body-arm-1-lod2
v -0.07625549 -0.1187762 -0.006480153
v -0.03534592 -0.03727493 -0.006480153
v -0.01767444 -0.04727071 -0.006480153
v -0.0918875 -0.1059372 -0.006480153
v -0.08202301 -0.1343496 -0.006480153
v -0.106043 -0.1146207 -0.006480153
v -0.0838585 -0.1364856 -0.006480153
v -0.107782 -0.1168362 -0.006480153
v -0.113383 -0.1404456 -0.006480153
v -0.105929 -0.1465677 -0.006480153
v -0.112367 -0.1434536 -0.006480153
v -0.109077 -0.1461566 -0.006480153
v -0.03534592 -0.03727493 -0.01141004
v -0.03534592 -0.03727493 -0.006480153
v -0.0918875 -0.1059372 -0.01141004
v -0.0918875 -0.1059372 -0.006480153
v -0.07625549 -0.1187761 -0.01141004
v -0.01767443 -0.04727068 -0.01141004
v -0.03534592 -0.03727493 -0.01141004
v -0.0918875 -0.1059372 -0.01141004
v -0.08202301 -0.1343496 -0.01141004
v -0.106043 -0.1146206 -0.01141004
v -0.0838585 -0.1364856 -0.01141004
v -0.107782 -0.1168362 -0.01141004
v -0.105929 -0.1465676 -0.01141004
v -0.113383 -0.1404456 -0.01141004
v -0.112367 -0.1434536 -0.01141004
v -0.109077 -0.1461566 -0.01141004
v -0.07625549 -0.1187762 -0.006480153
v -0.07625549 -0.1187761 -0.01141004
v -0.08202301 -0.1343496 -0.01141004
v -0.08202301 -0.1343496 -0.006480153
v -0.0838585 -0.1364856 -0.01141004
v -0.0838585 -0.1364856 -0.006480153
v -0.105929 -0.1465676 -0.01141004
v -0.105929 -0.1465677 -0.006480153
v -0.109077 -0.1461566 -0.01141004
v -0.109077 -0.1461566 -0.006480153
v -0.112367 -0.1434536 -0.01141004
v -0.112367 -0.1434536 -0.006480153
v -0.113383 -0.1404456 -0.01141004
v -0.113383 -0.1404456 -0.006480153
v -0.107782 -0.1168362 -0.006480153
v -0.107782 -0.1168362 -0.01141004
v -0.106043 -0.1146207 -0.006480153
v -0.106043 -0.1146206 -0.01141004
v -0.0918875 -0.1059372 -0.01141004
v -0.0918875 -0.1059372 -0.006480153
v -0.07625549 -0.1187761 -0.01141004
v -0.07625549 -0.1187762 -0.006480153
v -0.01767444 -0.04727071 -0.006480153
v -0.01767443 -0.04727068 -0.01141004
v -0.01767444 -0.04727071 -0.006480153
v -0.03534592 -0.03727493 -0.006480153
v -0.03534592 -0.03727493 -0.01141004
v -0.01767443 -0.04727068 -0.01141004
v -0.09545403 -0.1112666 -0.001881153
v -0.08462901 -0.1059665 -0.001881153
v -0.09160403 -0.1144416 -0.001881153
v -0.03151653 -0.03341879 -0.001881152
v -0.08150128 -0.1052447 -0.001881153
v -0.01696164 -0.04563179 -0.001881152
v -0.07764653 -0.1084797 -0.001881153
v -0.07765401 -0.1116665 -0.001881153
v -0.08075401 -0.1233666 -0.001881153
v -0.08465401 -0.1201665 -0.001881153
v -0.08465401 -0.1201665 -0.001881153
v -0.08465401 -0.1201665 -0.006480149
v -0.07765401 -0.1116665 -0.001881153
v -0.07765401 -0.1116665 -0.006480149
v -0.07764653 -0.1084797 -0.001881153
v -0.07764654 -0.1084797 -0.006480149
v -0.08150128 -0.1052447 -0.001881153
v -0.08150128 -0.1052447 -0.006480149
v -0.08462901 -0.1059665 -0.001881153
v -0.08462901 -0.1059665 -0.006480149
v -0.09160403 -0.1144416 -0.001881153
v -0.09160403 -0.1144416 -0.006480149
v -0.09545403 -0.1112666 -0.006480149
v -0.09160403 -0.1144416 -0.006480149
v -0.08462901 -0.1059665 -0.006480149
v -0.0314288 -0.03331197 -0.006480149
v -0.08150128 -0.1052447 -0.006480149
v -0.01687396 -0.04552494 -0.006480149
v -0.07764654 -0.1084797 -0.006480149
v -0.07765401 -0.1116665 -0.006480149
v -0.08075401 -0.1233666 -0.006480149
v -0.08465401 -0.1201665 -0.006480149
v -0.01696164 -0.04563179 -0.001881152
v -0.08075401 -0.1233666 -0.006480149
v -0.08075401 -0.1233666 -0.001881153
v -0.01687396 -0.04552494 -0.006480149
v -0.08075401 -0.1233666 -0.001881153
v -0.08075401 -0.1233666 -0.006480149
v -0.08465401 -0.1201665 -0.001881153
v -0.08465401 -0.1201665 -0.006480149
v -0.09160403 -0.1144416 -0.001881153
v -0.09160403 -0.1144416 -0.006480149
v -0.09545403 -0.1112666 -0.001881153
v -0.09545403 -0.1112666 -0.006480149
v -0.03151653 -0.03341879 -0.001881152
v -0.09545403 -0.1112666 -0.001881153
v -0.09545403 -0.1112666 -0.006480149
v -0.0314288 -0.03331197 -0.006480149
v -0.01696164 -0.04563179 -0.001881152
v -0.03151653 -0.03341879 -0.001881152
v -0.0314288 -0.03331197 -0.006480149
v -0.01687396 -0.04552494 -0.006480149
v -0.02657056 -0.02726167 -0.01333435
v -0.02657057 -0.02726167 -0.01174915
v -0.09569352 -0.1113691 -0.01333435
v -0.09569352 -0.1113691 -0.01174915
v -0.08097363 -0.1234386 -0.01174915
v -0.09569352 -0.1113691 -0.01333435
v -0.09569352 -0.1113691 -0.01174915
v -0.08097363 -0.1234386 -0.01333435
v -0.01194287 -0.03939475 -0.01174915
v -0.08097363 -0.1234386 -0.01174915
v -0.09569352 -0.1113691 -0.01174915
v -0.02657057 -0.02726167 -0.01174915
v -0.01194286 -0.03939474 -0.01333435
v -0.02657056 -0.02726167 -0.01333435
v -0.09569352 -0.1113691 -0.01333435
v -0.08097363 -0.1234386 -0.01333435
v -0.08097363 -0.1234386 -0.01333435
v -0.08097363 -0.1234386 -0.01174915
v -0.01194287 -0.03939475 -0.01174915
v -0.01194286 -0.03939474 -0.01333435
v -0.01194286 -0.03939474 -0.01333435
v -0.01194287 -0.03939475 -0.01174915
v -0.02657056 -0.02726167 -0.01333435
v -0.02657057 -0.02726167 -0.01174915
vt 0.1682682 0.6121073
vt 0.1350324 0.5457444
vt 0.1206439 0.5538584
vt 0.1810182 0.6016428
vt 0.1729966 0.6247414
vt 0.1925289 0.6086974
vt 0.1744692 0.6264858
vt 0.1939246 0.6104797
vt 0.1984981 0.6297026
vt 0.1924523 0.6346647
vt 0.1976454 0.6321828
vt 0.1950106 0.6343541
vt 0.1135618 0.6955219
vt 0.1135618 0.6994751
vt 0.1853821 0.6955219
vt 0.1853821 0.6994751
vt 0.578951 0.9142294
vt 0.6265748 0.8559966
vt 0.6122048 0.8478465
vt 0.5662392 0.9037646
vt 0.5742616 0.9269021
vt 0.5547286 0.9108581
vt 0.5727893 0.9286088
vt 0.5533333 0.9126401
vt 0.5548051 0.9368246
vt 0.5487593 0.9318641
vt 0.5496129 0.9342671
vt 0.5522476 0.9365141
vt 0.5500081 0.7283989
vt 0.5500081 0.7243684
vt 0.5364826 0.7243684
vt 0.5364826 0.7283989
vt 0.5341178 0.7243684
vt 0.5341178 0.7283989
vt 0.5143899 0.7243684
vt 0.5143899 0.7283989
vt 0.5116779 0.7243684
vt 0.5116779 0.7283989
vt 0.5081889 0.7243684
vt 0.5081889 0.7283989
vt 0.5054761 0.7243684
vt 0.5054761 0.7283989
vt 0.4857489 0.7283989
vt 0.4857489 0.7243684
vt 0.4834621 0.7283989
vt 0.4834621 0.7243684
vt 0.4698976 0.7243684
vt 0.4698976 0.7283989
vt 0.2025279 0.4006504
vt 0.2025279 0.4046817
vt 0.2772262 0.4046816
vt 0.2772262 0.4006503
vt 0.007030774 0.8400339
vt 0.007027887 0.8408177
vt 0.00721819 0.8408184
vt 0.007221081 0.8400347
vt 0.7308196 0.6915897
vt 0.7222157 0.6955429
vt 0.7278751 0.6890314
vt 0.6782553 0.7502254
vt 0.719745 0.6960465
vt 0.6680625 0.7412494
vt 0.7167708 0.6934307
vt 0.7168673 0.6909686
vt 0.7195036 0.6819004
vt 0.7225254 0.6844579
vt 0.7193552 0.8882689
vt 0.7193552 0.8870283
vt 0.7279592 0.8882689
vt 0.7279592 0.8870283
vt 0.7306722 0.8882689
vt 0.7306722 0.8870283
vt 0.7348578 0.8882689
vt 0.7348578 0.8870283
vt 0.7376477 0.8882689
vt 0.7376477 0.8870283
vt 0.7461751 0.8882689
vt 0.7461751 0.8870283
vt 0.1648674 0.4528076
vt 0.1678141 0.4502494
vt 0.1733948 0.4567609
vt 0.2164164 0.5124208
vt 0.175875 0.457235
vt 0.2266927 0.5034246
vt 0.1788397 0.4546577
vt 0.1787431 0.4521874
vt 0.1761068 0.4431184
vt 0.1731624 0.4456759
vt 0.6112048 0.9952016
vt 0.5326561 0.9964421
vt 0.5326561 0.9952016
vt 0.6113127 0.9964421
vt 0.5518868 0.3233652
vt 0.5518868 0.3221246
vt 0.5558393 0.3233652
vt 0.5558393 0.3221246
vt 0.5639063 0.4010899
vt 0.5639063 0.3998494
vt 0.5677816 0.4010899
vt 0.5677816 0.3998494
vt 0.6786429 0.9026914
vt 0.5999641 0.9026914
vt 0.5999641 0.9014516
vt 0.6787508 0.9014516
vt 0.00696769 0.8407316
vt 0.006983764 0.8400611
vt 0.006924077 0.8399965
vt 0.006907957 0.840669
vt 0.1919179 0.7167941
vt 0.1919179 0.7155544
vt 0.1071751 0.7167941
vt 0.1071751 0.7155544
vt 0.0006053094 0.9022534
vt 0.01541039 0.9034924
vt 0.01541039 0.9022534
vt 0.0006053094 0.9034924
vt 0.5353037 0.4777736
vt 0.4797159 0.4139096
vt 0.4685536 0.4235996
vt 0.5242419 0.4875454
vt 0.6697724 0.7117774
vt 0.6809121 0.7215487
vt 0.7365594 0.6575726
vt 0.7253191 0.6478841
vt 0.4121761 0.3970834
vt 0.4121761 0.3958429
vt 0.3274455 0.395843
vt 0.3274455 0.3970835
vt 0.007024121 0.8400002
vt 0.006962946 0.8400016
vt 0.007041478 0.8407336
vt 0.006980306 0.8407351
vn 0 0 1
vn 0 0 1
vn 0 0 1
vn 0 0 1
vn 0 0 1
vn 0 0 1
vn 0 0 1
vn 0 0 1
vn 0 0 1
vn 0 0 1
vn 0 0 1
vn 0 0 1
vn -0.7719513 0.6356818 3.81655E-06
vn -0.7719513 0.6356818 3.81655E-06
vn -0.7719513 0.6356818 3.81655E-06
vn -0.7719513 0.6356817 3.81655E-06
vn 0 0 -1
vn 0 0 -1
vn 0 0 -1
vn 0 0 -1
vn 0 0 -1
vn 0 0 -1
vn 0 0 -1
vn 0 0 -1
vn 0 0 -1
vn 0 0 -1
vn 0 0 -1
vn 0 0 -1
vn 0.9377571 -0.3472918 -3.757561E-06
vn 0.9377571 -0.3472919 -3.757561E-06
vn 0.8616544 -0.5074955 -1.908803E-06
vn 0.8616544 -0.5074955 -1.908803E-06
vn 0.6009707 -0.7992712 -5.029189E-06
vn 0.6009707 -0.7992712 -5.029189E-06
vn 0.1487786 -0.9888706 -1.068547E-05
vn 0.1487774 -0.9888707 -1.068547E-05
vn -0.3975075 -0.917599 -5.575208E-06
vn -0.3975075 -0.917599 -5.575208E-06
vn -0.822854 -0.5682527 0
vn -0.822854 -0.5682527 0
vn -0.9989238 -0.04638081 5.885936E-07
vn -0.9989238 -0.04638081 5.885936E-07
vn -0.9007938 0.4342471 5.856928E-06
vn -0.9007927 0.4342494 5.856979E-06
vn -0.6652147 0.746652 1.290101E-05
vn -0.6652122 0.7466544 1.290106E-05
vn -0.5228921 0.8523989 1.508704E-05
vn -0.5228921 0.8523989 1.508704E-05
vn 0.7735511 -0.633734 -7.992852E-06
vn 0.773551 -0.633734 -7.992851E-06
vn 0.773551 -0.633734 -7.992852E-06
vn 0.7735511 -0.633734 -7.992852E-06
vn 0.4923384 0.870404 3.119708E-06
vn 0.4923383 0.8704039 3.119708E-06
vn 0.4923383 0.8704039 3.119708E-06
vn 0.4923383 0.8704039 3.119708E-06
vn 0 0 1
vn 0 0 1
vn 0 0 1
vn 0 0 1
vn 0 0 1
vn 0 0 1
vn 0 0 1
vn 0 0 1
vn 0 0 1
vn 0 0 1
vn -0.77193 0.6357074 0
vn -0.77193 0.6357074 0
vn -0.9408604 0.3387944 5.593303E-07
vn -0.9408604 0.3387944 5.593303E-07
vn -0.9068194 -0.4215194 9.551886E-07
vn -0.9068192 -0.4215198 9.551885E-07
vn -0.2335159 -0.972353 3.78288E-07
vn -0.2335159 -0.972353 3.78288E-07
vn 0.5265221 -0.8501615 3.54022E-07
vn 0.5265221 -0.8501615 3.54022E-07
vn 0.7721279 -0.6354671 6.703702E-07
vn 0.772128 -0.635467 6.703702E-07
vn 0 0 -1
vn 0 0 -1
vn 0 0 -1
vn 0 0 -1
vn 0 0 -1
vn 0 0 -1
vn 0 0 -1
vn 0 0 -1
vn 0 0 -1
vn 0 0 -1
vn 0.7730246 -0.6343761 -1.06359E-07
vn 0.7730246 -0.634376 -1.06359E-07
vn 0.7730246 -0.634376 -1.06359E-07
vn 0.7730246 -0.634376 -1.06359E-07
vn -0.6343188 -0.7730716 0
vn -0.6343188 -0.7730716 0
vn -0.6343188 -0.7730716 0
vn -0.6343188 -0.7730716 0
vn -0.6362336 -0.7714965 8.12643E-07
vn -0.6362336 -0.7714965 8.126431E-07
vn -0.6362336 -0.7714965 8.12643E-07
vn -0.6362336 -0.7714965 8.12643E-07
vn -0.7727696 0.6346867 -2.123393E-07
vn -0.7727696 0.6346866 -2.123392E-07
vn -0.7727696 0.6346866 -2.123392E-07
vn -0.7727696 0.6346867 -2.123393E-07
vn 0.642498 0.7656985 0.03003905
vn 0.642498 0.7656985 0.03003906
vn 0.642498 0.7656985 0.03003905
vn 0.642498 0.7656985 0.03003905
vn -0.77257 0.6349296 -5.704357E-07
vn -0.77257 0.6349297 -5.704357E-07
vn -0.77257 0.6349297 -5.704357E-07
vn -0.77257 0.6349297 -5.704357E-07
vn -0.6340538 -0.7732888 0
vn -0.6340538 -0.7732888 0
vn -0.6340538 -0.7732888 0
vn -0.6340538 -0.7732888 0
vn 0 0 1
vn 0 0 1
vn 0 0 1
vn 0 0 1
vn 0 0 -1
vn 0 0 -1
vn 0 0 -1
vn 0 0 -1
vn 0.7727501 -0.6347104 5.710003E-07
vn 0.7727501 -0.6347104 5.710003E-07
vn 0.7727501 -0.6347104 5.710003E-07
vn 0.7727501 -0.6347103 5.710003E-07
vn 0.6384227 0.769686 3.676152E-06
vn 0.6384227 0.7696859 3.676152E-06
vn 0.6384227 0.769686 3.676152E-06
vn 0.6384227 0.769686 3.676152E-06
g frame-34-body-arm-1-lod2_0
f 3/3/3 2/2/2 1/1/1
f 2/2/2 4/4/4 1/1/1
f 5/5/5 1/1/1 4/4/4
f 5/5/5 4/4/4 6/6/6
f 7/7/7 5/5/5 6/6/6
f 6/6/6 8/8/8 7/7/7
f 7/7/7 8/8/8 9/9/9
f 9/9/9 10/10/10 7/7/7
f 9/9/9 11/11/11 10/10/10
f 11/11/11 12/12/12 10/10/10
f 15/15/15 14/14/14 13/13/13
f 14/14/14 15/15/15 16/16/16
f 19/19/19 18/18/18 17/17/17
f 17/17/17 20/20/20 19/19/19
f 17/17/17 21/21/21 20/20/20
f 21/21/21 22/22/22 20/20/20
f 22/22/22 21/21/21 23/23/23
f 23/23/23 24/24/24 22/22/22
f 23/23/23 25/25/25 24/24/24
f 25/25/25 26/26/26 24/24/24
f 25/25/25 27/27/27 26/26/26
f 25/25/25 28/28/28 27/27/27
f 31/31/31 30/30/30 29/29/29
f 32/32/32 31/31/31 29/29/29
f 33/33/33 31/31/31 32/32/32
f 33/33/33 32/32/32 34/34/34
f 35/35/35 33/33/33 34/34/34
f 36/36/36 35/35/35 34/34/34
f 37/37/37 35/35/35 36/36/36
f 37/37/37 36/36/36 38/38/38
f 39/39/39 37/37/37 38/38/38
f 39/39/39 38/38/38 40/40/40
f 41/41/41 39/39/39 40/40/40
f 41/41/41 40/40/40 42/42/42
f 41/41/41 42/42/42 43/43/43
f 43/43/43 44/44/44 41/41/41
f 44/44/44 43/43/43 45/45/45
f 45/45/45 46/46/46 44/44/44
f 47/47/47 46/46/46 45/45/45
f 45/45/45 48/48/48 47/47/47
f 51/51/51 50/50/50 49/49/49
f 49/49/49 52/52/52 51/51/51
f 55/55/55 54/54/54 53/53/53
f 53/53/53 56/56/56 55/55/55
f 59/59/59 58/58/58 57/57/57
f 58/58/58 60/60/60 57/57/57
f 61/61/61 60/60/60 58/58/58
f 62/62/62 60/60/60 61/61/61
f 61/61/61 63/63/63 62/62/62
f 63/63/63 64/64/64 62/62/62
f 62/62/62 64/64/64 65/65/65
f 64/64/64 66/66/66 65/65/65
f 69/69/69 68/68/68 67/67/67
f 68/68/68 69/69/69 70/70/70
f 71/71/71 70/70/70 69/69/69
f 72/72/72 70/70/70 71/71/71
f 73/73/73 72/72/72 71/71/71
f 74/74/74 72/72/72 73/73/73
f 75/75/75 74/74/74 73/73/73
f 76/76/76 74/74/74 75/75/75
f 77/77/77 76/76/76 75/75/75
f 76/76/76 77/77/77 78/78/78
f 81/81/81 80/80/80 79/79/79
f 82/82/82 81/81/81 79/79/79
f 83/83/83 81/81/81 82/82/82
f 83/83/83 82/82/82 84/84/84
f 84/84/84 85/85/85 83/83/83
f 85/85/85 84/84/84 86/86/86
f 86/86/86 84/84/84 87/87/87
f 88/88/88 86/86/86 87/87/87
f 91/91/91 90/90/90 89/89/89
f 90/90/90 92/92/92 89/89/89
f 95/95/95 94/94/94 93/93/93
f 96/96/96 94/94/94 95/95/95
f 99/99/99 98/98/98 97/97/97
f 100/100/100 98/98/98 99/99/99
f 103/103/103 102/102/102 101/101/101
f 101/101/101 104/104/104 103/103/103
f 107/107/107 106/106/106 105/105/105
f 105/105/105 108/108/108 107/107/107
f 111/111/111 110/110/110 109/109/109
f 110/110/110 111/111/111 112/112/112
f 115/115/115 114/114/114 113/113/113
f 114/114/114 116/116/116 113/113/113
f 119/119/119 118/118/118 117/117/117
f 117/117/117 120/120/120 119/119/119
f 123/123/123 122/122/122 121/121/121
f 121/121/121 124/124/124 123/123/123
f 127/127/127 126/126/126 125/125/125
f 125/125/125 128/128/128 127/127/127
f 131/131/131 130/130/130 129/129/129
f 130/130/130 131/131/131 132/132/132
