g frame-34-canopy-body-t-lod2
v -0.0162105 0.02966709 0.01578564
v -0.03148769 0.02982489 0.002838047
v -0.01988672 0.03414644 0.01505486
v 0.04017222 0.02068109 0.01777965
v 0.09213161 0.02544599 0.01380975
v 0.0768794 0.01998344 0.03165578
v 0.04017222 -0.02068141 0.01777965
v 0.0768794 -0.0199837 0.03165578
v 0.09213161 -0.0254463 0.01380975
v -0.01952493 -0.03370587 0.01512678
v -0.03148769 -0.0298251 0.002838047
v -0.0162105 -0.02966734 0.01578564
v -0.01143022 0.04099884 0.002584139
v -0.007201434 0.04107089 -0.008922152
v -0.001272392 0.02995159 0.002526338
v 0.002628553 0.02943759 -0.008922152
v 0.03263437 0.02957429 0.01574109
v 0.03618816 0.0338824 0.01503638
v 0.0468099 0.0288913 1.993762E-05
v 0.05089938 0.03453254 0.0002391987
v 0.02615696 0.03869447 0.002499907
v 0.03618816 0.0338824 0.01503638
v 0.03263437 0.02957429 0.01574109
v 0.01808471 0.02990079 0.002438247
v 0.03263437 0.02957429 0.01574109
v 0.008210808 0.02625229 0.01668354
v 0.01808471 0.02990079 0.002438247
v 0.007913609 0.02791969 0.003996947
v 0.01392441 0.02934189 -0.008922152
v 0.002628553 0.02943759 -0.008922152
v -0.001272392 0.02995159 0.002526338
v -0.0162105 0.02966709 0.01578564
v -0.01143022 0.04099884 0.002584139
v -0.001272392 0.02995159 0.002526338
v -0.0162105 0.02966709 0.01578564
v -0.01988672 0.03414644 0.01505486
v 0.03263437 0.02957429 0.01574109
v 0.09213161 0.02544599 0.01380975
v 0.04017222 0.02068109 0.01777965
v 0.008210808 0.02625229 0.01668354
v 0.008575008 -2.121055E-07 0.01725095
v -0.0162105 0.02966709 0.01578564
v -0.05629169 -1.007161E-07 0.02171715
v -0.05233679 0.01822339 0.01816634
v -0.09165429 0.02606459 0.01545215
v -0.09207559 0.02367319 0.01591624
v -0.05233679 -0.0182237 0.01816634
v -0.09207559 -0.02367346 0.01591624
v -0.09165429 -0.02606485 0.01545215
v -0.0162105 -0.02966734 0.01578564
v 0.008210808 -0.02625256 0.01668354
v 0.04017222 -0.02068141 0.01777965
v 0.03263437 -0.02957455 0.01574109
v 0.09213161 -0.0254463 0.01380975
v 0.0468099 0.0288913 1.993762E-05
v 0.09213161 0.02544599 0.01380975
v 0.03263437 0.02957429 0.01574109
v 0.0505738 0.02913233 -0.008922152
v 0.1113683 0.02543689 -0.008922152
v 0.02615696 0.03869447 0.002499907
v 0.01808471 0.02990079 0.002438247
v 0.02052414 0.03704725 -0.008922152
v 0.01392441 0.02934189 -0.008922152
v 0.0468099 0.0288913 1.993762E-05
v 0.05089938 0.03453254 0.0002391987
v 0.05284768 0.03219411 -0.008922152
v 0.0505738 0.02913233 -0.008922152
v -0.03148769 0.02982489 0.002838047
v -0.05112269 0.02937519 -0.008922152
v -0.03498186 0.03039251 -0.008922152
v -0.05281391 0.0284296 0.006782647
v -0.0162105 0.02966709 0.01578564
v -0.09165429 0.02606459 0.01545215
v -0.0657863 0.02791589 0.006882392
v -0.0676068 0.0289438 -0.008922152
v -0.08666667 0.028287 -0.008950353
v 0.008575008 -2.121055E-07 0.01725095
v 0.04017222 0.02068109 0.01777965
v 0.0768794 0.01998344 0.03165578
v 0.07247511 -1.007161E-07 0.03669455
v 0.0768794 -0.0199837 0.03165578
v 0.04017222 -0.02068141 0.01777965
v 0.03263437 -0.02957455 0.01574109
v 0.01808471 -0.029901 0.002438247
v 0.008210808 -0.02625256 0.01668354
v 0.007913609 -0.02791989 0.003996947
v 0.01392441 -0.02934211 -0.008922152
v 0.002628553 -0.0294378 -0.008922152
v -0.001272391 -0.02995179 0.002526338
v -0.0162105 -0.02966734 0.01578564
v 0.0468099 -0.02889151 1.993762E-05
v 0.03263437 -0.02957455 0.01574109
v 0.09213161 -0.0254463 0.01380975
v 0.0505738 -0.02913254 -0.008922152
v 0.1113683 -0.0254371 -0.008922152
v -0.03148769 -0.0298251 0.002838047
v -0.03495223 -0.03009545 -0.008922152
v -0.05112269 -0.02937539 -0.008922152
v -0.05281391 -0.02842981 0.006782647
v -0.0162105 -0.02966734 0.01578564
v -0.09165429 -0.02606485 0.01545215
v -0.0657863 -0.02791609 0.006882392
v -0.06760681 -0.028944 -0.008922152
v -0.08666667 -0.0282872 -0.008950353
v -0.001272391 -0.02995179 0.002526338
v -0.008690335 -0.04288846 -0.008922152
v -0.0127285 -0.04245478 0.002591047
v 0.002628553 -0.0294378 -0.008922152
v -0.001272391 -0.02995179 0.002526338
v -0.0127285 -0.04245478 0.002591047
v -0.0162105 -0.02966734 0.01578564
v -0.01952493 -0.03370587 0.01512678
vt 0.1800923 0.4335026
vt 0.1990059 0.4609437
vt 0.1897997 0.4335026
vt 0.4044511 0.5320601
vt 0.4832056 0.5689571
vt 0.4697948 0.5320601
vt 0.3157381 0.7227664
vt 0.2503164 0.7227664
vt 0.2369836 0.7596619
vt 0.1888444 0.4335026
vt 0.1990059 0.4609437
vt 0.1800924 0.4335026
vt 0.4898242 0.9833809
vt 0.4858928 0.9631504
vt 0.4653729 0.9833809
vt 0.4613423 0.9631504
vt 0.2761824 0.8261314
vt 0.2669929 0.8280089
vt 0.2649429 0.8600059
vt 0.2537465 0.8600059
vt 0.5553936 0.8750228
vt 0.55387 0.9017905
vt 0.5632486 0.9018034
vt 0.5749524 0.8718048
vt 0.2794508 0.5243944
vt 0.3193711 0.5243944
vt 0.3023956 0.5011399
vt 0.3198369 0.5039306
vt 0.3097591 0.4824199
vt 0.3287506 0.4824199
vt 0.3357264 0.5012171
vt 0.3601434 0.5243944
vt 0.4803762 0.3830217
vt 0.4549321 0.3830217
vt 0.4723719 0.4112359
vt 0.4819413 0.4096151
vt 0.5395448 0.2632166
vt 0.4397843 0.2694176
vt 0.5262908 0.2784101
vt 0.5793878 0.2687989
vt 0.5790001 0.3124384
vt 0.6199269 0.2628297
vt 0.6870541 0.3125164
vt 0.6801556 0.2817431
vt 0.7454236 0.2674024
vt 0.7461203 0.2714329
vt 0.6800784 0.3432896
vt 0.7460423 0.3537529
vt 0.7452676 0.3577849
vt 0.6198503 0.3620472
vt 0.5793098 0.3560787
vt 0.5262136 0.3463894
vt 0.5395448 0.3615829
vt 0.4397078 0.3553031
vt 0.2178924 0.7434124
vt 0.1423156 0.7663571
vt 0.2422314 0.7694576
vt 0.2118072 0.7284526
vt 0.1103806 0.7285302
vt 0.2615773 0.3680741
vt 0.2814376 0.3680741
vt 0.2696712 0.3477657
vt 0.2857786 0.3477657
vt 0.7458054 0.9407149
vt 0.73382 0.9407149
vt 0.7354153 0.9599381
vt 0.7416196 0.9599381
vt 0.3321196 0.9618499
vt 0.3648301 0.9424721
vt 0.3378946 0.9423551
vt 0.3676595 0.9686325
vt 0.3066953 0.9833209
vt 0.4322679 0.9833209
vt 0.3892081 0.968865
vt 0.3922704 0.9425493
vt 0.4239736 0.9426258
vt 0.6331606 0.5678982
vt 0.5827764 0.5304581
vt 0.5176261 0.5331334
vt 0.5221606 0.5678982
vt 0.5176261 0.6027019
vt 0.5827764 0.6053366
vt 0.2794509 0.5243944
vt 0.3023956 0.5011399
vt 0.3193711 0.5243944
vt 0.3198368 0.5039306
vt 0.3097591 0.4824199
vt 0.3287506 0.4824199
vt 0.3357263 0.5012171
vt 0.3601434 0.5243944
vt 0.2178924 0.7434124
vt 0.2422313 0.7694576
vt 0.1423156 0.7663571
vt 0.2118072 0.7284526
vt 0.1103806 0.7285302
vt 0.3321196 0.9618499
vt 0.3378946 0.9423551
vt 0.3648301 0.9424721
vt 0.3676595 0.9686325
vt 0.3066953 0.9833209
vt 0.4322679 0.9833209
vt 0.3892081 0.968865
vt 0.3922703 0.9425493
vt 0.4239736 0.9426258
vt 0.4653729 0.9833809
vt 0.4898008 0.9631504
vt 0.4939696 0.9833809
vt 0.4613424 0.9631504
vt 0.4549321 0.3830217
vt 0.4827137 0.3830217
vt 0.4723718 0.4112359
vt 0.4809995 0.4097746
vn -0.600799 -0.3781773 0.7042888
vn -0.600799 -0.3781773 0.7042887
vn -0.6007988 -0.3781773 0.7042888
vn -0.07083488 0.9691415 0.2361083
vn -0.07083488 0.9691415 0.2361083
vn -0.07083488 0.9691415 0.2361083
vn -0.0708344 -0.9691408 0.2361115
vn -0.07083441 -0.9691408 0.2361115
vn -0.0708344 -0.9691408 0.2361115
vn -0.6007984 0.3781768 0.7042895
vn -0.6007984 0.3781768 0.7042894
vn -0.6007984 0.3781767 0.7042894
vn 0.7276154 0.6406044 0.2453609
vn 0.7276154 0.6406044 0.2453609
vn 0.7276152 0.6406044 0.2453609
vn 0.7276154 0.6406044 0.2453609
vn 0.6429994 -0.4642425 0.6091229
vn 0.6429994 -0.4642425 0.6091229
vn 0.6429994 -0.4642425 0.6091229
vn 0.6429994 -0.4642426 0.6091229
vn -0.5601749 0.5283905 0.6379714
vn -0.5601749 0.5283905 0.6379714
vn -0.5601749 0.5283906 0.6379714
vn -0.5601749 0.5283905 0.6379714
vn -0.126812 0.9784903 0.162713
vn 0.003202585 0.9882939 0.1525281
vn -0.1600263 0.9818018 0.1022589
vn 0.01492576 0.9953779 0.09486806
vn -0.07303809 0.9944677 0.07549439
vn 0.08649387 0.9929314 0.08127867
vn 0.1764455 0.9787284 0.1046785
vn 0.1304559 0.9771273 0.1679393
vn 0.5541225 0.5218289 0.6485699
vn 0.5541224 0.5218289 0.6485699
vn 0.5541224 0.5218289 0.6485699
vn 0.5541224 0.5218289 0.6485699
vn 0.0184865 0.238254 0.971027
vn 0.04951628 0.2628446 0.9635667
vn 0.02456109 0.2069103 0.9780516
vn -0.02882894 0.04037381 0.9987686
vn -0.003498529 0.002184952 0.9999915
vn 0.02510127 0.1121908 0.9933696
vn 0.01905855 -0.01352035 0.999727
vn 0.003673909 0.19729 0.9803383
vn -0.02677877 0.2048496 0.9784271
vn -0.02848578 0.1969107 0.9800076
vn 0.005973465 -0.2049273 0.9787589
vn -0.02848613 -0.1969098 0.9800077
vn -0.0267791 -0.204849 0.9784272
vn 0.01632684 -0.08267416 0.9964429
vn -0.02882897 -0.04037393 0.9987686
vn 0.02456108 -0.2069118 0.9780513
vn 0.01848634 -0.2382554 0.9710265
vn 0.04951615 -0.2628462 0.9635663
vn 0.06587487 0.9972831 0.03296919
vn 0.06176959 0.996997 0.04670799
vn 0.0698413 0.9973647 0.01964528
vn 0.06042951 0.9968594 0.05118147
vn 0.06042951 0.9968594 0.05118147
vn -0.7241912 0.6430656 0.2490255
vn -0.7241912 0.6430655 0.2490255
vn -0.7241912 0.6430656 0.2490255
vn -0.7241912 0.6430656 0.2490255
vn 0.7645789 -0.5667664 0.306912
vn 0.7645789 -0.5667664 0.306912
vn 0.7645789 -0.5667664 0.306912
vn 0.7645789 -0.5667664 0.306912
vn -0.05415153 0.9962544 0.06741348
vn -0.0579917 0.9965889 0.05871497
vn -0.0579917 0.9965889 0.05871497
vn -0.05060913 0.9968415 0.06120152
vn -0.05037088 0.9964245 0.06783085
vn -0.0416107 0.9962478 0.07588717
vn -0.04225168 0.9952709 0.08746823
vn -0.04161822 0.9961917 0.07661484
vn -0.03444235 0.9958989 0.08365991
vn -0.3196915 -3.923912E-07 0.9475216
vn -0.3083451 0.4496642 0.8382872
vn -0.2859315 0.3284149 0.9002149
vn -0.2911033 7.874937E-07 0.9566916
vn -0.2859306 -0.3284144 0.9002153
vn -0.3083442 -0.4496651 0.8382871
vn -0.1268119 -0.9784909 0.1627091
vn -0.1600269 -0.9818019 0.1022564
vn 0.003202438 -0.9882946 0.1525236
vn 0.01492553 -0.9953781 0.09486532
vn -0.07303882 -0.9944676 0.07549516
vn 0.08649365 -0.9929312 0.08127929
vn 0.1764459 -0.9787287 0.1046758
vn 0.1304555 -0.977128 0.1679352
vn 0.06587403 -0.9972832 0.03296517
vn 0.06984027 -0.9973648 0.01964097
vn 0.06176897 -0.9969972 0.04670428
vn 0.06042895 -0.9968597 0.05117786
vn 0.06042894 -0.9968597 0.05117786
vn -0.0515073 -0.9966848 0.06297784
vn -0.05128212 -0.9975552 0.04747517
vn -0.05128211 -0.9975552 0.04747517
vn -0.04874408 -0.9971216 0.0580729
vn -0.05037133 -0.9964247 0.06782727
vn -0.04160993 -0.9962481 0.07588444
vn -0.04225123 -0.9952714 0.08746264
vn -0.041617 -0.996192 0.0766135
vn -0.03444223 -0.9958991 0.08365748
vn 0.7281663 -0.6383625 0.249534
vn 0.7281663 -0.6383625 0.249534
vn 0.7281663 -0.6383625 0.2495339
vn 0.7281663 -0.6383625 0.249534
vn 0.555292 -0.5191774 0.6496965
vn 0.555292 -0.5191774 0.6496965
vn 0.555292 -0.5191774 0.6496965
vn 0.555292 -0.5191774 0.6496965
g frame-34-canopy-body-t-lod2_0
f 3/3/3 2/2/2 1/1/1
f 6/6/6 5/5/5 4/4/4
f 9/9/9 8/8/8 7/7/7
f 12/12/12 11/11/11 10/10/10
f 15/15/15 14/14/14 13/13/13
f 16/16/16 14/14/14 15/15/15
f 19/19/19 18/18/18 17/17/17
f 19/19/19 20/20/20 18/18/18
f 23/23/23 22/22/22 21/21/21
f 21/21/21 24/24/24 23/23/23
f 27/27/27 26/26/26 25/25/25
f 28/28/28 26/26/26 27/27/27
f 29/29/29 28/28/28 27/27/27
f 29/29/29 30/30/30 28/28/28
f 30/30/30 31/31/31 28/28/28
f 31/31/31 26/26/26 28/28/28
f 31/31/31 32/32/32 26/26/26
f 35/35/35 34/34/34 33/33/33
f 33/33/33 36/36/36 35/35/35
f 39/39/39 38/38/38 37/37/37
f 37/37/37 40/40/40 39/39/39
f 39/39/39 40/40/40 41/41/41
f 42/42/42 41/41/41 40/40/40
f 41/41/41 42/42/42 43/43/43
f 42/42/42 44/44/44 43/43/43
f 44/44/44 42/42/42 45/45/45
f 45/45/45 46/46/46 44/44/44
f 46/46/46 43/43/43 44/44/44
f 43/43/43 47/47/47 41/41/41
f 47/47/47 43/43/43 48/48/48
f 47/47/47 48/48/48 49/49/49
f 50/50/50 47/47/47 49/49/49
f 47/47/47 50/50/50 41/41/41
f 41/41/41 50/50/50 51/51/51
f 51/51/51 52/52/52 41/41/41
f 51/51/51 53/53/53 52/52/52
f 54/54/54 52/52/52 53/53/53
f 57/57/57 56/56/56 55/55/55
f 58/58/58 55/55/55 56/56/56
f 56/56/56 59/59/59 58/58/58
f 62/62/62 61/61/61 60/60/60
f 62/62/62 63/63/63 61/61/61
f 66/66/66 65/65/65 64/64/64
f 64/64/64 67/67/67 66/66/66
f 70/70/70 69/69/69 68/68/68
f 68/68/68 69/69/69 71/71/71
f 72/72/72 68/68/68 71/71/71
f 73/73/73 72/72/72 71/71/71
f 74/74/74 73/73/73 71/71/71
f 73/73/73 74/74/74 75/75/75
f 73/73/73 75/75/75 76/76/76
f 79/79/79 78/78/78 77/77/77
f 79/79/79 77/77/77 80/80/80
f 77/77/77 81/81/81 80/80/80
f 82/82/82 81/81/81 77/77/77
f 85/85/85 84/84/84 83/83/83
f 85/85/85 86/86/86 84/84/84
f 86/86/86 87/87/87 84/84/84
f 88/88/88 87/87/87 86/86/86
f 89/89/89 88/88/88 86/86/86
f 85/85/85 89/89/89 86/86/86
f 90/90/90 89/89/89 85/85/85
f 93/93/93 92/92/92 91/91/91
f 93/93/93 91/91/91 94/94/94
f 94/94/94 95/95/95 93/93/93
f 98/98/98 97/97/97 96/96/96
f 99/99/99 98/98/98 96/96/96
f 96/96/96 100/100/100 99/99/99
f 100/100/100 101/101/101 99/99/99
f 101/101/101 102/102/102 99/99/99
f 102/102/102 101/101/101 103/103/103
f 103/103/103 101/101/101 104/104/104
f 107/107/107 106/106/106 105/105/105
f 106/106/106 108/108/108 105/105/105
f 111/111/111 110/110/110 109/109/109
f 111/111/111 112/112/112 110/110/110
