g frame-34-canopy-b-arm-3-lod2
v 0.1236558 0.1457761 -0.01436322
v 0.1242642 0.1410952 -0.01339135
v 0.1265485 0.1451187 -0.01521133
v 0.1265485 0.1451187 -0.01521133
v 0.1242642 0.1410952 -0.01339135
v 0.1284395 0.1429203 -0.01482828
v 0.1208493 0.1446042 -0.01441513
v 0.1236558 0.1457761 -0.01436322
v 0.1193646 0.1408611 -0.0163308
v 0.1218391 0.1367591 -0.01678288
v 0.1259083 0.1366806 -0.01591958
v 0.1282822 0.1388459 -0.01437985
v 0.1284395 0.1429203 -0.01482828
v 0.1218391 0.1367591 -0.01678288
v 0.1212429 0.1159584 -0.01683055
v 0.1259083 0.1366806 -0.01591958
v 0.1000446 0.133482 -0.01681555
v 0.1193646 0.1408611 -0.0163308
v 0.03959232 0.04266693 -0.02198469
v 0.02954519 0.04293029 -0.01707753
v 0.04423489 0.03854936 -0.02118229
v 0.05010222 0.03483856 -0.01688614
v 0.1296761 0.1104426 -0.008950253
v 0.1212429 0.1159584 -0.01683055
v 0.1084865 0.0999445 -0.008950253
v 0.1259083 0.1366806 -0.01591958
v 0.1282822 0.1388459 -0.01437985
v 0.13581 0.1439384 -0.008950253
v 0.1284395 0.1429203 -0.01482828
v 0.1265485 0.1451187 -0.01521133
v 0.1246697 0.1531486 -0.008950253
v 0.1236558 0.1457761 -0.01436322
v 0.1208493 0.1446042 -0.01441513
v 0.09297881 0.1406517 -0.008950253
v 0.1193646 0.1408611 -0.0163308
v 0.1000446 0.133482 -0.01681555
v 0.08683401 0.1179338 -0.008950253
v 0.02515649 0.04262643 -0.009939102
v 0.02954519 0.04293029 -0.01707753
v 0.1000446 0.133482 -0.01681555
v 0.08683401 0.1179338 -0.008950253
v 0.02516042 0.04270244 -0.008950253
v 0.05010222 0.03483856 -0.01688614
v 0.05641796 0.03669778 -0.009816626
v 0.1212429 0.1159584 -0.01683055
v 0.1084865 0.0999445 -0.008950253
vt 0.1137897 0.5105284
vt 0.1316355 0.5088236
vt 0.1092166 0.5117291
vt 0.1533999 0.5115356
vt 0.1316355 0.5088236
vt 0.1496787 0.5112263
vt 0.1183632 0.5105674
vt 0.1137897 0.5105284
vt 0.1246163 0.5134481
vt 0.1321996 0.5142101
vt 0.1384002 0.5127375
vt 0.1433232 0.5105667
vt 0.1496787 0.5112263
vt 0.6600193 0.367849
vt 0.6799981 0.3947464
vt 0.6643794 0.3649028
vt 0.6368228 0.3947464
vt 0.6537215 0.3663566
vt 0.6542752 0.5726045
vt 0.6368228 0.5814314
vt 0.6658919 0.5730243
vt 0.6799981 0.5719109
vt 0.4813854 0.4428447
vt 0.4628603 0.4526899
vt 0.4843321 0.4814479
vt 0.4391988 0.4269164
vt 0.4391409 0.421141
vt 0.4415431 0.4038551
vt 0.4335983 0.4174015
vt 0.4285216 0.4172074
vt 0.4178244 0.4038551
vt 0.4233472 0.418041
vt 0.4198784 0.4215677
vt 0.3778269 0.4427674
vt 0.4200526 0.4274777
vt 0.3963534 0.4525339
vt 0.3748036 0.4811374
vt 0.3030465 0.9227794
vt 0.2982886 0.9099026
vt 0.1103806 0.9099026
vt 0.1436334 0.9230801
vt 0.3029272 0.9244004
vt 0.2110784 0.4150729
vt 0.2201062 0.4279584
vt 0.3876563 0.4150729
vt 0.3542476 0.4282497
vn -0.1135147 -0.2160987 -0.9697503
vn 0.09280206 0.1383465 -0.9860264
vn -0.25244 -0.2761607 -0.9273669
vn -0.25244 -0.2761607 -0.9273669
vn 0.09280206 0.1383465 -0.9860264
vn -0.2311347 -0.2177921 -0.9482316
vn 0.3165028 0.03140749 -0.9480715
vn -0.1135147 -0.2160987 -0.9697503
vn 0.4784371 0.3087097 -0.8220683
vn 0.3321985 0.4587954 -0.8241062
vn 0.1393493 0.5306889 -0.8360329
vn -0.09176785 0.2586647 -0.9615982
vn -0.2311347 -0.2177921 -0.9482316
vn 0.07593885 0.02830978 -0.9967105
vn 0.05285812 0.001210487 -0.9986013
vn 0.2074658 -0.003704281 -0.9782352
vn 0.01165335 0.03053247 -0.9994659
vn -0.01374652 0.1013381 -0.9947572
vn -0.2107221 0.1913723 -0.9586307
vn -0.408868 0.3207977 -0.854351
vn 0.2146191 -0.1544404 -0.9644101
vn 0.3993854 -0.3496732 -0.8474786
vn 0.4960494 -0.3635004 -0.7885445
vn 0.5131229 -0.3408783 -0.7877226
vn 0.298287 -0.6020694 -0.7406331
vn 0.6192037 -0.1173132 -0.7764177
vn 0.6262979 -0.1146997 -0.7710999
vn 0.6167359 0.184759 -0.7651803
vn 0.6036435 0.150335 -0.7829521
vn 0.3427547 0.5672972 -0.7487944
vn 0.06318059 0.6398311 -0.7659141
vn -0.1701576 0.5982918 -0.7830027
vn -0.2351178 0.5723752 -0.7855611
vn -0.4478709 0.4150413 -0.7919295
vn -0.2312618 0.5365723 -0.8115467
vn -0.4219172 0.4485422 -0.7879059
vn -0.647662 0.1751809 -0.7415156
vn -0.7626624 0.613014 -0.2063006
vn -0.7166639 0.5591677 -0.4168026
vn -0.7709166 0.6269131 -0.1125502
vn -0.772544 0.6333207 -0.04561367
vn -0.772544 0.6333207 -0.04561367
vn 0.6730259 -0.5899262 -0.4461204
vn 0.6786757 -0.5933681 -0.4327976
vn 0.7624865 -0.6347195 -0.1254811
vn 0.7716658 -0.6347246 -0.04070174
g frame-34-canopy-b-arm-3-lod2_0
f 3/3/3 2/2/2 1/1/1
f 6/6/6 5/5/5 4/4/4
f 8/8/8 5/5/5 7/7/7
f 7/7/7 5/5/5 9/9/9
f 9/9/9 5/5/5 10/10/10
f 10/10/10 5/5/5 11/11/11
f 11/11/11 5/5/5 12/12/12
f 12/12/12 5/5/5 13/13/13
f 16/16/16 15/15/15 14/14/14
f 15/15/15 17/17/17 14/14/14
f 14/14/14 17/17/17 18/18/18
f 19/19/19 17/17/17 15/15/15
f 17/17/17 19/19/19 20/20/20
f 15/15/15 21/21/21 19/19/19
f 15/15/15 22/22/22 21/21/21
f 25/25/25 24/24/24 23/23/23
f 24/24/24 26/26/26 23/23/23
f 26/26/26 27/27/27 23/23/23
f 27/27/27 28/28/28 23/23/23
f 27/27/27 29/29/29 28/28/28
f 29/29/29 30/30/30 28/28/28
f 28/28/28 30/30/30 31/31/31
f 30/30/30 32/32/32 31/31/31
f 32/32/32 33/33/33 31/31/31
f 33/33/33 34/34/34 31/31/31
f 33/33/33 35/35/35 34/34/34
f 35/35/35 36/36/36 34/34/34
f 34/34/34 36/36/36 37/37/37
f 40/40/40 39/39/39 38/38/38
f 38/38/38 41/41/41 40/40/40
f 38/38/38 42/42/42 41/41/41
f 45/45/45 44/44/44 43/43/43
f 46/46/46 44/44/44 45/45/45
