g frame-34-body-arm-0-lod2
v 0.1083775 -0.1059371 -0.01141004
v 0.1083775 -0.1059371 -0.006480153
v 0.04503601 -0.02899564 -0.006480153
v 0.04503601 -0.02899564 -0.01141004
v 0.01885874 -0.02863528 -0.01141004
v 0.01911507 -0.02894738 -0.006480153
v 0.09274551 -0.1187761 -0.01141004
v 0.09274551 -0.1187761 -0.006480153
v 0.02594781 -0.02804304 -0.01141004
v 0.01885874 -0.02863528 -0.01141004
v 0.03370672 -0.03170669 -0.01141004
v 0.09274551 -0.1187761 -0.01141004
v 0.04503601 -0.02899564 -0.01141004
v 0.1083775 -0.1059371 -0.01141004
v 0.09953298 -0.1354741 -0.01141004
v 0.123438 -0.1158397 -0.01141004
v 0.129365 -0.1419497 -0.01141004
v 0.123993 -0.1463622 -0.01141004
v 0.1083775 -0.1059371 -0.006480153
v 0.1083775 -0.1059371 -0.01141004
v 0.123438 -0.1158397 -0.01141004
v 0.123438 -0.1158397 -0.006480153
v 0.129365 -0.1419497 -0.01141004
v 0.129365 -0.1419497 -0.006480153
v 0.123993 -0.1463622 -0.01141004
v 0.123993 -0.1463622 -0.006480153
v 0.09953298 -0.1354741 -0.01141004
v 0.09953298 -0.1354741 -0.006480153
v 0.09274551 -0.1187761 -0.006480153
v 0.09274551 -0.1187761 -0.01141004
v 0.02723048 -0.02756026 -0.006480153
v 0.09274551 -0.1187761 -0.006480153
v 0.01911507 -0.02894738 -0.006480153
v 0.03507713 -0.03081649 -0.006480153
v 0.1083775 -0.1059371 -0.006480153
v 0.04503601 -0.02899564 -0.006480153
v 0.123438 -0.1158397 -0.006480153
v 0.09953298 -0.1354741 -0.006480153
v 0.129365 -0.1419497 -0.006480153
v 0.123993 -0.1463622 -0.006480153
v 0.03507713 -0.03081649 -0.006480153
v 0.04503601 -0.02899564 -0.01141004
v 0.04503601 -0.02899564 -0.006480153
v 0.03370672 -0.03170669 -0.01141004
v 0.02723048 -0.02756026 -0.006480153
v 0.03370672 -0.03170669 -0.01141004
v 0.03507713 -0.03081649 -0.006480153
v 0.02594781 -0.02804304 -0.01141004
v 0.01911507 -0.02894738 -0.006480153
v 0.02594781 -0.02804304 -0.01141004
v 0.02723048 -0.02756026 -0.006480153
v 0.01885874 -0.02863528 -0.01141004
v 0.09724598 -0.1233666 -0.001881153
v 0.09414598 -0.1116665 -0.001881153
v 0.101146 -0.1201665 -0.001881153
v 0.01887432 -0.02786605 -0.001881153
v 0.09606586 -0.1068622 -0.001881153
v 0.02601106 -0.0216813 -0.001881153
v 0.0332696 -0.01547304 -0.001881153
v 0.101121 -0.1059665 -0.001881153
v 0.111946 -0.1112666 -0.001881153
v 0.108096 -0.1144416 -0.001881153
v 0.0332696 -0.01547304 -0.001881153
v 0.111946 -0.1112666 -0.006480158
v 0.111946 -0.1112666 -0.001881153
v 0.03318035 -0.01536439 -0.006480158
v 0.111946 -0.1112666 -0.001881153
v 0.111946 -0.1112666 -0.006480158
v 0.108096 -0.1144416 -0.001881153
v 0.108096 -0.1144416 -0.006480158
v 0.108096 -0.1144416 -0.001881153
v 0.108096 -0.1144416 -0.006480158
v 0.101121 -0.1059666 -0.006480158
v 0.101121 -0.1059665 -0.001881153
v 0.09606586 -0.1068622 -0.001881153
v 0.09606586 -0.1068623 -0.006480158
v 0.09414598 -0.1116665 -0.001881153
v 0.09414598 -0.1116666 -0.006480158
v 0.101146 -0.1201665 -0.001881153
v 0.101146 -0.1201666 -0.006480158
v 0.101146 -0.1201665 -0.001881153
v 0.101146 -0.1201666 -0.006480158
v 0.09724599 -0.1233666 -0.006480158
v 0.09724598 -0.1233666 -0.001881153
v 0.09724599 -0.1233666 -0.006480158
v 0.101146 -0.1201666 -0.006480158
v 0.09414598 -0.1116666 -0.006480158
v 0.01878512 -0.02775735 -0.006480158
v 0.09606586 -0.1068623 -0.006480158
v 0.02592187 -0.02157262 -0.006480158
v 0.03318035 -0.01536439 -0.006480158
v 0.101121 -0.1059666 -0.006480158
v 0.111946 -0.1112666 -0.006480158
v 0.108096 -0.1144416 -0.006480158
v 0.01887432 -0.02786605 -0.001881153
v 0.09724598 -0.1233666 -0.001881153
v 0.09724599 -0.1233666 -0.006480158
v 0.01878512 -0.02775735 -0.006480158
v 0.02601106 -0.0216813 -0.001881153
v 0.03318035 -0.01536439 -0.006480158
v 0.0332696 -0.01547304 -0.001881153
v 0.02592187 -0.02157262 -0.006480158
v 0.01887432 -0.02786605 -0.001881153
v 0.01878512 -0.02775735 -0.006480158
v 0.1117735 -0.1113797 -0.01174915
v 0.09709049 -0.1234386 -0.01174915
v 0.03985212 -0.02378001 -0.01174915
v 0.02487444 -0.03551415 -0.01174915
v 0.02487444 -0.03551415 -0.01174915
v 0.09709049 -0.1234386 -0.01174915
v 0.09709049 -0.1234386 -0.01333435
v 0.02456992 -0.03514339 -0.01333435
v 0.09709049 -0.1234386 -0.01174915
v 0.1117735 -0.1113797 -0.01174915
v 0.1117735 -0.1113796 -0.01333435
v 0.09709049 -0.1234386 -0.01333435
v 0.1117735 -0.1113796 -0.01333435
v 0.1117735 -0.1113797 -0.01174915
v 0.03989743 -0.02383508 -0.01333435
v 0.03985212 -0.02378001 -0.01174915
v 0.03989743 -0.02383508 -0.01333435
v 0.09709049 -0.1234386 -0.01333435
v 0.1117735 -0.1113796 -0.01333435
v 0.02456992 -0.03514339 -0.01333435
v 0.02487444 -0.03551415 -0.01174915
v 0.03989743 -0.02383508 -0.01333435
v 0.03985212 -0.02378001 -0.01174915
v 0.02456992 -0.03514339 -0.01333435
vt 0.6004478 0.4342512
vt 0.6004478 0.4302979
vt 0.5199099 0.4302979
vt 0.5199099 0.4342512
vt 0.3184204 0.4006504
vt 0.3187491 0.4046817
vt 0.4127461 0.4006504
vt 0.4127461 0.4046817
vt 0.6620771 0.8402847
vt 0.6563126 0.8407537
vt 0.6683796 0.8432783
vt 0.716267 0.9142294
vt 0.6775876 0.8410954
vt 0.7290188 0.9037646
vt 0.7218485 0.9277942
vt 0.741266 0.9118267
vt 0.7461106 0.9330266
vt 0.741731 0.9366307
vt 0.05884022 0.4431184
vt 0.05884022 0.4471482
vt 0.07364447 0.4471482
vt 0.07364447 0.4431184
vt 0.09581409 0.4471482
vt 0.09581409 0.4431184
vt 0.1019761 0.4471482
vt 0.1019761 0.4431184
vt 0.1241446 0.4471482
vt 0.1241446 0.4431184
vt 0.1389507 0.4431184
vt 0.1389507 0.4471482
vt 0.08413728 0.5378104
vt 0.03095185 0.6121073
vt 0.09073208 0.5389238
vt 0.07776341 0.5404729
vt 0.01823972 0.6016815
vt 0.06966984 0.5390111
vt 0.005991847 0.609666
vt 0.02540935 0.6257111
vt 0.001108597 0.6309045
vt 0.005449597 0.6345094
vt 0.007906391 0.8401132
vt 0.008153652 0.8395897
vt 0.007900999 0.8395929
vt 0.008162354 0.8401869
vt 0.007864357 0.840548
vt 0.008162354 0.8401869
vt 0.007906391 0.8401132
vt 0.008115442 0.840624
vt 0.007851749 0.8409702
vt 0.008115442 0.840624
vt 0.007864357 0.840548
vt 0.008104477 0.8409888
vt 0.5760241 0.6819004
vt 0.5786603 0.6909686
vt 0.5730008 0.6844579
vt 0.639221 0.7548133
vt 0.57726 0.6947241
vt 0.6338265 0.7597048
vt 0.628176 0.7647457
vt 0.5733121 0.6955429
vt 0.5647074 0.6915897
vt 0.5676526 0.6890314
vt 0.528583 0.2508099
vt 0.4316949 0.2520514
vt 0.4316949 0.2508109
vt 0.5286929 0.2520504
vt 0.2072049 0.8357463
vt 0.2072049 0.8369861
vt 0.2033296 0.8357463
vt 0.2033296 0.8369861
vt 0.3736562 0.2700409
vt 0.3736562 0.2712041
vt 0.3650529 0.2712041
vt 0.3650529 0.2700409
vt 0.360213 0.2700409
vt 0.360213 0.2712041
vt 0.3553629 0.2700409
vt 0.3553629 0.2712041
vt 0.3467589 0.2700409
vt 0.3467589 0.2712041
vt 0.1239496 0.7484066
vt 0.1239496 0.7496471
vt 0.1199963 0.7496471
vt 0.1199963 0.7484066
vt 0.3194304 0.4431184
vt 0.3223771 0.4456759
vt 0.3167956 0.4521874
vt 0.2562363 0.5161897
vt 0.3181863 0.4559415
vt 0.2617116 0.5211456
vt 0.2672849 0.5261295
vt 0.3221446 0.4567609
vt 0.3306706 0.4528076
vt 0.3277254 0.4502494
vt 0.6497062 0.9952016
vt 0.7462081 0.9952016
vt 0.7462081 0.9964421
vt 0.6495963 0.9964421
vt 0.006884506 0.8403914
vt 0.006829511 0.8408857
vt 0.006910819 0.8408812
vt 0.006803197 0.8403959
vt 0.006858753 0.839907
vt 0.006777445 0.8399115
vt 0.6331163 0.4222046
vt 0.6217988 0.4126692
vt 0.576174 0.4896705
vt 0.5646187 0.4803829
vt 0.2878971 0.3958429
vt 0.1993224 0.3958429
vt 0.1993224 0.3970834
vt 0.2882706 0.3970834
vt 0.02784833 0.6406714
vt 0.04257607 0.6406714
vt 0.04257607 0.6394324
vt 0.02784833 0.6394324
vt 0.5999641 0.8966441
vt 0.5999641 0.8978839
vt 0.6881448 0.8966441
vt 0.6882002 0.8978839
vt 0.628826 0.7236018
vt 0.5832361 0.6466444
vt 0.5719193 0.6561776
vt 0.6406579 0.7147121
vt 0.007680605 0.8408898
vt 0.007748184 0.8399118
vt 0.00766794 0.8399131
vt 0.007764475 0.8408895
vn 0.7720391 0.6355751 0
vn 0.7720391 0.6355751 0
vn 0.7720391 0.6355751 0
vn 0.7720391 0.6355751 0
vn -0.7733896 -0.6339309 3.758579E-05
vn -0.7733896 -0.6339309 3.758579E-05
vn -0.7733896 -0.6339309 3.758579E-05
vn -0.7733896 -0.633931 3.758579E-05
vn 0 0 -1
vn 0 0 -1
vn 0 0 -1
vn 0 0 -1
vn 0 0 -1
vn 0 0 -1
vn 0 0 -1
vn 0 0 -1
vn 0 0 -1
vn 0 0 -1
vn 0.5493966 0.8355617 4.916176E-06
vn 0.5493966 0.8355617 4.916176E-06
vn 0.8218254 0.5697395 4.057179E-06
vn 0.821828 0.5697356 4.057165E-06
vn 0.9460554 -0.3240049 -1.149598E-06
vn 0.946053 -0.3240119 -1.149648E-06
vn 0.1340192 -0.9909787 -2.683659E-06
vn 0.1340192 -0.9909787 -2.683659E-06
vn -0.7185798 -0.6954445 -8.024622E-07
vn -0.7185798 -0.6954445 -8.024622E-07
vn -0.9263908 -0.3765634 -1.488671E-06
vn -0.9263908 -0.3765634 -1.488671E-06
vn 0 0 1
vn 0 0 1
vn 0 0 1
vn 0 0 1
vn 0 0 1
vn 0 0 1
vn 0 0 1
vn 0 0 1
vn 0 0 1
vn 0 0 1
vn -0.2078519 0.9763634 -0.0592629
vn -0.2078519 0.9763634 -0.0592629
vn -0.2078519 0.9763634 -0.0592629
vn -0.2078519 0.9763634 -0.05926289
vn 0.3944892 0.8896423 -0.2300325
vn 0.3944892 0.8896423 -0.2300325
vn 0.3944891 0.8896422 -0.2300325
vn 0.3944892 0.8896422 -0.2300325
vn -0.1290934 0.9916279 0.002984083
vn -0.1290934 0.9916279 0.002984083
vn -0.1290934 0.9916279 0.002984083
vn -0.1290934 0.9916279 0.002984083
vn 0 0 1
vn 0 0 1
vn 0 0 1
vn 2.973862E-08 2.905925E-08 1
vn 0 0 1
vn 0 0 1
vn -3.421405E-08 0 1
vn 0 0 1
vn 0 0 1
vn 0 0 1
vn 0.7727704 0.6346856 -5.177415E-07
vn 0.7727705 0.6346856 -5.177414E-07
vn 0.7727705 0.6346856 -5.177414E-07
vn 0.7727705 0.6346856 -5.177414E-07
vn 0.6362326 -0.7714972 8.1264E-07
vn 0.6362326 -0.7714972 8.1264E-07
vn 0.6362326 -0.7714973 8.126401E-07
vn 0.6362326 -0.7714973 8.126402E-07
vn -0.7721294 -0.6354654 2.011112E-06
vn -0.7721294 -0.6354653 2.011113E-06
vn -0.3460989 -0.938198 3.567306E-06
vn -0.3460981 -0.9381984 3.567308E-06
vn 0.6311172 -0.7756875 3.27083E-06
vn 0.6311185 -0.7756865 3.270826E-06
vn 0.9881081 0.1537607 -1.745114E-07
vn 0.9881077 0.1537633 -1.745206E-07
vn 0.7719299 0.6357076 -1.868005E-06
vn 0.7719299 0.6357077 -1.868005E-06
vn 0.6343193 -0.7730712 4.591123E-06
vn 0.6343193 -0.7730712 4.591123E-06
vn 0.6343193 -0.7730712 4.591123E-06
vn 0.6343193 -0.7730712 4.591123E-06
vn 0 0 -1
vn 0 0 -1
vn 0 0 -1
vn 0 0 -1
vn 0 0 -1
vn 0 0 -1
vn 0 0 -1
vn 0 0 -1
vn 0 0 -1
vn 0 0 -1
vn -0.7730247 -0.634376 6.926664E-07
vn -0.7730247 -0.634376 6.926664E-07
vn -0.7730247 -0.6343759 6.926664E-07
vn -0.7730247 -0.6343759 6.926664E-07
vn -0.649683 0.7595912 0.03055067
vn -0.6496829 0.7595912 0.03055067
vn -0.6496829 0.7595912 0.03055067
vn -0.6496829 0.7595912 0.03055067
vn -0.6545983 0.7553595 0.03054698
vn -0.6545982 0.7553595 0.03054698
vn 0 0 1
vn 0 0 1
vn 0 0 1
vn 0 0 1
vn -0.7727591 -0.6346995 -1.089314E-06
vn -0.7727591 -0.6346995 -1.089314E-06
vn -0.7727591 -0.6346995 -1.089314E-06
vn -0.7727591 -0.6346995 -1.089314E-06
vn 0.6346744 -0.7727796 -2.594348E-05
vn 0.6346744 -0.7727796 -2.594348E-05
vn 0.6346744 -0.7727796 -2.594348E-05
vn 0.6346744 -0.7727796 -2.594348E-05
vn 0.7728801 0.6345521 4.631336E-05
vn 0.7728801 0.6345521 4.631336E-05
vn 0.7728801 0.6345521 4.631336E-05
vn 0.7728801 0.6345521 4.631336E-05
vn 0 0 -1
vn 0 0 -1
vn 0 0 -1
vn 0 0 -1
vn -0.600303 0.7895122 0.1276982
vn -0.600303 0.7895122 0.1276982
vn -0.600303 0.7895122 0.1276982
vn -0.6003029 0.7895122 0.1276982
g frame-34-body-arm-0-lod2_0
f 3/3/3 2/2/2 1/1/1
f 1/1/1 4/4/4 3/3/3
f 7/7/7 6/6/6 5/5/5
f 6/6/6 7/7/7 8/8/8
f 11/11/11 10/10/10 9/9/9
f 12/12/12 10/10/10 11/11/11
f 13/13/13 12/12/12 11/11/11
f 14/14/14 12/12/12 13/13/13
f 15/15/15 12/12/12 14/14/14
f 14/14/14 16/16/16 15/15/15
f 15/15/15 16/16/16 17/17/17
f 17/17/17 18/18/18 15/15/15
f 21/21/21 20/20/20 19/19/19
f 19/19/19 22/22/22 21/21/21
f 23/23/23 21/21/21 22/22/22
f 24/24/24 23/23/23 22/22/22
f 25/25/25 23/23/23 24/24/24
f 25/25/25 24/24/24 26/26/26
f 27/27/27 25/25/25 26/26/26
f 28/28/28 27/27/27 26/26/26
f 27/27/27 28/28/28 29/29/29
f 29/29/29 30/30/30 27/27/27
f 33/33/33 32/32/32 31/31/31
f 31/31/31 32/32/32 34/34/34
f 35/35/35 34/34/34 32/32/32
f 36/36/36 34/34/34 35/35/35
f 37/37/37 35/35/35 32/32/32
f 32/32/32 38/38/38 37/37/37
f 39/39/39 37/37/37 38/38/38
f 38/38/38 40/40/40 39/39/39
f 43/43/43 42/42/42 41/41/41
f 44/44/44 41/41/41 42/42/42
f 47/47/47 46/46/46 45/45/45
f 48/48/48 45/45/45 46/46/46
f 51/51/51 50/50/50 49/49/49
f 50/50/50 52/52/52 49/49/49
f 55/55/55 54/54/54 53/53/53
f 54/54/54 56/56/56 53/53/53
f 54/54/54 57/57/57 56/56/56
f 57/57/57 58/58/58 56/56/56
f 57/57/57 59/59/59 58/58/58
f 59/59/59 57/57/57 60/60/60
f 61/61/61 59/59/59 60/60/60
f 60/60/60 62/62/62 61/61/61
f 65/65/65 64/64/64 63/63/63
f 64/64/64 66/66/66 63/63/63
f 69/69/69 68/68/68 67/67/67
f 70/70/70 68/68/68 69/69/69
f 73/73/73 72/72/72 71/71/71
f 71/71/71 74/74/74 73/73/73
f 75/75/75 73/73/73 74/74/74
f 76/76/76 73/73/73 75/75/75
f 77/77/77 76/76/76 75/75/75
f 78/78/78 76/76/76 77/77/77
f 79/79/79 78/78/78 77/77/77
f 78/78/78 79/79/79 80/80/80
f 83/83/83 82/82/82 81/81/81
f 81/81/81 84/84/84 83/83/83
f 87/87/87 86/86/86 85/85/85
f 88/88/88 87/87/87 85/85/85
f 89/89/89 87/87/87 88/88/88
f 88/88/88 90/90/90 89/89/89
f 90/90/90 91/91/91 89/89/89
f 92/92/92 89/89/89 91/91/91
f 93/93/93 92/92/92 91/91/91
f 94/94/94 92/92/92 93/93/93
f 97/97/97 96/96/96 95/95/95
f 95/95/95 98/98/98 97/97/97
f 101/101/101 100/100/100 99/99/99
f 100/100/100 102/102/102 99/99/99
f 103/103/103 99/99/99 102/102/102
f 102/102/102 104/104/104 103/103/103
f 107/107/107 106/106/106 105/105/105
f 106/106/106 107/107/107 108/108/108
f 111/111/111 110/110/110 109/109/109
f 109/109/109 112/112/112 111/111/111
f 115/115/115 114/114/114 113/113/113
f 113/113/113 116/116/116 115/115/115
f 119/119/119 118/118/118 117/117/117
f 118/118/118 119/119/119 120/120/120
f 123/123/123 122/122/122 121/121/121
f 122/122/122 124/124/124 121/121/121
f 127/127/127 126/126/126 125/125/125
f 126/126/126 128/128/128 125/125/125
