g frame-34-canopy-t-arm-3-lod2
v 0.03618816 0.0338824 0.01503638
v 0.02615696 0.03869447 0.002499907
v 0.09675381 0.1073036 0.003026327
v 0.05089938 0.03453254 0.0002391987
v 0.03618816 0.0338824 0.01503638
v 0.09675381 0.1073036 0.003026327
v 0.0929784 0.1406516 -0.008922152
v 0.1246693 0.1531484 -0.008922152
v 0.1196453 0.1482086 0.002762838
v 0.09672531 0.1375571 0.002878837
v 0.08893011 0.1153959 0.002992247
v 0.0929784 0.1406516 -0.008922152
v 0.08683362 0.1179336 -0.008922152
v 0.02052414 0.03704725 -0.008922152
v 0.02615696 0.03869447 0.002499907
v 0.1318025 0.1384235 0.002729947
v 0.1196453 0.1482086 0.002762838
v 0.1246693 0.1531484 -0.008922152
v 0.1358455 0.1439386 -0.008922152
v 0.1358455 0.1439386 -0.008922152
v 0.1296757 0.1104424 -0.008922152
v 0.1318025 0.1384235 0.002729947
v 0.1256748 0.1132825 0.002884748
v 0.1296757 0.1104424 -0.008922152
v 0.1059539 0.1015381 0.002882337
v 0.1084861 0.09994429 -0.008922152
v 0.05089938 0.03453254 0.0002391987
v 0.05284768 0.03219411 -0.008922152
v 0.09675381 0.1073036 0.003026327
v 0.02615696 0.03869447 0.002499907
v 0.08893011 0.1153959 0.002992247
v 0.09730186 0.1180429 0.002984837
v 0.09579968 0.127099 0.002984837
v 0.1012517 0.1132301 0.002984837
v 0.09672531 0.1375571 0.002878837
v 0.09903975 0.1356879 0.002984837
v 0.1068316 0.1405414 0.002984837
v 0.1196453 0.1482086 0.002762838
v 0.1160067 0.1408348 0.002984837
v 0.1214976 0.1378998 0.002984837
v 0.1318025 0.1384235 0.002729947
v 0.1254473 0.133087 0.002984837
v 0.1269496 0.124031 0.002984837
v 0.1256748 0.1132825 0.002884748
v 0.1237095 0.115442 0.002984837
v 0.1159176 0.1105886 0.002984837
v 0.1059539 0.1015381 0.002882337
v 0.1067425 0.1102952 0.002984837
v 0.05089938 0.03453254 0.0002391987
vt 0.55387 0.9017905
vt 0.5553936 0.8750228
vt 0.3940351 0.9015709
vt 0.2537465 0.8600059
vt 0.2669929 0.8280089
vt 0.1103806 0.8600059
vt 0.05672484 0.3477657
vt 0.0006053471 0.3477657
vt 0.0123091 0.3680741
vt 0.0563371 0.3680741
vt 0.09726535 0.3680741
vt 0.05672484 0.3477657
vt 0.09563635 0.3477657
vt 0.2696712 0.3477657
vt 0.2615773 0.3680741
vt 0.05361009 0.5330584
vt 0.05361009 0.5080218
vt 0.0310531 0.5080218
vt 0.0310531 0.5330584
vt 0.4941946 0.9599381
vt 0.5503141 0.9599381
vt 0.5052789 0.9407149
vt 0.5503141 0.9407149
vt 0.5503141 0.9599381
vt 0.5903888 0.9407149
vt 0.5894589 0.9599381
vt 0.73382 0.9407149
vt 0.7354153 0.9599381
vt 0.7144569 0.4398844
vt 0.73406 0.6022487
vt 0.7330606 0.4375587
vt 0.7249996 0.4253891
vt 0.7363945 0.4152542
vt 0.714884 0.4274824
vt 0.7460828 0.4007389
vt 0.741161 0.4007783
vt 0.7362003 0.3863413
vt 0.7276351 0.3629899
vt 0.7246898 0.3763609
vt 0.7144963 0.374424
vt 0.7017458 0.3629899
vt 0.7043813 0.3765548
vt 0.6929472 0.3866709
vt 0.6832973 0.4018249
vt 0.6881034 0.4010884
vt 0.6931607 0.4154867
vt 0.6965513 0.4375587
vt 0.7047293 0.425466
vt 0.6962672 0.5817242
vn -0.5376031 0.548263 0.6406173
vn -0.5376031 0.5482631 0.6406173
vn -0.5376031 0.548263 0.6406173
vn 0.6487513 -0.4327651 0.6259682
vn 0.6487514 -0.4327651 0.6259682
vn 0.6487513 -0.4327651 0.6259682
vn -0.6995518 0.627414 0.3420219
vn -0.3570706 0.9055017 0.2292757
vn -0.3651924 0.8955384 0.2542543
vn -0.6811999 0.6255571 0.3803221
vn -0.8445461 0.4604703 0.2733296
vn -0.6995518 0.627414 0.3420219
vn -0.8679383 0.429942 0.2486622
vn -0.7452631 0.6096128 0.2701019
vn -0.7452631 0.6096128 0.2701019
vn 0.5435235 0.6667823 0.5098859
vn 0.5435235 0.6667823 0.5098858
vn 0.5435235 0.6667823 0.5098858
vn 0.5435235 0.6667823 0.5098859
vn 0.9528475 -0.1755089 0.2475448
vn 0.7536158 -0.5589184 0.3459386
vn 0.944591 -0.1847753 0.2713041
vn 0.741819 -0.5499991 0.3836739
vn 0.7536158 -0.5589184 0.3459386
vn 0.6114936 -0.7434049 0.2709698
vn 0.592167 -0.7673475 0.2459999
vn 0.7406483 -0.613756 0.2733933
vn 0.7406483 -0.613756 0.2733933
vn -0.001329006 -0.009722608 0.9999518
vn -0.005954517 -0.001545569 0.9999812
vn -0.003465823 0.001270485 0.9999932
vn 0.001172625 0.002083131 0.9999971
vn -0.01647773 0.009711113 0.9998171
vn 0.00356592 0.004294235 0.9999845
vn -0.02727997 0.02577065 0.9992956
vn -0.02747488 0.02265406 0.9993657
vn -0.0310873 0.07857566 0.9964233
vn 0.01004128 0.02988731 0.9995029
vn 0.005019699 0.02761764 0.999606
vn 0.02076989 0.02358716 0.999506
vn 0.03101319 0.01616697 0.9993882
vn 0.03031013 0.01164254 0.9994728
vn 0.105292 -0.01916332 0.9942567
vn 0.03033544 -0.02376863 0.9992571
vn 0.02786912 -0.02095674 0.9993919
vn 0.01552909 -0.02825626 0.9994801
vn 0.00119229 -0.02256545 0.9997446
vn 0.003297463 -0.008390036 0.9999593
vn -0.005983156 -0.03450635 0.9993865
g frame-34-canopy-t-arm-3-lod2_0
f 3/3/3 2/2/2 1/1/1
f 6/6/6 5/5/5 4/4/4
f 9/9/9 8/8/8 7/7/7
f 9/9/9 7/7/7 10/10/10
f 10/10/10 12/12/12 11/11/11
f 11/11/11 12/12/12 13/13/13
f 11/11/11 13/13/13 14/14/14
f 14/14/14 15/15/15 11/11/11
f 18/18/18 17/17/17 16/16/16
f 16/16/16 19/19/19 18/18/18
f 22/22/22 21/21/21 20/20/20
f 23/23/23 21/21/21 22/22/22
f 25/25/25 24/24/24 23/23/23
f 25/25/25 26/26/26 24/24/24
f 26/26/26 25/25/25 27/27/27
f 27/27/27 28/28/28 26/26/26
f 31/31/31 30/30/30 29/29/29
f 31/31/31 29/29/29 32/32/32
f 33/33/33 31/31/31 32/32/32
f 32/32/32 29/29/29 34/34/34
f 35/35/35 31/31/31 33/33/33
f 36/36/36 35/35/35 33/33/33
f 37/37/37 35/35/35 36/36/36
f 38/38/38 35/35/35 37/37/37
f 39/39/39 38/38/38 37/37/37
f 40/40/40 38/38/38 39/39/39
f 41/41/41 38/38/38 40/40/40
f 42/42/42 41/41/41 40/40/40
f 43/43/43 41/41/41 42/42/42
f 44/44/44 41/41/41 43/43/43
f 45/45/45 44/44/44 43/43/43
f 46/46/46 44/44/44 45/45/45
f 47/47/47 44/44/44 46/46/46
f 48/48/48 47/47/47 46/46/46
f 29/29/29 47/47/47 48/48/48
f 34/34/34 29/29/29 48/48/48
f 29/29/29 49/49/49 47/47/47
