g frame-34-canopy-b-arm-2-lod2
v -0.1069937 0.1457761 -0.01436322
v -0.1098865 0.1451187 -0.01521133
v -0.1074967 0.1412406 -0.01339135
v -0.03137552 0.03069279 -0.01714782
v -0.02711129 0.02876079 -0.01612575
v -0.0224072 0.03061369 -0.01846965
v -0.01923347 0.03245419 -0.02276098
v -0.0224072 0.03061369 -0.01846965
v -0.01837614 0.03167863 -0.02014205
v -0.03137552 0.03069279 -0.01714782
v -0.0224072 0.03061369 -0.01846965
v -0.01923347 0.03245419 -0.02276098
v -0.01923347 0.03245419 -0.02276098
v -0.01837614 0.03167863 -0.02014205
v -0.01509911 0.03476145 -0.02161405
v -0.1045808 0.1159584 -0.01683055
v -0.0348516 0.03081529 -0.01067888
v -0.03137552 0.03069279 -0.01714782
v -0.03498147 0.03039272 -0.008950253
v -0.0918244 0.0999445 -0.008950253
v -0.1043899 0.1375249 -0.01678985
v -0.1092462 0.1366806 -0.01591958
v -0.1045808 0.1159584 -0.01683055
v -0.08338251 0.133482 -0.01681555
v -0.1026458 0.1417635 -0.0160943
v -0.02485082 0.03762454 -0.02220478
v -0.02363953 0.03332331 -0.02096851
v -0.03137552 0.03069279 -0.01714782
v -0.01923347 0.03245419 -0.02276098
v -0.02138196 0.03996157 -0.02231437
v -0.01800579 0.03823312 -0.02138215
v -0.01077579 0.04149179 -0.01685272
v -0.01923347 0.03245419 -0.02276098
v -0.01509911 0.03476145 -0.02161405
v -0.1130141 0.1104426 -0.008950253
v -0.0918244 0.0999445 -0.008950253
v -0.1045808 0.1159584 -0.01683055
v -0.1092462 0.1366806 -0.01591958
v -0.1116201 0.1388459 -0.01437985
v -0.1191479 0.1439384 -0.008950253
v -0.1117774 0.1429203 -0.01482828
v -0.1098865 0.1451187 -0.01521133
v -0.1080076 0.1531486 -0.008950253
v -0.1069937 0.1457761 -0.01436322
v -0.1041873 0.1446042 -0.01441513
v -0.07631671 0.1406517 -0.008950253
v -0.1026458 0.1417635 -0.0160943
v -0.08338251 0.133482 -0.01681555
v -0.07017191 0.1179338 -0.008950253
v -0.08338251 0.133482 -0.01681555
v -0.01077579 0.04149179 -0.01685272
v -0.007823953 0.04179759 -0.009411533
v -0.07017191 0.1179338 -0.008950253
v -0.02363953 0.03332331 -0.02096851
v -0.01923347 0.03245419 -0.02276098
v -0.02090753 0.03613585 -0.01856934
v -0.01800579 0.03823312 -0.02138215
v -0.02138196 0.03996157 -0.02231437
v -0.02485082 0.03762454 -0.02220478
v -0.02363953 0.03332331 -0.02096851
v -0.1041873 0.1446042 -0.01441513
v -0.1069937 0.1457761 -0.01436322
v -0.1074967 0.1412406 -0.01339135
v -0.1026458 0.1417635 -0.0160943
v -0.1043899 0.1375249 -0.01678985
v -0.1092462 0.1366806 -0.01591958
v -0.1116201 0.1388459 -0.01437985
v -0.1117774 0.1429203 -0.01482828
v -0.1098865 0.1451187 -0.01521133
v -0.0348516 0.03081529 -0.01067888
v -0.0289552 0.02818689 -0.01238645
v -0.03137552 0.03069279 -0.01714782
v -0.02711129 0.02876079 -0.01612575
v -0.03096909 0.02780298 -0.008950253
v -0.0348516 0.03081529 -0.01067888
v -0.03498147 0.03039272 -0.008950253
v -0.0289552 0.02818689 -0.01238645
vt 0.05088872 0.7055498
vt 0.05460909 0.7067126
vt 0.03296158 0.7039012
vt 0.3596196 0.3856723
vt 0.3597367 0.385553
vt 0.3596817 0.3853688
vt 0.3595532 0.3851921
vt 0.3596817 0.3853688
vt 0.3596597 0.3852063
vt 0.3596196 0.3856723
vt 0.3596817 0.3853688
vt 0.3595532 0.3851921
vt 0.3595532 0.3851921
vt 0.3596597 0.3852063
vt 0.3595938 0.3850583
vt 0.1103806 0.8734069
vt 0.2898256 0.8845691
vt 0.2939349 0.8734069
vt 0.2904466 0.8875908
vt 0.1437894 0.8865071
vt 0.08484697 0.6954954
vt 0.07864584 0.6926662
vt 0.06248409 0.7224702
vt 0.1067446 0.7224702
vt 0.09058285 0.693054
vt 0.08040927 0.9049194
vt 0.0765271 0.9112172
vt 0.06248409 0.9062561
vt 0.08023547 0.9158287
vt 0.08796684 0.9055588
vt 0.09141628 0.910888
vt 0.1067446 0.9137509
vt 0.08756053 0.916062
vt 0.09154546 0.91822
vt 0.5299936 0.6656014
vt 0.5270476 0.7042039
vt 0.5485194 0.6754459
vt 0.5721415 0.6496725
vt 0.5721998 0.6438977
vt 0.5698351 0.6266119
vt 0.577742 0.6401575
vt 0.5827801 0.6399826
vt 0.5934781 0.6266119
vt 0.5879933 0.6407967
vt 0.5915008 0.6443237
vt 0.6335521 0.6654469
vt 0.5913264 0.6502146
vt 0.6151036 0.6752133
vt 0.6366534 0.7038153
vt 0.6488094 0.3657552
vt 0.4569032 0.3657552
vt 0.454324 0.3786905
vt 0.6154786 0.3787781
vt 0.5365331 0.4694039
vt 0.5454922 0.4719881
vt 0.5536635 0.4655539
vt 0.5535343 0.4700498
vt 0.5594645 0.4714459
vt 0.5657045 0.4713296
vt 0.5699678 0.4692746
vt 0.04623797 0.7056274
vt 0.05088872 0.7055498
vt 0.03296158 0.7039012
vt 0.04131535 0.7081072
vt 0.0340426 0.7092707
vt 0.02616235 0.7077585
vt 0.02120072 0.705627
vt 0.01484447 0.7062863
vt 0.01031072 0.706557
vt 0.3597394 0.3858922
vt 0.3598232 0.3856686
vt 0.3596196 0.3856723
vt 0.3597367 0.385553
vt 0.3598975 0.3857847
vt 0.3597394 0.3858922
vt 0.3597952 0.3859222
vt 0.3598232 0.3856686
vn 0.1150163 -0.2203147 -0.9686241
vn 0.2526835 -0.2790632 -0.9264312
vn -0.09825388 0.1353983 -0.9859074
vn -0.1161284 -0.6524761 -0.7488586
vn -0.1161284 -0.6524761 -0.7488586
vn -0.1161284 -0.652476 -0.7488586
vn 0.1171034 -0.9411529 -0.3170455
vn 0.1171034 -0.9411529 -0.3170455
vn 0.1171034 -0.9411529 -0.3170455
vn -0.07244624 -0.8960966 -0.4379067
vn -0.07244625 -0.8960968 -0.4379067
vn -0.07244624 -0.8960966 -0.4379067
vn 0.5288063 -0.7509629 -0.3954979
vn 0.5288063 -0.7509629 -0.3954979
vn 0.5288063 -0.7509629 -0.3954979
vn -0.7679713 -0.6330553 -0.09726843
vn -0.7296072 -0.6185899 -0.2915817
vn -0.7061605 -0.6049088 -0.3679984
vn -0.7507463 -0.6291924 -0.2012387
vn -0.7738913 -0.6324819 -0.03254003
vn -0.05075785 0.05192286 -0.9973603
vn -0.1769725 0.003423653 -0.9842099
vn -0.04699976 0.009773508 -0.9988471
vn -0.001759034 0.04446803 -0.9990093
vn 0.02779734 0.1507201 -0.9881856
vn -0.2633277 -0.20288 -0.9431322
vn -0.3858132 -0.2131201 -0.8976235
vn -0.3471402 -0.2793854 -0.8952304
vn 0.09296914 0.2198927 -0.9710839
vn 0.2425748 0.2160902 -0.9457603
vn 0.4494489 0.2101342 -0.8682392
vn 0.373232 0.3124678 -0.8735341
vn 0.09296914 0.2198927 -0.9710839
vn -0.1397653 0.6301296 -0.7638078
vn -0.4960481 -0.3634991 -0.788546
vn -0.2982855 -0.602069 -0.7406339
vn -0.5131202 -0.3408782 -0.7877243
vn -0.6192048 -0.1173112 -0.7764171
vn -0.6262974 -0.1146983 -0.7711004
vn -0.6167356 0.1847589 -0.7651806
vn -0.6036438 0.1503283 -0.7829531
vn -0.3427571 0.5672953 -0.7487948
vn -0.06317956 0.6398314 -0.7659138
vn 0.1701578 0.5982916 -0.7830028
vn 0.2350158 0.5932224 -0.7699707
vn 0.4527238 0.4156227 -0.7888592
vn 0.234548 0.5899789 -0.7726009
vn 0.4321495 0.4385462 -0.7879874
vn 0.647661 0.1751808 -0.7415167
vn 0.7719571 0.6284811 -0.09536106
vn 0.7438276 0.5872231 -0.3192012
vn 0.7465795 0.5905218 -0.3064359
vn 0.7727129 0.6330559 -0.04642325
vn 0.313945 0.4209778 -0.851009
vn -0.4706657 0.5611597 -0.6808624
vn -0.08553667 -0.007042562 -0.9963102
vn -0.5390328 -0.3064416 -0.7845618
vn 0.1507666 -0.6819241 -0.7157156
vn 0.5491998 -0.3723199 -0.7481694
vn 0.313945 0.4209778 -0.851009
vn -0.327862 0.03524154 -0.9440681
vn 0.1150163 -0.2203147 -0.9686241
vn -0.09825388 0.1353983 -0.9859074
vn -0.4897646 0.2858178 -0.823674
vn -0.3698431 0.4394684 -0.8185864
vn -0.1695188 0.5268236 -0.8328987
vn 0.08168845 0.2568498 -0.9629928
vn 0.2333295 -0.2163703 -0.9480197
vn 0.2526835 -0.2790632 -0.9264312
vn -0.4103322 -0.8762565 -0.2525905
vn -0.4103322 -0.8762565 -0.2525905
vn -0.4103322 -0.8762565 -0.2525905
vn -0.4103322 -0.8762565 -0.2525905
vn -0.4838271 -0.8115575 -0.327545
vn -0.4838271 -0.8115575 -0.327545
vn -0.4838271 -0.8115575 -0.327545
vn -0.4838271 -0.8115575 -0.327545
g frame-34-canopy-b-arm-2-lod2_0
f 3/3/3 2/2/2 1/1/1
f 6/6/6 5/5/5 4/4/4
f 9/9/9 8/8/8 7/7/7
f 12/12/12 11/11/11 10/10/10
f 15/15/15 14/14/14 13/13/13
f 18/18/18 17/17/17 16/16/16
f 16/16/16 17/17/17 19/19/19
f 20/20/20 16/16/16 19/19/19
f 23/23/23 22/22/22 21/21/21
f 24/24/24 23/23/23 21/21/21
f 21/21/21 25/25/25 24/24/24
f 23/23/23 24/24/24 26/26/26
f 26/26/26 27/27/27 23/23/23
f 27/27/27 28/28/28 23/23/23
f 29/29/29 28/28/28 27/27/27
f 30/30/30 26/26/26 24/24/24
f 24/24/24 31/31/31 30/30/30
f 32/32/32 31/31/31 24/24/24
f 32/32/32 33/33/33 31/31/31
f 34/34/34 33/33/33 32/32/32
f 37/37/37 36/36/36 35/35/35
f 38/38/38 37/37/37 35/35/35
f 39/39/39 38/38/38 35/35/35
f 40/40/40 39/39/39 35/35/35
f 41/41/41 39/39/39 40/40/40
f 42/42/42 41/41/41 40/40/40
f 42/42/42 40/40/40 43/43/43
f 44/44/44 42/42/42 43/43/43
f 45/45/45 44/44/44 43/43/43
f 46/46/46 45/45/45 43/43/43
f 47/47/47 45/45/45 46/46/46
f 48/48/48 47/47/47 46/46/46
f 48/48/48 46/46/46 49/49/49
f 52/52/52 51/51/51 50/50/50
f 52/52/52 50/50/50 53/53/53
f 56/56/56 55/55/55 54/54/54
f 56/56/56 57/57/57 55/55/55
f 56/56/56 58/58/58 57/57/57
f 56/56/56 59/59/59 58/58/58
f 56/56/56 60/60/60 59/59/59
f 63/63/63 62/62/62 61/61/61
f 63/63/63 61/61/61 64/64/64
f 63/63/63 64/64/64 65/65/65
f 63/63/63 65/65/65 66/66/66
f 63/63/63 66/66/66 67/67/67
f 63/63/63 67/67/67 68/68/68
f 63/63/63 68/68/68 69/69/69
f 72/72/72 71/71/71 70/70/70
f 73/73/73 71/71/71 72/72/72
f 76/76/76 75/75/75 74/74/74
f 75/75/75 77/77/77 74/74/74
